<?xml version="1.0" standalone="yes"?>
<svg
	xmlns:dc="http://purl.org/dc/elements/1.1/"
	xmlns:cc="http://creativecommons.org/ns#"
	xmlns:rdf="http://www.w3.org/1999/02/22-rdf-syntax-ns#"
	xmlns:svg="http://www.w3.org/2000/svg"
	xmlns:xlink="http://www.w3.org/1999/xlink"
	xmlns="http://www.w3.org/2000/svg"
	width="102"
	height="102"
>
<style type="text/css">
<![CDATA[
.pentacle {stroke-width:0; fill:#390;}
.symbol {stroke-width:0; fill:#fff}
.outer {stroke-width:0; fill:#fff;}
.main {fill:#000}
.char {fill:#fff}
.q {fill:#390}
]]>
</style><rect  x="0" y="0" width="102" height="102" class="main" />
<g transform="translate(1,1)" class="main"><path d=" M  53.611712554211 4.6435723141058 
 L  52.11749975294 0.044858174595277 
 A 50,50 0 0,1  96.855819746257,32.549150281253 
 L  92.020445548491 32.549150281253 
 A 45.5,45.5 0 0,0  53.611712554211,4.6435723141058 
" class="outer" /><path d=" M  94.252606664588 39.419035800588 
 L  98.164506564743 36.576874157826 
 A 50,50 0 0,1  81.075988926865,89.169923566652 
 L  79.581776125593 84.571209427142 
 A 45.5,45.5 0 0,0  94.252606664588,39.419035800588 
" class="outer" /><path d=" M  73.737902455284 88.817032176912 
 L  77.649802355439 91.659193819674 
 A 50,50 0 0,1  22.350197644561,91.659193819674 
 L  26.262097544716 88.817032176912 
 A 45.5,45.5 0 0,0  73.737902455284,88.817032176912 
" class="outer" /><path d=" M  20.418223874407 84.571209427142 
 L  18.924011073135 89.169923566652 
 A 50,50 0 0,1  1.8354934352572,36.576874157826 
 L  5.7473933354117 39.419035800588 
 A 45.5,45.5 0 0,0  20.418223874407,84.571209427142 
" class="outer" /><path d=" M  7.979554451509 32.549150281253 
 L  3.1441802537434 32.549150281253 
 A 50,50 0 0,1  47.88250024706,0.044858174595298 
 L  46.388287445789 4.6435723141058 
 A 45.5,45.5 0 0,0  7.979554451509,32.549150281253 
" class="outer" /><path d="M  97.552825814758 34.549150281253 
 L  59.208099243548 34.549150281253 
 A 4,4 0 0,1  59.208099243548 37.549150281253 
 L  88.319775203232 37.549150281253 
 L  68.983186938399 51.952105968433 
 L  69.864864816838 54.665631459995 
" class="pentacle" />
<path d="M  79.389262614624 90.450849718747 
 L  65.961600984249 49.124756576184 
 L  63.108431435364 50.051807559309 
 L  73.682923516853 82.596747752498 
 L  54.009564269586 68.65731755688 
 L  51.701301616704 70.334368540005 
" class="pentacle" />
<path d="M  63.427661630375 41.326093142564 
 L  62.850297895654 39.549150281253 
 L  59.695911222939 39.549150281253 
 L  60.574492081489 42.253144125688 
 z" class="pentacle" />
<path d="M  20.610737385376 90.450849718747 
 L  53.418662639442 66.614496766047 
 L  51.655306882565 64.187445782922 
 L  26.317076483147 82.596747752498 
 L  33.494860060282 59.57875042062 
 L  31.1865974074 57.901699437495 
" class="pentacle" />
<path d="M  2.4471741852423 34.549150281253 
 L  33.515712901402 57.121764941524 
 L  35.27906865828 54.694713958399 
 L  11.680224796768 37.549150281253 
 L  35.789698258595 37.262675772815 
 L  36.671376137034 34.549150281253 
" class="pentacle" />
<path d="M  50 0 
 L  37.076372563155 39.774835402965 
 L  39.92954211204 40.701886386089 
 L  50 9.7082039324994 
 L  57.722690473138 32.549150281253 
 L  60.575860022024 32.549150281253 
" class="pentacle" />
<path d="M  35.878274876389 57.272580586567 
 A 2.5,2.5 0 0,1  40.307737135469,58.066220363412 
 A 2.5,2.5 0 0,1  42.815689818031,59.888354645519 
 A 2.5,2.5 0 0,1  45.323642500593,61.710488927626 
 A 2.5,2.5 0 0,1  47.447217895951,65.67790969435 
 L  46.702689909714 66.702664553891 
 L  45.165557620401 65.585872574535 
 L  45.910085606639 64.561117714994 
 A 0.6,0.6 0 1,0  44.939265213389,63.855775412243 
 A 0.95,0.95 0 0,1  43.402132924076,62.738983432887 
 A 0.6,0.6 0 0,0  42.431312530826,62.033641130136 
 A 0.95,0.95 0 0,1  40.894180241514,60.916849150781 
 A 0.6,0.6 0 0,0  39.923359848264,60.21150684803 
 A 0.95,0.95 0 0,1  38.386227558952,59.094714868674 
 A 0.6,0.6 0 0,0  37.415407165702,58.389372565923 
 L  36.670879179465 59.414127425465 
 L  35.133746890152 58.297335446109 
 L  35.878274876389 57.272580586567 
" class="symbol coil" /><path d="M  56.965754691814 59.58753882025 
L  52.920669719939 62.526465081713 
L  55.389367779568 65.924336458087 
L  59.434452751442 62.985410196625 
L  58.611553398233 61.8527864045 
L  55.699092218483 63.968813312753 
L  54.876192865274 62.836189520628 
L  57.788654045024 60.720162612375 
 z" class="symbol resistor" /><path d="M  56.965754691814 59.58753882025 
L  61.010839663689 56.648612558788 
L  63.479537723317 60.046483935163 
L  59.434452751442 62.985410196625 
L  58.611553398233 61.8527864045 
L  61.524014577983 59.736759496247 
L  60.701115224773 58.604135704122 
L  57.788654045024 60.720162612375 
 z" class="symbol resistor" /><path d=" M  59.680132363751 47.590757889843 
 L  60.112756155876 48.922237012656 
 L  67.721208286237 46.450101057656 
 L  67.288584494112 45.118621934843 
 z" class="symbol capacitor" /><path d=" M  59.247508571626 46.259278767029 
 L  58.814884779501 44.927799644216 
 L  66.423336909862 42.455663689216 
 L  66.855960701987 43.78714281203 
 z" class="symbol capacitor" /><path d=" M  39.383209650595 50.473494752255 
 L  37.92782781487 43.626461547118 
 L  41.256525621903 44.70802102743 
 L  41.689149414028 43.376541904617 
 L  34.080697283667 40.904405949618 
 L  33.648073491542 42.235885072431 
 L  36.976771298575 43.317444552743 
 L  31.774757520233 48.001358797255 
 z" class="symbol diode" /><path d=" M  42.5 36.049150281253 
 A 2,2 0 0,0  46.5,36.049150281253 
 A 2,2 0 1,0  42.5,36.049150281253 
 z" class="symbol switch" /><path d=" M  46.559281037942 29.591322129196 
 L  53.581587253734 35.48373668488 
 A 2,2 0 1,0  54.610047429232,34.25806557589 
 L  47.58774121344 28.365651020206 
 z" class="symbol switch" /><path class="char o" d="	M 40.763495833333,80.21521875 C 37.866530555555,80.21521875 35.293156944444,82.726954861111 35.293156944444,85.546872916666 C 35.293156944444,87.596321527777 36.911147222222,89.152674305555 39.022233333333,89.152674305555 C 41.919198611111,89.152674305555 44.523391666666,86.671757638888 44.523391666666,83.913475694444 C 44.523391666666,81.771571527777 42.951629166666,80.21521875 40.763495833333,80.21521875 M 40.409079166666,82.095165972222 C 41.564783333333,82.095165972222 42.412302777777,82.988913194444 42.412302777777,84.190845138888 C 42.412302777777,85.778013194444 40.979226388888,87.272727083333 39.4382875,87.272727083333 C 38.267173611111,87.272727083333 37.404245833333,86.394389583333 37.404245833333,85.19245625 C 37.404245833333,83.574471527777 38.837322222222,82.095165972222 40.409079166666,82.095165972222" /><path class="char q" d="	M 52.6569,80.406385416666 L 52.441168055555,81.500453472222 C 52.240847222222,81.099809027777 52.102161111111,80.945714583333 51.763154166666,80.714574305555 C 51.239236111111,80.375567361111 50.669086111111,80.206063194444 49.944844444444,80.206063194444 C 47.186563888888,80.206063194444 44.721055555555,82.717799305555 44.721055555555,85.506899305555 C 44.721055555555,87.664213194444 46.154133333333,89.14351875 48.249809722222,89.14351875 C 49.297648611111,89.14351875 50.314670833333,88.773692361111 51.054322222222,88.126497916666 L 50.376308333333,91.793936805555 L 52.425759722222,91.793936805555 L 54.536847222222,80.406385416666 L 52.6569,80.406385416666 M 49.852388888888,82.086010416666 C 51.054320833333,82.086010416666 51.855611111111,82.933529861111 51.855611111111,84.212509027777 C 51.855611111111,85.830495138888 50.453354166666,87.263571527777 48.866186111111,87.263571527777 C 47.618026388888,87.263571527777 46.832144444444,86.46228125 46.832144444444,85.198710416666 C 46.832144444444,83.503678472222 48.218993055555,82.086010416666 49.852388888888,82.086010416666" /><path class="char l" d="	M 53.937159722222,91.789240972222 L 55.986611111111,91.789240972222 L 58.0977,80.401689583333 L 56.048248611111,80.401689583333 L 53.937159722222,91.789240972222" /><path class="char t" d="	M 57.837470833333,91.783578472222 L 59.886922222222,91.783578472222 L 61.119673611111,85.111304861111 L 62.352426388888,85.111304861111 L 62.706843055555,83.246767361111 L 61.474090277777,83.246767361111 L 61.998009722222,80.396027083333 L 59.948559722222,80.396027083333 L 59.424638888888,83.246767361111 L 58.423027777777,83.246767361111 L 58.068611111111,85.111304861111 L 59.070223611111,85.111304861111 L 57.837470833333,91.783578472222" /></g></svg>