<?xml version="1.0" standalone="yes"?>
<svg
	xmlns:dc="http://purl.org/dc/elements/1.1/"
	xmlns:cc="http://creativecommons.org/ns#"
	xmlns:rdf="http://www.w3.org/1999/02/22-rdf-syntax-ns#"
	xmlns:svg="http://www.w3.org/2000/svg"
	xmlns:xlink="http://www.w3.org/1999/xlink"
	xmlns="http://www.w3.org/2000/svg"
	width="102"
	height="102"
>
<style type="text/css">
<![CDATA[
.pentacle {stroke-width:0; fill:#390;}
.symbol {stroke-width:0; fill:#fff}
.outer {stroke-width:0; fill:#fff;}
.main {fill:#000}
.char {fill:#fff}
.q {fill:#390}
]]>
</style><rect  x="0" y="0" width="102" height="102" class="main" />
<g transform="translate(1,1)" class="main"><path d=" M  53.611712554211 4.6435723141058 
 L  52.11749975294 0.044858174595277 
 A 50,50 0 0,1  96.855819746257,32.549150281253 
 L  92.020445548491 32.549150281253 
 A 45.5,45.5 0 0,0  53.611712554211,4.6435723141058 
" class="outer" /><path d=" M  94.252606664588 39.419035800588 
 L  98.164506564743 36.576874157826 
 A 50,50 0 0,1  81.075988926865,89.169923566652 
 L  79.581776125593 84.571209427142 
 A 45.5,45.5 0 0,0  94.252606664588,39.419035800588 
" class="outer" /><path d=" M  73.737902455284 88.817032176912 
 L  77.649802355439 91.659193819674 
 A 50,50 0 0,1  22.350197644561,91.659193819674 
 L  26.262097544716 88.817032176912 
 A 45.5,45.5 0 0,0  73.737902455284,88.817032176912 
" class="outer" /><path d=" M  20.418223874407 84.571209427142 
 L  18.924011073135 89.169923566652 
 A 50,50 0 0,1  1.8354934352572,36.576874157826 
 L  5.7473933354117 39.419035800588 
 A 45.5,45.5 0 0,0  20.418223874407,84.571209427142 
" class="outer" /><path d=" M  7.979554451509 32.549150281253 
 L  3.1441802537434 32.549150281253 
 A 50,50 0 0,1  47.88250024706,0.044858174595298 
 L  46.388287445789 4.6435723141058 
 A 45.5,45.5 0 0,0  7.979554451509,32.549150281253 
" class="outer" /><path d="M  97.552825814758 34.549150281253 
 L  59.208099243548 34.549150281253 
 A 4,4 0 0,1  59.208099243548 37.549150281253 
 L  88.319775203232 37.549150281253 
 L  68.983186938399 51.952105968433 
 L  69.864864816838 54.665631459995 
" class="pentacle" />
<path d="M  79.389262614624 90.450849718747 
 L  66.054306082562 49.410073531072 
 L  63.201136533676 50.337124514197 
 L  73.682923516853 82.596747752498 
 L  54.009564269586 68.65731755688 
 L  51.701301616704 70.334368540005 
" class="pentacle" />
<path d="M  63.334956532062 41.040776187675 
 L  62.850297895654 39.549150281253 
 L  59.695911222939 39.549150281253 
 L  60.481786983177 41.9678271708 
 z" class="pentacle" />
<path d="M  20.610737385376 90.450849718747 
 L  53.418662639442 66.614496766047 
 L  51.655306882565 64.187445782922 
 L  26.317076483147 82.596747752498 
 L  33.494860060282 59.57875042062 
 L  31.1865974074 57.901699437495 
" class="pentacle" />
<path d="M  2.4471741852423 34.549150281253 
 L  33.394360352246 57.03359715368 
 L  35.157716109123 54.606546170555 
 L  11.680224796768 37.549150281253 
 L  35.789698258595 37.262675772815 
 L  36.671376137034 34.549150281253 
" class="pentacle" />
<path d="M  50 0 
 L  37.107274262592 39.679729751335 
 L  39.960443811478 40.60678073446 
 L  50 9.7082039324994 
 L  57.722690473138 32.549150281253 
 L  60.575860022024 32.549150281253 
" class="pentacle" />
<path d="M  35.717736643747 57.238347265015 
 A 2.5,2.5 0 0,1  40.163804919292,58.094195901861 
 A 2.5,2.5 0 0,1  42.752659301292,59.975108709197 
 A 2.5,2.5 0 0,1  45.341513683292,61.856021516533 
 A 2.5,2.5 0 0,1  47.529384761621,65.820011948485 
 L  46.82404245887 66.790832341735 
 L  45.367811868995 65.732818887609 
 L  46.073154171746 64.761998494359 
 A 0.7,0.7 0 1,0  44.940530379621,63.939099141149 
 A 0.9,0.9 0 0,1  43.484299789746,62.881085687023 
 A 0.7,0.7 0 0,0  42.351675997621,62.058186333813 
 A 0.9,0.9 0 0,1  40.895445407747,61.000172879687 
 A 0.7,0.7 0 0,0  39.762821615622,60.177273526477 
 A 0.9,0.9 0 0,1  38.306591025747,59.119260072351 
 A 0.7,0.7 0 0,0  37.173967233622,58.296360719141 
 L  36.468624930871 59.267181112391 
 L  35.012394340996 58.209167658265 
 L  35.717736643747 57.238347265015 
" class="symbol coil" /><path d="M  56.789419116126 59.344833721938 
L  52.744334144252 62.2837599834 
L  55.565703355256 66.1670415564 
L  59.61078832713 63.228115294937 
L  58.670331923462 61.933688103938 
L  55.919674142587 63.932157961732 
L  54.97921773892 62.637730770732 
L  57.729875519794 60.639260912938 
 z" class="symbol resistor" /><path d="M  56.789419116126 59.344833721938 
L  60.834504088001 56.405907460475 
L  63.655873299005 60.289189033475 
L  59.61078832713 63.228115294937 
L  58.670331923462 61.933688103938 
L  61.420989704337 59.935218246143 
L  60.480533300669 58.640791055143 
L  57.729875519794 60.639260912938 
 z" class="symbol resistor" /><path d=" M  59.711034063188 47.685863541472 
 L  60.205461254188 49.207553967544 
 L  67.81391338455 46.735418012545 
 L  67.31948619355 45.213727586472 
 z" class="symbol capacitor" /><path d=" M  59.216606872189 46.1641731154 
 L  58.722179681189 44.642482689328 
 L  66.33063181155 42.170346734328 
 L  66.82505900255 43.6920371604 
 z" class="symbol capacitor" /><path d=" M  39.352307951157 50.568600403884 
 L  37.896926115433 43.721567198748 
 L  41.225623922466 44.80312667906 
 L  41.720051113466 43.281436252988 
 L  34.111598983105 40.809300297988 
 L  33.617171792105 42.33099072406 
 L  36.945869599138 43.412550204373 
 L  31.743855820796 48.096464448885 
 z" class="symbol diode" /><path d=" M  42.5 36.049150281253 
 A 2,2 0 0,0  46.5,36.049150281253 
 A 2,2 0 1,0  42.5,36.049150281253 
 z" class="symbol switch" /><path d=" M  46.559281037942 29.591322129196 
 L  53.581587253734 35.48373668488 
 A 2,2 0 1,0  54.610047429232,34.25806557589 
 L  47.58774121344 28.365651020206 
 z" class="symbol switch" /><path class="char o" d="	M 40.763495833333,80.21521875 C 37.866530555555,80.21521875 35.293156944444,82.726954861111 35.293156944444,85.546872916666 C 35.293156944444,87.596321527777 36.911147222222,89.152674305555 39.022233333333,89.152674305555 C 41.919198611111,89.152674305555 44.523391666666,86.671757638888 44.523391666666,83.913475694444 C 44.523391666666,81.771571527777 42.951629166666,80.21521875 40.763495833333,80.21521875 M 40.409079166666,82.095165972222 C 41.564783333333,82.095165972222 42.412302777777,82.988913194444 42.412302777777,84.190845138888 C 42.412302777777,85.778013194444 40.979226388888,87.272727083333 39.4382875,87.272727083333 C 38.267173611111,87.272727083333 37.404245833333,86.394389583333 37.404245833333,85.19245625 C 37.404245833333,83.574471527777 38.837322222222,82.095165972222 40.409079166666,82.095165972222" /><path class="char q" d="	M 52.6569,80.406385416666 L 52.441168055555,81.500453472222 C 52.240847222222,81.099809027777 52.102161111111,80.945714583333 51.763154166666,80.714574305555 C 51.239236111111,80.375567361111 50.669086111111,80.206063194444 49.944844444444,80.206063194444 C 47.186563888888,80.206063194444 44.721055555555,82.717799305555 44.721055555555,85.506899305555 C 44.721055555555,87.664213194444 46.154133333333,89.14351875 48.249809722222,89.14351875 C 49.297648611111,89.14351875 50.314670833333,88.773692361111 51.054322222222,88.126497916666 L 50.376308333333,91.793936805555 L 52.425759722222,91.793936805555 L 54.536847222222,80.406385416666 L 52.6569,80.406385416666 M 49.852388888888,82.086010416666 C 51.054320833333,82.086010416666 51.855611111111,82.933529861111 51.855611111111,84.212509027777 C 51.855611111111,85.830495138888 50.453354166666,87.263571527777 48.866186111111,87.263571527777 C 47.618026388888,87.263571527777 46.832144444444,86.46228125 46.832144444444,85.198710416666 C 46.832144444444,83.503678472222 48.218993055555,82.086010416666 49.852388888888,82.086010416666" /><path class="char l" d="	M 53.937159722222,91.789240972222 L 55.986611111111,91.789240972222 L 58.0977,80.401689583333 L 56.048248611111,80.401689583333 L 53.937159722222,91.789240972222" /><path class="char t" d="	M 57.837470833333,91.783578472222 L 59.886922222222,91.783578472222 L 61.119673611111,85.111304861111 L 62.352426388888,85.111304861111 L 62.706843055555,83.246767361111 L 61.474090277777,83.246767361111 L 61.998009722222,80.396027083333 L 59.948559722222,80.396027083333 L 59.424638888888,83.246767361111 L 58.423027777777,83.246767361111 L 58.068611111111,85.111304861111 L 59.070223611111,85.111304861111 L 57.837470833333,91.783578472222" /></g></svg>