<?xml version="1.0" standalone="yes"?>
<svg
	xmlns:dc="http://purl.org/dc/elements/1.1/"
	xmlns:cc="http://creativecommons.org/ns#"
	xmlns:rdf="http://www.w3.org/1999/02/22-rdf-syntax-ns#"
	xmlns:svg="http://www.w3.org/2000/svg"
	xmlns:xlink="http://www.w3.org/1999/xlink"
	xmlns="http://www.w3.org/2000/svg"
	width="102"
	height="102"
>
<style type="text/css">
<![CDATA[
.symbol {stroke-width:0; fill:#fff}
.outer {stroke-width:0; fill:#fff;}
.main {fill:#000}
.char {fill:#fff}
.pentacle, .q {stroke-width:0; fill:#390;}
]]><!--#fc0fc0-->
</style><rect  x="0" y="0" width="102" height="102" class="main" />
<g transform="translate(1,1)" class="main"><path d=" M  53.277725279395 3.6156651767775 
 L  52.11749975294 0.044858174595277 
 A 50,50 0 0,1  96.855819746257,32.549150281253 
 L  93.101251073417 32.549150281253 
 A 46.5,46.5 0 0,0  53.277725279395,3.6156651767775 
 z  M  95.126996701867 38.78375425244 
 L  98.164506564743 36.576874157826 
 A 50,50 0 0,1  81.075988926865,89.169923566652 
 L  79.915763400409 85.59911656447 
 A 46.5,46.5 0 0,0  95.126996701867,38.78375425244 
 z  M  74.612292492564 89.452313725059 
 L  77.649802355439 91.659193819674 
 A 50,50 0 0,1  22.350197644561,91.659193819674 
 L  25.387707507436 89.452313725059 
 A 46.5,46.5 0 0,0  74.612292492564,89.452313725059 
 z  M  20.084236599591 85.59911656447 
 L  18.924011073135 89.169923566652 
 A 50,50 0 0,1  1.8354934352572,36.576874157826 
 L  4.8730032981326 38.78375425244 
 A 46.5,46.5 0 0,0  20.084236599591,85.59911656447 
 z  M  6.8987489265834 32.549150281253 
 L  3.1441802537434 32.549150281253 
 A 50,50 0 0,1  47.88250024706,0.044858174595298 
 L  46.722274720605 3.6156651767775 
 A 46.5,46.5 0 0,0  6.8987489265834,32.549150281253 
 z " class="outer" /><path d=" M  97.552825814758 34.549150281253 
 L  59.208099243548 34.549150281253 
 A 4,4 0 0,1  59.208099243548 37.549150281253 
 L  88.319775203232 37.549150281253 
 L  68.983186938399 51.952105968433 
 L  69.864864816838 54.665631459995 
 z M  79.389262614624 90.450849718747 
 L  66.19336373003 49.838048963405 
 L  63.340194181145 50.76509994653 
 L  73.682923516853 82.596747752498 
 L  54.009564269586 68.65731755688 
 L  51.701301616704 70.334368540005 
 z  M  63.195898884593 40.612800755342 
 L  62.850297895654 39.549150281253 
 L  59.695911222939 39.549150281253 
 L  60.342729335708 41.539851738467 
 z M  20.610737385376 90.450849718747 
 L  52.609645645067 67.20228201834 
 L  50.84628988819 64.775231035215 
 L  26.317076483147 82.596747752498 
 L  33.494860060282 59.57875042062 
 L  31.1865974074 57.901699437495 
 z M  2.4471741852423 34.549150281253 
 L  33.475262051683 57.092375678909 
 L  35.238617808561 54.665324695784 
 L  11.680224796768 37.549150281253 
 L  35.789698258595 37.262675772815 
 L  36.671376137034 34.549150281253 
 z M  50 0 
 L  37.107274262592 39.679729751335 
 L  39.960443811478 40.60678073446 
 L  50 9.7082039324994 
 L  57.722690473138 32.549150281253 
 L  60.575860022024 32.549150281253 
 z " class="pentacle" />
<path d="M  36.43680518853 56.418764482066 
 A 2.4,2.4 0 0,1  40.724335390269,57.322691895736 
 A 2.4,2.4 0 0,1  43.313189772268,59.203604703072 
 A 2.4,2.4 0 0,1  45.902044154268,61.084517510408 
 A 2.4,2.4 0 0,1  48.08664990753,64.882872115077 
 L  46.743140759433 66.732053816506 
 L  45.448713568433 65.791597412838 
 L  46.79222271653 63.942415711409 
 A 0.8,0.8 0 1,0  45.49779552553,63.001959307741 
 A 0.8,0.8 0 0,1  44.20336833453,62.061502904073 
 A 0.8,0.8 0 0,0  42.90894114353,61.121046500406 
 A 0.8,0.8 0 0,1  41.61451395253,60.180590096738 
 A 0.8,0.8 0 0,0  40.32008676153,59.24013369307 
 A 0.8,0.8 0 0,1  39.02565957053,58.299677289402 
 A 0.8,0.8 0 0,0  37.73123237953,57.359220885734 
 L  36.387723231433 59.208402587162 
 L  35.093296040433 58.267946183494 
 L  36.43680518853 56.418764482066 
" class="symbol coil" /><path d=" M  56.377969439522 58.778521825875 
L  51.523867473272 62.30523333963 
L  55.168136037485 67.321138704755 
L  60.022238003735 63.794427191 
L  59.081781600067 62.5 
L  55.522106824817 65.086255110087 
L  53.75875106794 62.659204126962 
L  57.31842584319 60.072949016875 
 z  M  56.377969439522 58.778521825875 
L  61.232071405771 55.25181031212 
L  64.876339969985 60.267715677245 
L  60.022238003735 63.794427191 
L  59.081781600067 62.5 
L  62.641456375317 59.913744889913 
L  60.878100618439 57.486693906788 
L  57.31842584319 60.072949016875 
 z" class="symbol resistor" /><path d=" M  58.996541399309 48.075735614416 
 L  59.583673688621 49.882742995377 
 L  68.713816245054 46.916179849378 
 L  68.126683955742 45.109172468417 
 z  M  58.409409109996 46.268728233455 
 L  57.822276820684 44.461720852495 
 L  66.952419377117 41.495157706495 
 L  67.53955166643 43.302165087456 
 z" class="symbol capacitor" /><path d=" M  39.352307951157 50.568600403884 
 L  37.896926115433 43.721567198748 
 L  41.225623922466 44.80312667906 
 L  41.720051113466 43.281436252988 
 L  34.111598983105 40.809300297988 
 L  33.617171792105 42.33099072406 
 L  36.945869599138 43.412550204373 
 L  31.743855820796 48.096464448885 
 z" class="symbol diode" /><path d=" M  42.5 36.049150281253 
 A 2,2 0 0,0  46.5,36.049150281253 
 A 2,2 0 1,0  42.5,36.049150281253 
 z  M  46.559281037942 29.591322129196 
 L  53.581587253734 35.48373668488 
 A 2,2 0 1,0  54.610047429232,34.25806557589 
 L  47.58774121344 28.365651020206 
 z" class="symbol switch" /><path class="char o" d="	M 40.763495833333,80.46521875 C 37.866530555555,80.46521875 35.293156944444,82.976954861111 35.293156944444,85.796872916666 C 35.293156944444,87.846321527777 36.911147222222,89.402674305555 39.022233333333,89.402674305555 C 41.919198611111,89.402674305555 44.523391666666,86.921757638888 44.523391666666,84.163475694444 C 44.523391666666,82.021571527777 42.951629166666,80.46521875 40.763495833333,80.46521875 M 40.409079166666,82.345165972222 C 41.564783333333,82.345165972222 42.412302777777,83.238913194444 42.412302777777,84.440845138888 C 42.412302777777,86.028013194444 40.979226388888,87.522727083333 39.4382875,87.522727083333 C 38.267173611111,87.522727083333 37.404245833333,86.644389583333 37.404245833333,85.44245625 C 37.404245833333,83.824471527777 38.837322222222,82.345165972222 40.409079166666,82.345165972222" /><path class="char q" d="	M 52.6569,80.656385416666 L 52.441168055555,81.750453472222 C 52.240847222222,81.349809027777 52.102161111111,81.195714583333 51.763154166666,80.964574305555 C 51.239236111111,80.625567361111 50.669086111111,80.456063194444 49.944844444444,80.456063194444 C 47.186563888888,80.456063194444 44.721055555555,82.967799305555 44.721055555555,85.756899305555 C 44.721055555555,87.914213194444 46.154133333333,89.39351875 48.249809722222,89.39351875 C 49.297648611111,89.39351875 50.314670833333,89.023692361111 51.054322222222,88.376497916666 L 50.376308333333,92.043936805555 L 52.425759722222,92.043936805555 L 54.536847222222,80.656385416666 L 52.6569,80.656385416666 M 49.852388888888,82.336010416666 C 51.054320833333,82.336010416666 51.855611111111,83.183529861111 51.855611111111,84.462509027777 C 51.855611111111,86.080495138888 50.453354166666,87.513571527777 48.866186111111,87.513571527777 C 47.618026388888,87.513571527777 46.832144444444,86.71228125 46.832144444444,85.448710416666 C 46.832144444444,83.753678472222 48.218993055555,82.336010416666 49.852388888888,82.336010416666" /><path class="char l" d="	M 53.937159722222,92.039240972222 L 55.986611111111,92.039240972222 L 58.0977,80.651689583333 L 56.048248611111,80.651689583333 L 53.937159722222,92.039240972222" /><path class="char t" d="	M 57.837470833333,92.033578472222 L 59.886922222222,92.033578472222 L 61.119673611111,85.361304861111 L 62.352426388888,85.361304861111 L 62.706843055555,83.496767361111 L 61.474090277777,83.496767361111 L 61.998009722222,80.646027083333 L 59.948559722222,80.646027083333 L 59.424638888888,83.496767361111 L 58.423027777777,83.496767361111 L 58.068611111111,85.361304861111 L 59.070223611111,85.361304861111 L 57.837470833333,92.033578472222" /></g></svg>