<?xml version="1.0" standalone="yes"?>
<svg
	xmlns:dc="http://purl.org/dc/elements/1.1/"
	xmlns:cc="http://creativecommons.org/ns#"
	xmlns:rdf="http://www.w3.org/1999/02/22-rdf-syntax-ns#"
	xmlns:svg="http://www.w3.org/2000/svg"
	xmlns:xlink="http://www.w3.org/1999/xlink"
	xmlns="http://www.w3.org/2000/svg"
	width="102"
	height="102"
>
<style type="text/css">
<![CDATA[
.pentacle {stroke-width:0; fill:#390;}
.symbol {stroke-width:0; fill:#fff}
.outer {stroke-width:0; fill:#fff;}
.main {fill:#000}
.char {fill:#fff}
.q {fill:#390}
]]>
</style><rect  x="0" y="0" width="102" height="102" class="main" />
<g transform="translate(1,1)" class="main"><path d=" M  53.611712554211 4.6435723141058 
 L  52.11749975294 0.044858174595277 
 A 50,50 0 0,1  96.855819746257,32.549150281253 
 L  92.020445548491 32.549150281253 
 A 45.5,45.5 0 0,0  53.611712554211,4.6435723141058 
" class="outer" /><path d=" M  94.252606664588 39.419035800588 
 L  98.164506564743 36.576874157826 
 A 50,50 0 0,1  81.075988926865,89.169923566652 
 L  79.581776125593 84.571209427142 
 A 45.5,45.5 0 0,0  94.252606664588,39.419035800588 
" class="outer" /><path d=" M  73.737902455284 88.817032176912 
 L  77.649802355439 91.659193819674 
 A 50,50 0 0,1  22.350197644561,91.659193819674 
 L  26.262097544716 88.817032176912 
 A 45.5,45.5 0 0,0  73.737902455284,88.817032176912 
" class="outer" /><path d=" M  20.418223874407 84.571209427142 
 L  18.924011073135 89.169923566652 
 A 50,50 0 0,1  1.8354934352572,36.576874157826 
 L  5.7473933354117 39.419035800588 
 A 45.5,45.5 0 0,0  20.418223874407,84.571209427142 
" class="outer" /><path d=" M  7.979554451509 32.549150281253 
 L  3.1441802537434 32.549150281253 
 A 50,50 0 0,1  47.88250024706,0.044858174595298 
 L  46.388287445789 4.6435723141058 
 A 45.5,45.5 0 0,0  7.979554451509,32.549150281253 
" class="outer" /><path d="M  97.552825814758 34.549150281253 
 L  59.208099243548 34.549150281253 
 A 4,4 0 0,1  59.208099243548 37.549150281253 
 L  88.319775203232 37.549150281253 
 L  68.983186938399 51.952105968433 
 L  69.864864816838 54.665631459995 
" class="pentacle" />
<path d="M  79.389262614624 90.450849718747 
 L  65.961600984249 49.124756576184 
 L  63.108431435364 50.051807559309 
 L  73.682923516853 82.596747752498 
 L  54.009564269586 68.65731755688 
 L  51.701301616704 70.334368540005 
" class="pentacle" />
<path d="M  63.427661630375 41.326093142564 
 L  62.850297895654 39.549150281253 
 L  59.695911222939 39.549150281253 
 L  60.574492081489 42.253144125688 
 z" class="pentacle" />
<path d="M  20.610737385376 90.450849718747 
 L  53.418662639442 66.614496766047 
 L  51.655306882565 64.187445782922 
 L  26.317076483147 82.596747752498 
 L  33.494860060282 59.57875042062 
 L  31.1865974074 57.901699437495 
" class="pentacle" />
<path d="M  2.4471741852423 34.549150281253 
 L  33.515712901402 57.121764941524 
 L  35.27906865828 54.694713958399 
 L  11.680224796768 37.549150281253 
 L  35.789698258595 37.262675772815 
 L  36.671376137034 34.549150281253 
" class="pentacle" />
<path d="M  50 0 
 L  37.076372563155 39.774835402965 
 L  39.92954211204 40.701886386089 
 L  50 9.7082039324994 
 L  57.722690473138 32.549150281253 
 L  60.575860022024 32.549150281253 
" class="pentacle" />
<path d="M  35.878274876389 57.272580586567 
 A 2.5,2.5 0 0,1  40.307737135469,58.066220363412 
 A 2.5,2.5 0 0,1  42.815689818031,59.888354645519 
 A 2.5,2.5 0 0,1  45.323642500593,61.710488927626 
 A 2.5,2.5 0 0,1  47.447217895951,65.67790969435 
 L  46.702689909714 66.702664553891 
 L  45.165557620401 65.585872574535 
 L  45.910085606639 64.561117714994 
 A 0.6,0.6 0 1,0  44.939265213389,63.855775412243 
 A 0.95,0.95 0 0,1  43.402132924076,62.738983432887 
 A 0.6,0.6 0 0,0  42.431312530826,62.033641130136 
 A 0.95,0.95 0 0,1  40.894180241514,60.916849150781 
 A 0.6,0.6 0 0,0  39.923359848264,60.21150684803 
 A 0.95,0.95 0 0,1  38.386227558952,59.094714868674 
 A 0.6,0.6 0 0,0  37.415407165702,58.389372565923 
 L  36.670879179465 59.414127425465 
 L  35.133746890152 58.297335446109 
 L  35.878274876389 57.272580586567 
" class="symbol coil" /><path d="M  56.965754691814 59.58753882025 
L  52.920669719939 62.526465081713 
L  55.389367779568 65.924336458087 
L  59.434452751442 62.985410196625 
L  58.611553398233 61.8527864045 
L  55.699092218483 63.968813312753 
L  54.876192865274 62.836189520628 
L  57.788654045024 60.720162612375 
 z" class="symbol resistor" /><path d="M  56.965754691814 59.58753882025 
L  61.010839663689 56.648612558788 
L  63.479537723317 60.046483935163 
L  59.434452751442 62.985410196625 
L  58.611553398233 61.8527864045 
L  61.524014577983 59.736759496247 
L  60.701115224773 58.604135704122 
L  57.788654045024 60.720162612375 
 z" class="symbol resistor" /><path d=" M  59.680132363751 47.590757889843 
 L  60.112756155876 48.922237012656 
 L  67.721208286237 46.450101057656 
 L  67.288584494112 45.118621934843 
 z" class="symbol capacitor" /><path d=" M  59.247508571626 46.259278767029 
 L  58.814884779501 44.927799644216 
 L  66.423336909862 42.455663689216 
 L  66.855960701987 43.78714281203 
 z" class="symbol capacitor" /><path d=" M  39.383209650595 50.473494752255 
 L  37.92782781487 43.626461547118 
 L  41.256525621903 44.70802102743 
 L  41.689149414028 43.376541904617 
 L  34.080697283667 40.904405949618 
 L  33.648073491542 42.235885072431 
 L  36.976771298575 43.317444552743 
 L  31.774757520233 48.001358797255 
 z" class="symbol diode" /><path d=" M  42.5 36.049150281253 
 A 2,2 0 0,0  46.5,36.049150281253 
 A 2,2 0 1,0  42.5,36.049150281253 
 z" class="symbol switch" /><path d=" M  46.559281037942 29.591322129196 
 L  53.581587253734 35.48373668488 
 A 2,2 0 1,0  54.610047429232,34.25806557589 
 L  47.58774121344 28.365651020206 
 z" class="symbol switch" /><path class="char o" d="	M 36.899710069444,83.107609375 C 35.451227430556,83.107609375 34.164540625,84.363477430555 34.164540625,85.773436458333 C 34.164540625,86.798160763889 34.973535763889,87.576337152778 36.029078819444,87.576337152778 C 37.477561458333,87.576337152778 38.779657986111,86.335878819444 38.779657986111,84.956737847222 C 38.779657986111,83.885785763889 37.993776736111,83.107609375 36.899710069444,83.107609375 M 36.722501736111,84.047582986111 C 37.300353819444,84.047582986111 37.724113541667,84.494456597222 37.724113541667,85.095422569444 C 37.724113541667,85.889006597222 37.007575347222,86.636363541666 36.237105902778,86.636363541666 C 35.651548958333,86.636363541666 35.220085069444,86.197194791666 35.220085069444,85.596228125 C 35.220085069444,84.787235763889 35.936623263889,84.047582986111 36.722501736111,84.047582986111" /><path class="char q" d="	M 42.846412152778,83.203192708333 L 42.738546180556,83.750226736111 C 42.638385763889,83.549904513889 42.569042708333,83.472857291666 42.399539236111,83.357287152778 C 42.137580208333,83.187783680555 41.852505208333,83.103031597222 41.490384375,83.103031597222 C 40.111244097222,83.103031597222 38.878489930556,84.358899652778 38.878489930556,85.753449652778 C 38.878489930556,86.832106597222 39.595028819444,87.571759375 40.642867013889,87.571759375 C 41.166786458333,87.571759375 41.675297569444,87.386846180555 42.045123263889,87.063248958333 L 41.706116319444,88.896968402778 L 42.730842013889,88.896968402778 L 43.786385763889,83.203192708333 L 42.846412152778,83.203192708333 M 41.444156597222,84.043005208333 C 42.045122569444,84.043005208333 42.445767708333,84.466764930555 42.445767708333,85.106254513889 C 42.445767708333,85.915247569444 41.744639236111,86.631785763889 40.951055208333,86.631785763889 C 40.326975347222,86.631785763889 39.934034375,86.231140625 39.934034375,85.599355208333 C 39.934034375,84.751839236111 40.627458680556,84.043005208333 41.444156597222,84.043005208333" /><path class="char l" d="	M 43.486542013889,88.894620486111 L 44.511267708333,88.894620486111 L 45.566812152778,83.200844791666 L 44.542086458333,83.200844791666 L 43.486542013889,88.894620486111" /><path class="char t" d="	M 45.436697569444,88.891789236111 L 46.461423263889,88.891789236111 L 47.077798958333,85.555652430555 L 47.694175347222,85.555652430555 L 47.871383680556,84.623383680555 L 47.255007291667,84.623383680555 L 47.516967013889,83.198013541666 L 46.492242013889,83.198013541666 L 46.230281597222,84.623383680555 L 45.729476041667,84.623383680555 L 45.552267708333,85.555652430555 L 46.053073958333,85.555652430555 L 45.436697569444,88.891789236111" /><path class="char esse" d="	M 50.308973958333,84.423038891458 C 48.885386458333,84.423038891458 47.603676736111,85.67541111368 47.603676736111,87.068218058125 C 47.603676736111,88.137832641458 48.408612847222,88.891788891458 49.547482986111,88.891788891458 C 50.509366319444,88.891788891458 51.370251736111,88.375578474791 51.831955902778,87.529120835903 L 50.729797569444,87.529120835903 C 50.437385069444,87.821533335903 50.118680902778,87.949944447014 49.687757291667,87.949944447014 C 49.102932291667,87.949944447014 48.685795486111,87.600781252569 48.685795486111,87.108296530347 L 51.992269791667,87.108296530347 C 52.092305902778,86.869749308125 52.132544791667,86.515776391458 52.132544791667,86.146413197014 C 52.132544791667,85.130664585903 51.378587847222,84.423038891458 50.308973958333,84.423038891458 z M 54.497174652778,84.423038891458 C 53.581461458333,84.423038891458 52.793839236111,85.130343752569 52.793839236111,85.946020835903 C 52.793839236111,86.484675697014 53.029340625,86.726429169236 53.775762152778,86.98806111368 C 54.299026736111,87.172743058125 54.396978125,87.24889236368 54.396978125,87.448963891458 C 54.396978125,87.718290974791 54.148331597222,87.949944447014 53.855919097222,87.949944447014 C 53.555811458333,87.949944447014 53.382672569444,87.767507641458 53.374977430556,87.428924308125 L 52.352976041667,87.428924308125 C 52.345280902778,87.544350697014 52.332937152778,87.64486736368 52.332937152778,87.729513197014 C 52.332937152778,88.414374308125 52.865980208333,88.891788891458 53.635487152778,88.891788891458 C 54.597370486111,88.891788891458 55.459057986111,88.088776391458 55.459057986111,87.188453474791 C 55.459057986111,86.680579169236 55.208166319444,86.425038891458 54.477135069444,86.186491669236 C 54.092381597222,86.063370835903 54.108573263889,86.060004169236 54.016232986111,86.006138891458 C 53.923892013889,85.952272919236 53.855919097222,85.870352780347 53.855919097222,85.785706947014 C 53.855919097222,85.562550002569 54.058235069444,85.364883335903 54.296782291667,85.364883335903 C 54.512244097222,85.364883335903 54.629753819444,85.482393058125 54.637448958333,85.705550002569 L 55.639410763889,85.705550002569 C 55.654801041667,85.590124308125 55.659450347222,85.481912502569 55.659450347222,85.404961808125 C 55.659450347222,84.874002085903 55.128169791667,84.423038891458 54.497174652778,84.423038891458 z M 57.883805902778,84.423038891458 C 56.968092708333,84.423038891458 56.180470486111,85.130343752569 56.180470486111,85.946020835903 C 56.180470486111,86.484675697014 56.395932291667,86.726429169236 57.142353819444,86.98806111368 C 57.665618402778,87.172743058125 57.783609375,87.24889236368 57.783609375,87.448963891458 C 57.783609375,87.718290974791 57.534962847222,87.949944447014 57.242550347222,87.949944447014 C 56.942442708333,87.949944447014 56.769303125,87.767507641458 56.761608680556,87.428924308125 L 55.719567708333,87.428924308125 C 55.711873263889,87.544350697014 55.719567708333,87.64486736368 55.719567708333,87.729513197014 C 55.719567708333,88.414374308125 56.252611458333,88.891788891458 57.022118402778,88.891788891458 C 57.984001736111,88.891788891458 58.845689236111,88.088776391458 58.845689236111,87.188453474791 C 58.845689236111,86.680579169236 58.594797569444,86.425038891458 57.863766319444,86.186491669236 C 57.479012847222,86.063370835903 57.475165625,86.060004169236 57.382824652778,86.006138891458 C 57.290483680556,85.952272919236 57.242550347222,85.870352780347 57.242550347222,85.785706947014 C 57.242550347222,85.562550002569 57.444866319444,85.364883335903 57.683413541667,85.364883335903 C 57.898875347222,85.364883335903 58.016385069444,85.482393058125 58.024080208333,85.705550002569 L 59.026042013889,85.705550002569 C 59.041432291667,85.590124308125 59.046081597222,85.481912502569 59.046081597222,85.404961808125 C 59.046081597222,84.874002085903 58.514801041667,84.423038891458 57.883805902778,84.423038891458 z M 62.011888541667,84.423038891458 C 60.588301041667,84.423038891458 59.306591319444,85.67541111368 59.306591319444,87.068218058125 C 59.306591319444,88.137832641458 60.091488541667,88.891788891458 61.230358680556,88.891788891458 C 62.192242013889,88.891788891458 63.073166319444,88.375578474791 63.534870486111,87.529120835903 L 62.412673263889,87.529120835903 C 62.120260763889,87.821533335903 61.801556597222,87.949944447014 61.370632986111,87.949944447014 C 60.785807986111,87.949944447014 60.388710069444,87.600781252569 60.388710069444,87.108296530347 L 63.675145486111,87.108296530347 C 63.775180902778,86.869749308125 63.835459375,86.515776391458 63.835459375,86.146413197014 C 63.835459375,85.130664585903 63.081503125,84.423038891458 62.011888541667,84.423038891458 z M 50.148660069444,85.364883335903 C 50.802740625,85.364883335903 51.159919791667,85.65248611368 51.190700347222,86.206531252569 L 48.826070486111,86.206531252569 C 49.026142013889,85.706351391458 49.556139930556,85.364883335903 50.148660069444,85.364883335903 z M 61.851574652778,85.364883335903 C 62.505655208333,85.364883335903 62.842795486111,85.65248611368 62.873576041667,86.206531252569 L 60.508945486111,86.206531252569 C 60.709017708333,85.706351391458 61.259054513889,85.364883335903 61.851574652778,85.364883335903 z" /></g></svg>