<?xml version="1.0" ?>
<svg
   xmlns:dc="http://purl.org/dc/elements/1.1/"
   xmlns:cc="http://creativecommons.org/ns#"
   xmlns:rdf="http://www.w3.org/1999/02/22-rdf-syntax-ns#"
   xmlns:svg="http://www.w3.org/2000/svg"
   xmlns:xlink="http://www.w3.org/1999/xlink"
   xmlns="http://www.w3.org/2000/svg"
   width="666"
   height="666"
>
<style type="text/css">
<![CDATA[
* { fill:none; }
#bgrect { fill:#000000; visibility:visible; }
#penta * { fill:#ccff00; }
#shadow * { fill:#cccccc; }
.symbol * { fill:#ffffff; }
.circ { stroke:#ffffff; stroke-width:9.5; }
.letter { fill:#ffffff; }
.q { fill:#ccff00; }
]]>
</style>
<clipPath id="pentaclip" clip-rule="evenodd">
<path d="M 0,0 l 666,0 0,666 -666,0 0,-666 " />
</clipPath>
<rect x="0" y="0" width="666" height="666" id="bgrect" />
<g id="logo">
<circle cx="333" cy="333" r="328.25" class="circ" />
<g id="penta">
<circle cx="333" cy="15.25" r="4.75" />
<circle cx="635.19820805279" cy="234.80985003736" r="4.75" />
<circle cx="519.76876391593" cy="590.06514996264" r="4.75" />
<circle cx="146.23123608407" cy="590.06514996264" r="4.75" />
<circle cx="30.801791947215" cy="234.80985003736" r="4.75" />
<path d="M 30.801791947215,234.80985003736 m 0,-4.75 l 261.17833963252,0 a 11,11 0 0,0 0,9.5 l -261.17833963252,0 z" />
<path d="M 30.801791947215,234.80985003736 m 0,-4.75 l 261.17833963252,0 a 11,11 0 0,0 0,9.5 l -261.17833963252,0 z" transform="rotate(180,333,234.80985003736)" />
<path d="M 635.19820805279,234.80985003736 m 0,-4.75 l 267.94820805278,0 0,9.5 -267.94820805278,0 z" transform="rotate(144,635.19820805279,234.80985003736)" />
<path d="M 146.23123608407,590.06514996264 m 0,-4.75 l 267.94820805278,0 0,9.5 -267.94820805278,0 z" transform="rotate(324,146.23123608407,590.06514996264)" />
<path d="M 146.23123608407,590.06514996264 m 0,-4.75 l 282.19820805278,0 0,9.5 -282.19820805278,0 z" transform="rotate(288,146.23123608407,590.06514996264)" />
<path d="M 333,15.25 m 0,-4.75 l 282.19820805278,0 0,9.5 -282.19820805278,0 z" transform="rotate(108,333,15.25)" />
<path d="M 333,15.25 m 0,-4.75 l 286.94820805278,0 0,9.5 -286.94820805278,0 z" transform="rotate(72,333,15.25)" />
<path d="M 519.76876391593,590.06514996264 m 0,-4.75 l 286.94820805278,0 0,9.5 -286.94820805278,0 z" transform="rotate(252,519.76876391593,590.06514996264)" />
<path d="M 519.76876391593,590.06514996264 m 0,-4.75 l 248.94820805278,0 0,9.5 -248.94820805278,0 z" transform="rotate(216,519.76876391593,590.06514996264)" />
<path d="M 30.801791947215,234.80985003736 m 0,-4.75 l 248.94820805278,0 0,9.5 -248.94820805278,0 z" transform="rotate(36,30.801791947215,234.80985003736)" />
</g>
<g class="symbol" id="switch" transform="translate(303,234.80985003736)">
    <circle cx="0" cy="0" r="11" />
    <circle cx="60" cy="0" r="11" />
    <rect x="0" y="-4.75" width="60" height="9.5" transform="rotate(38,60,0)" />
</g>
<g class="symbol condensator" transform="rotate(72,333,333) translate(318.75,234.80985003736)">
    <rect x="0" y="-23.75" width="9.5" height="47.5" />
    <rect x="19" y="-23.75" width="9.5" height="47.5" />
</g>
<g class="symbol resistor" transform="rotate(144,333,333) translate(299.75,234.80985003736)">
    <rect x="0" y="-14.25" width="66.5" height="9.5" />
    <rect x="0" y="4.75" width="66.5" height="9.5" />
    <rect x="0" y="-14.25" width="9.5" height="28.5" />
    <rect x="57" y="-14.25" width="9.5" height="28.5" />
</g>
<g class="symbol coil" transform="rotate(216,333,333) translate(280.75,234.80985003736)">
    <path d="M 0,-4.75 l 6.175,0 a 3.325,3.325 0 0,1 3.325,3.325 l 0,6.175 a 7.125,7.125 0 0,0 14.25,0 a 4.75,4.75 0 0,1 9.5,0 a 7.125,7.125 0 0,0 14.25,0 a 4.75,4.75 0 0,1 9.5,0 a 7.125,7.125 0 0,0 14.25,0 a 4.75,4.75 0 0,1 9.5,0 a 7.125,7.125 0 0,0 14.25,0 l 0,-6.175 a 3.325,3.325 0 0,1 3.325,-3.325 l 6.175,0 l 0,9.5a 16.625,16.625 0 0,1 -33.25,0 l 9.5,0 a 16.625,16.625 0 0,1 -33.25,0 l 9.5,0 a 16.625,16.625 0 0,1 -33.25,0 l 9.5,0 a 16.625,16.625 0 0,1 -33.25,0 z" />
</g>
<g class="symbol diode" transform="rotate(288,333,333) translate(314,234.80985003736)">
    <rect x="28.5" y="-23.75" width="9.5" height="47.5" />
    <path d="M 0,-23.75 L 33.25,0 0,23.75 z" />
</g>
<g transform="translate(234.31073,548.34880496264) scale(1)">
    <path d="M 39.38644,0.06592 C 18.52829,0.06592 0,18.15042 0,38.45383 C 0,53.20986 11.64953,64.4156 26.84935,64.4156 C 47.7075,64.4156 66.45769,46.553 66.45769,26.69337 C 66.45769,11.27166 55.141,0.06592 39.38644,0.06592 M 36.83464,13.60154 C 45.15571,13.60154 51.25785,20.03652 51.25785,28.69043 C 51.25785,40.11804 40.9397,50.87998 29.84494,50.87998 C 21.41292,50.87998 15.19984,44.55595 15.19984,35.90203 C 15.19984,24.25254 25.51799,13.60154 36.83464,13.60154" class="letter o" />
    <path d="M 125.01895,1.44232 L 123.46568,9.31961 C 122.02337,6.43497 121.02483,5.32549 118.58398,3.66128 C 114.81177,1.22043 110.70669,0 105.49215,0 C 85.63253,0 67.88087,18.0845 67.88087,38.16602 C 67.88087,53.69868 78.19903,64.34968 93.2879,64.34968 C 100.83234,64.34968 108.1549,61.68693 113.48039,57.02713 L 108.59869,83.43269 L 123.35474,83.43269 L 138.55457,1.44232 L 125.01895,1.44232 M 104.82647,13.53562 C 113.48038,13.53562 119.24967,19.63776 119.24967,28.84641 C 119.24967,40.49591 109.15342,50.81406 97.72581,50.81406 C 88.73906,50.81406 83.08071,45.04477 83.08071,35.94706 C 83.08071,23.74283 93.06602,13.53562 104.82647,13.53562" class="letter q" />
    <path d="M 134.23682,83.39888 L 148.99287,83.39888 L 164.19271,1.40851 L 149.43666,1.40851 L 134.23682,83.39888" class="letter l" />
    <path d="M 162.31906,83.35811 L 177.07511,83.35811 L 185.95092,35.31774 L 194.82674,35.31774 L 197.37854,21.89307 L 188.50272,21.89307 L 192.27494,1.36774 L 177.5189,1.36774 L 173.74667,21.89307 L 166.53507,21.89307 L 163.98327,35.31774 L 171.19488,35.31774 L 162.31906,83.35811" class="letter t" />
</g>
</g>
</svg>
