<?xml version="1.0" standalone="yes"?>
<svg
	xmlns:dc="http://purl.org/dc/elements/1.1/"
	xmlns:cc="http://creativecommons.org/ns#"
	xmlns:rdf="http://www.w3.org/1999/02/22-rdf-syntax-ns#"
	xmlns:svg="http://www.w3.org/2000/svg"
	xmlns:xlink="http://www.w3.org/1999/xlink"
	xmlns="http://www.w3.org/2000/svg"
	width="102"
	height="102"
>
<style type="text/css">
<![CDATA[
* { fill:none; }
.main { stroke:#000000; stroke-width:0; }
.pentacle { stroke:#00f; stroke-width:0; fill:#0000ff;}
.coil { stroke:#00f; stroke-width:0.3;}
.outer {stroke:#00f; stroke-width:0; fill:#00bb00;}
circle {fill:#ff0000;}
]]>
</style><g transform="translate(1,1)"><path d=" M  53.11117811187 3.1030857011229 
 L  52.11749975294 0.044858174595277 
 A 50,50 0 0,1  96.855819746257,32.549150281253 
 L  93.640209028987 32.549150281253 
 A 47,47 0 0,0  53.11117811187,3.1030857011229 
" class="outer" /><path d=" M  95.563022847178 38.46696271455 
 L  98.164506564743 36.576874157826 
 A 50,50 0 0,1  81.075988926865,89.169923566652 
 L  80.082310567934 86.111696040125 
 A 47,47 0 0,0  95.563022847178,38.46696271455 
" class="outer" /><path d=" M  75.048318637874 89.769105262949 
 L  77.649802355439 91.659193819674 
 A 50,50 0 0,1  22.350197644561,91.659193819674 
 L  24.951681362126 89.769105262949 
 A 47,47 0 0,0  75.048318637874,89.769105262949 
" class="outer" /><path d=" M  19.917689432066 86.111696040125 
 L  18.924011073135 89.169923566652 
 A 50,50 0 0,1  1.8354934352572,36.576874157826 
 L  4.4369771528224 38.46696271455 
 A 47,47 0 0,0  19.917689432066,86.111696040125 
" class="outer" /><path d=" M  6.3597909710128 32.549150281253 
 L  3.1441802537434 32.549150281253 
 A 50,50 0 0,1  47.88250024706,0.044858174595298 
 L  46.88882188813 3.1030857011229 
 A 47,47 0 0,0  6.3597909710128,32.549150281253 
" class="outer" /><path d="M  50 0 
 L  36.077911178626 42.847783568636 
 L  38.931080727511 43.774834551761 
 L  50 9.7082039324994 
 L  57.722690473138 32.549150281253 
 L  60.575860022024 32.549150281253 
" class="pentacle" />
<path d="M  97.552825814758 34.549150281253 
 L  52.5 34.549150281253 
 L  52.5 37.549150281253 
 L  88.319775203232 37.549150281253 
 L  68.983186938399 51.952105968433 
 L  69.864864816838 54.665631459995 
" class="pentacle" />
<path d="M  79.389262614624 90.450849718747 
 L  65.467173793249 47.603066150112 
 L  62.614004244364 48.530117133236 
 L  73.682923516853 82.596747752498 
 L  54.009564269586 68.65731755688 
 L  51.701301616704 70.334368540005 
" class="pentacle" />
<path d="M  20.610737385376 90.450849718747 
 L  57.05923911413 63.969463130731 
 L  55.295883357252 61.542412147606 
 L  26.317076483147 82.596747752498 
 L  33.494860060282 59.57875042062 
 L  31.1865974074 57.901699437495 
" class="pentacle" />
<path d="M  2.4471741852423 34.549150281253 
 L  38.895675913996 61.030536869269 
 L  40.659031670873 58.603485886144 
 L  11.680224796768 37.549150281253 
 L  35.789698258595 37.262675772815 
 L  36.671376137034 34.549150281253 
" class="pentacle" />
<path d="M 30 50  a 5,5 0 0,1 8.75,-3.3071891388307 a 5,5 0 0,1 7.5,0 a 5,5 0 0,1 7.5,0 a 5,5 0 0,1 8.75,3.3071891388307 a 1.25,1.25 0 0,1 -2.5,0  a 2.5,2.5 0 0,0 -5,0 a 1.25,1.25 0 0,1 -2.5,0  a 2.5,2.5 0 0,0 -5,0 a 1.25,1.25 0 0,1 -2.5,0  a 2.5,2.5 0 0,0 -5,0 a 1.25,1.25 0 0,1 -2.5,0  a 2.5,2.5 0 0,0 -5,0 a 1.25,1.25 0 0,1 -2.5,0 " class="coil" /></g></svg>