<?xml version="1.0" standalone="yes"?>
<svg
	xmlns:dc="http://purl.org/dc/elements/1.1/"
	xmlns:cc="http://creativecommons.org/ns#"
	xmlns:rdf="http://www.w3.org/1999/02/22-rdf-syntax-ns#"
	xmlns:svg="http://www.w3.org/2000/svg"
	xmlns:xlink="http://www.w3.org/1999/xlink"
	xmlns="http://www.w3.org/2000/svg"
	width="102"
	height="102"
>
<style type="text/css">
<![CDATA[
* { fill:none; }
.main { stroke:#000000; stroke-width:1; }
.pentacle { stroke:#00f; stroke-width:0; fill:#0000ff;}
.outer {stroke:#00f; stroke-width:0.1; fill:#00bb00;}
circle {fill:#ff0000;}
]]>
</style><g transform="translate(1,1)"><path d=" M  53.779175928806 5.1589715851751 
 L  52.11749975294 0.044858174595277 
 A 50,50 0 0,1  96.855819746257,32.549150281253 
 L  91.478522684562 32.549150281253 
 A 45,45 0 0,0  53.779175928806,5.1589715851751 
" class="outer" /><path d=" M  93.814181858029 39.737570067886 
 L  98.164506564743 36.576874157826 
 A 50,50 0 0,1  81.075988926865,89.169923566652 
 L  79.414312750998 84.055810156072 
 A 45,45 0 0,0  93.814181858029,39.737570067886 
" class="outer" /><path d=" M  73.299477648725 88.498497909614 
 L  77.649802355439 91.659193819674 
 A 50,50 0 0,1  22.350197644561,91.659193819674 
 L  26.700522351275 88.498497909614 
 A 45,45 0 0,0  73.299477648725,88.498497909614 
" class="outer" /><path d=" M  20.585687249002 84.055810156073 
 L  18.924011073135 89.169923566652 
 A 50,50 0 0,1  1.8354934352572,36.576874157826 
 L  6.1858181419709 39.737570067886 
 A 45,45 0 0,0  20.585687249002,84.055810156073 
" class="outer" /><path d=" M  8.5214773154383 32.549150281253 
 L  3.1441802537434 32.549150281253 
 A 50,50 0 0,1  47.88250024706,0.044858174595298 
 L  46.220824071194 5.1589715851751 
 A 45,45 0 0,0  8.5214773154383,32.549150281253 
" class="outer" /><circle cx="50" cy="119.00413651972" r="0.5" />
<path d="M  50 0 
 L  36.077911178626 42.847783568636 
 L  40.833193760101 44.392868540511 
 L  50 16.180339887499 
 L  84.87218755292 113.17965950316 
 L  86.77430058551 113.17965950316 
" class="pentacle" />
</g></svg>