<?xml version="1.0" standalone="yes"?>
<svg
	xmlns:dc="http://purl.org/dc/elements/1.1/"
	xmlns:cc="http://creativecommons.org/ns#"
	xmlns:rdf="http://www.w3.org/1999/02/22-rdf-syntax-ns#"
	xmlns:svg="http://www.w3.org/2000/svg"
	xmlns:xlink="http://www.w3.org/1999/xlink"
	xmlns="http://www.w3.org/2000/svg"
	width="102"
	height="102"
>
<style type="text/css">
<![CDATA[
* { fill:none; }
.main { stroke:#000000; stroke-width:0; }
.pentacle { stroke:#00f; stroke-width:0; fill:#0000ff;}
.coil { stroke:#00f; stroke-width:0.0; fill:#000000}
.symbol { stroke:#00f; stroke-width:0.0; fill:#000000}
.resistor { stroke:#00f; stroke-width:0.0;}
.outer {stroke:#00f; stroke-width:0; fill:#00bb00;}
circle {fill:#ff0000;}
]]>
</style><g transform="translate(1,1)"><path d=" M  53.11117811187 3.1030857011229 
 L  52.11749975294 0.044858174595277 
 A 50,50 0 0,1  96.855819746257,32.549150281253 
 L  93.640209028987 32.549150281253 
 A 47,47 0 0,0  53.11117811187,3.1030857011229 
" class="outer" /><path d=" M  95.563022847178 38.46696271455 
 L  98.164506564743 36.576874157826 
 A 50,50 0 0,1  81.075988926865,89.169923566652 
 L  80.082310567934 86.111696040125 
 A 47,47 0 0,0  95.563022847178,38.46696271455 
" class="outer" /><path d=" M  75.048318637874 89.769105262949 
 L  77.649802355439 91.659193819674 
 A 50,50 0 0,1  22.350197644561,91.659193819674 
 L  24.951681362126 89.769105262949 
 A 47,47 0 0,0  75.048318637874,89.769105262949 
" class="outer" /><path d=" M  19.917689432066 86.111696040125 
 L  18.924011073135 89.169923566652 
 A 50,50 0 0,1  1.8354934352572,36.576874157826 
 L  4.4369771528224 38.46696271455 
 A 47,47 0 0,0  19.917689432066,86.111696040125 
" class="outer" /><path d=" M  6.3597909710128 32.549150281253 
 L  3.1441802537434 32.549150281253 
 A 50,50 0 0,1  47.88250024706,0.044858174595298 
 L  46.88882188813 3.1030857011229 
 A 47,47 0 0,0  6.3597909710128,32.549150281253 
" class="outer" /><path d="M  47.227251320101 64.364431176588 
 A 2,2 0 0,1  43.637068277106,63.521468711355 
 A 2,2 0 0,1  41.371820692856,61.875670004936 
 A 2,2 0 0,1  39.106573108607,60.229871298517 
 A 2,2 0 0,1  37.195440589852,57.075894048162 
 A 0.6,0.6 0 0,1  38.166260983102,57.781236350913 
 A 0.8,0.8 0 1,0  39.460688174102,58.721692754581 
 A 0.6,0.6 0 0,1  40.431508567352,59.427035057332 
 A 0.8,0.8 0 0,0  41.725935758351,60.367491461 
 A 0.6,0.6 0 0,1  42.696756151601,61.072833763751 
 A 0.8,0.8 0 0,0  43.991183342601,62.013290167419 
 A 0.6,0.6 0 0,1  44.962003735851,62.71863247017 
 A 0.8,0.8 0 0,0  46.256430926851,63.659088873837 
 A 0.6,0.6 0 0,1  47.227251320101,64.364431176588 
" class="symbol coil" /><path d="M  57.31842584319 60.072949016875 
L  54.08235786569 62.424090026045 
L  55.845713622567 64.85114100917 
L  59.081781600067 62.5 
L  58.493996347775 61.690983005625 
L  56.06694536465 63.454338762502 
L  55.479160112357 62.645321768128 
L  57.906211095482 60.88196601125 
 z" class="symbol resistor" /><path d="M  57.31842584319 60.072949016875 
L  60.554493820689 57.721808007705 
L  62.317849577567 60.14885899083 
L  59.081781600067 62.5 
L  58.493996347775 61.690983005625 
L  60.921047330899 59.927627248748 
L  60.333262078607 59.118610254373 
L  57.906211095482 60.88196601125 
 z" class="symbol resistor" /><path d="M  50 0 
 L  36.386928173 41.896727052341 
 L  39.240097721886 42.823778035465 
 L  50 9.7082039324994 
 L  58.047610169371 33.549150281253 
 L  60.900779718257 33.549150281253 
" class="pentacle" />
<path d="M  46.5 34.549150281253 
 L  42.980149482463 34.549150281253 
 L  42.005390393765 37.549150281253 
 L  46.5 37.549150281253 
 z" class="pentacle" />
<path d="M  97.552825814758 34.549150281253 
 L  53.5 34.549150281253 
 L  53.5 37.549150281253 
 L  88.319775203232 37.549150281253 
 L  68.132536130047 52.570139957182 
 L  69.014214008486 55.283665448745 
" class="pentacle" />
<path d="M  63.613071827 41.896727052341 
 L  62.525378199421 38.549150281253 
 L  59.370991526706 38.549150281253 
 L  60.759902278114 42.823778035465 
 z" class="pentacle" />
<path d="M  79.389262614624 90.450849718747 
 L  65.776190787624 48.554122666407 
 L  62.923021238739 49.481173649532 
 L  73.682923516853 82.596747752498 
 L  53.158913461233 68.03928356813 
 L  50.850650808352 69.716334551255 
" class="pentacle" />
<path d="M  61.913341080379 60.442751616976 
 L  64.760959966726 58.373835392494 
 L  63.786200878027 55.373835392494 
 L  60.149985323502 58.015700633852 
 z" class="pentacle" />
<path d="M  20.610737385376 90.450849718747 
 L  55.036696628192 65.438926261462 
 L  53.273340871315 63.011875278338 
 L  26.317076483147 82.596747752498 
 L  33.819779756515 58.57875042062 
 L  31.511517103633 56.901699437495 
" class="pentacle" />
<path d="M  44.963303371808 65.438926261462 
 L  46.597396766592 66.626164607506 
 L  49.149349191648 64.772062641256 
 L  46.726659128685 63.011875278338 
 z" class="pentacle" />
<path d="M  2.4471741852423 34.549150281253 
 L  35.093296040433 58.267946183494 
 L  36.856651797311 55.840895200369 
 L  11.680224796768 37.549150281253 
 L  36.841160482833 37.262675772815 
 L  37.722838361272 34.549150281253 
" class="pentacle" />
</g></svg>