<?xml version="1.0" standalone="yes"?>
<svg
	xmlns:dc="http://purl.org/dc/elements/1.1/"
	xmlns:cc="http://creativecommons.org/ns#"
	xmlns:rdf="http://www.w3.org/1999/02/22-rdf-syntax-ns#"
	xmlns:svg="http://www.w3.org/2000/svg"
	xmlns:xlink="http://www.w3.org/1999/xlink"
	xmlns="http://www.w3.org/2000/svg"
	width="102"
	height="102"
>
<style type="text/css">
<![CDATA[
.symbol {stroke-width:0; fill:#fff}
.outer {stroke-width:0; fill:#fff;}
.main {fill:#000}
.char {fill:#fff}
.pentacle, .q {stroke-width:0; fill:#390;}
]]><!--#fc0fc0-->
</style><rect  x="0" y="0" width="102" height="102" class="main" />
<g transform="translate(1,1)" class="main"><path d=" M  52.740677836846 3.5808370929137 
 L  51.585361831028 0.025140041569685 
 A 50,50 0 0,1  97.039012466382,33.049150281253 
 L  93.300331336058 33.049150281253 
 A 46.5,46.5 0 0,0  52.740677836846,3.5808370929137 
 z  M  94.994163391443 38.26222931285 
 L  98.018819962424 36.064687681421 
 A 50,50 0 0,1  80.657070332482,89.498658694053 
 L  79.501754326663 85.942961642709 
 A 46.5,46.5 0 0,0  94.994163391443,38.26222931285 
 z  M  75.067244434432 89.164821670275 
 L  78.091901005412 91.362363301704 
 A 50,50 0 0,1  21.908098994588,91.362363301704 
 L  24.932755565568 89.164821670275 
 A 46.5,46.5 0 0,0  75.067244434432,89.164821670275 
 z  M  20.498245673337 85.942961642709 
 L  19.342929667518 89.498658694053 
 A 50,50 0 0,1  1.9811800375763,36.064687681421 
 L  5.0058366085569 38.26222931285 
 A 46.5,46.5 0 0,0  20.498245673337,85.942961642709 
 z  M  6.6996686639416 33.049150281253 
 L  2.960987533618 33.049150281253 
 A 50,50 0 0,1  48.414638168973,0.02514004156972 
 L  47.259322163154 3.5808370929137 
 A 46.5,46.5 0 0,0  6.6996686639416,33.049150281253 
 z " class="outer" /><path d=" M  97.552825814758 34.549150281253 
 L  57.62367605816 34.549150281253 
 A 2.6,2.6 0 0,1  57.62367605816 37.549150281253 
 L  88.319775203232 37.549150281253 
 L  68.132536130047 52.570139957182 
 L  69.014214008486 55.283665448745 
 z M  79.389262614624 90.450849718747 
 L  65.760739937905 48.506569840592 
 L  62.90757038902 49.433620823717 
 L  73.682923516853 82.596747752498 
 L  53.158913461233 68.03928356813 
 L  50.850650808352 69.716334551255 
 z  M  63.628522676718 41.944279878155 
 L  62.525378199421 38.549150281253 
 L  59.370991526706 38.549150281253 
 L  60.775353127833 42.87133086128 
 z M  20.610737385376 90.450849718747 
 L  53.742269437192 66.37938266513 
 L  51.978913680315 63.952331682005 
 L  26.317076483147 82.596747752498 
 L  33.819779756515 58.57875042062 
 L  31.511517103633 56.901699437495 
 z M  2.4471741852423 34.549150281253 
 L  34.607885843808 57.915275032119 
 L  36.371241600686 55.488224048994 
 L  11.680224796768 37.549150281253 
 L  36.841160482833 37.262675772815 
 L  37.722838361272 34.549150281253 
 z M  50 0 
 L  36.674650470467 41.011208874148 
 L  39.527820019353 41.938259857273 
 L  50 9.7082039324994 
 L  58.047610169371 33.549150281253 
 L  60.900779718257 33.549150281253 
 z  M  33.936086914909 49.439640844599 
 L  33.136115584798 51.901699437495 
 L  35.688068009854 53.755801403744 
 L  36.789256463794 50.366691827724 
 z " class="pentacle" />
<path d="M  36.43680518853 56.418764482066 
 A 2.4,2.4 0 0,1  40.724335390269,57.322691895736 
 A 2.4,2.4 0 0,1  43.313189772268,59.203604703072 
 A 2.4,2.4 0 0,1  45.902044154268,61.084517510408 
 A 2.4,2.4 0 0,1  48.08664990753,64.882872115077 
 L  46.743140759433 66.732053816506 
 L  45.448713568433 65.791597412838 
 L  46.79222271653 63.942415711409 
 A 0.8,0.8 0 1,0  45.49779552553,63.001959307741 
 A 0.8,0.8 0 0,1  44.20336833453,62.061502904073 
 A 0.8,0.8 0 0,0  42.90894114353,61.121046500406 
 A 0.8,0.8 0 0,1  41.61451395253,60.180590096738 
 A 0.8,0.8 0 0,0  40.32008676153,59.24013369307 
 A 0.8,0.8 0 0,1  39.02565957053,58.299677289402 
 A 0.8,0.8 0 0,0  37.73123237953,57.359220885734 
 L  36.387723231433 59.208402587162 
 L  35.093296040433 58.267946183494 
 L  36.43680518853 56.418764482066 
" class="symbol coil" /><path d=" M  56.377969439522 58.778521825875 
L  51.523867473272 62.30523333963 
L  55.168136037485 67.321138704755 
L  60.022238003735 63.794427191 
L  59.081781600067 62.5 
L  55.522106824817 65.086255110087 
L  53.75875106794 62.659204126962 
L  57.31842584319 60.072949016875 
 z  M  56.377969439522 58.778521825875 
L  61.232071405771 55.25181031212 
L  64.876339969985 60.267715677245 
L  60.022238003735 63.794427191 
L  59.081781600067 62.5 
L  62.641456375317 59.913744889913 
L  60.878100618439 57.486693906788 
L  57.31842584319 60.072949016875 
 z" class="symbol resistor" /><path d=" M  58.996541399309 48.075735614416 
 L  59.583673688621 49.882742995377 
 L  68.713816245054 46.916179849378 
 L  68.126683955742 45.109172468417 
 z  M  58.409409109996 46.268728233455 
 L  57.822276820684 44.461720852495 
 L  66.952419377117 41.495157706495 
 L  67.53955166643 43.302165087456 
 z" class="symbol capacitor" /><path d=" M  39.352307951157 50.568600403884 
 L  37.896926115433 43.721567198748 
 L  41.225623922466 44.80312667906 
 L  41.720051113466 43.281436252988 
 L  34.111598983105 40.809300297988 
 L  33.617171792105 42.33099072406 
 L  36.945869599138 43.412550204373 
 L  31.743855820796 48.096464448885 
 z" class="symbol diode" /><path d=" M  42.5 36.049150281253 
 A 2,2 0 0,0  46.5,36.049150281253 
 A 2,2 0 1,0  42.5,36.049150281253 
 z  M  46.559281037942 29.591322129196 
 L  53.581587253734 35.48373668488 
 A 2,2 0 1,0  54.610047429232,34.25806557589 
 L  47.58774121344 28.365651020206 
 z" class="symbol switch" /><path class="char o" d="	M 40.763495833333,80.46521875 C 37.866530555555,80.46521875 35.293156944444,82.976954861111 35.293156944444,85.796872916666 C 35.293156944444,87.846321527777 36.911147222222,89.402674305555 39.022233333333,89.402674305555 C 41.919198611111,89.402674305555 44.523391666666,86.921757638888 44.523391666666,84.163475694444 C 44.523391666666,82.021571527777 42.951629166666,80.46521875 40.763495833333,80.46521875 M 40.409079166666,82.345165972222 C 41.564783333333,82.345165972222 42.412302777777,83.238913194444 42.412302777777,84.440845138888 C 42.412302777777,86.028013194444 40.979226388888,87.522727083333 39.4382875,87.522727083333 C 38.267173611111,87.522727083333 37.404245833333,86.644389583333 37.404245833333,85.44245625 C 37.404245833333,83.824471527777 38.837322222222,82.345165972222 40.409079166666,82.345165972222" /><path class="char q" d="	M 52.6569,80.656385416666 L 52.441168055555,81.750453472222 C 52.240847222222,81.349809027777 52.102161111111,81.195714583333 51.763154166666,80.964574305555 C 51.239236111111,80.625567361111 50.669086111111,80.456063194444 49.944844444444,80.456063194444 C 47.186563888888,80.456063194444 44.721055555555,82.967799305555 44.721055555555,85.756899305555 C 44.721055555555,87.914213194444 46.154133333333,89.39351875 48.249809722222,89.39351875 C 49.297648611111,89.39351875 50.314670833333,89.023692361111 51.054322222222,88.376497916666 L 50.376308333333,92.043936805555 L 52.425759722222,92.043936805555 L 54.536847222222,80.656385416666 L 52.6569,80.656385416666 M 49.852388888888,82.336010416666 C 51.054320833333,82.336010416666 51.855611111111,83.183529861111 51.855611111111,84.462509027777 C 51.855611111111,86.080495138888 50.453354166666,87.513571527777 48.866186111111,87.513571527777 C 47.618026388888,87.513571527777 46.832144444444,86.71228125 46.832144444444,85.448710416666 C 46.832144444444,83.753678472222 48.218993055555,82.336010416666 49.852388888888,82.336010416666" /><path class="char l" d="	M 53.937159722222,92.039240972222 L 55.986611111111,92.039240972222 L 58.0977,80.651689583333 L 56.048248611111,80.651689583333 L 53.937159722222,92.039240972222" /><path class="char t" d="	M 57.837470833333,92.033578472222 L 59.886922222222,92.033578472222 L 61.119673611111,85.361304861111 L 62.352426388888,85.361304861111 L 62.706843055555,83.496767361111 L 61.474090277777,83.496767361111 L 61.998009722222,80.646027083333 L 59.948559722222,80.646027083333 L 59.424638888888,83.496767361111 L 58.423027777777,83.496767361111 L 58.068611111111,85.361304861111 L 59.070223611111,85.361304861111 L 57.837470833333,92.033578472222" /></g></svg>