<?xml version="1.0" standalone="yes"?>
<svg
	xmlns:dc="http://purl.org/dc/elements/1.1/"
	xmlns:cc="http://creativecommons.org/ns#"
	xmlns:rdf="http://www.w3.org/1999/02/22-rdf-syntax-ns#"
	xmlns:svg="http://www.w3.org/2000/svg"
	xmlns:xlink="http://www.w3.org/1999/xlink"
	xmlns="http://www.w3.org/2000/svg"
	width="102"
	height="102"
>
<style type="text/css">
<![CDATA[
.pentacle {stroke-width:0; fill:#390;}
.symbol {stroke-width:0; fill:#fff}
.outer {stroke-width:0; fill:#fff;}
.main {fill:#000}
.char {fill:#fff}
.q {fill:#390}
]]>
</style><rect  x="0" y="0" width="102" height="102" class="main" />
<g transform="translate(1,1)" class="main"><path d=" M  53.073090336472 4.6038975705636 
 L  51.585361831028 0.025140041569685 
 A 50,50 0 0,1  97.039012466382,33.049150281253 
 L  92.224621890698 33.049150281253 
 A 45.5,45.5 0 0,0  53.073090336472,4.6038975705636 
" class="outer" /><path d=" M  94.123896169137 38.894515460584 
 L  98.018819962424 36.064687681421 
 A 50,50 0 0,1  80.657070332482,89.498658694053 
 L  79.169341827037 84.919901165059 
 A 45.5,45.5 0 0,0  94.123896169137,38.894515460584 
" class="outer" /><path d=" M  74.196977212126 88.532535522541 
 L  78.091901005412 91.362363301704 
 A 50,50 0 0,1  21.908098994588,91.362363301704 
 L  25.803022787874 88.532535522541 
 A 45.5,45.5 0 0,0  74.196977212126,88.532535522541 
" class="outer" /><path d=" M  20.830658172963 84.919901165059 
 L  19.342929667518 89.498658694053 
 A 50,50 0 0,1  1.9811800375763,36.064687681421 
 L  5.8761038308629 38.894515460584 
 A 45.5,45.5 0 0,0  20.830658172963,84.919901165059 
" class="outer" /><path d=" M  7.7753781093016 33.049150281253 
 L  2.960987533618 33.049150281253 
 A 50,50 0 0,1  48.414638168973,0.02514004156972 
 L  46.926909663528 4.6038975705636 
 A 45.5,45.5 0 0,0  7.7753781093016,33.049150281253 
" class="outer" /><path d="M  97.552825814758 34.549150281253 
 L  58.5 34.549150281253 
 L  58.5 37.549150281253 
 L  88.319775203232 37.549150281253 
 L  68.132536130047 52.570139957182 
 L  69.014214008486 55.283665448745 
" class="pentacle" />
<path d="M  79.389262614624 90.450849718747 
 L  65.652583989874 48.173700059889 
 L  62.799414440989 49.100751043014 
 L  73.682923516853 82.596747752498 
 L  53.158913461233 68.03928356813 
 L  50.850650808352 69.716334551255 
" class="pentacle" />
<path d="M  63.736678624749 42.277149658859 
 L  62.525378199421 38.549150281253 
 L  59.370991526706 38.549150281253 
 L  60.883509075864 43.204200641984 
 z" class="pentacle" />
<path d="M  20.610737385376 90.450849718747 
 L  54.227679633817 66.026711513755 
 L  52.46432387694 63.59966053063 
 L  26.317076483147 82.596747752498 
 L  33.819779756515 58.57875042062 
 L  31.511517103633 56.901699437495 
" class="pentacle" />
<path d="M  63.935883566317 58.973288486245 
 L  64.760959966726 58.373835392494 
 L  63.786200878027 55.373835392494 
 L  62.172527809439 56.54623750312 
 z" class="pentacle" />
<path d="M  2.4471741852423 34.549150281253 
 L  34.082024797465 57.533214618129 
 L  35.845380554342 55.106163635004 
 L  11.680224796768 37.549150281253 
 L  36.841160482833 37.262675772815 
 L  37.722838361272 34.549150281253 
" class="pentacle" />
<path d="M  50 0 
 L  36.76735556878 40.72589191926 
 L  39.620525117665 41.652942902385 
 L  50 9.7082039324994 
 L  58.047610169371 33.549150281253 
 L  60.900779718257 33.549150281253 
" class="pentacle" />
<path d="M  33.843381816596 49.724957799488 
 L  33.136115584798 51.901699437495 
 L  35.688068009854 53.755801403744 
 L  36.696551365482 50.652008782612 
 z" class="pentacle" />
<path d="M  35.287796837137 57.574913399218 
 A 2.5,2.5 0 0,1  39.749174462675,58.494755604355 
 A 2.5,2.5 0 0,1  42.418930544112,60.43444693692 
 A 2.5,2.5 0 0,1  45.088686625549,62.374138269486 
 A 2.5,2.5 0 0,1  47.342150053324,66.332913658376 
 L  46.842532588875 67.020578103595 
 L  45.467203698438 66.021343174697 
 L  45.966821162886 65.333678729479 
 A 0.8,0.8 0 1,0  44.672393971886,64.393222325811 
 A 0.85,0.85 0 0,1  43.297065081449,63.393987396913 
 A 0.8,0.8 0 0,0  42.002637890449,62.453530993246 
 A 0.85,0.85 0 0,1  40.627309000012,61.454296064348 
 A 0.8,0.8 0 0,0  39.332881809012,60.51383966068 
 A 0.85,0.85 0 0,1  37.957552918574,59.514604731783 
 A 0.8,0.8 0 0,0  36.663125727574,58.574148328115 
 L  36.163508263126 59.261812773334 
 L  34.788179372688 58.262577844437 
 L  35.287796837137 57.574913399218 
" class="symbol coil" /><path d="M  56.965754691814 59.58753882025 
L  52.920669719939 62.526465081713 
L  55.389367779568 65.924336458087 
L  59.434452751442 62.985410196625 
L  58.611553398233 61.8527864045 
L  55.699092218483 63.968813312753 
L  54.876192865274 62.836189520628 
L  57.788654045024 60.720162612375 
 z" class="symbol resistor" /><path d="M  56.965754691814 59.58753882025 
L  61.010839663689 56.648612558788 
L  63.479537723317 60.046483935163 
L  59.434452751442 62.985410196625 
L  58.611553398233 61.8527864045 
L  61.524014577983 59.736759496247 
L  60.701115224773 58.604135704122 
L  57.788654045024 60.720162612375 
 z" class="symbol resistor" /><path d=" M  59.680132363751 47.590757889843 
 L  60.112756155876 48.922237012656 
 L  67.721208286237 46.450101057656 
 L  67.288584494112 45.118621934843 
 z" class="symbol capacitor" /><path d=" M  59.247508571626 46.259278767029 
 L  58.814884779501 44.927799644216 
 L  66.423336909862 42.455663689216 
 L  66.855960701987 43.78714281203 
 z" class="symbol capacitor" /><path d=" M  39.383209650595 50.473494752255 
 L  37.92782781487 43.626461547118 
 L  41.256525621903 44.70802102743 
 L  41.689149414028 43.376541904617 
 L  34.080697283667 40.904405949618 
 L  33.648073491542 42.235885072431 
 L  36.976771298575 43.317444552743 
 L  31.774757520233 48.001358797255 
 z" class="symbol diode" /><path d=" M  42.5 36.049150281253 
 A 2,2 0 0,0  46.5,36.049150281253 
 A 2,2 0 1,0  42.5,36.049150281253 
 z" class="symbol switch" /><path d=" M  45.623720558371 31.155368063902 
 L  53.527501926041 35.718618364142 
 A 2,2 0 1,0  54.227501926041,34.506182798844 
 L  46.323720558371 29.942932498604 
 z" class="symbol switch" /><path class="char o" d="	M 40.763495833333,80.21521875 C 37.866530555555,80.21521875 35.293156944444,82.726954861111 35.293156944444,85.546872916666 C 35.293156944444,87.596321527777 36.911147222222,89.152674305555 39.022233333333,89.152674305555 C 41.919198611111,89.152674305555 44.523391666666,86.671757638888 44.523391666666,83.913475694444 C 44.523391666666,81.771571527777 42.951629166666,80.21521875 40.763495833333,80.21521875 M 40.409079166666,82.095165972222 C 41.564783333333,82.095165972222 42.412302777777,82.988913194444 42.412302777777,84.190845138888 C 42.412302777777,85.778013194444 40.979226388888,87.272727083333 39.4382875,87.272727083333 C 38.267173611111,87.272727083333 37.404245833333,86.394389583333 37.404245833333,85.19245625 C 37.404245833333,83.574471527777 38.837322222222,82.095165972222 40.409079166666,82.095165972222" /><path class="char q" d="	M 52.6569,80.406385416666 L 52.441168055555,81.500453472222 C 52.240847222222,81.099809027777 52.102161111111,80.945714583333 51.763154166666,80.714574305555 C 51.239236111111,80.375567361111 50.669086111111,80.206063194444 49.944844444444,80.206063194444 C 47.186563888888,80.206063194444 44.721055555555,82.717799305555 44.721055555555,85.506899305555 C 44.721055555555,87.664213194444 46.154133333333,89.14351875 48.249809722222,89.14351875 C 49.297648611111,89.14351875 50.314670833333,88.773692361111 51.054322222222,88.126497916666 L 50.376308333333,91.793936805555 L 52.425759722222,91.793936805555 L 54.536847222222,80.406385416666 L 52.6569,80.406385416666 M 49.852388888888,82.086010416666 C 51.054320833333,82.086010416666 51.855611111111,82.933529861111 51.855611111111,84.212509027777 C 51.855611111111,85.830495138888 50.453354166666,87.263571527777 48.866186111111,87.263571527777 C 47.618026388888,87.263571527777 46.832144444444,86.46228125 46.832144444444,85.198710416666 C 46.832144444444,83.503678472222 48.218993055555,82.086010416666 49.852388888888,82.086010416666" /><path class="char l" d="	M 53.937159722222,91.789240972222 L 55.986611111111,91.789240972222 L 58.0977,80.401689583333 L 56.048248611111,80.401689583333 L 53.937159722222,91.789240972222" /><path class="char t" d="	M 57.837470833333,91.783578472222 L 59.886922222222,91.783578472222 L 61.119673611111,85.111304861111 L 62.352426388888,85.111304861111 L 62.706843055555,83.246767361111 L 61.474090277777,83.246767361111 L 61.998009722222,80.396027083333 L 59.948559722222,80.396027083333 L 59.424638888888,83.246767361111 L 58.423027777777,83.246767361111 L 58.068611111111,85.111304861111 L 59.070223611111,85.111304861111 L 57.837470833333,91.783578472222" /></g></svg>