<?xml version="1.0" standalone="yes"?>
<svg
	xmlns:dc="http://purl.org/dc/elements/1.1/"
	xmlns:cc="http://creativecommons.org/ns#"
	xmlns:rdf="http://www.w3.org/1999/02/22-rdf-syntax-ns#"
	xmlns:svg="http://www.w3.org/2000/svg"
	xmlns:xlink="http://www.w3.org/1999/xlink"
	xmlns="http://www.w3.org/2000/svg"
	width="102"
	height="102"
>
<style type="text/css">
<![CDATA[
.symbol {stroke-width:0; fill:#fff}
.outer {stroke-width:0; fill:#fff;}
.main {fill:#000}
.char {fill:#fff}
.pentacle, .q {stroke-width:0; fill:#390;}
]]><!--#fc0fc0-->
</style><rect  x="0" y="0" width="102" height="102" class="main" />
<g transform="translate(1,1)" class="main"><path d=" M  53.073090336472 4.6038975705636 
 L  51.585361831028 0.025140041569685 
 A 50,50 0 0,1  97.039012466382,33.049150281253 
 L  92.224621890698 33.049150281253 
 A 45.5,45.5 0 0,0  53.073090336472,4.6038975705636 
" class="outer" /><path d=" M  94.123896169137 38.894515460584 
 L  98.018819962424 36.064687681421 
 A 50,50 0 0,1  80.657070332482,89.498658694053 
 L  79.169341827037 84.919901165059 
 A 45.5,45.5 0 0,0  94.123896169137,38.894515460584 
" class="outer" /><path d=" M  74.196977212126 88.532535522541 
 L  78.091901005412 91.362363301704 
 A 50,50 0 0,1  21.908098994588,91.362363301704 
 L  25.803022787874 88.532535522541 
 A 45.5,45.5 0 0,0  74.196977212126,88.532535522541 
" class="outer" /><path d=" M  20.830658172963 84.919901165059 
 L  19.342929667518 89.498658694053 
 A 50,50 0 0,1  1.9811800375763,36.064687681421 
 L  5.8761038308629 38.894515460584 
 A 45.5,45.5 0 0,0  20.830658172963,84.919901165059 
" class="outer" /><path d=" M  7.7753781093016 33.049150281253 
 L  2.960987533618 33.049150281253 
 A 50,50 0 0,1  48.414638168973,0.02514004156972 
 L  46.926909663528 4.6038975705636 
 A 45.5,45.5 0 0,0  7.7753781093016,33.049150281253 
" class="outer" /><path d="M  97.552825814758 34.549150281253 
 L  58.098076211353 34.549150281253 
 A 3,3 0 0,1  58.098076211353 37.549150281253 
 L  88.319775203232 37.549150281253 
 L  68.132536130047 52.570139957182 
 L  69.014214008486 55.283665448745 
" class="pentacle" />
<path d="M  79.389262614624 90.450849718747 
 L  65.884346735655 48.88699244711 
 L  63.03117718677 49.814043430235 
 L  73.682923516853 82.596747752498 
 L  53.158913461233 68.03928356813 
 L  50.850650808352 69.716334551255 
" class="pentacle" />
<path d="M  63.504915878968 41.563857271637 
 L  62.525378199421 38.549150281253 
 L  59.370991526706 38.549150281253 
 L  60.651746330083 42.490908254762 
 z" class="pentacle" />
<path d="M  20.610737385376 90.450849718747 
 L  53.418662639442 66.614496766047 
 L  51.655306882565 64.187445782922 
 L  26.317076483147 82.596747752498 
 L  33.819779756515 58.57875042062 
 L  31.511517103633 56.901699437495 
" class="pentacle" />
<path d="M  2.4471741852423 34.549150281253 
 L  34.324729895777 57.709550193816 
 L  36.088085652655 55.282499210691 
 L  11.680224796768 37.549150281253 
 L  36.841160482833 37.262675772815 
 L  37.722838361272 34.549150281253 
" class="pentacle" />
<path d="M  50 0 
 L  36.798257268217 40.63078626763 
 L  39.651426817103 41.557837250755 
 L  50 9.7082039324994 
 L  58.047610169371 33.549150281253 
 L  60.900779718257 33.549150281253 
" class="pentacle" />
<path d="M  33.812480117159 49.820063451117 
 L  33.136115584798 51.901699437495 
 L  35.688068009854 53.755801403744 
 L  36.665649666044 50.747114434242 
 z" class="pentacle" />
<path d="M  35.878274876389 57.272580586567 
 A 2.5,2.5 0 0,1  40.307737135469,58.066220363412 
 A 2.5,2.5 0 0,1  42.815689818031,59.888354645519 
 A 2.5,2.5 0 0,1  45.323642500593,61.710488927626 
 A 2.5,2.5 0 0,1  47.447217895951,65.67790969435 
 L  46.702689909714 66.702664553891 
 L  45.165557620401 65.585872574535 
 L  45.910085606639 64.561117714994 
 A 0.6,0.6 0 1,0  44.939265213389,63.855775412243 
 A 0.95,0.95 0 0,1  43.402132924076,62.738983432887 
 A 0.6,0.6 0 0,0  42.431312530826,62.033641130136 
 A 0.95,0.95 0 0,1  40.894180241514,60.916849150781 
 A 0.6,0.6 0 0,0  39.923359848264,60.21150684803 
 A 0.95,0.95 0 0,1  38.386227558952,59.094714868674 
 A 0.6,0.6 0 0,0  37.415407165702,58.389372565923 
 L  36.670879179465 59.414127425465 
 L  35.133746890152 58.297335446109 
 L  35.878274876389 57.272580586567 
" class="symbol coil" /><path d="M  56.377969439522 58.778521825875 
L  51.523867473272 62.30523333963 
L  55.168136037485 67.321138704755 
L  60.022238003735 63.794427191 
L  59.081781600067 62.5 
L  55.522106824817 65.086255110087 
L  53.75875106794 62.659204126962 
L  57.31842584319 60.072949016875 
 z" class="symbol resistor" /><path d="M  56.377969439522 58.778521825875 
L  61.232071405771 55.25181031212 
L  64.876339969985 60.267715677245 
L  60.022238003735 63.794427191 
L  59.081781600067 62.5 
L  62.641456375317 59.913744889913 
L  60.878100618439 57.486693906788 
L  57.31842584319 60.072949016875 
 z" class="symbol resistor" /><path d=" M  58.996541399309 48.075735614416 
 L  59.583673688621 49.882742995377 
 L  68.713816245054 46.916179849378 
 L  68.126683955742 45.109172468417 
 z" class="symbol capacitor" /><path d=" M  58.409409109996 46.268728233455 
 L  57.822276820684 44.461720852495 
 L  66.952419377117 41.495157706495 
 L  67.53955166643 43.302165087456 
 z" class="symbol capacitor" /><path d=" M  39.352307951157 50.568600403884 
 L  37.896926115433 43.721567198748 
 L  41.225623922466 44.80312667906 
 L  41.720051113466 43.281436252988 
 L  34.111598983105 40.809300297988 
 L  33.617171792105 42.33099072406 
 L  36.945869599138 43.412550204373 
 L  31.743855820796 48.096464448885 
 z" class="symbol diode" /><path d=" M  42.5 36.049150281253 
 A 2,2 0 0,0  46.5,36.049150281253 
 A 2,2 0 1,0  42.5,36.049150281253 
 z" class="symbol switch" /><path d=" M  46.559281037942 29.591322129196 
 L  53.581587253734 35.48373668488 
 A 2,2 0 1,0  54.610047429232,34.25806557589 
 L  47.58774121344 28.365651020206 
 z" class="symbol switch" /><path class="char o" d="	M 40.763495833333,79.96521875 C 37.866530555555,79.96521875 35.293156944444,82.476954861111 35.293156944444,85.296872916666 C 35.293156944444,87.346321527777 36.911147222222,88.902674305555 39.022233333333,88.902674305555 C 41.919198611111,88.902674305555 44.523391666666,86.421757638888 44.523391666666,83.663475694444 C 44.523391666666,81.521571527777 42.951629166666,79.96521875 40.763495833333,79.96521875 M 40.409079166666,81.845165972222 C 41.564783333333,81.845165972222 42.412302777777,82.738913194444 42.412302777777,83.940845138888 C 42.412302777777,85.528013194444 40.979226388888,87.022727083333 39.4382875,87.022727083333 C 38.267173611111,87.022727083333 37.404245833333,86.144389583333 37.404245833333,84.94245625 C 37.404245833333,83.324471527777 38.837322222222,81.845165972222 40.409079166666,81.845165972222" /><path class="char q" d="	M 52.6569,80.156385416666 L 52.441168055555,81.250453472222 C 52.240847222222,80.849809027777 52.102161111111,80.695714583333 51.763154166666,80.464574305555 C 51.239236111111,80.125567361111 50.669086111111,79.956063194444 49.944844444444,79.956063194444 C 47.186563888888,79.956063194444 44.721055555555,82.467799305555 44.721055555555,85.256899305555 C 44.721055555555,87.414213194444 46.154133333333,88.89351875 48.249809722222,88.89351875 C 49.297648611111,88.89351875 50.314670833333,88.523692361111 51.054322222222,87.876497916666 L 50.376308333333,91.543936805555 L 52.425759722222,91.543936805555 L 54.536847222222,80.156385416666 L 52.6569,80.156385416666 M 49.852388888888,81.836010416666 C 51.054320833333,81.836010416666 51.855611111111,82.683529861111 51.855611111111,83.962509027777 C 51.855611111111,85.580495138888 50.453354166666,87.013571527777 48.866186111111,87.013571527777 C 47.618026388888,87.013571527777 46.832144444444,86.21228125 46.832144444444,84.948710416666 C 46.832144444444,83.253678472222 48.218993055555,81.836010416666 49.852388888888,81.836010416666" /><path class="char l" d="	M 53.937159722222,91.539240972222 L 55.986611111111,91.539240972222 L 58.0977,80.151689583333 L 56.048248611111,80.151689583333 L 53.937159722222,91.539240972222" /><path class="char t" d="	M 57.837470833333,91.533578472222 L 59.886922222222,91.533578472222 L 61.119673611111,84.861304861111 L 62.352426388888,84.861304861111 L 62.706843055555,82.996767361111 L 61.474090277777,82.996767361111 L 61.998009722222,80.146027083333 L 59.948559722222,80.146027083333 L 59.424638888888,82.996767361111 L 58.423027777777,82.996767361111 L 58.068611111111,84.861304861111 L 59.070223611111,84.861304861111 L 57.837470833333,91.533578472222" /></g></svg>