<?xml version="1.0" standalone="yes"?>
<svg
	xmlns:dc="http://purl.org/dc/elements/1.1/"
	xmlns:cc="http://creativecommons.org/ns#"
	xmlns:rdf="http://www.w3.org/1999/02/22-rdf-syntax-ns#"
	xmlns:svg="http://www.w3.org/2000/svg"
	xmlns:xlink="http://www.w3.org/1999/xlink"
	xmlns="http://www.w3.org/2000/svg"
	width="102"
	height="102"
>
<style type="text/css">
<![CDATA[
.pentacle {stroke-width:0; fill:#390;}
.symbol {stroke-width:0; fill:#fff}
.outer {stroke-width:0; fill:#fff;}
.main {fill:#000}
]]>
</style><rect  x="0" y="0" width="102" height="102" class="main" />
<g transform="translate(1,1)" class="main"><path d=" M  53.073090336472 4.6038975705636 
 L  51.585361831028 0.025140041569685 
 A 50,50 0 0,1  97.039012466382,33.049150281253 
 L  92.224621890698 33.049150281253 
 A 45.5,45.5 0 0,0  53.073090336472,4.6038975705636 
" class="outer" /><path d=" M  94.123896169137 38.894515460584 
 L  98.018819962424 36.064687681421 
 A 50,50 0 0,1  80.657070332482,89.498658694053 
 L  79.169341827037 84.919901165059 
 A 45.5,45.5 0 0,0  94.123896169137,38.894515460584 
" class="outer" /><path d=" M  74.196977212126 88.532535522541 
 L  78.091901005412 91.362363301704 
 A 50,50 0 0,1  21.908098994588,91.362363301704 
 L  25.803022787874 88.532535522541 
 A 45.5,45.5 0 0,0  74.196977212126,88.532535522541 
" class="outer" /><path d=" M  20.830658172963 84.919901165059 
 L  19.342929667518 89.498658694053 
 A 50,50 0 0,1  1.9811800375763,36.064687681421 
 L  5.8761038308629 38.894515460584 
 A 45.5,45.5 0 0,0  20.830658172963,84.919901165059 
" class="outer" /><path d=" M  7.7753781093016 33.049150281253 
 L  2.960987533618 33.049150281253 
 A 50,50 0 0,1  48.414638168973,0.02514004156972 
 L  46.926909663528 4.6038975705636 
 A 45.5,45.5 0 0,0  7.7753781093016,33.049150281253 
" class="outer" /><path d="M  97.552825814758 34.549150281253 
 L  58.25 34.549150281253 
 L  58.25 37.549150281253 
 L  88.319775203232 37.549150281253 
 L  67.919873427959 52.72464845437 
 L  68.801551306398 55.438173945932 
" class="pentacle" />
<path d="M  79.389262614624 90.450849718747 
 L  65.57532974128 47.935935930815 
 L  62.722160192395 48.86298691394 
 L  73.682923516853 82.596747752498 
 L  52.946250759145 67.884775070943 
 L  50.637988106264 69.561826054068 
" class="pentacle" />
<path d="M  63.813932873343 42.514913787932 
 L  62.444148275363 38.299150281253 
 L  59.289761602648 38.299150281253 
 L  60.960763324458 43.441964771057 
 z" class="pentacle" />
<path d="M  20.610737385376 90.450849718747 
 L  54.429933882411 65.879765200682 
 L  52.666578125534 63.452714217557 
 L  26.317076483147 82.596747752498 
 L  33.901009680573 58.32875042062 
 L  31.592747027691 56.651699437495 
" class="pentacle" />
<path d="M  63.733629317723 59.120234799318 
 L  64.973622668814 58.219326895307 
 L  63.998863580115 55.219326895307 
 L  61.970273560846 56.693183816193 
 z" class="pentacle" />
<path d="M  2.4471741852423 34.549150281253 
 L  34.284279046058 57.680160931202 
 L  36.047634802936 55.253109948077 
 L  11.680224796768 37.549150281253 
 L  37.104026038893 37.262675772815 
 L  37.985703917332 34.549150281253 
" class="pentacle" />
<path d="M  50 0 
 L  36.690101320186 40.963656048334 
 L  39.543270869072 41.890707031458 
 L  50 9.7082039324994 
 L  58.128840093429 33.799150281253 
 L  60.982009642315 33.799150281253 
" class="pentacle" />
<path d="M  33.92063606519 49.487193670414 
 L  33.054885660739 52.151699437495 
 L  35.606838085796 54.005801403744 
 L  36.773805614076 50.414244653539 
 z" class="pentacle" />
<path d="M  35.287796837137 57.574913399218 
 A 2.5,2.5 0 0,1  39.749174462675,58.494755604355 
 A 2.5,2.5 0 0,1  42.418930544112,60.43444693692 
 A 2.5,2.5 0 0,1  45.088686625549,62.374138269486 
 A 2.5,2.5 0 0,1  47.342150053324,66.332913658376 
 L  45.966821162886 65.333678729479 
 A 0.8,0.8 0 1,0  44.672393971886,64.393222325811 
 A 0.85,0.85 0 0,1  43.297065081449,63.393987396913 
 A 0.8,0.8 0 0,0  42.002637890449,62.453530993246 
 A 0.85,0.85 0 0,1  40.627309000012,61.454296064348 
 A 0.8,0.8 0 0,0  39.332881809012,60.51383966068 
 A 0.85,0.85 0 0,1  37.957552918574,59.514604731783 
 A 0.8,0.8 0 0,0  36.663125727574,58.574148328115 
 L  35.287796837137 57.574913399218 
" class="symbol coil" /><path d="M  56.965754691814 59.58753882025 
L  52.920669719939 62.526465081713 
L  55.389367779568 65.924336458087 
L  59.434452751442 62.985410196625 
L  58.611553398233 61.8527864045 
L  55.699092218483 63.968813312753 
L  54.876192865274 62.836189520628 
L  57.788654045024 60.720162612375 
 z" class="symbol resistor" /><path d="M  56.965754691814 59.58753882025 
L  61.010839663689 56.648612558788 
L  63.479537723317 60.046483935163 
L  59.434452751442 62.985410196625 
L  58.611553398233 61.8527864045 
L  61.524014577983 59.736759496247 
L  60.701115224773 58.604135704122 
L  57.788654045024 60.720162612375 
 z" class="symbol resistor" /><path d=" M  59.680132363751 47.590757889843 
 L  60.112756155876 48.922237012656 
 L  67.721208286237 46.450101057656 
 L  67.288584494112 45.118621934843 
 z" class="symbol capacitor" /><path d=" M  59.247508571626 46.259278767029 
 L  58.814884779501 44.927799644216 
 L  66.423336909862 42.455663689216 
 L  66.855960701987 43.78714281203 
 z" class="symbol capacitor" /><path d=" M  39.383209650595 50.473494752255 
 L  37.92782781487 43.626461547118 
 L  41.256525621903 44.70802102743 
 L  41.689149414028 43.376541904617 
 L  34.080697283667 40.904405949618 
 L  33.648073491542 42.235885072431 
 L  36.976771298575 43.317444552743 
 L  31.774757520233 48.001358797255 
 z" class="symbol diode" /><path d=" M  42.5 36.049150281253 
 A 2,2 0 0,0  46.5,36.049150281253 
 A 2,2 0 1,0  42.5,36.049150281253 
 z" class="symbol switch" /><path d=" M  45.623720558371 31.155368063902 
 L  53.527501926041 35.718618364142 
 A 2,2 0 1,0  54.227501926041,34.506182798844 
 L  46.323720558371 29.942932498604 
 z" class="symbol switch" /></g></svg>