<?xml version="1.0" standalone="yes"?>
<svg
	xmlns:dc="http://purl.org/dc/elements/1.1/"
	xmlns:cc="http://creativecommons.org/ns#"
	xmlns:rdf="http://www.w3.org/1999/02/22-rdf-syntax-ns#"
	xmlns:svg="http://www.w3.org/2000/svg"
	xmlns:xlink="http://www.w3.org/1999/xlink"
	xmlns="http://www.w3.org/2000/svg"
	width="102"
	height="102"
>
<style type="text/css">
<![CDATA[
* { fill:none; }
.main { stroke:#000000; stroke-width:0; }
.pentacle { stroke:#00f; stroke-width:0; fill:#0000ff;}
.coil { stroke:#00f; stroke-width:0.0; fill:#000000}
.symbol { stroke:#00f; stroke-width:0.0; fill:#000000}
.resistor { stroke:#00f; stroke-width:0.0;}
.outer {stroke:#00f; stroke-width:0; fill:#00bb00;}
circle {fill:#ff0000;}
]]>
</style><g transform="translate(1,1)"><path d=" M  52.53659270981 4.570761646 
 L  51.05507961023 0.011133169313815 
 A 50,50 0 0,1  97.216200011555,33.549150281253 
 L  92.421922911759 33.549150281253 
 A 45.5,45.5 0 0,0  52.53659270981,4.5707616460001 
" class="outer" /><path d=" M  93.989623422036 38.374036332955 
 L  97.868275071514 35.556030958291 
 A 50,50 0 0,1  80.236296036984,89.821682560684 
 L  78.754782937404 85.262054083997 
 A 45.5,45.5 0 0,0  93.989623422036,38.374036332955 
" class="outer" /><path d=" M  74.650489717317 88.243997655795 
 L  78.529141366795 91.062003030459 
 A 50,50 0 0,1  21.470858633205,91.062003030459 
 L  25.349510282683 88.243997655795 
 A 45.5,45.5 0 0,0  74.650489717317,88.243997655795 
" class="outer" /><path d=" M  21.245217062596 85.262054083997 
 L  19.763703963016 89.821682560684 
 A 50,50 0 0,1  2.1317249284858,35.556030958291 
 L  6.0103765779638 38.374036332955 
 A 45.5,45.5 0 0,0  21.245217062596,85.262054083997 
" class="outer" /><path d=" M  7.5780770882414 33.549150281253 
 L  2.7837999884448 33.549150281253 
 A 50,50 0 0,1  48.94492038977,0.011133169313837 
 L  47.46340729019 4.570761646 
 A 45.5,45.5 0 0,0  7.5780770882414,33.549150281253 
" class="outer" /><path d="M  97.552825814758 34.549150281253 
 L  53.25 34.549150281253 
 L  53.25 37.549150281253 
 L  88.319775203232 37.549150281253 
 L  67.919873427959 52.72464845437 
 L  68.801551306398 55.438173945932 
" class="pentacle" />
<path d="M  46.75 34.549150281253 
 L  42.717283926404 34.549150281253 
 L  41.742524837705 37.549150281253 
 L  46.75 37.549150281253 
 z" class="pentacle" />
<path d="M  79.389262614624 90.450849718747 
 L  65.57532974128 47.935935930815 
 L  62.722160192395 48.86298691394 
 L  73.682923516853 82.596747752498 
 L  52.946250759145 67.884775070943 
 L  50.637988106264 69.561826054068 
" class="pentacle" />
<path d="M  63.813932873343 42.514913787932 
 L  62.444148275363 38.299150281253 
 L  59.289761602648 38.299150281253 
 L  60.960763324458 43.441964771057 
 z" class="pentacle" />
<path d="M  20.610737385376 90.450849718747 
 L  54.429933882411 65.879765200682 
 L  52.666578125534 63.452714217557 
 L  26.317076483147 82.596747752498 
 L  33.901009680573 58.32875042062 
 L  31.592747027691 56.651699437495 
" class="pentacle" />
<path d="M  63.733629317723 59.120234799318 
 L  64.973622668814 58.219326895307 
 L  63.998863580115 55.219326895307 
 L  61.970273560846 56.693183816193 
 z" class="pentacle" />
<path d="M  2.4471741852423 34.549150281253 
 L  34.89104179184 58.120999870421 
 L  36.654397548717 55.693948887296 
 L  11.680224796768 37.549150281253 
 L  37.104026038893 37.262675772815 
 L  37.985703917332 34.549150281253 
" class="pentacle" />
<path d="M  50 0 
 L  36.309673924407 42.134491181414 
 L  39.162843473292 43.061542164539 
 L  50 9.7082039324994 
 L  58.128840093429 33.799150281253 
 L  60.982009642315 33.799150281253 
" class="pentacle" />
<path d="M  34.30106346097 48.316358537333 
 L  33.054885660739 52.151699437495 
 L  35.606838085796 54.005801403744 
 L  37.154233009855 49.243409520458 
 z" class="pentacle" />
<path d="M  47.661149079903 64.617872953016 
 A 2.2,2.2 0 0,1  43.721835360405,63.745057153792 
 A 2.2,2.2 0 0,1  41.29478437728,61.981701396914 
 A 2.2,2.2 0 0,1  38.867733394156,60.218345640037 
 A 2.2,2.2 0 0,1  36.820321355279,56.741550572297 
 A 0.7,0.7 0 0,1  37.952945147404,57.564449925506 
 A 0.8,0.8 0 1,0  39.247372338404,58.504906329174 
 A 0.7,0.7 0 0,1  40.379996130529,59.327805682384 
 A 0.8,0.8 0 0,0  41.674423321529,60.268262086052 
 A 0.7,0.7 0 0,1  42.807047113654,61.091161439261 
 A 0.8,0.8 0 0,0  44.101474304653,62.031617842929 
 A 0.7,0.7 0 0,1  45.234098096778,62.854517196139 
 A 0.8,0.8 0 0,0  46.528525287778,63.794973599806 
 A 0.7,0.7 0 0,1  47.661149079903,64.617872953016 
" class="symbol coil" /><path d="M  56.965754691814 59.58753882025 
L  52.920669719939 62.526465081713 
L  55.389367779568 65.924336458087 
L  59.434452751442 62.985410196625 
L  58.611553398233 61.8527864045 
L  55.699092218483 63.968813312753 
L  54.876192865274 62.836189520628 
L  57.788654045024 60.720162612375 
 z" class="symbol resistor" /><path d="M  56.965754691814 59.58753882025 
L  61.010839663689 56.648612558788 
L  63.479537723317 60.046483935163 
L  59.434452751442 62.985410196625 
L  58.611553398233 61.8527864045 
L  61.524014577983 59.736759496247 
L  60.701115224773 58.604135704122 
L  57.788654045024 60.720162612375 
 z" class="symbol resistor" /><path d=" M  59.680132363751 47.590757889843 
 L  60.112756155876 48.922237012656 
 L  67.721208286237 46.450101057656 
 L  67.288584494112 45.118621934843 
 z" class="symbol capacitor" /><path d=" M  59.247508571626 46.259278767029 
 L  58.814884779501 44.927799644216 
 L  66.423336909862 42.455663689216 
 L  66.855960701987 43.78714281203 
 z" class="symbol capacitor" /></g></svg>