<?xml version="1.0" standalone="yes"?>
<svg
	xmlns:dc="http://purl.org/dc/elements/1.1/"
	xmlns:cc="http://creativecommons.org/ns#"
	xmlns:rdf="http://www.w3.org/1999/02/22-rdf-syntax-ns#"
	xmlns:svg="http://www.w3.org/2000/svg"
	xmlns:xlink="http://www.w3.org/1999/xlink"
	xmlns="http://www.w3.org/2000/svg"
	width="102"
	height="102"
>
<style type="text/css">
<![CDATA[
.pentacle {stroke-width:0; fill:#390;}
.symbol {stroke-width:0; fill:#fff}
.outer {stroke-width:0; fill:#fff;}
.main {fill:#000}
.char {fill:#fff}
.q {fill:#390}
]]>
</style><rect  x="0" y="0" width="102" height="102" class="main" />
<g transform="translate(1,1)" class="main"><path d=" M  53.073090336472 4.6038975705636 
 L  51.585361831028 0.025140041569685 
 A 50,50 0 0,1  97.039012466382,33.049150281253 
 L  92.224621890698 33.049150281253 
 A 45.5,45.5 0 0,0  53.073090336472,4.6038975705636 
" class="outer" /><path d=" M  94.123896169137 38.894515460584 
 L  98.018819962424 36.064687681421 
 A 50,50 0 0,1  80.657070332482,89.498658694053 
 L  79.169341827037 84.919901165059 
 A 45.5,45.5 0 0,0  94.123896169137,38.894515460584 
" class="outer" /><path d=" M  74.196977212126 88.532535522541 
 L  78.091901005412 91.362363301704 
 A 50,50 0 0,1  21.908098994588,91.362363301704 
 L  25.803022787874 88.532535522541 
 A 45.5,45.5 0 0,0  74.196977212126,88.532535522541 
" class="outer" /><path d=" M  20.830658172963 84.919901165059 
 L  19.342929667518 89.498658694053 
 A 50,50 0 0,1  1.9811800375763,36.064687681421 
 L  5.8761038308629 38.894515460584 
 A 45.5,45.5 0 0,0  20.830658172963,84.919901165059 
" class="outer" /><path d=" M  7.7753781093016 33.049150281253 
 L  2.960987533618 33.049150281253 
 A 50,50 0 0,1  48.414638168973,0.02514004156972 
 L  46.926909663528 4.6038975705636 
 A 45.5,45.5 0 0,0  7.7753781093016,33.049150281253 
" class="outer" /><path d="M  97.552825814758 34.549150281253 
 L  58.098076211353 34.549150281253 
 A 3,3 0 0,1  58.098076211353 37.549150281253 
 L  88.319775203232 37.549150281253 
 L  68.132536130047 52.570139957182 
 L  69.014214008486 55.283665448745 
" class="pentacle" />
<path d="M  79.389262614624 90.450849718747 
 L  65.652583989874 48.173700059889 
 L  62.799414440989 49.100751043014 
 L  73.682923516853 82.596747752498 
 L  53.158913461233 68.03928356813 
 L  50.850650808352 69.716334551255 
" class="pentacle" />
<path d="M  63.736678624749 42.277149658859 
 L  62.525378199421 38.549150281253 
 L  59.370991526706 38.549150281253 
 L  60.883509075864 43.204200641984 
 z" class="pentacle" />
<path d="M  20.610737385376 90.450849718747 
 L  54.227679633817 66.026711513755 
 L  52.46432387694 63.59966053063 
 L  26.317076483147 82.596747752498 
 L  33.819779756515 58.57875042062 
 L  31.511517103633 56.901699437495 
" class="pentacle" />
<path d="M  63.935883566317 58.973288486245 
 L  64.760959966726 58.373835392494 
 L  63.786200878027 55.373835392494 
 L  62.172527809439 56.54623750312 
 z" class="pentacle" />
<path d="M  2.4471741852423 34.549150281253 
 L  34.324729895777 57.709550193816 
 L  36.088085652655 55.282499210691 
 L  11.680224796768 37.549150281253 
 L  36.841160482833 37.262675772815 
 L  37.722838361272 34.549150281253 
" class="pentacle" />
<path d="M  50 0 
 L  36.76735556878 40.72589191926 
 L  39.620525117665 41.652942902385 
 L  50 9.7082039324994 
 L  58.047610169371 33.549150281253 
 L  60.900779718257 33.549150281253 
" class="pentacle" />
<path d="M  33.843381816596 49.724957799488 
 L  33.136115584798 51.901699437495 
 L  35.688068009854 53.755801403744 
 L  36.696551365482 50.652008782612 
 z" class="pentacle" />
<path d="M  35.559891198064 57.710798125187 
 A 2.5,2.5 0 0,1  39.989353457144,58.504437902032 
 A 2.5,2.5 0 0,1  42.497306139706,60.326572184139 
 A 2.5,2.5 0 0,1  45.005258822268,62.148706466245 
 A 2.5,2.5 0 0,1  47.128834217626,66.116127232969 
 L  46.384306231389 67.140882092511 
 L  44.847173942076 66.024090113155 
 L  45.591701928314 64.999335253614 
 A 0.6,0.6 0 1,0  44.620881535064,64.293992950863 
 A 0.95,0.95 0 0,1  43.083749245751,63.177200971507 
 A 0.6,0.6 0 0,0  42.112928852501,62.471858668756 
 A 0.95,0.95 0 0,1  40.575796563189,61.3550666894 
 A 0.6,0.6 0 0,0  39.604976169939,60.649724386649 
 A 0.95,0.95 0 0,1  38.067843880626,59.532932407294 
 A 0.6,0.6 0 0,0  37.097023487377,58.827590104543 
 L  36.352495501139 59.852344964084 
 L  34.815363211827 58.735552984729 
 L  35.559891198064 57.710798125187 
" class="symbol coil" /><path d="M  56.965754691814 59.58753882025 
L  52.920669719939 62.526465081713 
L  55.389367779568 65.924336458087 
L  59.434452751442 62.985410196625 
L  58.611553398233 61.8527864045 
L  55.699092218483 63.968813312753 
L  54.876192865274 62.836189520628 
L  57.788654045024 60.720162612375 
 z" class="symbol resistor" /><path d="M  56.965754691814 59.58753882025 
L  61.010839663689 56.648612558788 
L  63.479537723317 60.046483935163 
L  59.434452751442 62.985410196625 
L  58.611553398233 61.8527864045 
L  61.524014577983 59.736759496247 
L  60.701115224773 58.604135704122 
L  57.788654045024 60.720162612375 
 z" class="symbol resistor" /><path d=" M  59.680132363751 47.590757889843 
 L  60.112756155876 48.922237012656 
 L  67.721208286237 46.450101057656 
 L  67.288584494112 45.118621934843 
 z" class="symbol capacitor" /><path d=" M  59.247508571626 46.259278767029 
 L  58.814884779501 44.927799644216 
 L  66.423336909862 42.455663689216 
 L  66.855960701987 43.78714281203 
 z" class="symbol capacitor" /><path d=" M  39.383209650595 50.473494752255 
 L  37.92782781487 43.626461547118 
 L  41.256525621903 44.70802102743 
 L  41.689149414028 43.376541904617 
 L  34.080697283667 40.904405949618 
 L  33.648073491542 42.235885072431 
 L  36.976771298575 43.317444552743 
 L  31.774757520233 48.001358797255 
 z" class="symbol diode" /><path d=" M  42.5 36.049150281253 
 A 2,2 0 0,0  46.5,36.049150281253 
 A 2,2 0 1,0  42.5,36.049150281253 
 z" class="symbol switch" /><path d=" M  45.623720558371 31.155368063902 
 L  53.527501926041 35.718618364142 
 A 2,2 0 1,0  54.227501926041,34.506182798844 
 L  46.323720558371 29.942932498604 
 z" class="symbol switch" /><path class="char o" d="	M 36.899710069444,83.107609375 C 35.451227430556,83.107609375 34.164540625,84.363477430555 34.164540625,85.773436458333 C 34.164540625,86.798160763889 34.973535763889,87.576337152778 36.029078819444,87.576337152778 C 37.477561458333,87.576337152778 38.779657986111,86.335878819444 38.779657986111,84.956737847222 C 38.779657986111,83.885785763889 37.993776736111,83.107609375 36.899710069444,83.107609375 M 36.722501736111,84.047582986111 C 37.300353819444,84.047582986111 37.724113541667,84.494456597222 37.724113541667,85.095422569444 C 37.724113541667,85.889006597222 37.007575347222,86.636363541666 36.237105902778,86.636363541666 C 35.651548958333,86.636363541666 35.220085069444,86.197194791666 35.220085069444,85.596228125 C 35.220085069444,84.787235763889 35.936623263889,84.047582986111 36.722501736111,84.047582986111" /><path class="char q" d="	M 42.846412152778,83.203192708333 L 42.738546180556,83.750226736111 C 42.638385763889,83.549904513889 42.569042708333,83.472857291666 42.399539236111,83.357287152778 C 42.137580208333,83.187783680555 41.852505208333,83.103031597222 41.490384375,83.103031597222 C 40.111244097222,83.103031597222 38.878489930556,84.358899652778 38.878489930556,85.753449652778 C 38.878489930556,86.832106597222 39.595028819444,87.571759375 40.642867013889,87.571759375 C 41.166786458333,87.571759375 41.675297569444,87.386846180555 42.045123263889,87.063248958333 L 41.706116319444,88.896968402778 L 42.730842013889,88.896968402778 L 43.786385763889,83.203192708333 L 42.846412152778,83.203192708333 M 41.444156597222,84.043005208333 C 42.045122569444,84.043005208333 42.445767708333,84.466764930555 42.445767708333,85.106254513889 C 42.445767708333,85.915247569444 41.744639236111,86.631785763889 40.951055208333,86.631785763889 C 40.326975347222,86.631785763889 39.934034375,86.231140625 39.934034375,85.599355208333 C 39.934034375,84.751839236111 40.627458680556,84.043005208333 41.444156597222,84.043005208333" /><path class="char l" d="	M 43.486542013889,88.894620486111 L 44.511267708333,88.894620486111 L 45.566812152778,83.200844791666 L 44.542086458333,83.200844791666 L 43.486542013889,88.894620486111" /><path class="char t" d="	M 45.436697569444,88.891789236111 L 46.461423263889,88.891789236111 L 47.077798958333,85.555652430555 L 47.694175347222,85.555652430555 L 47.871383680556,84.623383680555 L 47.255007291667,84.623383680555 L 47.516967013889,83.198013541666 L 46.492242013889,83.198013541666 L 46.230281597222,84.623383680555 L 45.729476041667,84.623383680555 L 45.552267708333,85.555652430555 L 46.053073958333,85.555652430555 L 45.436697569444,88.891789236111" /><path class="char esse" d="	M 50.308973958333,84.423038891458 C 48.885386458333,84.423038891458 47.603676736111,85.67541111368 47.603676736111,87.068218058125 C 47.603676736111,88.137832641458 48.408612847222,88.891788891458 49.547482986111,88.891788891458 C 50.509366319444,88.891788891458 51.370251736111,88.375578474791 51.831955902778,87.529120835903 L 50.729797569444,87.529120835903 C 50.437385069444,87.821533335903 50.118680902778,87.949944447014 49.687757291667,87.949944447014 C 49.102932291667,87.949944447014 48.685795486111,87.600781252569 48.685795486111,87.108296530347 L 51.992269791667,87.108296530347 C 52.092305902778,86.869749308125 52.132544791667,86.515776391458 52.132544791667,86.146413197014 C 52.132544791667,85.130664585903 51.378587847222,84.423038891458 50.308973958333,84.423038891458 z M 54.497174652778,84.423038891458 C 53.581461458333,84.423038891458 52.793839236111,85.130343752569 52.793839236111,85.946020835903 C 52.793839236111,86.484675697014 53.029340625,86.726429169236 53.775762152778,86.98806111368 C 54.299026736111,87.172743058125 54.396978125,87.24889236368 54.396978125,87.448963891458 C 54.396978125,87.718290974791 54.148331597222,87.949944447014 53.855919097222,87.949944447014 C 53.555811458333,87.949944447014 53.382672569444,87.767507641458 53.374977430556,87.428924308125 L 52.352976041667,87.428924308125 C 52.345280902778,87.544350697014 52.332937152778,87.64486736368 52.332937152778,87.729513197014 C 52.332937152778,88.414374308125 52.865980208333,88.891788891458 53.635487152778,88.891788891458 C 54.597370486111,88.891788891458 55.459057986111,88.088776391458 55.459057986111,87.188453474791 C 55.459057986111,86.680579169236 55.208166319444,86.425038891458 54.477135069444,86.186491669236 C 54.092381597222,86.063370835903 54.108573263889,86.060004169236 54.016232986111,86.006138891458 C 53.923892013889,85.952272919236 53.855919097222,85.870352780347 53.855919097222,85.785706947014 C 53.855919097222,85.562550002569 54.058235069444,85.364883335903 54.296782291667,85.364883335903 C 54.512244097222,85.364883335903 54.629753819444,85.482393058125 54.637448958333,85.705550002569 L 55.639410763889,85.705550002569 C 55.654801041667,85.590124308125 55.659450347222,85.481912502569 55.659450347222,85.404961808125 C 55.659450347222,84.874002085903 55.128169791667,84.423038891458 54.497174652778,84.423038891458 z M 57.883805902778,84.423038891458 C 56.968092708333,84.423038891458 56.180470486111,85.130343752569 56.180470486111,85.946020835903 C 56.180470486111,86.484675697014 56.395932291667,86.726429169236 57.142353819444,86.98806111368 C 57.665618402778,87.172743058125 57.783609375,87.24889236368 57.783609375,87.448963891458 C 57.783609375,87.718290974791 57.534962847222,87.949944447014 57.242550347222,87.949944447014 C 56.942442708333,87.949944447014 56.769303125,87.767507641458 56.761608680556,87.428924308125 L 55.719567708333,87.428924308125 C 55.711873263889,87.544350697014 55.719567708333,87.64486736368 55.719567708333,87.729513197014 C 55.719567708333,88.414374308125 56.252611458333,88.891788891458 57.022118402778,88.891788891458 C 57.984001736111,88.891788891458 58.845689236111,88.088776391458 58.845689236111,87.188453474791 C 58.845689236111,86.680579169236 58.594797569444,86.425038891458 57.863766319444,86.186491669236 C 57.479012847222,86.063370835903 57.475165625,86.060004169236 57.382824652778,86.006138891458 C 57.290483680556,85.952272919236 57.242550347222,85.870352780347 57.242550347222,85.785706947014 C 57.242550347222,85.562550002569 57.444866319444,85.364883335903 57.683413541667,85.364883335903 C 57.898875347222,85.364883335903 58.016385069444,85.482393058125 58.024080208333,85.705550002569 L 59.026042013889,85.705550002569 C 59.041432291667,85.590124308125 59.046081597222,85.481912502569 59.046081597222,85.404961808125 C 59.046081597222,84.874002085903 58.514801041667,84.423038891458 57.883805902778,84.423038891458 z M 62.011888541667,84.423038891458 C 60.588301041667,84.423038891458 59.306591319444,85.67541111368 59.306591319444,87.068218058125 C 59.306591319444,88.137832641458 60.091488541667,88.891788891458 61.230358680556,88.891788891458 C 62.192242013889,88.891788891458 63.073166319444,88.375578474791 63.534870486111,87.529120835903 L 62.412673263889,87.529120835903 C 62.120260763889,87.821533335903 61.801556597222,87.949944447014 61.370632986111,87.949944447014 C 60.785807986111,87.949944447014 60.388710069444,87.600781252569 60.388710069444,87.108296530347 L 63.675145486111,87.108296530347 C 63.775180902778,86.869749308125 63.835459375,86.515776391458 63.835459375,86.146413197014 C 63.835459375,85.130664585903 63.081503125,84.423038891458 62.011888541667,84.423038891458 z M 50.148660069444,85.364883335903 C 50.802740625,85.364883335903 51.159919791667,85.65248611368 51.190700347222,86.206531252569 L 48.826070486111,86.206531252569 C 49.026142013889,85.706351391458 49.556139930556,85.364883335903 50.148660069444,85.364883335903 z M 61.851574652778,85.364883335903 C 62.505655208333,85.364883335903 62.842795486111,85.65248611368 62.873576041667,86.206531252569 L 60.508945486111,86.206531252569 C 60.709017708333,85.706351391458 61.259054513889,85.364883335903 61.851574652778,85.364883335903 z" /></g></svg>