<?xml version="1.0" standalone="yes"?>
<svg
	xmlns:dc="http://purl.org/dc/elements/1.1/"
	xmlns:cc="http://creativecommons.org/ns#"
	xmlns:rdf="http://www.w3.org/1999/02/22-rdf-syntax-ns#"
	xmlns:svg="http://www.w3.org/2000/svg"
	xmlns:xlink="http://www.w3.org/1999/xlink"
	xmlns="http://www.w3.org/2000/svg"
	width="102"
	height="102"
>
<style type="text/css">
<![CDATA[
.symbol {stroke-width:0; fill:#fff}
.outer {stroke-width:0; fill:#fff;}
.main {fill:#000}
.char {fill:#fff}
.pentacle, .q {stroke-width:0; fill:#fc0fc0;}
]]><!--#fc0fc0-->
</style><rect  x="0" y="0" width="102" height="102" class="main" />
<g transform="translate(1,1)" class="main"><path d=" M  53.073090336472 4.6038975705636 
 L  51.585361831028 0.025140041569685 
 A 50,50 0 0,1  97.039012466382,33.049150281253 
 L  92.224621890698 33.049150281253 
 A 45.5,45.5 0 0,0  53.073090336472,4.6038975705636 
" class="outer" /><path d=" M  94.123896169137 38.894515460584 
 L  98.018819962424 36.064687681421 
 A 50,50 0 0,1  80.657070332482,89.498658694053 
 L  79.169341827037 84.919901165059 
 A 45.5,45.5 0 0,0  94.123896169137,38.894515460584 
" class="outer" /><path d=" M  74.196977212126 88.532535522541 
 L  78.091901005412 91.362363301704 
 A 50,50 0 0,1  21.908098994588,91.362363301704 
 L  25.803022787874 88.532535522541 
 A 45.5,45.5 0 0,0  74.196977212126,88.532535522541 
" class="outer" /><path d=" M  20.830658172963 84.919901165059 
 L  19.342929667518 89.498658694053 
 A 50,50 0 0,1  1.9811800375763,36.064687681421 
 L  5.8761038308629 38.894515460584 
 A 45.5,45.5 0 0,0  20.830658172963,84.919901165059 
" class="outer" /><path d=" M  7.7753781093016 33.049150281253 
 L  2.960987533618 33.049150281253 
 A 50,50 0 0,1  48.414638168973,0.02514004156972 
 L  46.926909663528 4.6038975705636 
 A 45.5,45.5 0 0,0  7.7753781093016,33.049150281253 
" class="outer" /><path d="M  97.552825814758 34.549150281253 
 L  58.098076211353 34.549150281253 
 A 3,3 0 0,1  58.098076211353 37.549150281253 
 L  88.319775203232 37.549150281253 
 L  68.132536130047 52.570139957182 
 L  69.014214008486 55.283665448745 
" class="pentacle" />
<path d="M  79.389262614624 90.450849718747 
 L  65.884346735655 48.88699244711 
 L  63.03117718677 49.814043430235 
 L  73.682923516853 82.596747752498 
 L  53.158913461233 68.03928356813 
 L  50.850650808352 69.716334551255 
" class="pentacle" />
<path d="M  63.504915878968 41.563857271637 
 L  62.525378199421 38.549150281253 
 L  59.370991526706 38.549150281253 
 L  60.651746330083 42.490908254762 
 z" class="pentacle" />
<path d="M  20.610737385376 90.450849718747 
 L  53.418662639442 66.614496766047 
 L  51.655306882565 64.187445782922 
 L  26.317076483147 82.596747752498 
 L  33.819779756515 58.57875042062 
 L  31.511517103633 56.901699437495 
" class="pentacle" />
<path d="M  2.4471741852423 34.549150281253 
 L  34.324729895777 57.709550193816 
 L  36.088085652655 55.282499210691 
 L  11.680224796768 37.549150281253 
 L  36.841160482833 37.262675772815 
 L  37.722838361272 34.549150281253 
" class="pentacle" />
<path d="M  50 0 
 L  36.798257268217 40.63078626763 
 L  39.651426817103 41.557837250755 
 L  50 9.7082039324994 
 L  58.047610169371 33.549150281253 
 L  60.900779718257 33.549150281253 
" class="pentacle" />
<path d="M  33.812480117159 49.820063451117 
 L  33.136115584798 51.901699437495 
 L  35.688068009854 53.755801403744 
 L  36.665649666044 50.747114434242 
 z" class="pentacle" />
<path d="M  35.878274876389 57.272580586567 
 A 2.5,2.5 0 0,1  40.307737135469,58.066220363412 
 A 2.5,2.5 0 0,1  42.815689818031,59.888354645519 
 A 2.5,2.5 0 0,1  45.323642500593,61.710488927626 
 A 2.5,2.5 0 0,1  47.447217895951,65.67790969435 
 L  46.702689909714 66.702664553891 
 L  45.165557620401 65.585872574535 
 L  45.910085606639 64.561117714994 
 A 0.6,0.6 0 1,0  44.939265213389,63.855775412243 
 A 0.95,0.95 0 0,1  43.402132924076,62.738983432887 
 A 0.6,0.6 0 0,0  42.431312530826,62.033641130136 
 A 0.95,0.95 0 0,1  40.894180241514,60.916849150781 
 A 0.6,0.6 0 0,0  39.923359848264,60.21150684803 
 A 0.95,0.95 0 0,1  38.386227558952,59.094714868674 
 A 0.6,0.6 0 0,0  37.415407165702,58.389372565923 
 L  36.670879179465 59.414127425465 
 L  35.133746890152 58.297335446109 
 L  35.878274876389 57.272580586567 
" class="symbol coil" /><path d="M  56.377969439522 58.778521825875 
L  51.523867473272 62.30523333963 
L  55.168136037485 67.321138704755 
L  60.022238003735 63.794427191 
L  59.081781600067 62.5 
L  55.522106824817 65.086255110087 
L  53.75875106794 62.659204126962 
L  57.31842584319 60.072949016875 
 z" class="symbol resistor" /><path d="M  56.377969439522 58.778521825875 
L  61.232071405771 55.25181031212 
L  64.876339969985 60.267715677245 
L  60.022238003735 63.794427191 
L  59.081781600067 62.5 
L  62.641456375317 59.913744889913 
L  60.878100618439 57.486693906788 
L  57.31842584319 60.072949016875 
 z" class="symbol resistor" /><path d=" M  58.996541399309 48.075735614416 
 L  59.583673688621 49.882742995377 
 L  68.713816245054 46.916179849378 
 L  68.126683955742 45.109172468417 
 z" class="symbol capacitor" /><path d=" M  58.409409109996 46.268728233455 
 L  57.822276820684 44.461720852495 
 L  66.952419377117 41.495157706495 
 L  67.53955166643 43.302165087456 
 z" class="symbol capacitor" /><path d=" M  39.352307951157 50.568600403884 
 L  37.896926115433 43.721567198748 
 L  41.225623922466 44.80312667906 
 L  41.720051113466 43.281436252988 
 L  34.111598983105 40.809300297988 
 L  33.617171792105 42.33099072406 
 L  36.945869599138 43.412550204373 
 L  31.743855820796 48.096464448885 
 z" class="symbol diode" /><path d=" M  42.5 36.049150281253 
 A 2,2 0 0,0  46.5,36.049150281253 
 A 2,2 0 1,0  42.5,36.049150281253 
 z" class="symbol switch" /><path d=" M  46.559281037942 29.591322129196 
 L  53.581587253734 35.48373668488 
 A 2,2 0 1,0  54.610047429232,34.25806557589 
 L  47.58774121344 28.365651020206 
 z" class="symbol switch" /><path class="char o" d="	M 35.015423245614,82.596453947368 C 33.185760964912,82.596453947368 31.560472368421,84.182813596491 31.560472368421,85.963814473684 C 31.560472368421,87.258203070175 32.582360964912,88.241162719298 33.915678508772,88.241162719298 C 35.745340789474,88.241162719298 37.390094298246,86.674267982456 37.390094298246,84.932195175438 C 37.390094298246,83.579413596491 36.397402192982,82.596453947368 35.015423245614,82.596453947368 M 34.791581140351,83.783789035088 C 35.521499561404,83.783789035088 36.056775,84.348260964912 36.056775,85.107375877193 C 36.056775,86.109797807018 35.151674122807,87.053827631579 34.178449561403,87.053827631579 C 33.43879868421,87.053827631579 32.893791666667,86.499088157895 32.893791666667,85.739972368421 C 32.893791666667,84.718087280702 33.79889254386,83.783789035088 34.791581140351,83.783789035088" /><path class="char q" d="	M 42.527046929825,82.717190789474 L 42.390795175439,83.408181140351 C 42.264276754386,83.15514254386 42.176685526316,83.057819736842 41.962575877193,82.911836403509 C 41.631680263158,82.697726754386 41.271585526316,82.590671491228 40.814169736842,82.590671491228 C 39.072097807017,82.590671491228 37.514934649123,84.177031140351 37.514934649123,85.938567982456 C 37.514934649123,87.301082017544 38.420036403509,88.235380263158 39.743621491228,88.235380263158 C 40.405414473684,88.235380263158 41.047744298246,88.001805701754 41.51489254386,87.593051315789 L 41.086673245614,89.909328508772 L 42.381063596491,89.909328508772 L 43.714382017544,82.717190789474 L 42.527046929825,82.717190789474 M 40.755776754386,83.778006578947 C 41.514891666667,83.778006578947 42.020969736842,84.313282017544 42.020969736842,85.121058333333 C 42.020969736842,86.142944298245 41.13533377193,87.048045175438 40.132911842105,87.048045175438 C 39.344600438596,87.048045175438 38.848253947368,86.541967105263 38.848253947368,85.743922368421 C 38.848253947368,84.673375877193 39.724158333333,83.778006578947 40.755776754386,83.778006578947" /><path class="char l" d="	M 43.335632017544,89.906362719298 L 44.630022368421,89.906362719298 L 45.963341666667,82.714225 L 44.668951315789,82.714225 L 43.335632017544,89.906362719298" /><path class="char t" d="	M 45.798986403509,89.902786403509 L 47.093376754386,89.902786403509 L 47.871956578947,85.688718859649 L 48.650537280702,85.688718859649 L 48.874379385965,84.51111622807 L 48.09579868421,84.51111622807 L 48.426695175439,82.71064868421 L 47.132305701754,82.71064868421 L 46.801408333333,84.51111622807 L 46.168811842105,84.51111622807 L 45.944969736842,85.688718859649 L 46.577567105263,85.688718859649 L 45.798986403509,89.902786403509" /><path class="char esse" d="	M 51.953440789474,84.258049126053 C 50.155225,84.258049126053 48.536223245614,85.839992985702 48.536223245614,87.599328073421 C 48.536223245614,88.950420178684 49.552984649123,89.902785968158 50.99155745614,89.902785968158 C 52.206567982456,89.902785968158 53.294002192982,89.250730705 53.87720745614,88.181521055877 L 52.48500745614,88.181521055877 C 52.115644298246,88.550884213772 51.713070614035,88.713087722544 51.168746052632,88.713087722544 C 50.430019736842,88.713087722544 49.903110087719,88.27203947693 49.903110087719,87.649953512017 L 54.079709210526,87.649953512017 C 54.206070614035,87.348630705 54.25689868421,86.901507020789 54.25689868421,86.434942985702 C 54.25689868421,85.151892108509 53.304532017544,84.258049126053 51.953440789474,84.258049126053 z M 57.243799561403,84.258049126053 C 56.087109210526,84.258049126053 55.092217982456,85.151486845351 55.092217982456,86.181815792719 C 55.092217982456,86.86222193307 55.389693421053,87.167594740088 56.332541666667,87.498077196228 C 56.99350745614,87.731359652368 57.117235526316,87.82754824886 57.117235526316,88.080270178684 C 57.117235526316,88.420472810263 56.803155701754,88.713087722544 56.43379254386,88.713087722544 C 56.054709210526,88.713087722544 55.83600745614,88.482641231316 55.826287280702,88.054957020789 L 54.535338157895,88.054957020789 C 54.525617982456,88.200758775175 54.510025877193,88.327727196228 54.510025877193,88.43464824886 C 54.510025877193,89.299735968158 55.183343421053,89.902785968158 56.155352192982,89.902785968158 C 57.370362719298,89.902785968158 58.458810087719,88.88845438921 58.458810087719,87.75120438921 C 58.458810087719,87.109678950614 58.141894298246,86.786891231316 57.218486403509,86.485568424298 C 56.732482017544,86.330047371667 56.752934649123,86.325794740088 56.636294298246,86.25775438921 C 56.519653070175,86.18971316114 56.43379254386,86.086235090965 56.43379254386,85.979314038333 C 56.43379254386,85.697431582193 56.689349561403,85.447747371667 56.990672368421,85.447747371667 C 57.262834649123,85.447747371667 57.411267982456,85.596180705 57.420988157895,85.87806316114 L 58.686624122807,85.87806316114 C 58.706064473684,85.732262283947 58.711937280702,85.595573687456 58.711937280702,85.498372810263 C 58.711937280702,84.827686845351 58.040846052632,84.258049126053 57.243799561403,84.258049126053 z M 61.521649561403,84.258049126053 C 60.364959210526,84.258049126053 59.370067982456,85.151486845351 59.370067982456,86.181815792719 C 59.370067982456,86.86222193307 59.642230263158,87.167594740088 60.585078508772,87.498077196228 C 61.246044298246,87.731359652368 61.395085526316,87.82754824886 61.395085526316,88.080270178684 C 61.395085526316,88.420472810263 61.081005701754,88.713087722544 60.71164254386,88.713087722544 C 60.332559210526,88.713087722544 60.113856578947,88.482641231316 60.104137280702,88.054957020789 L 58.787875,88.054957020789 C 58.778155701754,88.200758775175 58.787875,88.327727196228 58.787875,88.43464824886 C 58.787875,89.299735968158 59.461193421053,89.902785968158 60.433202192982,89.902785968158 C 61.648212719298,89.902785968158 62.736660087719,88.88845438921 62.736660087719,87.75120438921 C 62.736660087719,87.109678950614 62.419744298246,86.786891231316 61.496336403509,86.485568424298 C 61.010332017544,86.330047371667 61.005472368421,86.325794740088 60.888831140351,86.25775438921 C 60.772189912281,86.18971316114 60.71164254386,86.086235090965 60.71164254386,85.979314038333 C 60.71164254386,85.697431582193 60.967199561403,85.447747371667 61.268522368421,85.447747371667 C 61.540684649123,85.447747371667 61.689117982456,85.596180705 61.698838157895,85.87806316114 L 62.964474122807,85.87806316114 C 62.983914473684,85.732262283947 62.989787280702,85.595573687456 62.989787280702,85.498372810263 C 62.989787280702,84.827686845351 62.318696052632,84.258049126053 61.521649561403,84.258049126053 z M 66.736069736842,84.258049126053 C 64.937853947368,84.258049126053 63.318852192982,85.839992985702 63.318852192982,87.599328073421 C 63.318852192982,88.950420178684 64.310301315789,89.902785968158 65.748874122807,89.902785968158 C 66.963884649123,89.902785968158 68.076631140351,89.250730705 68.659836403509,88.181521055877 L 67.242324122807,88.181521055877 C 66.872960964912,88.550884213772 66.470387280702,88.713087722544 65.926062719298,88.713087722544 C 65.187336403509,88.713087722544 64.685739035088,88.27203947693 64.685739035088,87.649953512017 L 68.837025877193,87.649953512017 C 68.963386403509,87.348630705 69.039527631579,86.901507020789 69.039527631579,86.434942985702 C 69.039527631579,85.151892108509 68.087161842105,84.258049126053 66.736069736842,84.258049126053 z M 51.750939035088,85.447747371667 C 52.577146052632,85.447747371667 53.028319736842,85.811035090965 53.067200438596,86.510881582193 L 50.080299561403,86.510881582193 C 50.333021491228,85.879075441842 51.00249254386,85.447747371667 51.750939035088,85.447747371667 z M 66.533567982456,85.447747371667 C 67.359775,85.447747371667 67.785636403509,85.811035090965 67.824517105263,86.510881582193 L 64.837615350877,86.510881582193 C 65.090338157895,85.879075441842 65.785121491228,85.447747371667 66.533567982456,85.447747371667 z" /></g></svg>