<?xml version="1.0" standalone="yes"?>
<svg
	xmlns:dc="http://purl.org/dc/elements/1.1/"
	xmlns:cc="http://creativecommons.org/ns#"
	xmlns:rdf="http://www.w3.org/1999/02/22-rdf-syntax-ns#"
	xmlns:svg="http://www.w3.org/2000/svg"
	xmlns:xlink="http://www.w3.org/1999/xlink"
	xmlns="http://www.w3.org/2000/svg"
	width="102"
	height="102"
>
<style type="text/css">
<![CDATA[
.pentacle {stroke-width:0; fill:#390;}
.symbol {stroke-width:0; fill:#fff}
.outer {stroke-width:0; fill:#fff;}
.main {fill:#000}
.char {fill:#fff}
.q {fill:#390}
]]>
</style><rect  x="0" y="0" width="102" height="102" class="main" />
<g transform="translate(1,1)" class="main"><path d=" M  53.073090336472 4.6038975705636 
 L  51.585361831028 0.025140041569685 
 A 50,50 0 0,1  97.039012466382,33.049150281253 
 L  92.224621890698 33.049150281253 
 A 45.5,45.5 0 0,0  53.073090336472,4.6038975705636 
" class="outer" /><path d=" M  94.123896169137 38.894515460584 
 L  98.018819962424 36.064687681421 
 A 50,50 0 0,1  80.657070332482,89.498658694053 
 L  79.169341827037 84.919901165059 
 A 45.5,45.5 0 0,0  94.123896169137,38.894515460584 
" class="outer" /><path d=" M  74.196977212126 88.532535522541 
 L  78.091901005412 91.362363301704 
 A 50,50 0 0,1  21.908098994588,91.362363301704 
 L  25.803022787874 88.532535522541 
 A 45.5,45.5 0 0,0  74.196977212126,88.532535522541 
" class="outer" /><path d=" M  20.830658172963 84.919901165059 
 L  19.342929667518 89.498658694053 
 A 50,50 0 0,1  1.9811800375763,36.064687681421 
 L  5.8761038308629 38.894515460584 
 A 45.5,45.5 0 0,0  20.830658172963,84.919901165059 
" class="outer" /><path d=" M  7.7753781093016 33.049150281253 
 L  2.960987533618 33.049150281253 
 A 50,50 0 0,1  48.414638168973,0.02514004156972 
 L  46.926909663528 4.6038975705636 
 A 45.5,45.5 0 0,0  7.7753781093016,33.049150281253 
" class="outer" /><path d="M  97.552825814758 34.549150281253 
 L  58.5 34.549150281253 
 L  58.5 37.549150281253 
 L  88.319775203232 37.549150281253 
 L  68.132536130047 52.570139957182 
 L  69.014214008486 55.283665448745 
" class="pentacle" />
<path d="M  79.389262614624 90.450849718747 
 L  65.652583989874 48.173700059889 
 L  62.799414440989 49.100751043014 
 L  73.682923516853 82.596747752498 
 L  53.158913461233 68.03928356813 
 L  50.850650808352 69.716334551255 
" class="pentacle" />
<path d="M  63.736678624749 42.277149658859 
 L  62.525378199421 38.549150281253 
 L  59.370991526706 38.549150281253 
 L  60.883509075864 43.204200641984 
 z" class="pentacle" />
<path d="M  20.610737385376 90.450849718747 
 L  54.227679633817 66.026711513755 
 L  52.46432387694 63.59966053063 
 L  26.317076483147 82.596747752498 
 L  33.819779756515 58.57875042062 
 L  31.511517103633 56.901699437495 
" class="pentacle" />
<path d="M  63.935883566317 58.973288486245 
 L  64.760959966726 58.373835392494 
 L  63.786200878027 55.373835392494 
 L  62.172527809439 56.54623750312 
 z" class="pentacle" />
<path d="M  2.4471741852423 34.549150281253 
 L  34.082024797465 57.533214618129 
 L  35.845380554342 55.106163635004 
 L  11.680224796768 37.549150281253 
 L  36.841160482833 37.262675772815 
 L  37.722838361272 34.549150281253 
" class="pentacle" />
<path d="M  50 0 
 L  36.76735556878 40.72589191926 
 L  39.620525117665 41.652942902385 
 L  50 9.7082039324994 
 L  58.047610169371 33.549150281253 
 L  60.900779718257 33.549150281253 
" class="pentacle" />
<path d="M  33.843381816596 49.724957799488 
 L  33.136115584798 51.901699437495 
 L  35.688068009854 53.755801403744 
 L  36.696551365482 50.652008782612 
 z" class="pentacle" />
<path d="M  35.287796837137 57.574913399218 
 A 2.5,2.5 0 0,1  39.749174462675,58.494755604355 
 A 2.5,2.5 0 0,1  42.418930544112,60.43444693692 
 A 2.5,2.5 0 0,1  45.088686625549,62.374138269486 
 A 2.5,2.5 0 0,1  47.342150053324,66.332913658376 
 L  46.842532588875 67.020578103595 
 L  45.467203698438 66.021343174697 
 L  45.966821162886 65.333678729479 
 A 0.8,0.8 0 1,0  44.672393971886,64.393222325811 
 A 0.85,0.85 0 0,1  43.297065081449,63.393987396913 
 A 0.8,0.8 0 0,0  42.002637890449,62.453530993246 
 A 0.85,0.85 0 0,1  40.627309000012,61.454296064348 
 A 0.8,0.8 0 0,0  39.332881809012,60.51383966068 
 A 0.85,0.85 0 0,1  37.957552918574,59.514604731783 
 A 0.8,0.8 0 0,0  36.663125727574,58.574148328115 
 L  36.163508263126 59.261812773334 
 L  34.788179372688 58.262577844437 
 L  35.287796837137 57.574913399218 
" class="symbol coil" /><path d="M  56.965754691814 59.58753882025 
L  52.920669719939 62.526465081713 
L  55.389367779568 65.924336458087 
L  59.434452751442 62.985410196625 
L  58.611553398233 61.8527864045 
L  55.699092218483 63.968813312753 
L  54.876192865274 62.836189520628 
L  57.788654045024 60.720162612375 
 z" class="symbol resistor" /><path d="M  56.965754691814 59.58753882025 
L  61.010839663689 56.648612558788 
L  63.479537723317 60.046483935163 
L  59.434452751442 62.985410196625 
L  58.611553398233 61.8527864045 
L  61.524014577983 59.736759496247 
L  60.701115224773 58.604135704122 
L  57.788654045024 60.720162612375 
 z" class="symbol resistor" /><path d=" M  59.680132363751 47.590757889843 
 L  60.112756155876 48.922237012656 
 L  67.721208286237 46.450101057656 
 L  67.288584494112 45.118621934843 
 z" class="symbol capacitor" /><path d=" M  59.247508571626 46.259278767029 
 L  58.814884779501 44.927799644216 
 L  66.423336909862 42.455663689216 
 L  66.855960701987 43.78714281203 
 z" class="symbol capacitor" /><path d=" M  39.383209650595 50.473494752255 
 L  37.92782781487 43.626461547118 
 L  41.256525621903 44.70802102743 
 L  41.689149414028 43.376541904617 
 L  34.080697283667 40.904405949618 
 L  33.648073491542 42.235885072431 
 L  36.976771298575 43.317444552743 
 L  31.774757520233 48.001358797255 
 z" class="symbol diode" /><path d=" M  42.5 36.049150281253 
 A 2,2 0 0,0  46.5,36.049150281253 
 A 2,2 0 1,0  42.5,36.049150281253 
 z" class="symbol switch" /><path d=" M  45.623720558371 31.155368063902 
 L  53.527501926041 35.718618364142 
 A 2,2 0 1,0  54.227501926041,34.506182798844 
 L  46.323720558371 29.942932498604 
 z" class="symbol switch" /><path class="char o" d="	M 37.899710069444,82.107609375 C 36.451227430556,82.107609375 35.164540625,83.363477430555 35.164540625,84.773436458333 C 35.164540625,85.798160763889 35.973535763889,86.576337152778 37.029078819444,86.576337152778 C 38.477561458333,86.576337152778 39.779657986111,85.335878819444 39.779657986111,83.956737847222 C 39.779657986111,82.885785763889 38.993776736111,82.107609375 37.899710069444,82.107609375 M 37.722501736111,83.047582986111 C 38.300353819444,83.047582986111 38.724113541667,83.494456597222 38.724113541667,84.095422569444 C 38.724113541667,84.889006597222 38.007575347222,85.636363541666 37.237105902778,85.636363541666 C 36.651548958333,85.636363541666 36.220085069444,85.197194791666 36.220085069444,84.596228125 C 36.220085069444,83.787235763889 36.936623263889,83.047582986111 37.722501736111,83.047582986111" /><path class="char q" d="	M 43.846412152778,82.203192708333 L 43.738546180556,82.750226736111 C 43.638385763889,82.549904513889 43.569042708333,82.472857291666 43.399539236111,82.357287152778 C 43.137580208333,82.187783680555 42.852505208333,82.103031597222 42.490384375,82.103031597222 C 41.111244097222,82.103031597222 39.878489930556,83.358899652778 39.878489930556,84.753449652778 C 39.878489930556,85.832106597222 40.595028819444,86.571759375 41.642867013889,86.571759375 C 42.166786458333,86.571759375 42.675297569444,86.386846180555 43.045123263889,86.063248958333 L 42.706116319444,87.896968402778 L 43.730842013889,87.896968402778 L 44.786385763889,82.203192708333 L 43.846412152778,82.203192708333 M 42.444156597222,83.043005208333 C 43.045122569444,83.043005208333 43.445767708333,83.466764930555 43.445767708333,84.106254513889 C 43.445767708333,84.915247569444 42.744639236111,85.631785763889 41.951055208333,85.631785763889 C 41.326975347222,85.631785763889 40.934034375,85.231140625 40.934034375,84.599355208333 C 40.934034375,83.751839236111 41.627458680556,83.043005208333 42.444156597222,83.043005208333" /><path class="char l" d="	M 44.486542013889,87.894620486111 L 45.511267708333,87.894620486111 L 46.566812152778,82.200844791666 L 45.542086458333,82.200844791666 L 44.486542013889,87.894620486111" /><path class="char t" d="	M 46.436697569444,87.891789236111 L 47.461423263889,87.891789236111 L 48.077798958333,84.555652430555 L 48.694175347222,84.555652430555 L 48.871383680556,83.623383680555 L 48.255007291667,83.623383680555 L 48.516967013889,82.198013541666 L 47.492242013889,82.198013541666 L 47.230281597222,83.623383680555 L 46.729476041667,83.623383680555 L 46.552267708333,84.555652430555 L 47.053073958333,84.555652430555 L 46.436697569444,87.891789236111" /><path class="char esse" d="	M 51.308973958333,83.423038891458 C 49.885386458333,83.423038891458 48.603676736111,84.67541111368 48.603676736111,86.068218058125 C 48.603676736111,87.137832641458 49.408612847222,87.891788891458 50.547482986111,87.891788891458 C 51.509366319444,87.891788891458 52.370251736111,87.375578474791 52.831955902778,86.529120835903 L 51.729797569444,86.529120835903 C 51.437385069444,86.821533335903 51.118680902778,86.949944447014 50.687757291667,86.949944447014 C 50.102932291667,86.949944447014 49.685795486111,86.600781252569 49.685795486111,86.108296530347 L 52.992269791667,86.108296530347 C 53.092305902778,85.869749308125 53.132544791667,85.515776391458 53.132544791667,85.146413197014 C 53.132544791667,84.130664585903 52.378587847222,83.423038891458 51.308973958333,83.423038891458 z M 55.497174652778,83.423038891458 C 54.581461458333,83.423038891458 53.793839236111,84.130343752569 53.793839236111,84.946020835903 C 53.793839236111,85.484675697014 54.029340625,85.726429169236 54.775762152778,85.98806111368 C 55.299026736111,86.172743058125 55.396978125,86.24889236368 55.396978125,86.448963891458 C 55.396978125,86.718290974791 55.148331597222,86.949944447014 54.855919097222,86.949944447014 C 54.555811458333,86.949944447014 54.382672569444,86.767507641458 54.374977430556,86.428924308125 L 53.352976041667,86.428924308125 C 53.345280902778,86.544350697014 53.332937152778,86.64486736368 53.332937152778,86.729513197014 C 53.332937152778,87.414374308125 53.865980208333,87.891788891458 54.635487152778,87.891788891458 C 55.597370486111,87.891788891458 56.459057986111,87.088776391458 56.459057986111,86.188453474791 C 56.459057986111,85.680579169236 56.208166319444,85.425038891458 55.477135069444,85.186491669236 C 55.092381597222,85.063370835903 55.108573263889,85.060004169236 55.016232986111,85.006138891458 C 54.923892013889,84.952272919236 54.855919097222,84.870352780347 54.855919097222,84.785706947014 C 54.855919097222,84.562550002569 55.058235069444,84.364883335903 55.296782291667,84.364883335903 C 55.512244097222,84.364883335903 55.629753819444,84.482393058125 55.637448958333,84.705550002569 L 56.639410763889,84.705550002569 C 56.654801041667,84.590124308125 56.659450347222,84.481912502569 56.659450347222,84.404961808125 C 56.659450347222,83.874002085903 56.128169791667,83.423038891458 55.497174652778,83.423038891458 z M 58.883805902778,83.423038891458 C 57.968092708333,83.423038891458 57.180470486111,84.130343752569 57.180470486111,84.946020835903 C 57.180470486111,85.484675697014 57.395932291667,85.726429169236 58.142353819444,85.98806111368 C 58.665618402778,86.172743058125 58.783609375,86.24889236368 58.783609375,86.448963891458 C 58.783609375,86.718290974791 58.534962847222,86.949944447014 58.242550347222,86.949944447014 C 57.942442708333,86.949944447014 57.769303125,86.767507641458 57.761608680556,86.428924308125 L 56.719567708333,86.428924308125 C 56.711873263889,86.544350697014 56.719567708333,86.64486736368 56.719567708333,86.729513197014 C 56.719567708333,87.414374308125 57.252611458333,87.891788891458 58.022118402778,87.891788891458 C 58.984001736111,87.891788891458 59.845689236111,87.088776391458 59.845689236111,86.188453474791 C 59.845689236111,85.680579169236 59.594797569444,85.425038891458 58.863766319444,85.186491669236 C 58.479012847222,85.063370835903 58.475165625,85.060004169236 58.382824652778,85.006138891458 C 58.290483680556,84.952272919236 58.242550347222,84.870352780347 58.242550347222,84.785706947014 C 58.242550347222,84.562550002569 58.444866319444,84.364883335903 58.683413541667,84.364883335903 C 58.898875347222,84.364883335903 59.016385069444,84.482393058125 59.024080208333,84.705550002569 L 60.026042013889,84.705550002569 C 60.041432291667,84.590124308125 60.046081597222,84.481912502569 60.046081597222,84.404961808125 C 60.046081597222,83.874002085903 59.514801041667,83.423038891458 58.883805902778,83.423038891458 z M 63.011888541667,83.423038891458 C 61.588301041667,83.423038891458 60.306591319444,84.67541111368 60.306591319444,86.068218058125 C 60.306591319444,87.137832641458 61.091488541667,87.891788891458 62.230358680556,87.891788891458 C 63.192242013889,87.891788891458 64.073166319444,87.375578474791 64.534870486111,86.529120835903 L 63.412673263889,86.529120835903 C 63.120260763889,86.821533335903 62.801556597222,86.949944447014 62.370632986111,86.949944447014 C 61.785807986111,86.949944447014 61.388710069444,86.600781252569 61.388710069444,86.108296530347 L 64.675145486111,86.108296530347 C 64.775180902778,85.869749308125 64.835459375,85.515776391458 64.835459375,85.146413197014 C 64.835459375,84.130664585903 64.081503125,83.423038891458 63.011888541667,83.423038891458 z M 51.148660069444,84.364883335903 C 51.802740625,84.364883335903 52.159919791667,84.65248611368 52.190700347222,85.206531252569 L 49.826070486111,85.206531252569 C 50.026142013889,84.706351391458 50.556139930556,84.364883335903 51.148660069444,84.364883335903 z M 62.851574652778,84.364883335903 C 63.505655208333,84.364883335903 63.842795486111,84.65248611368 63.873576041667,85.206531252569 L 61.508945486111,85.206531252569 C 61.709017708333,84.706351391458 62.259054513889,84.364883335903 62.851574652778,84.364883335903 z" /></g></svg>