<?xml version="1.0" standalone="yes"?>
<svg
	xmlns:dc="http://purl.org/dc/elements/1.1/"
	xmlns:cc="http://creativecommons.org/ns#"
	xmlns:rdf="http://www.w3.org/1999/02/22-rdf-syntax-ns#"
	xmlns:svg="http://www.w3.org/2000/svg"
	xmlns:xlink="http://www.w3.org/1999/xlink"
	xmlns="http://www.w3.org/2000/svg"
	width="102"
	height="102"
>
<style type="text/css">
<![CDATA[
.symbol {stroke-width:0; fill:#000}
.outer {stroke-width:0; fill:#000;}
.main {fill:#fff}
.char {fill:#000}
.pentacle, .q {stroke-width:0; fill:#390;}
]]><!--#fc0fc0-->
</style>
<rect  x="0" y="0" width="102" height="102" class="main" />
<g transform="translate(1,1)" class="main"><path d=" M  52.178046400465 1.8492355836647 
 L  51.585361831028 0.025140041569685 
 A 50,50 0 0,1  97.039012466382,33.049150281253 
 L  95.121044910468 33.049150281253 
 A 48.2,48.2 0 0,0  52.178046400465,1.8492355836647 
 z  M  96.467151615029 37.192040725163 
 L  98.018819962424 36.064687681421 
 A 50,50 0 0,1  80.657070332482,89.498658694053 
 L  80.064385763044 87.674563151958 
 A 48.2,48.2 0 0,0  96.467151615029,37.192040725163 
 z  M  76.540232658018 90.235010257962 
 L  78.091901005412 91.362363301704 
 A 50,50 0 0,1  21.908098994588,91.362363301704 
 L  23.459767341982 90.235010257962 
 A 48.2,48.2 0 0,0  76.540232658018,90.235010257962 
 z  M  19.935614236956 87.674563151958 
 L  19.342929667518 89.498658694053 
 A 50,50 0 0,1  1.9811800375763,36.064687681421 
 L  3.5328483849707 37.192040725163 
 A 48.2,48.2 0 0,0  19.935614236956,87.674563151958 
 z  M  4.8789550895323 33.049150281253 
 L  2.960987533618 33.049150281253 
 A 50,50 0 0,1  48.414638168973,0.02514004156972 
 L  47.821953599535 1.8492355836647 
 A 48.2,48.2 0 0,0  4.8789550895323,33.049150281253 
 z " class="outer" /><path d=" M  97.552825814758 34.549150281253 
 L  57.93926218353 34.549150281253 
 A 2.6,2.6 0 0,1  57.93926218353 36.349150281253 
 L  92.012995447842 36.349150281253 
 L  68.485207281423 53.655550153807 
 L  69.014214008486 55.283665448745 
 z M  79.389262614624 90.450849718747 
 L  65.668034839593 48.221252885703 
 L  63.956133110262 48.777483475578 
 L  75.965459155961 85.738388538998 
 L  52.235608400081 68.71010396138 
 L  50.850650808352 69.716334551255 
 z  M  63.721227775031 42.229596833044 
 L  62.135474563942 37.349150281253 
 L  60.242842560313 37.349150281253 
 L  62.009326045699 42.785827422919 
 z M  20.610737385376 90.450849718747 
 L  53.742269437192 66.37938266513 
 L  52.684255983066 64.923152075255 
 L  24.034540844039 85.738388538998 
 L  32.896474695362 57.90793002737 
 L  31.511517103633 56.901699437495 
 z  M  64.421293762942 58.62061733487 
 L  65.781740936748 57.632194605994 
 L  65.196885483529 55.832194605994 
 L  63.363280308815 57.164386744995 
 z M  2.4471741852423 34.549150281253 
 L  34.162926496902 57.591993143358 
 L  35.220939951029 56.135762553483 
 L  7.9870045521578 36.349150281253 
 L  37.193831634209 36.17726557619 
 L  37.722838361272 34.549150281253 
 z M  50 0 
 L  36.674650470467 41.011208874148 
 L  38.386552199799 41.567439464023 
 L  50 5.8249223594996 
 L  59.188877988925 33.549150281253 
 L  60.900779718257 33.549150281253 
 z  M  33.936086914909 49.439640844599 
 L  32.746211949318 53.101699437495 
 L  34.277383404352 54.214160617245 
 L  35.64798864424 49.995871434474 
 z " class="pentacle" />
<path d="M  35.907876519868 56.211056449644 
 A 2.5,2.5 0 0,1  40.395605323612,57.264759531186 
 A 2.5,2.5 0 0,1  43.227164803924,59.32200791421 
 A 2.5,2.5 0 0,1  46.058724284236,61.379256297234 
 A 2.5,2.5 0 0,1  48.44763993268,65.321727860177 
 L  47.188100106339 67.055335705267 
 L  45.974574614776 66.173657826828 
 L  47.234114441117 64.440049981739 
 A 1,1 0 1,0  45.616080452368,63.264479477154 
 A 0.75,0.75 0 0,1  44.402554960805,62.382801598715 
 A 1,1 0 0,0  42.784520972055,61.20723109413 
 A 0.75,0.75 0 0,1  41.570995480493,60.325553215691 
 A 1,1 0 0,0  39.952961491743,59.149982711107 
 A 0.75,0.75 0 0,1  38.73943600018,58.268304832668 
 A 1,1 0 0,0  37.121402011431,57.092734328083 
 L  35.86186218509 58.826342173172 
 L  34.648336693527 57.944664294733 
 L  35.907876519868 56.211056449644 
" class="symbol coil" /><path d=" M  56.906976166585 59.506637120813 
L  52.052874200335 63.033348634568 
L  55.344471613173 67.563843803067 
L  60.198573579423 64.037132289312 
L  59.316895700984 62.82360679775 
L  55.676319226297 65.468640433066 
L  54.148077570336 63.365196247691 
L  57.788654045024 60.720162612375 
 z  M  56.906976166585 59.506637120813 
L  61.761078132835 55.979925607058 
L  65.052675545672 60.510420775558 
L  60.198573579423 64.037132289312 
L  59.316895700984 62.82360679775 
L  62.957472175671 60.178573162434 
L  61.429230519711 58.075128977059 
L  57.788654045024 60.720162612375 
 z" class="symbol resistor" /><path d=" M  59.567175309086 47.890325417791 
 L  60.061602500086 49.412015843864 
 L  69.191745056519 46.445452697864 
 L  68.697317865519 44.923762271792 
 z  M  58.980043019773 46.08331803683 
 L  58.485615828773 44.561627610758 
 L  67.615758385207 41.595064464759 
 L  68.110185576207 43.116754890831 
 z" class="symbol capacitor" /><path d=" M  38.78167404138 50.383190207259 
 L  37.326292205656 43.536157002123 
 L  40.654990012689 44.617716482435 
 L  41.149417203689 43.096026056363 
 L  33.540965073328 40.623890101363 
 L  33.046537882328 42.145580527435 
 L  36.375235689361 43.227140007748 
 L  31.173221911019 47.91105425226 
 z" class="symbol diode" /><path d=" M  42.5 35.449150281253 
 A 2,2 0 0,0  46.5,35.449150281253 
 A 2,2 0 1,0  42.5,35.449150281253 
 z  M  46.559281037942 28.991322129196 
 L  53.581587253734 34.88373668488 
 A 2,2 0 1,0  54.610047429232,33.65806557589 
 L  47.58774121344 27.765651020206 
 z" class="symbol switch" /><path class="char o" d="	M 40.763495833333,81.31521875 C 37.866530555555,81.31521875 35.293156944444,83.826954861111 35.293156944444,86.646872916666 C 35.293156944444,88.696321527777 36.911147222222,90.252674305555 39.022233333333,90.252674305555 C 41.919198611111,90.252674305555 44.523391666666,87.771757638888 44.523391666666,85.013475694444 C 44.523391666666,82.871571527777 42.951629166666,81.31521875 40.763495833333,81.31521875 M 40.409079166666,83.195165972222 C 41.564783333333,83.195165972222 42.412302777777,84.088913194444 42.412302777777,85.290845138888 C 42.412302777777,86.878013194444 40.979226388888,88.372727083333 39.4382875,88.372727083333 C 38.267173611111,88.372727083333 37.404245833333,87.494389583333 37.404245833333,86.29245625 C 37.404245833333,84.674471527777 38.837322222222,83.195165972222 40.409079166666,83.195165972222" /><path class="char q" d="	M 52.6569,81.506385416666 L 52.441168055555,82.600453472222 C 52.240847222222,82.199809027777 52.102161111111,82.045714583333 51.763154166666,81.814574305555 C 51.239236111111,81.475567361111 50.669086111111,81.306063194444 49.944844444444,81.306063194444 C 47.186563888888,81.306063194444 44.721055555555,83.817799305555 44.721055555555,86.606899305555 C 44.721055555555,88.764213194444 46.154133333333,90.24351875 48.249809722222,90.24351875 C 49.297648611111,90.24351875 50.314670833333,89.873692361111 51.054322222222,89.226497916666 L 50.376308333333,92.893936805555 L 52.425759722222,92.893936805555 L 54.536847222222,81.506385416666 L 52.6569,81.506385416666 M 49.852388888888,83.186010416666 C 51.054320833333,83.186010416666 51.855611111111,84.033529861111 51.855611111111,85.312509027777 C 51.855611111111,86.930495138888 50.453354166666,88.363571527777 48.866186111111,88.363571527777 C 47.618026388888,88.363571527777 46.832144444444,87.56228125 46.832144444444,86.298710416666 C 46.832144444444,84.603678472222 48.218993055555,83.186010416666 49.852388888888,83.186010416666" /><path class="char l" d="	M 53.937159722222,92.889240972222 L 55.986611111111,92.889240972222 L 58.0977,81.501689583333 L 56.048248611111,81.501689583333 L 53.937159722222,92.889240972222" /><path class="char t" d="	M 57.837470833333,92.883578472222 L 59.886922222222,92.883578472222 L 61.119673611111,86.211304861111 L 62.352426388888,86.211304861111 L 62.706843055555,84.346767361111 L 61.474090277777,84.346767361111 L 61.998009722222,81.496027083333 L 59.948559722222,81.496027083333 L 59.424638888888,84.346767361111 L 58.423027777777,84.346767361111 L 58.068611111111,86.211304861111 L 59.070223611111,86.211304861111 L 57.837470833333,92.883578472222" /></g></svg>