<?xml version="1.0" standalone="yes"?>
<svg
	xmlns:dc="http://purl.org/dc/elements/1.1/"
	xmlns:cc="http://creativecommons.org/ns#"
	xmlns:rdf="http://www.w3.org/1999/02/22-rdf-syntax-ns#"
	xmlns:svg="http://www.w3.org/2000/svg"
	xmlns:xlink="http://www.w3.org/1999/xlink"
	xmlns="http://www.w3.org/2000/svg"
	width="102"
	height="102"
>
<style type="text/css">
<![CDATA[
.symbol {stroke-width:0; fill:#000}
.outer {stroke-width:0; fill:#000;}
.main {fill:#000}
.char {fill:#000}
.pentacle, .q {stroke-width:0; fill:#fc0fc0;}
]]><!--#fc0fc0-->
</style>
<g transform="translate(1,1)" class="main"><path d=" M  52.178046400465 1.8492355836647 
 L  51.585361831028 0.025140041569685 
 A 50,50 0 0,1  97.039012466382,33.049150281253 
 L  95.121044910468 33.049150281253 
 A 48.2,48.2 0 0,0  52.178046400465,1.8492355836647 
 z  M  96.467151615029 37.192040725163 
 L  98.018819962424 36.064687681421 
 A 50,50 0 0,1  80.657070332482,89.498658694053 
 L  80.064385763044 87.674563151958 
 A 48.2,48.2 0 0,0  96.467151615029,37.192040725163 
 z  M  76.540232658018 90.235010257962 
 L  78.091901005412 91.362363301704 
 A 50,50 0 0,1  21.908098994588,91.362363301704 
 L  23.459767341982 90.235010257962 
 A 48.2,48.2 0 0,0  76.540232658018,90.235010257962 
 z  M  19.935614236956 87.674563151958 
 L  19.342929667518 89.498658694053 
 A 50,50 0 0,1  1.9811800375763,36.064687681421 
 L  3.5328483849707 37.192040725163 
 A 48.2,48.2 0 0,0  19.935614236956,87.674563151958 
 z  M  4.8789550895323 33.049150281253 
 L  2.960987533618 33.049150281253 
 A 50,50 0 0,1  48.414638168973,0.02514004156972 
 L  47.821953599535 1.8492355836647 
 A 48.2,48.2 0 0,0  4.8789550895323,33.049150281253 
 z " class="outer" /><path d=" M  97.552825814758 34.549150281253 
 L  57.93926218353 34.549150281253 
 A 2.6,2.6 0 0,1  57.93926218353 36.349150281253 
 L  92.012995447842 36.349150281253 
 L  68.485207281423 53.655550153807 
 L  69.014214008486 55.283665448745 
 z M  79.389262614624 90.450849718747 
 L  65.668034839593 48.221252885703 
 L  63.956133110262 48.777483475578 
 L  75.965459155961 85.738388538998 
 L  52.235608400081 68.71010396138 
 L  50.850650808352 69.716334551255 
 z  M  63.721227775031 42.229596833044 
 L  62.135474563942 37.349150281253 
 L  60.242842560313 37.349150281253 
 L  62.009326045699 42.785827422919 
 z M  20.610737385376 90.450849718747 
 L  53.742269437192 66.37938266513 
 L  52.684255983066 64.923152075255 
 L  24.034540844039 85.738388538998 
 L  32.896474695362 57.90793002737 
 L  31.511517103633 56.901699437495 
 z  M  64.421293762942 58.62061733487 
 L  65.781740936748 57.632194605994 
 L  65.196885483529 55.832194605994 
 L  63.363280308815 57.164386744995 
 z M  2.4471741852423 34.549150281253 
 L  34.162926496902 57.591993143358 
 L  35.220939951029 56.135762553483 
 L  7.9870045521578 36.349150281253 
 L  37.193831634209 36.17726557619 
 L  37.722838361272 34.549150281253 
 z M  50 0 
 L  36.674650470467 41.011208874148 
 L  38.386552199799 41.567439464023 
 L  50 5.8249223594996 
 L  59.188877988925 33.549150281253 
 L  60.900779718257 33.549150281253 
 z  M  33.936086914909 49.439640844599 
 L  32.746211949318 53.101699437495 
 L  34.277383404352 54.214160617245 
 L  35.64798864424 49.995871434474 
 z " class="pentacle" />
<path d="M  35.907876519868 56.211056449644 
 A 2.5,2.5 0 0,1  40.395605323612,57.264759531186 
 A 2.5,2.5 0 0,1  43.227164803924,59.32200791421 
 A 2.5,2.5 0 0,1  46.058724284236,61.379256297234 
 A 2.5,2.5 0 0,1  48.44763993268,65.321727860177 
 L  47.188100106339 67.055335705267 
 L  45.974574614776 66.173657826828 
 L  47.234114441117 64.440049981739 
 A 1,1 0 1,0  45.616080452368,63.264479477154 
 A 0.75,0.75 0 0,1  44.402554960805,62.382801598715 
 A 1,1 0 0,0  42.784520972055,61.20723109413 
 A 0.75,0.75 0 0,1  41.570995480493,60.325553215691 
 A 1,1 0 0,0  39.952961491743,59.149982711107 
 A 0.75,0.75 0 0,1  38.73943600018,58.268304832668 
 A 1,1 0 0,0  37.121402011431,57.092734328083 
 L  35.86186218509 58.826342173172 
 L  34.648336693527 57.944664294733 
 L  35.907876519868 56.211056449644 
" class="symbol coil" /><path d=" M  56.906976166585 59.506637120813 
L  52.052874200335 63.033348634568 
L  55.344471613173 67.563843803067 
L  60.198573579423 64.037132289312 
L  59.316895700984 62.82360679775 
L  55.676319226297 65.468640433066 
L  54.148077570336 63.365196247691 
L  57.788654045024 60.720162612375 
 z  M  56.906976166585 59.506637120813 
L  61.761078132835 55.979925607058 
L  65.052675545672 60.510420775558 
L  60.198573579423 64.037132289312 
L  59.316895700984 62.82360679775 
L  62.957472175671 60.178573162434 
L  61.429230519711 58.075128977059 
L  57.788654045024 60.720162612375 
 z" class="symbol resistor" /><path d=" M  59.567175309086 47.890325417791 
 L  60.061602500086 49.412015843864 
 L  69.191745056519 46.445452697864 
 L  68.697317865519 44.923762271792 
 z  M  58.980043019773 46.08331803683 
 L  58.485615828773 44.561627610758 
 L  67.615758385207 41.595064464759 
 L  68.110185576207 43.116754890831 
 z" class="symbol capacitor" /><path d=" M  38.78167404138 50.383190207259 
 L  37.326292205656 43.536157002123 
 L  40.654990012689 44.617716482435 
 L  41.149417203689 43.096026056363 
 L  33.540965073328 40.623890101363 
 L  33.046537882328 42.145580527435 
 L  36.375235689361 43.227140007748 
 L  31.173221911019 47.91105425226 
 z" class="symbol diode" /><path d=" M  42.5 35.449150281253 
 A 2,2 0 0,0  46.5,35.449150281253 
 A 2,2 0 1,0  42.5,35.449150281253 
 z  M  46.559281037942 28.991322129196 
 L  53.581587253734 34.88373668488 
 A 2,2 0 1,0  54.610047429232,33.65806557589 
 L  47.58774121344 27.765651020206 
 z" class="symbol switch" /><path class="char o" d="	M 35.015423245614,83.946453947368 C 33.185760964912,83.946453947368 31.560472368421,85.532813596491 31.560472368421,87.313814473684 C 31.560472368421,88.608203070175 32.582360964912,89.591162719298 33.915678508772,89.591162719298 C 35.745340789474,89.591162719298 37.390094298246,88.024267982456 37.390094298246,86.282195175439 C 37.390094298246,84.929413596491 36.397402192982,83.946453947368 35.015423245614,83.946453947368 M 34.791581140351,85.133789035088 C 35.521499561404,85.133789035088 36.056775,85.698260964912 36.056775,86.457375877193 C 36.056775,87.459797807018 35.151674122807,88.403827631579 34.178449561403,88.403827631579 C 33.43879868421,88.403827631579 32.893791666667,87.849088157895 32.893791666667,87.089972368421 C 32.893791666667,86.068087280702 33.79889254386,85.133789035088 34.791581140351,85.133789035088" /><path class="char q" d="	M 42.527046929825,84.067190789474 L 42.390795175439,84.758181140351 C 42.264276754386,84.50514254386 42.176685526316,84.407819736842 41.962575877193,84.261836403509 C 41.631680263158,84.047726754386 41.271585526316,83.940671491228 40.814169736842,83.940671491228 C 39.072097807017,83.940671491228 37.514934649123,85.527031140351 37.514934649123,87.288567982456 C 37.514934649123,88.651082017544 38.420036403509,89.585380263158 39.743621491228,89.585380263158 C 40.405414473684,89.585380263158 41.047744298246,89.351805701754 41.51489254386,88.943051315789 L 41.086673245614,91.259328508772 L 42.381063596491,91.259328508772 L 43.714382017544,84.067190789474 L 42.527046929825,84.067190789474 M 40.755776754386,85.128006578947 C 41.514891666667,85.128006578947 42.020969736842,85.663282017544 42.020969736842,86.471058333333 C 42.020969736842,87.492944298246 41.13533377193,88.398045175438 40.132911842105,88.398045175438 C 39.344600438596,88.398045175438 38.848253947368,87.891967105263 38.848253947368,87.093922368421 C 38.848253947368,86.023375877193 39.724158333333,85.128006578947 40.755776754386,85.128006578947" /><path class="char l" d="	M 43.335632017544,91.256362719298 L 44.630022368421,91.256362719298 L 45.963341666667,84.064225 L 44.668951315789,84.064225 L 43.335632017544,91.256362719298" /><path class="char t" d="	M 45.798986403509,91.252786403509 L 47.093376754386,91.252786403509 L 47.871956578947,87.038718859649 L 48.650537280702,87.038718859649 L 48.874379385965,85.86111622807 L 48.09579868421,85.86111622807 L 48.426695175439,84.06064868421 L 47.132305701754,84.06064868421 L 46.801408333333,85.86111622807 L 46.168811842105,85.86111622807 L 45.944969736842,87.038718859649 L 46.577567105263,87.038718859649 L 45.798986403509,91.252786403509" /><path class="char esse" d="	M 51.953440789474,85.608049126053 C 50.155225,85.608049126053 48.536223245614,87.189992985702 48.536223245614,88.949328073421 C 48.536223245614,90.300420178684 49.552984649123,91.252785968158 50.99155745614,91.252785968158 C 52.206567982456,91.252785968158 53.294002192982,90.600730705 53.87720745614,89.531521055877 L 52.48500745614,89.531521055877 C 52.115644298246,89.900884213772 51.713070614035,90.063087722544 51.168746052632,90.063087722544 C 50.430019736842,90.063087722544 49.903110087719,89.62203947693 49.903110087719,88.999953512017 L 54.079709210526,88.999953512017 C 54.206070614035,88.698630705 54.25689868421,88.251507020789 54.25689868421,87.784942985702 C 54.25689868421,86.501892108509 53.304532017544,85.608049126053 51.953440789474,85.608049126053 z M 57.243799561403,85.608049126053 C 56.087109210526,85.608049126053 55.092217982456,86.501486845351 55.092217982456,87.531815792719 C 55.092217982456,88.21222193307 55.389693421053,88.517594740088 56.332541666667,88.848077196228 C 56.99350745614,89.081359652368 57.117235526316,89.17754824886 57.117235526316,89.430270178684 C 57.117235526316,89.770472810263 56.803155701754,90.063087722544 56.43379254386,90.063087722544 C 56.054709210526,90.063087722544 55.83600745614,89.832641231316 55.826287280702,89.404957020789 L 54.535338157895,89.404957020789 C 54.525617982456,89.550758775175 54.510025877193,89.677727196228 54.510025877193,89.78464824886 C 54.510025877193,90.649735968158 55.183343421053,91.252785968158 56.155352192982,91.252785968158 C 57.370362719298,91.252785968158 58.458810087719,90.238454389211 58.458810087719,89.101204389211 C 58.458810087719,88.459678950614 58.141894298246,88.136891231316 57.218486403509,87.835568424298 C 56.732482017544,87.680047371667 56.752934649123,87.675794740088 56.636294298246,87.60775438921 C 56.519653070175,87.53971316114 56.43379254386,87.436235090965 56.43379254386,87.329314038333 C 56.43379254386,87.047431582193 56.689349561403,86.797747371667 56.990672368421,86.797747371667 C 57.262834649123,86.797747371667 57.411267982456,86.946180705 57.420988157895,87.22806316114 L 58.686624122807,87.22806316114 C 58.706064473684,87.082262283947 58.711937280702,86.945573687456 58.711937280702,86.848372810263 C 58.711937280702,86.177686845351 58.040846052632,85.608049126053 57.243799561403,85.608049126053 z M 61.521649561403,85.608049126053 C 60.364959210526,85.608049126053 59.370067982456,86.501486845351 59.370067982456,87.531815792719 C 59.370067982456,88.21222193307 59.642230263158,88.517594740088 60.585078508772,88.848077196228 C 61.246044298246,89.081359652368 61.395085526316,89.17754824886 61.395085526316,89.430270178684 C 61.395085526316,89.770472810263 61.081005701754,90.063087722544 60.71164254386,90.063087722544 C 60.332559210526,90.063087722544 60.113856578947,89.832641231316 60.104137280702,89.404957020789 L 58.787875,89.404957020789 C 58.778155701754,89.550758775175 58.787875,89.677727196228 58.787875,89.78464824886 C 58.787875,90.649735968158 59.461193421053,91.252785968158 60.433202192982,91.252785968158 C 61.648212719298,91.252785968158 62.736660087719,90.238454389211 62.736660087719,89.101204389211 C 62.736660087719,88.459678950614 62.419744298246,88.136891231316 61.496336403509,87.835568424298 C 61.010332017544,87.680047371667 61.005472368421,87.675794740088 60.888831140351,87.60775438921 C 60.772189912281,87.53971316114 60.71164254386,87.436235090965 60.71164254386,87.329314038333 C 60.71164254386,87.047431582193 60.967199561403,86.797747371667 61.268522368421,86.797747371667 C 61.540684649123,86.797747371667 61.689117982456,86.946180705 61.698838157895,87.22806316114 L 62.964474122807,87.22806316114 C 62.983914473684,87.082262283947 62.989787280702,86.945573687456 62.989787280702,86.848372810263 C 62.989787280702,86.177686845351 62.318696052632,85.608049126053 61.521649561403,85.608049126053 z M 66.736069736842,85.608049126053 C 64.937853947368,85.608049126053 63.318852192982,87.189992985702 63.318852192982,88.949328073421 C 63.318852192982,90.300420178684 64.310301315789,91.252785968158 65.748874122807,91.252785968158 C 66.963884649123,91.252785968158 68.076631140351,90.600730705 68.659836403509,89.531521055877 L 67.242324122807,89.531521055877 C 66.872960964912,89.900884213772 66.470387280702,90.063087722544 65.926062719298,90.063087722544 C 65.187336403509,90.063087722544 64.685739035088,89.62203947693 64.685739035088,88.999953512017 L 68.837025877193,88.999953512017 C 68.963386403509,88.698630705 69.039527631579,88.251507020789 69.039527631579,87.784942985702 C 69.039527631579,86.501892108509 68.087161842105,85.608049126053 66.736069736842,85.608049126053 z M 51.750939035088,86.797747371667 C 52.577146052632,86.797747371667 53.028319736842,87.161035090965 53.067200438596,87.860881582193 L 50.080299561403,87.860881582193 C 50.333021491228,87.229075441842 51.00249254386,86.797747371667 51.750939035088,86.797747371667 z M 66.533567982456,86.797747371667 C 67.359775,86.797747371667 67.785636403509,87.161035090965 67.824517105263,87.860881582193 L 64.837615350877,87.860881582193 C 65.090338157895,87.229075441842 65.785121491228,86.797747371667 66.533567982456,86.797747371667 z" /></g></svg>