<?xml version="1.0" standalone="yes"?>
<svg
	xmlns:dc="http://purl.org/dc/elements/1.1/"
	xmlns:cc="http://creativecommons.org/ns#"
	xmlns:rdf="http://www.w3.org/1999/02/22-rdf-syntax-ns#"
	xmlns:svg="http://www.w3.org/2000/svg"
	xmlns:xlink="http://www.w3.org/1999/xlink"
	xmlns="http://www.w3.org/2000/svg"
	width="102"
	height="102"
>
<style type="text/css">
<![CDATA[
.symbol {stroke-width:0; fill:#000}
.outer {stroke-width:0; fill:#000;}
.main {fill:#fff}
.char {fill:#000}
.pentacle, .q {stroke-width:0; fill:#390;}
]]><!--#fc0fc0-->
</style>
<rect  x="0" y="0" width="102" height="102" class="main" />
<g transform="translate(1,1)" class="main"><path d=" M  52.10661842704 3.2474368745108 
 L  51.05507961023 0.011133169313815 
 A 50,50 0 0,1  97.216200011555,33.549150281253 
 L  93.813348919378 33.549150281253 
 A 46.8,46.8 0 0,0  52.10661842704,3.2474368745108 
 z  M  95.115310708616 37.55617664602 
 L  97.868275071514 35.556030958291 
 A 50,50 0 0,1  80.236296036984,89.821682560684 
 L  79.184757220174 86.585378855487 
 A 46.8,46.8 0 0,0  95.115310708616,37.55617664602 
 z  M  75.776177003897 89.06185734273 
 L  78.529141366795 91.062003030459 
 A 50,50 0 0,1  21.470858633205,91.062003030459 
 L  24.223822996103 89.06185734273 
 A 46.8,46.8 0 0,0  75.776177003897,89.06185734273 
 z  M  20.815242779826 86.585378855487 
 L  19.763703963016 89.821682560684 
 A 50,50 0 0,1  2.1317249284858,35.556030958291 
 L  4.8846892913842 37.55617664602 
 A 46.8,46.8 0 0,0  20.815242779826,86.585378855487 
 z  M  6.1866510806217 33.549150281253 
 L  2.7837999884448 33.549150281253 
 A 50,50 0 0,1  48.94492038977,0.011133169313837 
 L  47.89338157296 3.2474368745108 
 A 46.8,46.8 0 0,0  6.1866510806217,33.549150281253 
 z " class="outer" /><path d=" M  97.552825814758 34.549150281253 
 L  56.449358868962 34.549150281253 
 A 2.4,2.4 0 0,1  56.449358868962 37.349150281253 
 L  88.935311910667 37.349150281253 
 L  67.978651953189 52.905550153807 
 L  68.801551306398 55.438173945932 
 z  M  43.550641131038 34.549150281253 
 A 2.4,2.4 0 0,0  43.550641131038,37.349150281253 
 L  41.597216332104 37.349150281253 
 L  42.506991481556 34.549150281253 
 z M  79.389262614624 90.450849718747 
 L  65.606231440718 48.031041582444 
 L  62.943273195091 48.896289166694 
 L  74.063346123371 83.120354550248 
 L  52.792366582287 67.996578469818 
 L  50.637988106264 69.561826054068 
 z  M  63.783031173906 42.419808136303 
 L  62.379164336116 38.099150281253 
 L  59.435070108249 38.099150281253 
 L  61.120072928279 43.285055720553 
 z M  20.610737385376 90.450849718747 
 L  54.106327084661 66.114879301599 
 L  52.460528378242 63.849631717349 
 L  25.936653876629 83.120354550248 
 L  33.747125503714 58.216947021745 
 L  31.592747027691 56.651699437495 
 z  M  64.057236115473 58.885120698401 
 L  65.143752830484 58.095720097557 
 L  64.233977681032 55.295720097557 
 L  62.411437409054 56.619873114151 
 z M  2.4471741852423 34.549150281253 
 L  35.295550289027 58.414892496567 
 L  36.941348995446 56.149644912317 
 L  11.064688089333 37.349150281253 
 L  37.162804564122 37.081774073378 
 L  37.985703917332 34.549150281253 
 z  M  46.540886510839 66.585107503433 
 L  46.98018963035 66.904279902443 
 L  49.362011893736 65.173784733943 
 L  48.186685217258 64.319859919183 
 z M  50 0 
 L  36.612847071592 41.201420177407 
 L  39.275805317219 42.066667761657 
 L  50 9.0609903369994 
 L  58.319051396689 33.799150281253 
 L  60.982009642315 33.799150281253 
 z  M  33.997890313784 49.24942954134 
 L  32.989901721493 52.351699437495 
 L  35.371723984879 54.082194605994 
 L  36.66084855941 50.11467712559 
 z " class="pentacle" />
<path d="M  36.878696913118 56.916398752395 
 A 2.2,2.2 0 0,1  40.804122690021,57.723264583884 
 A 2.2,2.2 0 0,1  43.150271973709,59.427841815532 
 A 2.2,2.2 0 0,1  45.496421257396,61.13241904718 
 A 2.2,2.2 0 0,1  47.47681953943,64.616385557427 
 L  46.217279713089 66.349993402516 
 L  45.003754221526 65.468315524077 
 L  46.263294047867 63.734707678988 
 A 0.7,0.7 0 1,0  45.130670255743,62.911808325778 
 A 0.75,0.75 0 0,1  43.91714476418,62.03013044734 
 A 0.7,0.7 0 0,0  42.784520972055,61.20723109413 
 A 0.75,0.75 0 0,1  41.570995480493,60.325553215691 
 A 0.7,0.7 0 0,0  40.438371688368,59.502653862482 
 A 0.75,0.75 0 0,1  39.224846196805,58.620975984043 
 A 0.7,0.7 0 0,0  38.092222404681,57.798076630834 
 L  36.83268257834 59.531684475923 
 L  35.619157086777 58.650006597484 
 L  36.878696913118 56.916398752395 
" class="symbol coil" /><path d=" M  56.436747964751 58.859423525313 
L  51.784900247095 62.239188725994 
L  55.429168811308 67.255094091119 
L  60.081016528964 63.875328890437 
L  59.140560125296 62.580901699437 
L  55.78313959864 65.020210496451 
L  54.019783841763 62.593159513326 
L  57.377204368419 60.153850716313 
 z  M  56.436747964751 58.859423525313 
L  61.088595682407 55.479658324631 
L  64.73286424662 60.495563689756 
L  60.081016528964 63.875328890437 
L  59.140560125296 62.580901699437 
L  62.497980651952 60.141592902424 
L  60.734624895075 57.714541919299 
L  57.377204368419 60.153850716313 
 z" class="symbol resistor" /><path d=" M  59.091647050938 48.044833914979 
 L  59.586074241938 49.566524341051 
 L  68.716216798371 46.599961195052 
 L  68.221789607372 45.078270768979 
 z  M  58.504514761626 46.237826534018 
 L  58.010087570626 44.716136107946 
 L  67.140230127059 41.749572961946 
 L  67.634657318059 43.271263388018 
 z" class="symbol capacitor" /><path d=" M  39.257202299528 50.537698704447 
 L  37.801820463803 43.69066549931 
 L  41.130518270836 44.772224979622 
 L  41.624945461836 43.25053455355 
 L  34.016493331475 40.778398598551 
 L  33.522066140475 42.300089024623 
 L  36.850763947508 43.381648504935 
 L  31.648750169166 48.065562749447 
 z" class="symbol diode" /><path d=" M  43.5 35.949150281253 
 A 2,2 0 0,0  47.5,35.949150281253 
 A 2,2 0 1,0  43.5,35.949150281253 
 z  M  47.09136992418 30.776897348569 
 L  52.581587253734 35.38373668488 
 A 2,2 0 1,0  53.610047429232,34.15806557589 
 L  48.119830099678 29.551226239579 
 z" class="symbol switch" /><path class="char o" d="	M 40.763495833333,80.615218750001 C 37.866530555555,80.615218750001 35.293156944444,83.126954861112 35.293156944444,85.946872916667 C 35.293156944444,87.996321527778 36.911147222222,89.552674305556 39.022233333333,89.552674305556 C 41.919198611111,89.552674305556 44.523391666666,87.071757638889 44.523391666666,84.313475694445 C 44.523391666666,82.171571527778 42.951629166666,80.615218750001 40.763495833333,80.615218750001 M 40.409079166666,82.495165972223 C 41.564783333333,82.495165972223 42.412302777777,83.388913194445 42.412302777777,84.590845138889 C 42.412302777777,86.178013194445 40.979226388888,87.672727083334 39.4382875,87.672727083334 C 38.267173611111,87.672727083334 37.404245833333,86.794389583334 37.404245833333,85.592456250001 C 37.404245833333,83.974471527778 38.837322222222,82.495165972223 40.409079166666,82.495165972223" /><path class="char q" d="	M 52.6569,80.806385416667 L 52.441168055555,81.900453472223 C 52.240847222222,81.499809027778 52.102161111111,81.345714583334 51.763154166666,81.114574305556 C 51.239236111111,80.775567361112 50.669086111111,80.606063194445 49.944844444444,80.606063194445 C 47.186563888888,80.606063194445 44.721055555555,83.117799305556 44.721055555555,85.906899305556 C 44.721055555555,88.064213194445 46.154133333333,89.543518750001 48.249809722222,89.543518750001 C 49.297648611111,89.543518750001 50.314670833333,89.173692361112 51.054322222222,88.526497916667 L 50.376308333333,92.193936805556 L 52.425759722222,92.193936805556 L 54.536847222222,80.806385416667 L 52.6569,80.806385416667 M 49.852388888888,82.486010416667 C 51.054320833333,82.486010416667 51.855611111111,83.333529861112 51.855611111111,84.612509027778 C 51.855611111111,86.230495138889 50.453354166666,87.663571527778 48.866186111111,87.663571527778 C 47.618026388888,87.663571527778 46.832144444444,86.862281250001 46.832144444444,85.598710416667 C 46.832144444444,83.903678472223 48.218993055555,82.486010416667 49.852388888888,82.486010416667" /><path class="char l" d="	M 53.937159722222,92.189240972223 L 55.986611111111,92.189240972223 L 58.0977,80.801689583334 L 56.048248611111,80.801689583334 L 53.937159722222,92.189240972223" /><path class="char t" d="	M 57.837470833333,92.183578472223 L 59.886922222222,92.183578472223 L 61.119673611111,85.511304861112 L 62.352426388888,85.511304861112 L 62.706843055555,83.646767361112 L 61.474090277777,83.646767361112 L 61.998009722222,80.796027083334 L 59.948559722222,80.796027083334 L 59.424638888888,83.646767361112 L 58.423027777777,83.646767361112 L 58.068611111111,85.511304861112 L 59.070223611111,85.511304861112 L 57.837470833333,92.183578472223" /></g></svg>