<?xml version="1.0" standalone="yes"?>
<svg
	xmlns:dc="http://purl.org/dc/elements/1.1/"
	xmlns:cc="http://creativecommons.org/ns#"
	xmlns:rdf="http://www.w3.org/1999/02/22-rdf-syntax-ns#"
	xmlns:svg="http://www.w3.org/2000/svg"
	xmlns:xlink="http://www.w3.org/1999/xlink"
	xmlns="http://www.w3.org/2000/svg"
	width="102"
	height="102"
>
<style type="text/css">
<![CDATA[
.symbol {stroke-width:0; fill:#fff}
.outer {stroke-width:0; fill:#fff;}
.main {fill:#000}
.char {fill:#fff}
.pentacle, .q {stroke-width:0; fill:#fc0fc0;}
]]><!--#fc0fc0-->
</style><rect  x="0" y="0" width="102" height="102" class="main" />
<g transform="translate(1,1)" class="main"><path d=" M  52.079058510433 1.5445821841335 
 L  51.585361831028 0.025140041569685 
 A 50,50 0 0,1  97.039012466382,33.049150281253 
 L  95.441376451561 33.049150281253 
 A 48.5,48.5 0 0,0  52.079058510433,1.5445821841335 
" class="outer" /><path d=" M  96.726305275608 37.003754569465 
 L  98.018819962424 36.064687681421 
 A 50,50 0 0,1  80.657070332482,89.498658694053 
 L  80.163373653076 87.979216551489 
 A 48.5,48.5 0 0,0  96.726305275608,37.003754569465 
" class="outer" /><path d=" M  76.799386318596 90.42329641366 
 L  78.091901005412 91.362363301704 
 A 50,50 0 0,1  21.908098994588,91.362363301704 
 L  23.200613681404 90.42329641366 
 A 48.5,48.5 0 0,0  76.799386318596,90.42329641366 
" class="outer" /><path d=" M  19.836626346924 87.979216551489 
 L  19.342929667518 89.498658694053 
 A 50,50 0 0,1  1.9811800375763,36.064687681421 
 L  3.2736947243923 37.003754569465 
 A 48.5,48.5 0 0,0  19.836626346924,87.979216551489 
" class="outer" /><path d=" M  4.5586235484395 33.049150281253 
 L  2.960987533618 33.049150281253 
 A 50,50 0 0,1  48.414638168973,0.02514004156972 
 L  47.920941489567 1.5445821841335 
 A 48.5,48.5 0 0,0  4.5586235484395,33.049150281253 
" class="outer" /><path d="M  97.552825814758 34.549150281253 
 L  58.404737509656 34.549150281253 
 A 3,3 0 0,1  58.404737509656 36.049150281253 
 L  92.936300508995 36.049150281253 
 L  68.573375069267 53.926902702964 
 L  69.014214008486 55.283665448745 
" class="pentacle" />
<path d="M  79.389262614624 90.450849718747 
 L  65.884346735655 48.88699244711 
 L  64.457761961213 49.350517938672 
 L  76.536093065738 86.523798735623 
 L  52.004782134793 68.877809059693 
 L  50.850650808352 69.716334551255 
" class="pentacle" />
<path d="M  63.504915878968 41.563857271637 
 L  62.037998655072 37.049150281253 
 L  60.460805318714 37.049150281253 
 L  62.078331104526 42.0273827632 
 z" class="pentacle" />
<path d="M  20.610737385376 90.450849718747 
 L  53.418662639442 66.614496766047 
 L  52.536984761004 65.400971274485 
 L  23.463906934262 86.523798735623 
 L  32.665648430074 57.740224929057 
 L  31.511517103633 56.901699437495 
" class="pentacle" />
<path d="M  64.744900560692 58.385503233953 
 L  66.036936179254 57.446784409369 
 L  65.549556634905 55.946784409369 
 L  63.863222682253 57.17197774239 
 z" class="pentacle" />
<path d="M  2.4471741852423 34.549150281253 
 L  34.24382819634 57.650771668587 
 L  35.125506074778 56.437246177025 
 L  7.0636994910052 36.049150281253 
 L  37.281999422053 35.905913027034 
 L  37.722838361272 34.549150281253 
" class="pentacle" />
<path d="M  50 0 
 L  36.798257268217 40.63078626763 
 L  38.22484204266 41.094311759193 
 L  50 4.8541019662497 
 L  59.474194943814 33.549150281253 
 L  60.900779718257 33.549150281253 
" class="pentacle" />
<path d="M  33.812480117159 49.820063451117 
 L  32.648736040448 53.401699437495 
 L  33.924712252976 54.32875042062 
 L  35.239064891602 50.28358894268 
 z" class="pentacle" />
<path d="M  35.562259076035 57.537408859088 
 A 2.3,2.3 0 0,1  39.699709221644,58.562838667802 
 A 2.3,2.3 0 0,1  42.369465303081,60.502530000367 
 A 2.3,2.3 0 0,1  45.039221384519,62.442221332932 
 A 2.3,2.3 0 0,1  47.293005494472,66.060295017329 
 L  46.783591609151 66.76144307912 
 L  45.731869516464 65.99732225114 
 L  46.241283401784 65.296174189349 
 A 1,1 0 1,0  44.623249413034,64.120603684764 
 A 0.65,0.65 0 0,1  43.571527320347,63.356482856783 
 A 1,1 0 0,0  41.953493331597,62.180912352198 
 A 0.65,0.65 0 0,1  40.901771238909,61.416791524218 
 A 1,1 0 0,0  39.28373725016,60.241221019633 
 A 0.65,0.65 0 0,1  38.232015157472,59.477100191653 
 A 1,1 0 0,0  36.613981168722,58.301529687068 
 L  36.104567283402 59.00267774886 
 L  35.052845190715 58.23855692088 
 L  35.562259076035 57.537408859088 
" class="symbol coil" /><path d="M  56.818808378741 59.385284571656 
L  51.964706412491 62.911996085411 
L  55.608974976705 67.927901450536 
L  60.463076942954 64.401189936781 
L  59.522620539286 63.106762745781 
L  55.962945764037 65.693017855868 
L  54.199590007159 63.265966872743 
L  57.759264782409 60.679711762656 
 z" class="symbol resistor" /><path d="M  56.818808378741 59.385284571656 
L  61.672910344991 55.858573057902 
L  65.317178909204 60.874478423026 
L  60.463076942954 64.401189936781 
L  59.522620539286 63.106762745781 
L  63.082295314536 60.520507635694 
L  61.318939557659 58.093456652569 
L  57.759264782409 60.679711762656 
 z" class="symbol resistor" /><path d=" M  59.70983378653 47.843972868635 
 L  60.296966075842 49.650980249596 
 L  69.427108632276 46.684417103596 
 L  68.839976342963 44.877409722636 
 z" class="symbol capacitor" /><path d=" M  59.122701497218 46.036965487674 
 L  58.535569207905 44.229958106713 
 L  67.665711764339 41.263394960714 
 L  68.252844053651 43.070402341675 
 z" class="symbol capacitor" /><path d=" M  38.639015563936 50.336837658103 
 L  37.183633728212 43.489804452966 
 L  40.512331535245 44.571363933279 
 L  41.006758726244 43.049673507206 
 L  33.398306595883 40.577537552207 
 L  32.903879404883 42.099227978279 
 L  36.232577211916 43.180787458591 
 L  31.030563433575 47.864701703103 
 z" class="symbol diode" /><path d=" M  42.5 35.299150281253 
 A 2,2 0 0,0  46.5,35.299150281253 
 A 2,2 0 1,0  42.5,35.299150281253 
 z" class="symbol switch" /><path d=" M  46.559281037942 28.841322129196 
 L  53.581587253734 34.73373668488 
 A 2,2 0 1,0  54.610047429232,33.50806557589 
 L  47.58774121344 27.615651020206 
 z" class="symbol switch" /><path class="char o" d="	M 35.015423245614,82.596453947368 C 33.185760964912,82.596453947368 31.560472368421,84.182813596491 31.560472368421,85.963814473684 C 31.560472368421,87.258203070175 32.582360964912,88.241162719298 33.915678508772,88.241162719298 C 35.745340789474,88.241162719298 37.390094298246,86.674267982456 37.390094298246,84.932195175438 C 37.390094298246,83.579413596491 36.397402192982,82.596453947368 35.015423245614,82.596453947368 M 34.791581140351,83.783789035088 C 35.521499561404,83.783789035088 36.056775,84.348260964912 36.056775,85.107375877193 C 36.056775,86.109797807018 35.151674122807,87.053827631579 34.178449561403,87.053827631579 C 33.43879868421,87.053827631579 32.893791666667,86.499088157895 32.893791666667,85.739972368421 C 32.893791666667,84.718087280702 33.79889254386,83.783789035088 34.791581140351,83.783789035088" /><path class="char q" d="	M 42.527046929825,82.717190789474 L 42.390795175439,83.408181140351 C 42.264276754386,83.15514254386 42.176685526316,83.057819736842 41.962575877193,82.911836403509 C 41.631680263158,82.697726754386 41.271585526316,82.590671491228 40.814169736842,82.590671491228 C 39.072097807017,82.590671491228 37.514934649123,84.177031140351 37.514934649123,85.938567982456 C 37.514934649123,87.301082017544 38.420036403509,88.235380263158 39.743621491228,88.235380263158 C 40.405414473684,88.235380263158 41.047744298246,88.001805701754 41.51489254386,87.593051315789 L 41.086673245614,89.909328508772 L 42.381063596491,89.909328508772 L 43.714382017544,82.717190789474 L 42.527046929825,82.717190789474 M 40.755776754386,83.778006578947 C 41.514891666667,83.778006578947 42.020969736842,84.313282017544 42.020969736842,85.121058333333 C 42.020969736842,86.142944298245 41.13533377193,87.048045175438 40.132911842105,87.048045175438 C 39.344600438596,87.048045175438 38.848253947368,86.541967105263 38.848253947368,85.743922368421 C 38.848253947368,84.673375877193 39.724158333333,83.778006578947 40.755776754386,83.778006578947" /><path class="char l" d="	M 43.335632017544,89.906362719298 L 44.630022368421,89.906362719298 L 45.963341666667,82.714225 L 44.668951315789,82.714225 L 43.335632017544,89.906362719298" /><path class="char t" d="	M 45.798986403509,89.902786403509 L 47.093376754386,89.902786403509 L 47.871956578947,85.688718859649 L 48.650537280702,85.688718859649 L 48.874379385965,84.51111622807 L 48.09579868421,84.51111622807 L 48.426695175439,82.71064868421 L 47.132305701754,82.71064868421 L 46.801408333333,84.51111622807 L 46.168811842105,84.51111622807 L 45.944969736842,85.688718859649 L 46.577567105263,85.688718859649 L 45.798986403509,89.902786403509" /><path class="char esse" d="	M 51.953440789474,84.258049126053 C 50.155225,84.258049126053 48.536223245614,85.839992985702 48.536223245614,87.599328073421 C 48.536223245614,88.950420178684 49.552984649123,89.902785968158 50.99155745614,89.902785968158 C 52.206567982456,89.902785968158 53.294002192982,89.250730705 53.87720745614,88.181521055877 L 52.48500745614,88.181521055877 C 52.115644298246,88.550884213772 51.713070614035,88.713087722544 51.168746052632,88.713087722544 C 50.430019736842,88.713087722544 49.903110087719,88.27203947693 49.903110087719,87.649953512017 L 54.079709210526,87.649953512017 C 54.206070614035,87.348630705 54.25689868421,86.901507020789 54.25689868421,86.434942985702 C 54.25689868421,85.151892108509 53.304532017544,84.258049126053 51.953440789474,84.258049126053 z M 57.243799561403,84.258049126053 C 56.087109210526,84.258049126053 55.092217982456,85.151486845351 55.092217982456,86.181815792719 C 55.092217982456,86.86222193307 55.389693421053,87.167594740088 56.332541666667,87.498077196228 C 56.99350745614,87.731359652368 57.117235526316,87.82754824886 57.117235526316,88.080270178684 C 57.117235526316,88.420472810263 56.803155701754,88.713087722544 56.43379254386,88.713087722544 C 56.054709210526,88.713087722544 55.83600745614,88.482641231316 55.826287280702,88.054957020789 L 54.535338157895,88.054957020789 C 54.525617982456,88.200758775175 54.510025877193,88.327727196228 54.510025877193,88.43464824886 C 54.510025877193,89.299735968158 55.183343421053,89.902785968158 56.155352192982,89.902785968158 C 57.370362719298,89.902785968158 58.458810087719,88.88845438921 58.458810087719,87.75120438921 C 58.458810087719,87.109678950614 58.141894298246,86.786891231316 57.218486403509,86.485568424298 C 56.732482017544,86.330047371667 56.752934649123,86.325794740088 56.636294298246,86.25775438921 C 56.519653070175,86.18971316114 56.43379254386,86.086235090965 56.43379254386,85.979314038333 C 56.43379254386,85.697431582193 56.689349561403,85.447747371667 56.990672368421,85.447747371667 C 57.262834649123,85.447747371667 57.411267982456,85.596180705 57.420988157895,85.87806316114 L 58.686624122807,85.87806316114 C 58.706064473684,85.732262283947 58.711937280702,85.595573687456 58.711937280702,85.498372810263 C 58.711937280702,84.827686845351 58.040846052632,84.258049126053 57.243799561403,84.258049126053 z M 61.521649561403,84.258049126053 C 60.364959210526,84.258049126053 59.370067982456,85.151486845351 59.370067982456,86.181815792719 C 59.370067982456,86.86222193307 59.642230263158,87.167594740088 60.585078508772,87.498077196228 C 61.246044298246,87.731359652368 61.395085526316,87.82754824886 61.395085526316,88.080270178684 C 61.395085526316,88.420472810263 61.081005701754,88.713087722544 60.71164254386,88.713087722544 C 60.332559210526,88.713087722544 60.113856578947,88.482641231316 60.104137280702,88.054957020789 L 58.787875,88.054957020789 C 58.778155701754,88.200758775175 58.787875,88.327727196228 58.787875,88.43464824886 C 58.787875,89.299735968158 59.461193421053,89.902785968158 60.433202192982,89.902785968158 C 61.648212719298,89.902785968158 62.736660087719,88.88845438921 62.736660087719,87.75120438921 C 62.736660087719,87.109678950614 62.419744298246,86.786891231316 61.496336403509,86.485568424298 C 61.010332017544,86.330047371667 61.005472368421,86.325794740088 60.888831140351,86.25775438921 C 60.772189912281,86.18971316114 60.71164254386,86.086235090965 60.71164254386,85.979314038333 C 60.71164254386,85.697431582193 60.967199561403,85.447747371667 61.268522368421,85.447747371667 C 61.540684649123,85.447747371667 61.689117982456,85.596180705 61.698838157895,85.87806316114 L 62.964474122807,85.87806316114 C 62.983914473684,85.732262283947 62.989787280702,85.595573687456 62.989787280702,85.498372810263 C 62.989787280702,84.827686845351 62.318696052632,84.258049126053 61.521649561403,84.258049126053 z M 66.736069736842,84.258049126053 C 64.937853947368,84.258049126053 63.318852192982,85.839992985702 63.318852192982,87.599328073421 C 63.318852192982,88.950420178684 64.310301315789,89.902785968158 65.748874122807,89.902785968158 C 66.963884649123,89.902785968158 68.076631140351,89.250730705 68.659836403509,88.181521055877 L 67.242324122807,88.181521055877 C 66.872960964912,88.550884213772 66.470387280702,88.713087722544 65.926062719298,88.713087722544 C 65.187336403509,88.713087722544 64.685739035088,88.27203947693 64.685739035088,87.649953512017 L 68.837025877193,87.649953512017 C 68.963386403509,87.348630705 69.039527631579,86.901507020789 69.039527631579,86.434942985702 C 69.039527631579,85.151892108509 68.087161842105,84.258049126053 66.736069736842,84.258049126053 z M 51.750939035088,85.447747371667 C 52.577146052632,85.447747371667 53.028319736842,85.811035090965 53.067200438596,86.510881582193 L 50.080299561403,86.510881582193 C 50.333021491228,85.879075441842 51.00249254386,85.447747371667 51.750939035088,85.447747371667 z M 66.533567982456,85.447747371667 C 67.359775,85.447747371667 67.785636403509,85.811035090965 67.824517105263,86.510881582193 L 64.837615350877,86.510881582193 C 65.090338157895,85.879075441842 65.785121491228,85.447747371667 66.533567982456,85.447747371667 z" /></g></svg>