<?xml version="1.0" standalone="yes"?>
<svg
	xmlns:dc="http://purl.org/dc/elements/1.1/"
	xmlns:cc="http://creativecommons.org/ns#"
	xmlns:rdf="http://www.w3.org/1999/02/22-rdf-syntax-ns#"
	xmlns:svg="http://www.w3.org/2000/svg"
	xmlns:xlink="http://www.w3.org/1999/xlink"
	xmlns="http://www.w3.org/2000/svg"
	width="102"
	height="102"
>
<style type="text/css">
<![CDATA[
.symbol {stroke-width:0; fill:#fff}
.outer {stroke-width:0; fill:#fff;}
.main {fill:#000}
.char {fill:#fff}
.pentacle, .q {stroke-width:0; fill:#fc0fc0;}
]]><!--#fc0fc0-->
</style><rect  x="0" y="0" width="102" height="102" class="main" />
<g transform="translate(1,1)" class="main"><path d=" M  52.079058510433 1.5445821841335 
 L  51.585361831028 0.025140041569685 
 A 50,50 0 0,1  97.039012466382,33.049150281253 
 L  95.441376451561 33.049150281253 
 A 48.5,48.5 0 0,0  52.079058510433,1.5445821841335 
" class="outer" /><path d=" M  96.726305275608 37.003754569465 
 L  98.018819962424 36.064687681421 
 A 50,50 0 0,1  80.657070332482,89.498658694053 
 L  80.163373653076 87.979216551489 
 A 48.5,48.5 0 0,0  96.726305275608,37.003754569465 
" class="outer" /><path d=" M  76.799386318596 90.42329641366 
 L  78.091901005412 91.362363301704 
 A 50,50 0 0,1  21.908098994588,91.362363301704 
 L  23.200613681404 90.42329641366 
 A 48.5,48.5 0 0,0  76.799386318596,90.42329641366 
" class="outer" /><path d=" M  19.836626346924 87.979216551489 
 L  19.342929667518 89.498658694053 
 A 50,50 0 0,1  1.9811800375763,36.064687681421 
 L  3.2736947243923 37.003754569465 
 A 48.5,48.5 0 0,0  19.836626346924,87.979216551489 
" class="outer" /><path d=" M  4.5586235484395 33.049150281253 
 L  2.960987533618 33.049150281253 
 A 50,50 0 0,1  48.414638168973,0.02514004156972 
 L  47.920941489567 1.5445821841335 
 A 48.5,48.5 0 0,0  4.5586235484395,33.049150281253 
" class="outer" /><path d="M  97.552825814758 34.549150281253 
 L  58.404737509656 34.549150281253 
 A 3,3 0 0,1  58.404737509656 36.049150281253 
 L  92.936300508995 36.049150281253 
 L  68.573375069267 53.926902702964 
 L  69.014214008486 55.283665448745 
" class="pentacle" />
<path d="M  79.389262614624 90.450849718747 
 L  65.69893653903 48.316358537333 
 L  64.272351764588 48.779884028895 
 L  76.536093065738 86.523798735623 
 L  52.004782134793 68.877809059693 
 L  50.850650808352 69.716334551255 
" class="pentacle" />
<path d="M  63.690326075593 42.134491181414 
 L  62.037998655072 37.049150281253 
 L  60.460805318714 37.049150281253 
 L  62.263741301151 42.598016672977 
 z" class="pentacle" />
<path d="M  20.610737385376 90.450849718747 
 L  53.418662639442 66.614496766047 
 L  52.536984761004 65.400971274485 
 L  23.463906934262 86.523798735623 
 L  32.665648430074 57.740224929057 
 L  31.511517103633 56.901699437495 
" class="pentacle" />
<path d="M  64.744900560692 58.385503233953 
 L  66.036936179254 57.446784409369 
 L  65.549556634905 55.946784409369 
 L  63.863222682253 57.17197774239 
 z" class="pentacle" />
<path d="M  2.4471741852423 34.549150281253 
 L  34.24382819634 57.650771668587 
 L  35.125506074778 56.437246177025 
 L  7.0636994910052 36.049150281253 
 L  37.281999422053 35.905913027034 
 L  37.722838361272 34.549150281253 
" class="pentacle" />
<path d="M  50 0 
 L  36.751904719061 40.773444745075 
 L  38.178489493504 41.236970236637 
 L  50 4.8541019662497 
 L  59.474194943814 33.549150281253 
 L  60.900779718257 33.549150281253 
" class="pentacle" />
<path d="M  33.858832666315 49.677404973673 
 L  32.648736040448 53.401699437495 
 L  33.924712252976 54.32875042062 
 L  35.285417440758 50.140930465235 
 z" class="pentacle" />
<path d="M  35.562259076035 57.537408859088 
 A 2.3,2.3 0 0,1  39.699709221644,58.562838667802 
 A 2.3,2.3 0 0,1  42.369465303081,60.502530000367 
 A 2.3,2.3 0 0,1  45.039221384519,62.442221332932 
 A 2.3,2.3 0 0,1  47.293005494472,66.060295017329 
 L  46.783591609151 66.76144307912 
 L  45.731869516464 65.99732225114 
 L  46.241283401784 65.296174189349 
 A 1,1 0 1,0  44.623249413034,64.120603684764 
 A 0.65,0.65 0 0,1  43.571527320347,63.356482856783 
 A 1,1 0 0,0  41.953493331597,62.180912352198 
 A 0.65,0.65 0 0,1  40.901771238909,61.416791524218 
 A 1,1 0 0,0  39.28373725016,60.241221019633 
 A 0.65,0.65 0 0,1  38.232015157472,59.477100191653 
 A 1,1 0 0,0  36.613981168722,58.301529687068 
 L  36.104567283402 59.00267774886 
 L  35.052845190715 58.23855692088 
 L  35.562259076035 57.537408859088 
" class="symbol coil" /><path d="M  57.200868792731 59.911145618 
L  52.346766826481 63.437857131755 
L  55.226914562715 67.402040404192 
L  60.081016528964 63.875328890437 
L  59.316895700984 62.82360679775 
L  55.514515827422 65.586197483525 
L  54.162609747149 63.725458396462 
L  57.964989620711 60.962867710688 
 z" class="symbol resistor" /><path d="M  57.200868792731 59.911145618 
L  62.054970758981 56.384434104245 
L  64.935118495214 60.348617376683 
L  60.081016528964 63.875328890437 
L  59.316895700984 62.82360679775 
L  63.119275574546 60.061016111975 
L  61.767369494274 58.200277024913 
L  57.964989620711 60.962867710688 
 z" class="symbol resistor" /><path d=" M  59.70983378653 47.843972868635 
 L  60.111555879217 49.080346339819 
 L  69.241698435651 46.113783193819 
 L  68.839976342963 44.877409722636 
 z" class="symbol capacitor" /><path d=" M  59.122701497218 46.036965487674 
 L  58.72097940453 44.800592016491 
 L  67.851121960964 41.834028870491 
 L  68.252844053651 43.070402341675 
 z" class="symbol capacitor" /><path d=" M  38.685368113092 50.194179180659 
 L  37.229986277368 43.347145975522 
 L  40.558684084401 44.428705455834 
 L  40.960406177088 43.192331984651 
 L  33.351954046727 40.720196029651 
 L  32.95023195404 41.956569500835 
 L  36.278929761073 43.038128981147 
 L  31.076915982731 47.722043225659 
 z" class="symbol diode" /><path d=" M  42.5 35.299150281253 
 A 2,2 0 0,0  46.5,35.299150281253 
 A 2,2 0 1,0  42.5,35.299150281253 
 z" class="symbol switch" /><path d=" M  46.655699179395 28.726415462728 
 L  53.633270120278 34.581292665737 
 A 2,2 0 1,0  54.468894012871,33.585434889682 
 L  47.491323071987 27.730557686673 
 z" class="symbol switch" /><path class="char o" d="	M 35.015423245614,84.096453947368 C 33.185760964912,84.096453947368 31.560472368421,85.682813596491 31.560472368421,87.463814473684 C 31.560472368421,88.758203070175 32.582360964912,89.741162719298 33.915678508772,89.741162719298 C 35.745340789474,89.741162719298 37.390094298246,88.174267982456 37.390094298246,86.432195175438 C 37.390094298246,85.079413596491 36.397402192982,84.096453947368 35.015423245614,84.096453947368 M 34.791581140351,85.283789035088 C 35.521499561404,85.283789035088 36.056775,85.848260964912 36.056775,86.607375877193 C 36.056775,87.609797807018 35.151674122807,88.553827631579 34.178449561403,88.553827631579 C 33.43879868421,88.553827631579 32.893791666667,87.999088157895 32.893791666667,87.239972368421 C 32.893791666667,86.218087280702 33.79889254386,85.283789035088 34.791581140351,85.283789035088" /><path class="char q" d="	M 42.527046929825,84.217190789474 L 42.390795175439,84.908181140351 C 42.264276754386,84.65514254386 42.176685526316,84.557819736842 41.962575877193,84.411836403509 C 41.631680263158,84.197726754386 41.271585526316,84.090671491228 40.814169736842,84.090671491228 C 39.072097807017,84.090671491228 37.514934649123,85.677031140351 37.514934649123,87.438567982456 C 37.514934649123,88.801082017544 38.420036403509,89.735380263158 39.743621491228,89.735380263158 C 40.405414473684,89.735380263158 41.047744298246,89.501805701754 41.51489254386,89.093051315789 L 41.086673245614,91.409328508772 L 42.381063596491,91.409328508772 L 43.714382017544,84.217190789474 L 42.527046929825,84.217190789474 M 40.755776754386,85.278006578947 C 41.514891666667,85.278006578947 42.020969736842,85.813282017544 42.020969736842,86.621058333333 C 42.020969736842,87.642944298245 41.13533377193,88.548045175438 40.132911842105,88.548045175438 C 39.344600438596,88.548045175438 38.848253947368,88.041967105263 38.848253947368,87.243922368421 C 38.848253947368,86.173375877193 39.724158333333,85.278006578947 40.755776754386,85.278006578947" /><path class="char l" d="	M 43.335632017544,91.406362719298 L 44.630022368421,91.406362719298 L 45.963341666667,84.214225 L 44.668951315789,84.214225 L 43.335632017544,91.406362719298" /><path class="char t" d="	M 45.798986403509,91.402786403509 L 47.093376754386,91.402786403509 L 47.871956578947,87.188718859649 L 48.650537280702,87.188718859649 L 48.874379385965,86.01111622807 L 48.09579868421,86.01111622807 L 48.426695175439,84.21064868421 L 47.132305701754,84.21064868421 L 46.801408333333,86.01111622807 L 46.168811842105,86.01111622807 L 45.944969736842,87.188718859649 L 46.577567105263,87.188718859649 L 45.798986403509,91.402786403509" /><path class="char esse" d="	M 51.953440789474,85.758049126053 C 50.155225,85.758049126053 48.536223245614,87.339992985702 48.536223245614,89.099328073421 C 48.536223245614,90.450420178684 49.552984649123,91.402785968158 50.99155745614,91.402785968158 C 52.206567982456,91.402785968158 53.294002192982,90.750730705 53.87720745614,89.681521055877 L 52.48500745614,89.681521055877 C 52.115644298246,90.050884213772 51.713070614035,90.213087722544 51.168746052632,90.213087722544 C 50.430019736842,90.213087722544 49.903110087719,89.77203947693 49.903110087719,89.149953512017 L 54.079709210526,89.149953512017 C 54.206070614035,88.848630705 54.25689868421,88.401507020789 54.25689868421,87.934942985702 C 54.25689868421,86.651892108509 53.304532017544,85.758049126053 51.953440789474,85.758049126053 z M 57.243799561403,85.758049126053 C 56.087109210526,85.758049126053 55.092217982456,86.651486845351 55.092217982456,87.681815792719 C 55.092217982456,88.36222193307 55.389693421053,88.667594740088 56.332541666667,88.998077196228 C 56.99350745614,89.231359652368 57.117235526316,89.32754824886 57.117235526316,89.580270178684 C 57.117235526316,89.920472810263 56.803155701754,90.213087722544 56.43379254386,90.213087722544 C 56.054709210526,90.213087722544 55.83600745614,89.982641231316 55.826287280702,89.554957020789 L 54.535338157895,89.554957020789 C 54.525617982456,89.700758775175 54.510025877193,89.827727196228 54.510025877193,89.93464824886 C 54.510025877193,90.799735968158 55.183343421053,91.402785968158 56.155352192982,91.402785968158 C 57.370362719298,91.402785968158 58.458810087719,90.38845438921 58.458810087719,89.25120438921 C 58.458810087719,88.609678950614 58.141894298246,88.286891231316 57.218486403509,87.985568424298 C 56.732482017544,87.830047371667 56.752934649123,87.825794740088 56.636294298246,87.75775438921 C 56.519653070175,87.68971316114 56.43379254386,87.586235090965 56.43379254386,87.479314038333 C 56.43379254386,87.197431582193 56.689349561403,86.947747371667 56.990672368421,86.947747371667 C 57.262834649123,86.947747371667 57.411267982456,87.096180705 57.420988157895,87.37806316114 L 58.686624122807,87.37806316114 C 58.706064473684,87.232262283947 58.711937280702,87.095573687456 58.711937280702,86.998372810263 C 58.711937280702,86.327686845351 58.040846052632,85.758049126053 57.243799561403,85.758049126053 z M 61.521649561403,85.758049126053 C 60.364959210526,85.758049126053 59.370067982456,86.651486845351 59.370067982456,87.681815792719 C 59.370067982456,88.36222193307 59.642230263158,88.667594740088 60.585078508772,88.998077196228 C 61.246044298246,89.231359652368 61.395085526316,89.32754824886 61.395085526316,89.580270178684 C 61.395085526316,89.920472810263 61.081005701754,90.213087722544 60.71164254386,90.213087722544 C 60.332559210526,90.213087722544 60.113856578947,89.982641231316 60.104137280702,89.554957020789 L 58.787875,89.554957020789 C 58.778155701754,89.700758775175 58.787875,89.827727196228 58.787875,89.93464824886 C 58.787875,90.799735968158 59.461193421053,91.402785968158 60.433202192982,91.402785968158 C 61.648212719298,91.402785968158 62.736660087719,90.38845438921 62.736660087719,89.25120438921 C 62.736660087719,88.609678950614 62.419744298246,88.286891231316 61.496336403509,87.985568424298 C 61.010332017544,87.830047371667 61.005472368421,87.825794740088 60.888831140351,87.75775438921 C 60.772189912281,87.68971316114 60.71164254386,87.586235090965 60.71164254386,87.479314038333 C 60.71164254386,87.197431582193 60.967199561403,86.947747371667 61.268522368421,86.947747371667 C 61.540684649123,86.947747371667 61.689117982456,87.096180705 61.698838157895,87.37806316114 L 62.964474122807,87.37806316114 C 62.983914473684,87.232262283947 62.989787280702,87.095573687456 62.989787280702,86.998372810263 C 62.989787280702,86.327686845351 62.318696052632,85.758049126053 61.521649561403,85.758049126053 z M 66.736069736842,85.758049126053 C 64.937853947368,85.758049126053 63.318852192982,87.339992985702 63.318852192982,89.099328073421 C 63.318852192982,90.450420178684 64.310301315789,91.402785968158 65.748874122807,91.402785968158 C 66.963884649123,91.402785968158 68.076631140351,90.750730705 68.659836403509,89.681521055877 L 67.242324122807,89.681521055877 C 66.872960964912,90.050884213772 66.470387280702,90.213087722544 65.926062719298,90.213087722544 C 65.187336403509,90.213087722544 64.685739035088,89.77203947693 64.685739035088,89.149953512017 L 68.837025877193,89.149953512017 C 68.963386403509,88.848630705 69.039527631579,88.401507020789 69.039527631579,87.934942985702 C 69.039527631579,86.651892108509 68.087161842105,85.758049126053 66.736069736842,85.758049126053 z M 51.750939035088,86.947747371667 C 52.577146052632,86.947747371667 53.028319736842,87.311035090965 53.067200438596,88.010881582193 L 50.080299561403,88.010881582193 C 50.333021491228,87.379075441842 51.00249254386,86.947747371667 51.750939035088,86.947747371667 z M 66.533567982456,86.947747371667 C 67.359775,86.947747371667 67.785636403509,87.311035090965 67.824517105263,88.010881582193 L 64.837615350877,88.010881582193 C 65.090338157895,87.379075441842 65.785121491228,86.947747371667 66.533567982456,86.947747371667 z" /></g></svg>