<?xml version="1.0" standalone="yes"?>
<svg
	xmlns:dc="http://purl.org/dc/elements/1.1/"
	xmlns:cc="http://creativecommons.org/ns#"
	xmlns:rdf="http://www.w3.org/1999/02/22-rdf-syntax-ns#"
	xmlns:svg="http://www.w3.org/2000/svg"
	xmlns:xlink="http://www.w3.org/1999/xlink"
	xmlns="http://www.w3.org/2000/svg"
	width="102"
	height="102"
>
<style type="text/css">
<![CDATA[
.pentacle {stroke-width:0; fill:#390;}
.symbol {stroke-width:0; fill:#fff}
.outer {stroke-width:0; fill:#fff;}
.main {fill:#000}
.char {fill:#fff}
.q {fill:#390}
]]>
</style><rect  x="0" y="0" width="102" height="102" class="main" />
<g transform="translate(1,1)" class="main"><path d=" M  52.079058510433 1.5445821841335 
 L  51.585361831028 0.025140041569685 
 A 50,50 0 0,1  97.039012466382,33.049150281253 
 L  95.441376451561 33.049150281253 
 A 48.5,48.5 0 0,0  52.079058510433,1.5445821841335 
" class="outer" /><path d=" M  96.726305275608 37.003754569465 
 L  98.018819962424 36.064687681421 
 A 50,50 0 0,1  80.657070332482,89.498658694053 
 L  80.163373653076 87.979216551489 
 A 48.5,48.5 0 0,0  96.726305275608,37.003754569465 
" class="outer" /><path d=" M  76.799386318596 90.42329641366 
 L  78.091901005412 91.362363301704 
 A 50,50 0 0,1  21.908098994588,91.362363301704 
 L  23.200613681404 90.42329641366 
 A 48.5,48.5 0 0,0  76.799386318596,90.42329641366 
" class="outer" /><path d=" M  19.836626346924 87.979216551489 
 L  19.342929667518 89.498658694053 
 A 50,50 0 0,1  1.9811800375763,36.064687681421 
 L  3.2736947243923 37.003754569465 
 A 48.5,48.5 0 0,0  19.836626346924,87.979216551489 
" class="outer" /><path d=" M  4.5586235484395 33.049150281253 
 L  2.960987533618 33.049150281253 
 A 50,50 0 0,1  48.414638168973,0.02514004156972 
 L  47.920941489567 1.5445821841335 
 A 48.5,48.5 0 0,0  4.5586235484395,33.049150281253 
" class="outer" /><path d="M  97.552825814758 34.549150281253 
 L  58.404737509656 34.549150281253 
 A 3,3 0 0,1  58.404737509656 36.049150281253 
 L  92.936300508995 36.049150281253 
 L  68.573375069267 53.926902702964 
 L  69.014214008486 55.283665448745 
" class="pentacle" />
<path d="M  79.389262614624 90.450849718747 
 L  65.652583989874 48.173700059889 
 L  64.225999215431 48.637225551451 
 L  76.536093065738 86.523798735623 
 L  52.004782134793 68.877809059693 
 L  50.850650808352 69.716334551255 
" class="pentacle" />
<path d="M  63.736678624749 42.277149658859 
 L  62.037998655072 37.049150281253 
 L  60.460805318714 37.049150281253 
 L  62.310093850307 42.740675150421 
 z" class="pentacle" />
<path d="M  20.610737385376 90.450849718747 
 L  54.227679633817 66.026711513755 
 L  53.346001755379 64.813186022192 
 L  23.463906934262 86.523798735623 
 L  32.665648430074 57.740224929057 
 L  31.511517103633 56.901699437495 
" class="pentacle" />
<path d="M  63.935883566317 58.973288486245 
 L  66.036936179254 57.446784409369 
 L  65.549556634905 55.946784409369 
 L  63.054205687878 57.759762994683 
 z" class="pentacle" />
<path d="M  2.4471741852423 34.549150281253 
 L  34.24382819634 57.650771668587 
 L  35.125506074778 56.437246177025 
 L  7.0636994910052 36.049150281253 
 L  37.281999422053 35.905913027034 
 L  37.722838361272 34.549150281253 
" class="pentacle" />
<path d="M  50 0 
 L  36.76735556878 40.72589191926 
 L  38.193940343223 41.189417410822 
 L  50 4.8541019662497 
 L  59.474194943814 33.549150281253 
 L  60.900779718257 33.549150281253 
" class="pentacle" />
<path d="M  33.843381816596 49.724957799488 
 L  32.648736040448 53.401699437495 
 L  33.924712252976 54.32875042062 
 L  35.269966591039 50.18848329105 
 z" class="pentacle" />
<path d="M  35.562259076035 57.537408859088 
 A 2.3,2.3 0 0,1  39.699709221644,58.562838667802 
 A 2.3,2.3 0 0,1  42.369465303081,60.502530000367 
 A 2.3,2.3 0 0,1  45.039221384519,62.442221332932 
 A 2.3,2.3 0 0,1  47.293005494472,66.060295017329 
 L  46.783591609151 66.76144307912 
 L  45.731869516464 65.99732225114 
 L  46.241283401784 65.296174189349 
 A 1,1 0 1,0  44.623249413034,64.120603684764 
 A 0.65,0.65 0 0,1  43.571527320347,63.356482856783 
 A 1,1 0 0,0  41.953493331597,62.180912352198 
 A 0.65,0.65 0 0,1  40.901771238909,61.416791524218 
 A 1,1 0 0,0  39.28373725016,60.241221019633 
 A 0.65,0.65 0 0,1  38.232015157472,59.477100191653 
 A 1,1 0 0,0  36.613981168722,58.301529687068 
 L  36.104567283402 59.00267774886 
 L  35.052845190715 58.23855692088 
 L  35.562259076035 57.537408859088 
" class="symbol coil" /><path d="M  57.406593631033 60.194301566031 
L  53.361508659159 63.133227827494 
L  55.830206718787 66.531099203869 
L  59.875291690662 63.592172942406 
L  59.052392337452 62.459549150281 
L  56.139931157703 64.575576058534 
L  55.317031804493 63.442952266409 
L  58.229492984243 61.326925358156 
 z" class="symbol resistor" /><path d="M  57.406593631033 60.194301566031 
L  61.451678602908 57.255375304569 
L  63.920376662537 60.653246680944 
L  59.875291690662 63.592172942406 
L  59.052392337452 62.459549150281 
L  61.964853517202 60.343522242028 
L  61.141954163993 59.210898449903 
L  58.229492984243 61.326925358156 
 z" class="symbol resistor" /><path d=" M  60.393424750972 47.358995144061 
 L  60.826048543097 48.690474266875 
 L  68.434500673458 46.218338311875 
 L  68.001876881334 44.886859189062 
 z" class="symbol capacitor" /><path d=" M  59.960800958847 46.027516021248 
 L  59.528177166722 44.696036898435 
 L  67.136629297084 42.223900943435 
 L  67.569253089209 43.555380066248 
 z" class="symbol capacitor" /><path d=" M  38.669917263373 50.241732006473 
 L  37.214535427649 43.394698801337 
 L  40.543233234682 44.476258281649 
 L  40.975857026807 43.144779158836 
 L  33.367404896446 40.672643203836 
 L  32.934781104321 42.00412232665 
 L  36.263478911354 43.085681806962 
 L  31.061465133012 47.769596051474 
 z" class="symbol diode" /><path d=" M  42.5 35.299150281253 
 A 2,2 0 0,0  46.5,35.299150281253 
 A 2,2 0 1,0  42.5,35.299150281253 
 z" class="symbol switch" /><path d=" M  46.559281037942 28.841322129196 
 L  53.581587253734 34.73373668488 
 A 2,2 0 1,0  54.610047429232,33.50806557589 
 L  47.58774121344 27.615651020206 
 z" class="symbol switch" /><path class="char o" d="	M 40.763495833333,80.21521875 C 37.866530555555,80.21521875 35.293156944444,82.726954861111 35.293156944444,85.546872916666 C 35.293156944444,87.596321527777 36.911147222222,89.152674305555 39.022233333333,89.152674305555 C 41.919198611111,89.152674305555 44.523391666666,86.671757638888 44.523391666666,83.913475694444 C 44.523391666666,81.771571527777 42.951629166666,80.21521875 40.763495833333,80.21521875 M 40.409079166666,82.095165972222 C 41.564783333333,82.095165972222 42.412302777777,82.988913194444 42.412302777777,84.190845138888 C 42.412302777777,85.778013194444 40.979226388888,87.272727083333 39.4382875,87.272727083333 C 38.267173611111,87.272727083333 37.404245833333,86.394389583333 37.404245833333,85.19245625 C 37.404245833333,83.574471527777 38.837322222222,82.095165972222 40.409079166666,82.095165972222" /><path class="char q" d="	M 52.6569,80.406385416666 L 52.441168055555,81.500453472222 C 52.240847222222,81.099809027777 52.102161111111,80.945714583333 51.763154166666,80.714574305555 C 51.239236111111,80.375567361111 50.669086111111,80.206063194444 49.944844444444,80.206063194444 C 47.186563888888,80.206063194444 44.721055555555,82.717799305555 44.721055555555,85.506899305555 C 44.721055555555,87.664213194444 46.154133333333,89.14351875 48.249809722222,89.14351875 C 49.297648611111,89.14351875 50.314670833333,88.773692361111 51.054322222222,88.126497916666 L 50.376308333333,91.793936805555 L 52.425759722222,91.793936805555 L 54.536847222222,80.406385416666 L 52.6569,80.406385416666 M 49.852388888888,82.086010416666 C 51.054320833333,82.086010416666 51.855611111111,82.933529861111 51.855611111111,84.212509027777 C 51.855611111111,85.830495138888 50.453354166666,87.263571527777 48.866186111111,87.263571527777 C 47.618026388888,87.263571527777 46.832144444444,86.46228125 46.832144444444,85.198710416666 C 46.832144444444,83.503678472222 48.218993055555,82.086010416666 49.852388888888,82.086010416666" /><path class="char l" d="	M 53.937159722222,91.789240972222 L 55.986611111111,91.789240972222 L 58.0977,80.401689583333 L 56.048248611111,80.401689583333 L 53.937159722222,91.789240972222" /><path class="char t" d="	M 57.837470833333,91.783578472222 L 59.886922222222,91.783578472222 L 61.119673611111,85.111304861111 L 62.352426388888,85.111304861111 L 62.706843055555,83.246767361111 L 61.474090277777,83.246767361111 L 61.998009722222,80.396027083333 L 59.948559722222,80.396027083333 L 59.424638888888,83.246767361111 L 58.423027777777,83.246767361111 L 58.068611111111,85.111304861111 L 59.070223611111,85.111304861111 L 57.837470833333,91.783578472222" /></g></svg>