<?xml version="1.0" standalone="yes"?>
<svg
	xmlns:dc="http://purl.org/dc/elements/1.1/"
	xmlns:cc="http://creativecommons.org/ns#"
	xmlns:rdf="http://www.w3.org/1999/02/22-rdf-syntax-ns#"
	xmlns:svg="http://www.w3.org/2000/svg"
	xmlns:xlink="http://www.w3.org/1999/xlink"
	xmlns="http://www.w3.org/2000/svg"
	width="102"
	height="102"
>
<style type="text/css">
<![CDATA[
.symbol {stroke-width:0; fill:#fff}
.outer {stroke-width:0; fill:#fff;}
.main {fill:#000}
.char {fill:#fff}
.pentacle, .q {stroke-width:0; fill:#390;}
]]><!--#fc0fc0-->
</style><rect  x="0" y="0" width="102" height="102" class="main" />
<g transform="translate(1,1)" class="main"><path d=" M  52.079058510433 1.5445821841335 
 L  51.585361831028 0.025140041569685 
 A 50,50 0 0,1  97.039012466382,33.049150281253 
 L  95.441376451561 33.049150281253 
 A 48.5,48.5 0 0,0  52.079058510433,1.5445821841335 
" class="outer" /><path d=" M  96.726305275608 37.003754569465 
 L  98.018819962424 36.064687681421 
 A 50,50 0 0,1  80.657070332482,89.498658694053 
 L  80.163373653076 87.979216551489 
 A 48.5,48.5 0 0,0  96.726305275608,37.003754569465 
" class="outer" /><path d=" M  76.799386318596 90.42329641366 
 L  78.091901005412 91.362363301704 
 A 50,50 0 0,1  21.908098994588,91.362363301704 
 L  23.200613681404 90.42329641366 
 A 48.5,48.5 0 0,0  76.799386318596,90.42329641366 
" class="outer" /><path d=" M  19.836626346924 87.979216551489 
 L  19.342929667518 89.498658694053 
 A 50,50 0 0,1  1.9811800375763,36.064687681421 
 L  3.2736947243923 37.003754569465 
 A 48.5,48.5 0 0,0  19.836626346924,87.979216551489 
" class="outer" /><path d=" M  4.5586235484395 33.049150281253 
 L  2.960987533618 33.049150281253 
 A 50,50 0 0,1  48.414638168973,0.02514004156972 
 L  47.920941489567 1.5445821841335 
 A 48.5,48.5 0 0,0  4.5586235484395,33.049150281253 
" class="outer" /><path d="M  97.552825814758 34.549150281253 
 L  58.404737509656 34.549150281253 
 A 3,3 0 0,1  58.404737509656 36.049150281253 
 L  92.936300508995 36.049150281253 
 L  68.573375069267 53.926902702964 
 L  69.014214008486 55.283665448745 
" class="pentacle" />
<path d="M  79.389262614624 90.450849718747 
 L  65.69893653903 48.316358537333 
 L  64.272351764588 48.779884028895 
 L  76.536093065738 86.523798735623 
 L  52.004782134793 68.877809059693 
 L  50.850650808352 69.716334551255 
" class="pentacle" />
<path d="M  63.690326075593 42.134491181414 
 L  62.037998655072 37.049150281253 
 L  60.460805318714 37.049150281253 
 L  62.263741301151 42.598016672977 
 z" class="pentacle" />
<path d="M  20.610737385376 90.450849718747 
 L  53.418662639442 66.614496766047 
 L  52.536984761004 65.400971274485 
 L  23.463906934262 86.523798735623 
 L  32.665648430074 57.740224929057 
 L  31.511517103633 56.901699437495 
" class="pentacle" />
<path d="M  64.744900560692 58.385503233953 
 L  66.036936179254 57.446784409369 
 L  65.549556634905 55.946784409369 
 L  63.863222682253 57.17197774239 
 z" class="pentacle" />
<path d="M  2.4471741852423 34.549150281253 
 L  34.24382819634 57.650771668587 
 L  35.125506074778 56.437246177025 
 L  7.0636994910052 36.049150281253 
 L  37.281999422053 35.905913027034 
 L  37.722838361272 34.549150281253 
" class="pentacle" />
<path d="M  50 0 
 L  36.751904719061 40.773444745075 
 L  38.178489493504 41.236970236637 
 L  50 4.8541019662497 
 L  59.474194943814 33.549150281253 
 L  60.900779718257 33.549150281253 
" class="pentacle" />
<path d="M  33.858832666315 49.677404973673 
 L  32.648736040448 53.401699437495 
 L  33.924712252976 54.32875042062 
 L  35.285417440758 50.140930465235 
 z" class="pentacle" />
<path d="M  35.562259076035 57.537408859088 
 A 2.3,2.3 0 0,1  39.699709221644,58.562838667802 
 A 2.3,2.3 0 0,1  42.369465303081,60.502530000367 
 A 2.3,2.3 0 0,1  45.039221384519,62.442221332932 
 A 2.3,2.3 0 0,1  47.293005494472,66.060295017329 
 L  46.783591609151 66.76144307912 
 L  45.731869516464 65.99732225114 
 L  46.241283401784 65.296174189349 
 A 1,1 0 1,0  44.623249413034,64.120603684764 
 A 0.65,0.65 0 0,1  43.571527320347,63.356482856783 
 A 1,1 0 0,0  41.953493331597,62.180912352198 
 A 0.65,0.65 0 0,1  40.901771238909,61.416791524218 
 A 1,1 0 0,0  39.28373725016,60.241221019633 
 A 0.65,0.65 0 0,1  38.232015157472,59.477100191653 
 A 1,1 0 0,0  36.613981168722,58.301529687068 
 L  36.104567283402 59.00267774886 
 L  35.052845190715 58.23855692088 
 L  35.562259076035 57.537408859088 
" class="symbol coil" /><path d="M  57.200868792731 59.911145618 
L  52.346766826481 63.437857131755 
L  55.226914562715 67.402040404192 
L  60.081016528964 63.875328890437 
L  59.316895700984 62.82360679775 
L  55.514515827422 65.586197483525 
L  54.162609747149 63.725458396462 
L  57.964989620711 60.962867710688 
 z" class="symbol resistor" /><path d="M  57.200868792731 59.911145618 
L  62.054970758981 56.384434104245 
L  64.935118495214 60.348617376683 
L  60.081016528964 63.875328890437 
L  59.316895700984 62.82360679775 
L  63.119275574546 60.061016111975 
L  61.767369494274 58.200277024913 
L  57.964989620711 60.962867710688 
 z" class="symbol resistor" /><path d=" M  59.70983378653 47.843972868635 
 L  60.111555879217 49.080346339819 
 L  69.241698435651 46.113783193819 
 L  68.839976342963 44.877409722636 
 z" class="symbol capacitor" /><path d=" M  59.122701497218 46.036965487674 
 L  58.72097940453 44.800592016491 
 L  67.851121960964 41.834028870491 
 L  68.252844053651 43.070402341675 
 z" class="symbol capacitor" /><path d=" M  38.685368113092 50.194179180659 
 L  37.229986277368 43.347145975522 
 L  40.558684084401 44.428705455834 
 L  40.960406177088 43.192331984651 
 L  33.351954046727 40.720196029651 
 L  32.95023195404 41.956569500835 
 L  36.278929761073 43.038128981147 
 L  31.076915982731 47.722043225659 
 z" class="symbol diode" /><path d=" M  42.5 35.299150281253 
 A 2,2 0 0,0  46.5,35.299150281253 
 A 2,2 0 1,0  42.5,35.299150281253 
 z" class="symbol switch" /><path d=" M  46.655699179395 28.726415462728 
 L  53.633270120278 34.581292665737 
 A 2,2 0 1,0  54.468894012871,33.585434889682 
 L  47.491323071987 27.730557686673 
 z" class="symbol switch" /><path class="char o" d="	M 40.763495833333,81.46521875 C 37.866530555555,81.46521875 35.293156944444,83.976954861111 35.293156944444,86.796872916666 C 35.293156944444,88.846321527777 36.911147222222,90.402674305555 39.022233333333,90.402674305555 C 41.919198611111,90.402674305555 44.523391666666,87.921757638888 44.523391666666,85.163475694444 C 44.523391666666,83.021571527777 42.951629166666,81.46521875 40.763495833333,81.46521875 M 40.409079166666,83.345165972222 C 41.564783333333,83.345165972222 42.412302777777,84.238913194444 42.412302777777,85.440845138888 C 42.412302777777,87.028013194444 40.979226388888,88.522727083333 39.4382875,88.522727083333 C 38.267173611111,88.522727083333 37.404245833333,87.644389583333 37.404245833333,86.44245625 C 37.404245833333,84.824471527777 38.837322222222,83.345165972222 40.409079166666,83.345165972222" /><path class="char q" d="	M 52.6569,81.656385416666 L 52.441168055555,82.750453472222 C 52.240847222222,82.349809027777 52.102161111111,82.195714583333 51.763154166666,81.964574305555 C 51.239236111111,81.625567361111 50.669086111111,81.456063194444 49.944844444444,81.456063194444 C 47.186563888888,81.456063194444 44.721055555555,83.967799305555 44.721055555555,86.756899305555 C 44.721055555555,88.914213194444 46.154133333333,90.39351875 48.249809722222,90.39351875 C 49.297648611111,90.39351875 50.314670833333,90.023692361111 51.054322222222,89.376497916666 L 50.376308333333,93.043936805555 L 52.425759722222,93.043936805555 L 54.536847222222,81.656385416666 L 52.6569,81.656385416666 M 49.852388888888,83.336010416666 C 51.054320833333,83.336010416666 51.855611111111,84.183529861111 51.855611111111,85.462509027777 C 51.855611111111,87.080495138888 50.453354166666,88.513571527777 48.866186111111,88.513571527777 C 47.618026388888,88.513571527777 46.832144444444,87.71228125 46.832144444444,86.448710416666 C 46.832144444444,84.753678472222 48.218993055555,83.336010416666 49.852388888888,83.336010416666" /><path class="char l" d="	M 53.937159722222,93.039240972222 L 55.986611111111,93.039240972222 L 58.0977,81.651689583333 L 56.048248611111,81.651689583333 L 53.937159722222,93.039240972222" /><path class="char t" d="	M 57.837470833333,93.033578472222 L 59.886922222222,93.033578472222 L 61.119673611111,86.361304861111 L 62.352426388888,86.361304861111 L 62.706843055555,84.496767361111 L 61.474090277777,84.496767361111 L 61.998009722222,81.646027083333 L 59.948559722222,81.646027083333 L 59.424638888888,84.496767361111 L 58.423027777777,84.496767361111 L 58.068611111111,86.361304861111 L 59.070223611111,86.361304861111 L 57.837470833333,93.033578472222" /></g></svg>