<?xml version="1.0" standalone="yes"?>
<svg
	xmlns:dc="http://purl.org/dc/elements/1.1/"
	xmlns:cc="http://creativecommons.org/ns#"
	xmlns:rdf="http://www.w3.org/1999/02/22-rdf-syntax-ns#"
	xmlns:svg="http://www.w3.org/2000/svg"
	xmlns:xlink="http://www.w3.org/1999/xlink"
	xmlns="http://www.w3.org/2000/svg"
	width="102"
	height="102"
>
<style type="text/css">
<![CDATA[
.pentacle {stroke-width:0; fill:#390;}
.symbol {stroke-width:0; fill:#fff}
.outer {stroke-width:0; fill:#fff;}
.main {fill:#000}
.char {fill:#fff}
.q {fill:#390}
]]>
</style><rect  x="0" y="0" width="102" height="102" class="main" />
<g transform="translate(1,1)" class="main"><path d=" M  52.079058510433 1.5445821841335 
 L  51.585361831028 0.025140041569685 
 A 50,50 0 0,1  97.039012466382,33.049150281253 
 L  95.441376451561 33.049150281253 
 A 48.5,48.5 0 0,0  52.079058510433,1.5445821841335 
" class="outer" /><path d=" M  96.726305275608 37.003754569465 
 L  98.018819962424 36.064687681421 
 A 50,50 0 0,1  80.657070332482,89.498658694053 
 L  80.163373653076 87.979216551489 
 A 48.5,48.5 0 0,0  96.726305275608,37.003754569465 
" class="outer" /><path d=" M  76.799386318596 90.42329641366 
 L  78.091901005412 91.362363301704 
 A 50,50 0 0,1  21.908098994588,91.362363301704 
 L  23.200613681404 90.42329641366 
 A 48.5,48.5 0 0,0  76.799386318596,90.42329641366 
" class="outer" /><path d=" M  19.836626346924 87.979216551489 
 L  19.342929667518 89.498658694053 
 A 50,50 0 0,1  1.9811800375763,36.064687681421 
 L  3.2736947243923 37.003754569465 
 A 48.5,48.5 0 0,0  19.836626346924,87.979216551489 
" class="outer" /><path d=" M  4.5586235484395 33.049150281253 
 L  2.960987533618 33.049150281253 
 A 50,50 0 0,1  48.414638168973,0.02514004156972 
 L  47.920941489567 1.5445821841335 
 A 48.5,48.5 0 0,0  4.5586235484395,33.049150281253 
" class="outer" /><path d="M  97.552825814758 34.549150281253 
 L  58.404737509656 34.549150281253 
 A 3,3 0 0,1  58.404737509656 36.049150281253 
 L  92.936300508995 36.049150281253 
 L  68.573375069267 53.926902702964 
 L  69.014214008486 55.283665448745 
" class="pentacle" />
<path d="M  79.389262614624 90.450849718747 
 L  65.745289088187 48.459017014777 
 L  64.318704313744 48.92254250634 
 L  76.536093065738 86.523798735623 
 L  52.004782134793 68.877809059693 
 L  50.850650808352 69.716334551255 
" class="pentacle" />
<path d="M  63.643973526437 41.99183270397 
 L  62.037998655072 37.049150281253 
 L  60.460805318714 37.049150281253 
 L  62.217388751994 42.455358195533 
 z" class="pentacle" />
<path d="M  20.610737385376 90.450849718747 
 L  54.227679633817 66.026711513755 
 L  53.346001755379 64.813186022192 
 L  23.463906934262 86.523798735623 
 L  32.665648430074 57.740224929057 
 L  31.511517103633 56.901699437495 
" class="pentacle" />
<path d="M  63.935883566317 58.973288486245 
 L  66.036936179254 57.446784409369 
 L  65.549556634905 55.946784409369 
 L  63.054205687878 57.759762994683 
 z" class="pentacle" />
<path d="M  2.4471741852423 34.549150281253 
 L  34.24382819634 57.650771668587 
 L  35.125506074778 56.437246177025 
 L  7.0636994910052 36.049150281253 
 L  37.281999422053 35.905913027034 
 L  37.722838361272 34.549150281253 
" class="pentacle" />
<path d="M  50 0 
 L  36.798257268217 40.63078626763 
 L  38.22484204266 41.094311759193 
 L  50 4.8541019662497 
 L  59.474194943814 33.549150281253 
 L  60.900779718257 33.549150281253 
" class="pentacle" />
<path d="M  33.812480117159 49.820063451117 
 L  32.648736040448 53.401699437495 
 L  33.924712252976 54.32875042062 
 L  35.239064891602 50.28358894268 
 z" class="pentacle" />
<path d="M  35.562259076035 57.537408859088 
 A 2.3,2.3 0 0,1  39.699709221644,58.562838667802 
 A 2.3,2.3 0 0,1  42.369465303081,60.502530000367 
 A 2.3,2.3 0 0,1  45.039221384519,62.442221332932 
 A 2.3,2.3 0 0,1  47.293005494472,66.060295017329 
 L  46.783591609151 66.76144307912 
 L  45.731869516464 65.99732225114 
 L  46.241283401784 65.296174189349 
 A 1,1 0 1,0  44.623249413034,64.120603684764 
 A 0.65,0.65 0 0,1  43.571527320347,63.356482856783 
 A 1,1 0 0,0  41.953493331597,62.180912352198 
 A 0.65,0.65 0 0,1  40.901771238909,61.416791524218 
 A 1,1 0 0,0  39.28373725016,60.241221019633 
 A 0.65,0.65 0 0,1  38.232015157472,59.477100191653 
 A 1,1 0 0,0  36.613981168722,58.301529687068 
 L  36.104567283402 59.00267774886 
 L  35.052845190715 58.23855692088 
 L  35.562259076035 57.537408859088 
" class="symbol coil" /><path d="M  57.230258055346 59.951596467719 
L  53.185173083471 62.890522729181 
L  56.006542294475 66.773804302181 
L  60.05162726635 63.834878040719 
L  59.111170862682 62.540450849719 
L  56.360513081807 64.538920707513 
L  55.420056678139 63.244493516513 
L  58.170714459014 61.246023658719 
 z" class="symbol resistor" /><path d="M  57.230258055346 59.951596467719 
L  61.27534302722 57.012670206257 
L  64.096712238224 60.895951779256 
L  60.05162726635 63.834878040719 
L  59.111170862682 62.540450849719 
L  61.861828643556 60.541980991924 
L  60.921372239888 59.247553800924 
L  58.170714459014 61.246023658719 
 z" class="symbol resistor" /><path d=" M  60.42432645041 47.454100795691 
 L  60.91875364141 48.975791221763 
 L  68.527205771771 46.503655266763 
 L  68.032778580771 44.981964840691 
 z" class="symbol capacitor" /><path d=" M  59.92989925941 45.932410369619 
 L  59.43547206841 44.410719943546 
 L  67.043924198771 41.938583988547 
 L  67.538351389771 43.460274414619 
 z" class="symbol capacitor" /><path d=" M  38.639015563936 50.336837658103 
 L  37.183633728212 43.489804452966 
 L  40.512331535245 44.571363933279 
 L  41.006758726244 43.049673507206 
 L  33.398306595883 40.577537552207 
 L  32.903879404883 42.099227978279 
 L  36.232577211916 43.180787458591 
 L  31.030563433575 47.864701703103 
 z" class="symbol diode" /><path d=" M  42.5 35.299150281253 
 A 2,2 0 0,0  46.5,35.299150281253 
 A 2,2 0 1,0  42.5,35.299150281253 
 z" class="symbol switch" /><path d=" M  46.559281037942 28.841322129196 
 L  53.581587253734 34.73373668488 
 A 2,2 0 1,0  54.610047429232,33.50806557589 
 L  47.58774121344 27.615651020206 
 z" class="symbol switch" /><path class="char o" d="	M 36.899710069444,83.107609375 C 35.451227430556,83.107609375 34.164540625,84.363477430555 34.164540625,85.773436458333 C 34.164540625,86.798160763889 34.973535763889,87.576337152778 36.029078819444,87.576337152778 C 37.477561458333,87.576337152778 38.779657986111,86.335878819444 38.779657986111,84.956737847222 C 38.779657986111,83.885785763889 37.993776736111,83.107609375 36.899710069444,83.107609375 M 36.722501736111,84.047582986111 C 37.300353819444,84.047582986111 37.724113541667,84.494456597222 37.724113541667,85.095422569444 C 37.724113541667,85.889006597222 37.007575347222,86.636363541666 36.237105902778,86.636363541666 C 35.651548958333,86.636363541666 35.220085069444,86.197194791666 35.220085069444,85.596228125 C 35.220085069444,84.787235763889 35.936623263889,84.047582986111 36.722501736111,84.047582986111" /><path class="char q" d="	M 42.846412152778,83.203192708333 L 42.738546180556,83.750226736111 C 42.638385763889,83.549904513889 42.569042708333,83.472857291666 42.399539236111,83.357287152778 C 42.137580208333,83.187783680555 41.852505208333,83.103031597222 41.490384375,83.103031597222 C 40.111244097222,83.103031597222 38.878489930556,84.358899652778 38.878489930556,85.753449652778 C 38.878489930556,86.832106597222 39.595028819444,87.571759375 40.642867013889,87.571759375 C 41.166786458333,87.571759375 41.675297569444,87.386846180555 42.045123263889,87.063248958333 L 41.706116319444,88.896968402778 L 42.730842013889,88.896968402778 L 43.786385763889,83.203192708333 L 42.846412152778,83.203192708333 M 41.444156597222,84.043005208333 C 42.045122569444,84.043005208333 42.445767708333,84.466764930555 42.445767708333,85.106254513889 C 42.445767708333,85.915247569444 41.744639236111,86.631785763889 40.951055208333,86.631785763889 C 40.326975347222,86.631785763889 39.934034375,86.231140625 39.934034375,85.599355208333 C 39.934034375,84.751839236111 40.627458680556,84.043005208333 41.444156597222,84.043005208333" /><path class="char l" d="	M 43.486542013889,88.894620486111 L 44.511267708333,88.894620486111 L 45.566812152778,83.200844791666 L 44.542086458333,83.200844791666 L 43.486542013889,88.894620486111" /><path class="char t" d="	M 45.436697569444,88.891789236111 L 46.461423263889,88.891789236111 L 47.077798958333,85.555652430555 L 47.694175347222,85.555652430555 L 47.871383680556,84.623383680555 L 47.255007291667,84.623383680555 L 47.516967013889,83.198013541666 L 46.492242013889,83.198013541666 L 46.230281597222,84.623383680555 L 45.729476041667,84.623383680555 L 45.552267708333,85.555652430555 L 46.053073958333,85.555652430555 L 45.436697569444,88.891789236111" /><path class="char esse" d="	M 50.308973958333,84.423038891458 C 48.885386458333,84.423038891458 47.603676736111,85.67541111368 47.603676736111,87.068218058125 C 47.603676736111,88.137832641458 48.408612847222,88.891788891458 49.547482986111,88.891788891458 C 50.509366319444,88.891788891458 51.370251736111,88.375578474791 51.831955902778,87.529120835903 L 50.729797569444,87.529120835903 C 50.437385069444,87.821533335903 50.118680902778,87.949944447014 49.687757291667,87.949944447014 C 49.102932291667,87.949944447014 48.685795486111,87.600781252569 48.685795486111,87.108296530347 L 51.992269791667,87.108296530347 C 52.092305902778,86.869749308125 52.132544791667,86.515776391458 52.132544791667,86.146413197014 C 52.132544791667,85.130664585903 51.378587847222,84.423038891458 50.308973958333,84.423038891458 z M 54.497174652778,84.423038891458 C 53.581461458333,84.423038891458 52.793839236111,85.130343752569 52.793839236111,85.946020835903 C 52.793839236111,86.484675697014 53.029340625,86.726429169236 53.775762152778,86.98806111368 C 54.299026736111,87.172743058125 54.396978125,87.24889236368 54.396978125,87.448963891458 C 54.396978125,87.718290974791 54.148331597222,87.949944447014 53.855919097222,87.949944447014 C 53.555811458333,87.949944447014 53.382672569444,87.767507641458 53.374977430556,87.428924308125 L 52.352976041667,87.428924308125 C 52.345280902778,87.544350697014 52.332937152778,87.64486736368 52.332937152778,87.729513197014 C 52.332937152778,88.414374308125 52.865980208333,88.891788891458 53.635487152778,88.891788891458 C 54.597370486111,88.891788891458 55.459057986111,88.088776391458 55.459057986111,87.188453474791 C 55.459057986111,86.680579169236 55.208166319444,86.425038891458 54.477135069444,86.186491669236 C 54.092381597222,86.063370835903 54.108573263889,86.060004169236 54.016232986111,86.006138891458 C 53.923892013889,85.952272919236 53.855919097222,85.870352780347 53.855919097222,85.785706947014 C 53.855919097222,85.562550002569 54.058235069444,85.364883335903 54.296782291667,85.364883335903 C 54.512244097222,85.364883335903 54.629753819444,85.482393058125 54.637448958333,85.705550002569 L 55.639410763889,85.705550002569 C 55.654801041667,85.590124308125 55.659450347222,85.481912502569 55.659450347222,85.404961808125 C 55.659450347222,84.874002085903 55.128169791667,84.423038891458 54.497174652778,84.423038891458 z M 57.883805902778,84.423038891458 C 56.968092708333,84.423038891458 56.180470486111,85.130343752569 56.180470486111,85.946020835903 C 56.180470486111,86.484675697014 56.395932291667,86.726429169236 57.142353819444,86.98806111368 C 57.665618402778,87.172743058125 57.783609375,87.24889236368 57.783609375,87.448963891458 C 57.783609375,87.718290974791 57.534962847222,87.949944447014 57.242550347222,87.949944447014 C 56.942442708333,87.949944447014 56.769303125,87.767507641458 56.761608680556,87.428924308125 L 55.719567708333,87.428924308125 C 55.711873263889,87.544350697014 55.719567708333,87.64486736368 55.719567708333,87.729513197014 C 55.719567708333,88.414374308125 56.252611458333,88.891788891458 57.022118402778,88.891788891458 C 57.984001736111,88.891788891458 58.845689236111,88.088776391458 58.845689236111,87.188453474791 C 58.845689236111,86.680579169236 58.594797569444,86.425038891458 57.863766319444,86.186491669236 C 57.479012847222,86.063370835903 57.475165625,86.060004169236 57.382824652778,86.006138891458 C 57.290483680556,85.952272919236 57.242550347222,85.870352780347 57.242550347222,85.785706947014 C 57.242550347222,85.562550002569 57.444866319444,85.364883335903 57.683413541667,85.364883335903 C 57.898875347222,85.364883335903 58.016385069444,85.482393058125 58.024080208333,85.705550002569 L 59.026042013889,85.705550002569 C 59.041432291667,85.590124308125 59.046081597222,85.481912502569 59.046081597222,85.404961808125 C 59.046081597222,84.874002085903 58.514801041667,84.423038891458 57.883805902778,84.423038891458 z M 62.011888541667,84.423038891458 C 60.588301041667,84.423038891458 59.306591319444,85.67541111368 59.306591319444,87.068218058125 C 59.306591319444,88.137832641458 60.091488541667,88.891788891458 61.230358680556,88.891788891458 C 62.192242013889,88.891788891458 63.073166319444,88.375578474791 63.534870486111,87.529120835903 L 62.412673263889,87.529120835903 C 62.120260763889,87.821533335903 61.801556597222,87.949944447014 61.370632986111,87.949944447014 C 60.785807986111,87.949944447014 60.388710069444,87.600781252569 60.388710069444,87.108296530347 L 63.675145486111,87.108296530347 C 63.775180902778,86.869749308125 63.835459375,86.515776391458 63.835459375,86.146413197014 C 63.835459375,85.130664585903 63.081503125,84.423038891458 62.011888541667,84.423038891458 z M 50.148660069444,85.364883335903 C 50.802740625,85.364883335903 51.159919791667,85.65248611368 51.190700347222,86.206531252569 L 48.826070486111,86.206531252569 C 49.026142013889,85.706351391458 49.556139930556,85.364883335903 50.148660069444,85.364883335903 z M 61.851574652778,85.364883335903 C 62.505655208333,85.364883335903 62.842795486111,85.65248611368 62.873576041667,86.206531252569 L 60.508945486111,86.206531252569 C 60.709017708333,85.706351391458 61.259054513889,85.364883335903 61.851574652778,85.364883335903 z" /></g></svg>