<?xml version="1.0" encoding="UTF-8" standalone="no"?>
<!-- Created with Inkscape (http://www.inkscape.org/) -->
<svg xmlns:i="http://ns.adobe.com/AdobeIllustrator/10.0/" xmlns:dc="http://purl.org/dc/elements/1.1/" xmlns:cc="http://creativecommons.org/ns#" xmlns:rdf="http://www.w3.org/1999/02/22-rdf-syntax-ns#" xmlns:svg="http://www.w3.org/2000/svg" xmlns="http://www.w3.org/2000/svg" xmlns:xlink="http://www.w3.org/1999/xlink" xmlns:sodipodi="http://sodipodi.sourceforge.net/DTD/sodipodi-0.dtd" xmlns:inkscape="http://www.inkscape.org/namespaces/inkscape" width="566.64624" height="274.75391" id="svg2" sodipodi:version="0.32" inkscape:version="0.46" sodipodi:docname="Artwork_T(2d)Shirt_tshirt_i-f-freedom.svg" inkscape:output_extension="org.inkscape.output.svg.inkscape" version="1.0" >
  

  <g id="layer1" transform="translate(-38.0448, 84.2837)">
    <g id="front" transform="matrix(1.73069, 0, 0, 1.73069, -77.2431, -1005.6)" style="stroke: rgb(255, 255, 255); fill: rgb(0, 255, 255); fill-opacity: 1;">
      <path  id="path2427" d="M 67.613793,570.41735 C 92.081868,557.31693 112.96983,558.64283 133.65517,547.35529 C 144.75154,549.78633 153.01217,548.81449 160.64828,547.09322 C 184.0769,557.87959 204.67653,559.60901 226.68966,570.67942 C 224.86002,582.23888 220.8308,592.2272 214.11034,600.29322 C 205.95673,595.92328 198.24205,594.1869 190.78621,594.00356 L 190.26207,672.62425 C 158.14057,678.60698 130.91491,676.022 104.30345,672.36218 L 104.04138,594.26563 C 94.670701,593.99343 87.540944,597.4561 80.193103,600.55529 C 73.125888,590.9199 69.824253,580.74656 67.613793,570.41735 z" style="fill: rgb(0, 0, 0); fill-rule: evenodd; stroke: rgb(255, 255, 255); stroke-width: 2; stroke-linecap: butt; stroke-linejoin: miter; stroke-miterlimit: 4; stroke-dasharray: none; stroke-opacity: 1; fill-opacity: 1;"/>
      <path  id="path3199" d="M 71.282759,569.10701 C 73.497437,579.85552 77.366255,589.89387 84.910345,598.45873" style="fill: rgb(0, 0, 0); fill-rule: evenodd; stroke: rgb(255, 255, 255); stroke-width: 1px; stroke-linecap: butt; stroke-linejoin: miter; stroke-opacity: 1; fill-opacity: 1;"/>
      <path  id="path3203" d="M 105.35172,668.16908 C 133.48046,672.77351 161.60919,673.76203 189.73793,667.90701" style="fill: rgb(0, 0, 0); fill-rule: evenodd; stroke: rgb(255, 255, 255); stroke-width: 1px; stroke-linecap: butt; stroke-linejoin: miter; stroke-opacity: 1; fill-opacity: 1;"/>
      <path  id="path3205" d="M 133.3931,547.61736 C 133.16494,549.94206 135.08547,560.35018 147.28275,560.98287 C 159.21868,561.60201 161.55802,549.44684 161.17241,547.87942" style="fill: rgb(0, 0, 0); fill-rule: evenodd; stroke: rgb(255, 255, 255); stroke-width: 1px; stroke-linecap: butt; stroke-linejoin: miter; stroke-opacity: 1; fill-opacity: 1;"/>
      <path style="fill: rgb(0, 0, 0); fill-rule: evenodd; stroke: rgb(255, 255, 255); stroke-width: 1px; stroke-linecap: butt; stroke-linejoin: miter; stroke-opacity: 1; fill-opacity: 1;" d="M 128.21194,550.41871 C 127.98378,552.74341 132.78618,565.53036 146.55676,565.88077 C 160.58924,566.23784 166.33548,551.19991 165.94987,549.63249" id="path3207" />
      <path  id="path3209" d="M 134.52279,552.33459 C 143.06093,554.56783 150.60453,554.08878 159.84088,552.13274" style="fill: rgb(0, 0, 0); fill-rule: evenodd; stroke: rgb(255, 255, 255); stroke-width: 1px; stroke-linecap: butt; stroke-linejoin: miter; stroke-opacity: 1; fill-opacity: 1;"/>
      <path  id="path3213" d="M 104.16182,558.28077 C 106.73776,568.16616 110.99985,579.76968 103.89975,593.66008" style="fill: rgb(0, 0, 0); fill-rule: evenodd; stroke: rgb(255, 255, 255); stroke-width: 1px; stroke-linecap: butt; stroke-linejoin: miter; stroke-opacity: 1; fill-opacity: 1;"/>
      <path style="fill: rgb(0, 0, 0); fill-rule: evenodd; stroke: rgb(255, 255, 255); stroke-width: 1px; stroke-linecap: butt; stroke-linejoin: miter; stroke-opacity: 1; fill-opacity: 1;" d="M 190.37521,558.48262 C 187.79927,568.36801 183.53718,579.97153 190.63728,593.86193" id="path3215" />
      <path style="fill: rgb(0, 0, 0); fill-rule: evenodd; stroke: rgb(255, 255, 255); stroke-width: 1px; stroke-linecap: butt; stroke-linejoin: miter; stroke-opacity: 1; fill-opacity: 1;" d="M 223.28276,568.84494 C 221.06808,579.59345 217.19926,589.6318 209.65517,598.19666" id="path3217" />
    </g>
    <g transform="matrix(1.73069, 0, 0, 1.73069, 210.631, -1005.6)" id="back" style="stroke: rgb(255, 255, 255); fill: rgb(0, 0, 0); fill-opacity: 1;">
      <path style="fill: rgb(0, 0, 0); fill-rule: evenodd; stroke: rgb(255, 255, 255); stroke-width: 2; stroke-linecap: butt; stroke-linejoin: miter; stroke-miterlimit: 4; stroke-dasharray: none; stroke-opacity: 1; fill-opacity: 1;" d="M 67.613793,570.41735 C 92.081868,557.31693 112.96983,558.64283 133.65517,547.35529 C 144.75154,549.78633 153.01217,548.81449 160.64828,547.09322 C 184.0769,557.87959 204.67653,559.60901 226.68966,570.67942 C 224.86002,582.23888 220.8308,592.2272 214.11034,600.29322 C 205.95673,595.92328 198.24205,594.1869 190.78621,594.00356 L 190.26207,672.62425 C 158.14057,678.60698 130.91491,676.022 104.30345,672.36218 L 104.04138,594.26563 C 94.670701,593.99343 87.540944,597.4561 80.193103,600.55529 C 73.125888,590.9199 69.824253,580.74656 67.613793,570.41735 z" id="path3274" />
      <path style="fill: rgb(0, 0, 0); fill-rule: evenodd; stroke: rgb(255, 255, 255); stroke-width: 1px; stroke-linecap: butt; stroke-linejoin: miter; stroke-opacity: 1; fill-opacity: 1;" d="M 71.282759,569.10701 C 73.497437,579.85552 77.366255,589.89387 84.910345,598.45873" id="path3276" />
      <path style="fill: rgb(0, 0, 0); fill-rule: evenodd; stroke: rgb(255, 255, 255); stroke-width: 1px; stroke-linecap: butt; stroke-linejoin: miter; stroke-opacity: 1; fill-opacity: 1;" d="M 105.35172,668.16908 C 133.48046,672.77351 161.60919,673.76203 189.73793,667.90701" id="path3278" />
      <path style="fill: rgb(0, 0, 0); fill-rule: evenodd; stroke: rgb(255, 255, 255); stroke-width: 1px; stroke-linecap: butt; stroke-linejoin: miter; stroke-opacity: 1; fill-opacity: 1;" d="M 128.66915,549.91239 C 136.6767,556.10373 156.57703,556.4878 165.29082,549.71055" id="path3284" />
      <path style="fill: rgb(0, 0, 0); fill-rule: evenodd; stroke: rgb(255, 255, 255); stroke-width: 1px; stroke-linecap: butt; stroke-linejoin: miter; stroke-opacity: 1; fill-opacity: 1;" d="M 104.16182,558.28077 C 106.73776,568.16616 110.99985,579.76968 103.89975,593.66008" id="path3286" />
      <path  id="path3288" d="M 190.37521,558.48262 C 187.79927,568.36801 183.53718,579.97153 190.63728,593.86193" style="fill: rgb(0, 0, 0); fill-rule: evenodd; stroke: rgb(255, 255, 255); stroke-width: 1px; stroke-linecap: butt; stroke-linejoin: miter; stroke-opacity: 1; fill-opacity: 1;"/>
      <path  id="path3290" d="M 223.28276,568.84494 C 221.06808,579.59345 217.19926,589.6318 209.65517,598.19666" style="fill: rgb(0, 0, 0); fill-rule: evenodd; stroke: rgb(255, 255, 255); stroke-width: 1px; stroke-linecap: butt; stroke-linejoin: miter; stroke-opacity: 1; fill-opacity: 1;"/>
    </g>
    <text xml:space="preserve" style="font-size: 24.2297px; font-style: normal; font-weight: normal; fill: rgb(0, 0, 0); fill-opacity: 1; stroke: none; stroke-width: 1px; stroke-linecap: butt; stroke-linejoin: miter; stroke-opacity: 1; font-family: Bitstream Vera Sans;" x="249.702" y="-65.8749" id="text3455"><tspan  id="tspan3457" x="249.702" y="-65.8749">Male T-Shirt</tspan></text>
    <text xml:space="preserve" style="font-size: 20.7683px; font-style: normal; font-variant: normal; font-weight: normal; font-stretch: normal; fill: rgb(0, 0, 0); fill-opacity: 1; stroke: none; stroke-width: 1px; stroke-linecap: butt; stroke-linejoin: miter; stroke-opacity: 1; font-family: Liberation Sans;" x="152.393" y="190.267" id="text3463"><tspan  id="tspan3465" x="152.393" y="190.267">Front</tspan></text>
    <text id="text3467" y="190.267" x="441.337" style="font-size: 20.7683px; font-style: normal; font-variant: normal; font-weight: normal; font-stretch: normal; fill: rgb(0, 0, 0); fill-opacity: 1; stroke: none; stroke-width: 1px; stroke-linecap: butt; stroke-linejoin: miter; stroke-opacity: 1; font-family: Liberation Sans;" xml:space="preserve"><tspan y="190.267" x="441.337" id="tspan3469" >Back</tspan></text>



  </g>
  
    
<style type="text/css"> 
<![CDATA[ .symbol {stroke-width:0; fill:#fff} .outer {stroke-width:0; fill:#fff;} .main {fill:#000} .char {fill:#fff} .pentacle, .q {stroke-width:0; fill:#390;} ]]>
<!--#fc0fc0--> 
</style> 
<g transform="translate(152, 72) scale(0.4)" class="main">
<path d=" M 53.611712554211 4.6435723141058  L 52.11749975294 0.044858174595277  A 50,50 0 0,1 96.855819746257,32.549150281253  L 92.020445548491 32.549150281253  A 45.5,45.5 0 0,0 53.611712554211,4.6435723141058 " class="outer" />
<path d=" M 94.252606664588 39.419035800588  L 98.164506564743 36.576874157826  A 50,50 0 0,1 81.075988926865,89.169923566652  L 79.581776125593 84.571209427142  A 45.5,45.5 0 0,0 94.252606664588,39.419035800588 " class="outer" />
<path d=" M 73.737902455284 88.817032176912  L 77.649802355439 91.659193819674  A 50,50 0 0,1 22.350197644561,91.659193819674  L 26.262097544716 88.817032176912  A 45.5,45.5 0 0,0 73.737902455284,88.817032176912 " class="outer" />
<path d=" M 20.418223874407 84.571209427142  L 18.924011073135 89.169923566652  A 50,50 0 0,1 1.8354934352572,36.576874157826  L 5.7473933354117 39.419035800588  A 45.5,45.5 0 0,0 20.418223874407,84.571209427142 " class="outer" />
<path d=" M 7.979554451509 32.549150281253  L 3.1441802537434 32.549150281253  A 50,50 0 0,1 47.88250024706,0.044858174595298  L 46.388287445789 4.6435723141058  A 45.5,45.5 0 0,0 7.979554451509,32.549150281253 " class="outer" />
<path d="M 97.552825814758 34.549150281253  L 59.208099243548 34.549150281253  A 4,4 0 0,1 59.208099243548 37.549150281253  L 88.319775203232 37.549150281253  L 68.983186938399 51.952105968433  L 69.864864816838 54.665631459995 " class="pentacle" /> 
<path d="M 79.389262614624 90.450849718747  L 66.19336373003 49.838048963405  L 63.340194181145 50.76509994653  L 73.682923516853 82.596747752498  L 54.009564269586 68.65731755688  L 51.701301616704 70.334368540005 " class="pentacle" /> 
<path d="M 63.195898884593 40.612800755342  L 62.850297895654 39.549150281253  L 59.695911222939 39.549150281253  L 60.342729335708 41.539851738467  z" class="pentacle" /> 
<path d="M 20.610737385376 90.450849718747  L 52.609645645067 67.20228201834  L 50.84628988819 64.775231035215  L 26.317076483147 82.596747752498  L 33.494860060282 59.57875042062  L 31.1865974074 57.901699437495 " class="pentacle" /> 
<path d="M 2.4471741852423 34.549150281253  L 33.515712901402 57.121764941524  L 35.27906865828 54.694713958399  L 11.680224796768 37.549150281253  L 35.789698258595 37.262675772815  L 36.671376137034 34.549150281253 " class="pentacle" /> 
<path d="M 50 0  L 37.107274262592 39.679729751335  L 39.960443811478 40.60678073446  L 50 9.7082039324994  L 57.722690473138 32.549150281253  L 60.575860022024 32.549150281253 " class="pentacle" /> 
<path d="M 35.878274876389 57.272580586567  A 2.5,2.5 0 0,1 40.307737135469,58.066220363412  A 2.5,2.5 0 0,1 42.815689818031,59.888354645519  A 2.5,2.5 0 0,1 45.323642500593,61.710488927626  A 2.5,2.5 0 0,1 47.447217895951,65.67790969435  L 46.702689909714 66.702664553891  L 45.165557620401 65.585872574535  L 45.910085606639 64.561117714994  A 0.6,0.6 0 1,0 44.939265213389,63.855775412243  A 0.95,0.95 0 0,1 43.402132924076,62.738983432887  A 0.6,0.6 0 0,0 42.431312530826,62.033641130136  A 0.95,0.95 0 0,1 40.894180241514,60.916849150781  A 0.6,0.6 0 0,0 39.923359848264,60.21150684803  A 0.95,0.95 0 0,1 38.386227558952,59.094714868674  A 0.6,0.6 0 0,0 37.415407165702,58.389372565923  L 36.670879179465 59.414127425465  L 35.133746890152 58.297335446109  L 35.878274876389 57.272580586567 " class="symbol coil" />
<path d="M 56.377969439522 58.778521825875 L 51.523867473272 62.30523333963 L 55.168136037485 67.321138704755 L 60.022238003735 63.794427191 L 59.081781600067 62.5 L 55.522106824817 65.086255110087 L 53.75875106794 62.659204126962 L 57.31842584319 60.072949016875  z" class="symbol resistor" />
<path d="M 56.377969439522 58.778521825875 L 61.232071405771 55.25181031212 L 64.876339969985 60.267715677245 L 60.022238003735 63.794427191 L 59.081781600067 62.5 L 62.641456375317 59.913744889913 L 60.878100618439 57.486693906788 L 57.31842584319 60.072949016875  z" class="symbol resistor" />
<path d=" M 58.996541399309 48.075735614416  L 59.583673688621 49.882742995377  L 68.713816245054 46.916179849378  L 68.126683955742 45.109172468417  z" class="symbol capacitor" />
<path d=" M 58.409409109996 46.268728233455  L 57.822276820684 44.461720852495  L 66.952419377117 41.495157706495  L 67.53955166643 43.302165087456  z" class="symbol capacitor" />
<path d=" M 39.352307951157 50.568600403884  L 37.896926115433 43.721567198748  L 41.225623922466 44.80312667906  L 41.720051113466 43.281436252988  L 34.111598983105 40.809300297988  L 33.617171792105 42.33099072406  L 36.945869599138 43.412550204373  L 31.743855820796 48.096464448885  z" class="symbol diode" />
<path d=" M 42.5 36.049150281253  A 2,2 0 0,0 46.5,36.049150281253  A 2,2 0 1,0 42.5,36.049150281253  z" class="symbol switch" />
<path d=" M 46.559281037942 29.591322129196  L 53.581587253734 35.48373668488  A 2,2 0 1,0 54.610047429232,34.25806557589  L 47.58774121344 28.365651020206  z" class="symbol switch" />
<path class="char o" d="	M 40.763495833333,79.96521875 C 37.866530555555,79.96521875 35.293156944444,82.476954861111 35.293156944444,85.296872916666 C 35.293156944444,87.346321527777 36.911147222222,88.902674305555 39.022233333333,88.902674305555 C 41.919198611111,88.902674305555 44.523391666666,86.421757638888 44.523391666666,83.663475694444 C 44.523391666666,81.521571527777 42.951629166666,79.96521875 40.763495833333,79.96521875 M 40.409079166666,81.845165972222 C 41.564783333333,81.845165972222 42.412302777777,82.738913194444 42.412302777777,83.940845138888 C 42.412302777777,85.528013194444 40.979226388888,87.022727083333 39.4382875,87.022727083333 C 38.267173611111,87.022727083333 37.404245833333,86.144389583333 37.404245833333,84.94245625 C 37.404245833333,83.324471527777 38.837322222222,81.845165972222 40.409079166666,81.845165972222" />
<path class="char q" d="	M 52.6569,80.156385416666 L 52.441168055555,81.250453472222 C 52.240847222222,80.849809027777 52.102161111111,80.695714583333 51.763154166666,80.464574305555 C 51.239236111111,80.125567361111 50.669086111111,79.956063194444 49.944844444444,79.956063194444 C 47.186563888888,79.956063194444 44.721055555555,82.467799305555 44.721055555555,85.256899305555 C 44.721055555555,87.414213194444 46.154133333333,88.89351875 48.249809722222,88.89351875 C 49.297648611111,88.89351875 50.314670833333,88.523692361111 51.054322222222,87.876497916666 L 50.376308333333,91.543936805555 L 52.425759722222,91.543936805555 L 54.536847222222,80.156385416666 L 52.6569,80.156385416666 M 49.852388888888,81.836010416666 C 51.054320833333,81.836010416666 51.855611111111,82.683529861111 51.855611111111,83.962509027777 C 51.855611111111,85.580495138888 50.453354166666,87.013571527777 48.866186111111,87.013571527777 C 47.618026388888,87.013571527777 46.832144444444,86.21228125 46.832144444444,84.948710416666 C 46.832144444444,83.253678472222 48.218993055555,81.836010416666 49.852388888888,81.836010416666" />
<path class="char l" d="	M 53.937159722222,91.539240972222 L 55.986611111111,91.539240972222 L 58.0977,80.151689583333 L 56.048248611111,80.151689583333 L 53.937159722222,91.539240972222" />
<path class="char t" d="	M 57.837470833333,91.533578472222 L 59.886922222222,91.533578472222 L 61.119673611111,84.861304861111 L 62.352426388888,84.861304861111 L 62.706843055555,82.996767361111 L 61.474090277777,82.996767361111 L 61.998009722222,80.146027083333 L 59.948559722222,80.146027083333 L 59.424638888888,82.996767361111 L 58.423027777777,82.996767361111 L 58.068611111111,84.861304861111 L 59.070223611111,84.861304861111 L 57.837470833333,91.533578472222" />
</g>   
<style type="text/css"> 
<![CDATA[ .symbol {stroke-width:0; fill:#fff} .outer {stroke-width:0; fill:#fff;} .main {fill:#000} .char {fill:#fff} .pentacle, .q {stroke-width:0; fill:#390;} ]]>
<!--#fc0fc0--> 
</style> 
<g transform="translate(374.5, 62.5) scale(1.1)" class="main">
<path d=" M 52.178046400465 1.8492355836647  L 51.585361831028 0.025140041569685  A 50,50 0 0,1 97.039012466382,33.049150281253  L 95.121044910468 33.049150281253  A 48.2,48.2 0 0,0 52.178046400465,1.8492355836647 " class="outer" />
<path d=" M 96.467151615029 37.192040725163  L 98.018819962424 36.064687681421  A 50,50 0 0,1 80.657070332482,89.498658694053  L 80.064385763044 87.674563151958  A 48.2,48.2 0 0,0 96.467151615029,37.192040725163 " class="outer" />
<path d=" M 76.540232658018 90.235010257962  L 78.091901005412 91.362363301704  A 50,50 0 0,1 21.908098994588,91.362363301704  L 23.459767341982 90.235010257962  A 48.2,48.2 0 0,0 76.540232658018,90.235010257962 " class="outer" />
<path d=" M 19.935614236956 87.674563151958  L 19.342929667518 89.498658694053  A 50,50 0 0,1 1.9811800375763,36.064687681421  L 3.5328483849707 37.192040725163  A 48.2,48.2 0 0,0 19.935614236956,87.674563151958 " class="outer" />
<path d=" M 4.8789550895323 33.049150281253  L 2.960987533618 33.049150281253  A 50,50 0 0,1 48.414638168973,0.02514004156972  L 47.821953599535 1.8492355836647  A 48.2,48.2 0 0,0 4.8789550895323,33.049150281253 " class="outer" />
<path d="M 97.552825814758 34.549150281253  L 58.361817604251 34.549150281253  A 3,3 0 0,1 58.361817604251 36.349150281253  L 92.012995447842 36.349150281253  L 68.485207281423 53.655550153807  L 69.014214008486 55.283665448745 " class="pentacle" /> 
<path d="M 79.389262614624 90.450849718747  L 65.791641637343 48.601675492221  L 64.079739908012 49.157906082096  L 75.965459155961 85.738388538998  L 52.235608400081 68.71010396138  L 50.850650808352 69.716334551255 " class="pentacle" /> 
<path d="M 63.597620977281 41.849174226526  L 62.135474563942 37.349150281253  L 60.242842560313 37.349150281253  L 61.885719247949 42.405404816401  z" class="pentacle" /> 
<path d="M 20.610737385376 90.450849718747  L 53.418662639442 66.614496766047  L 52.360649185316 65.158266176172  L 24.034540844039 85.738388538998  L 32.896474695362 57.90793002737  L 31.511517103633 56.901699437495 " class="pentacle" /> 
<path d="M 64.744900560692 58.385503233953  L 65.781740936748 57.632194605994  L 65.196885483529 55.832194605994  L 63.686887106565 56.929272644078  z" class="pentacle" /> 
<path d="M 2.4471741852423 34.549150281253  L 33.839319699152 57.356879042441  L 34.897333153279 55.900648452566  L 7.9870045521578 36.349150281253  L 37.193831634209 36.17726557619  L 37.722838361272 34.549150281253 " class="pentacle" /> 
<path d="M 50 0  L 36.798257268217 40.63078626763  L 38.510158997549 41.187016857505  L 50 5.8249223594996  L 59.188877988925 33.549150281253  L 60.900779718257 33.549150281253 " class="pentacle" /> 
<path d="M 33.812480117159 49.820063451117  L 32.746211949318 53.101699437495  L 34.277383404352 54.214160617245  L 35.52438184649 50.376294040992  z" class="pentacle" /> 
<path d="M 35.23612194582 57.135647300358  A 2.5,2.5 0 0,1 39.723850749563,58.189350381901  A 2.5,2.5 0 0,1 42.555410229875,60.246598764924  A 2.5,2.5 0 0,1 45.386969710188,62.303847147948  A 2.5,2.5 0 0,1 47.775885358631,66.246318710892  L 47.188100106339 67.055335705267  L 45.974574614776 66.173657826828  L 46.562359867069 65.364640832453  A 1,1 0 1,0 44.944325878319,64.189070327868  A 0.75,0.75 0 0,1 43.730800386757,63.307392449429  A 1,1 0 0,0 42.112766398007,62.131821944844  A 0.75,0.75 0 0,1 40.899240906444,61.250144066406  A 1,1 0 0,0 39.281206917694,60.074573561821  A 0.75,0.75 0 0,1 38.067681426132,59.192895683382  A 1,1 0 0,0 36.449647437382,58.017325178797  L 35.86186218509 58.826342173172  L 34.648336693527 57.944664294733  L 35.23612194582 57.135647300358 " class="symbol coil" />
<path d="M 56.906976166585 59.506637120813 L 52.052874200335 63.033348634568 L 55.344471613173 67.563843803067 L 60.198573579423 64.037132289312 L 59.316895700984 62.82360679775 L 55.676319226297 65.468640433066 L 54.148077570336 63.365196247691 L 57.788654045024 60.720162612375  z" class="symbol resistor" />
<path d="M 56.906976166585 59.506637120813 L 61.761078132835 55.979925607058 L 65.052675545672 60.510420775558 L 60.198573579423 64.037132289312 L 59.316895700984 62.82360679775 L 62.957472175671 60.178573162434 L 61.429230519711 58.075128977059 L 57.788654045024 60.720162612375  z" class="symbol resistor" />
<path d=" M 59.567175309086 47.890325417791  L 60.061602500086 49.412015843864  L 69.191745056519 46.445452697864  L 68.697317865519 44.923762271792  z" class="symbol capacitor" />
<path d=" M 58.980043019773 46.08331803683  L 58.485615828773 44.561627610758  L 67.615758385207 41.595064464759  L 68.110185576207 43.116754890831  z" class="symbol capacitor" />
<path d=" M 38.78167404138 50.383190207259  L 37.326292205656 43.536157002123  L 40.654990012689 44.617716482435  L 41.149417203689 43.096026056363  L 33.540965073328 40.623890101363  L 33.046537882328 42.145580527435  L 36.375235689361 43.227140007748  L 31.173221911019 47.91105425226  z" class="symbol diode" />
<path d=" M 42.5 35.449150281253  A 2,2 0 0,0 46.5,35.449150281253  A 2,2 0 1,0 42.5,35.449150281253  z" class="symbol switch" />
<path d=" M 46.559281037942 28.991322129196  L 53.581587253734 34.88373668488  A 2,2 0 1,0 54.610047429232,33.65806557589  L 47.58774121344 27.765651020206  z" class="symbol switch" />
<path class="char o" d="	M 40.763495833333,81.31521875 C 37.866530555555,81.31521875 35.293156944444,83.826954861111 35.293156944444,86.646872916666 C 35.293156944444,88.696321527777 36.911147222222,90.252674305555 39.022233333333,90.252674305555 C 41.919198611111,90.252674305555 44.523391666666,87.771757638888 44.523391666666,85.013475694444 C 44.523391666666,82.871571527777 42.951629166666,81.31521875 40.763495833333,81.31521875 M 40.409079166666,83.195165972222 C 41.564783333333,83.195165972222 42.412302777777,84.088913194444 42.412302777777,85.290845138888 C 42.412302777777,86.878013194444 40.979226388888,88.372727083333 39.4382875,88.372727083333 C 38.267173611111,88.372727083333 37.404245833333,87.494389583333 37.404245833333,86.29245625 C 37.404245833333,84.674471527777 38.837322222222,83.195165972222 40.409079166666,83.195165972222" />
<path class="char q" d="	M 52.6569,81.506385416666 L 52.441168055555,82.600453472222 C 52.240847222222,82.199809027777 52.102161111111,82.045714583333 51.763154166666,81.814574305555 C 51.239236111111,81.475567361111 50.669086111111,81.306063194444 49.944844444444,81.306063194444 C 47.186563888888,81.306063194444 44.721055555555,83.817799305555 44.721055555555,86.606899305555 C 44.721055555555,88.764213194444 46.154133333333,90.24351875 48.249809722222,90.24351875 C 49.297648611111,90.24351875 50.314670833333,89.873692361111 51.054322222222,89.226497916666 L 50.376308333333,92.893936805555 L 52.425759722222,92.893936805555 L 54.536847222222,81.506385416666 L 52.6569,81.506385416666 M 49.852388888888,83.186010416666 C 51.054320833333,83.186010416666 51.855611111111,84.033529861111 51.855611111111,85.312509027777 C 51.855611111111,86.930495138888 50.453354166666,88.363571527777 48.866186111111,88.363571527777 C 47.618026388888,88.363571527777 46.832144444444,87.56228125 46.832144444444,86.298710416666 C 46.832144444444,84.603678472222 48.218993055555,83.186010416666 49.852388888888,83.186010416666" />
<path class="char l" d="	M 53.937159722222,92.889240972222 L 55.986611111111,92.889240972222 L 58.0977,81.501689583333 L 56.048248611111,81.501689583333 L 53.937159722222,92.889240972222" />
<path class="char t" d="	M 57.837470833333,92.883578472222 L 59.886922222222,92.883578472222 L 61.119673611111,86.211304861111 L 62.352426388888,86.211304861111 L 62.706843055555,84.346767361111 L 61.474090277777,84.346767361111 L 61.998009722222,81.496027083333 L 59.948559722222,81.496027083333 L 59.424638888888,84.346767361111 L 58.423027777777,84.346767361111 L 58.068611111111,86.211304861111 L 59.070223611111,86.211304861111 L 57.837470833333,92.883578472222" />
</g>
</svg>