<?xml version="1.0" encoding="UTF-8" standalone="no"?>
<!-- Created with Inkscape (http://www.inkscape.org/) -->
<svg xmlns:i="http://ns.adobe.com/AdobeIllustrator/10.0/" xmlns:dc="http://purl.org/dc/elements/1.1/" xmlns:cc="http://creativecommons.org/ns#" xmlns:rdf="http://www.w3.org/1999/02/22-rdf-syntax-ns#" xmlns:svg="http://www.w3.org/2000/svg" xmlns="http://www.w3.org/2000/svg" xmlns:xlink="http://www.w3.org/1999/xlink" xmlns:sodipodi="http://sodipodi.sourceforge.net/DTD/sodipodi-0.dtd" xmlns:inkscape="http://www.inkscape.org/namespaces/inkscape" width="566.64624" height="274.75391" id="svg2" sodipodi:version="0.32" inkscape:version="0.46" sodipodi:docname="Artwork_T(2d)Shirt_tshirt_i-f-freedom.svg" inkscape:output_extension="org.inkscape.output.svg.inkscape" version="1.0" >
  

  <g id="layer1" transform="translate(-38.0448, 84.2837)">
    <g id="front" transform="matrix(1.73069, 0, 0, 1.73069, -77.2431, -1005.6)" style="stroke: rgb(255, 255, 255); fill: rgb(0, 255, 255); fill-opacity: 1;">
      <path  id="path2427" d="M 67.613793,570.41735 C 92.081868,557.31693 112.96983,558.64283 133.65517,547.35529 C 144.75154,549.78633 153.01217,548.81449 160.64828,547.09322 C 184.0769,557.87959 204.67653,559.60901 226.68966,570.67942 C 224.86002,582.23888 220.8308,592.2272 214.11034,600.29322 C 205.95673,595.92328 198.24205,594.1869 190.78621,594.00356 L 190.26207,672.62425 C 158.14057,678.60698 130.91491,676.022 104.30345,672.36218 L 104.04138,594.26563 C 94.670701,593.99343 87.540944,597.4561 80.193103,600.55529 C 73.125888,590.9199 69.824253,580.74656 67.613793,570.41735 z" style="fill: rgb(0, 0, 0); fill-rule: evenodd; stroke: rgb(255, 255, 255); stroke-width: 2; stroke-linecap: butt; stroke-linejoin: miter; stroke-miterlimit: 4; stroke-dasharray: none; stroke-opacity: 1; fill-opacity: 1;"/>
      <path  id="path3199" d="M 71.282759,569.10701 C 73.497437,579.85552 77.366255,589.89387 84.910345,598.45873" style="fill: rgb(0, 0, 0); fill-rule: evenodd; stroke: rgb(255, 255, 255); stroke-width: 1px; stroke-linecap: butt; stroke-linejoin: miter; stroke-opacity: 1; fill-opacity: 1;"/>
      <path  id="path3203" d="M 105.35172,668.16908 C 133.48046,672.77351 161.60919,673.76203 189.73793,667.90701" style="fill: rgb(0, 0, 0); fill-rule: evenodd; stroke: rgb(255, 255, 255); stroke-width: 1px; stroke-linecap: butt; stroke-linejoin: miter; stroke-opacity: 1; fill-opacity: 1;"/>
      <path  id="path3205" d="M 133.3931,547.61736 C 133.16494,549.94206 135.08547,560.35018 147.28275,560.98287 C 159.21868,561.60201 161.55802,549.44684 161.17241,547.87942" style="fill: rgb(0, 0, 0); fill-rule: evenodd; stroke: rgb(255, 255, 255); stroke-width: 1px; stroke-linecap: butt; stroke-linejoin: miter; stroke-opacity: 1; fill-opacity: 1;"/>
      <path style="fill: rgb(0, 0, 0); fill-rule: evenodd; stroke: rgb(255, 255, 255); stroke-width: 1px; stroke-linecap: butt; stroke-linejoin: miter; stroke-opacity: 1; fill-opacity: 1;" d="M 128.21194,550.41871 C 127.98378,552.74341 132.78618,565.53036 146.55676,565.88077 C 160.58924,566.23784 166.33548,551.19991 165.94987,549.63249" id="path3207" />
      <path  id="path3209" d="M 134.52279,552.33459 C 143.06093,554.56783 150.60453,554.08878 159.84088,552.13274" style="fill: rgb(0, 0, 0); fill-rule: evenodd; stroke: rgb(255, 255, 255); stroke-width: 1px; stroke-linecap: butt; stroke-linejoin: miter; stroke-opacity: 1; fill-opacity: 1;"/>
      <path  id="path3213" d="M 104.16182,558.28077 C 106.73776,568.16616 110.99985,579.76968 103.89975,593.66008" style="fill: rgb(0, 0, 0); fill-rule: evenodd; stroke: rgb(255, 255, 255); stroke-width: 1px; stroke-linecap: butt; stroke-linejoin: miter; stroke-opacity: 1; fill-opacity: 1;"/>
      <path style="fill: rgb(0, 0, 0); fill-rule: evenodd; stroke: rgb(255, 255, 255); stroke-width: 1px; stroke-linecap: butt; stroke-linejoin: miter; stroke-opacity: 1; fill-opacity: 1;" d="M 190.37521,558.48262 C 187.79927,568.36801 183.53718,579.97153 190.63728,593.86193" id="path3215" />
      <path style="fill: rgb(0, 0, 0); fill-rule: evenodd; stroke: rgb(255, 255, 255); stroke-width: 1px; stroke-linecap: butt; stroke-linejoin: miter; stroke-opacity: 1; fill-opacity: 1;" d="M 223.28276,568.84494 C 221.06808,579.59345 217.19926,589.6318 209.65517,598.19666" id="path3217" />
    </g>
    <g transform="matrix(1.73069, 0, 0, 1.73069, 210.631, -1005.6)" id="back" style="stroke: rgb(255, 255, 255); fill: rgb(0, 0, 0); fill-opacity: 1;">
      <path style="fill: rgb(0, 0, 0); fill-rule: evenodd; stroke: rgb(255, 255, 255); stroke-width: 2; stroke-linecap: butt; stroke-linejoin: miter; stroke-miterlimit: 4; stroke-dasharray: none; stroke-opacity: 1; fill-opacity: 1;" d="M 67.613793,570.41735 C 92.081868,557.31693 112.96983,558.64283 133.65517,547.35529 C 144.75154,549.78633 153.01217,548.81449 160.64828,547.09322 C 184.0769,557.87959 204.67653,559.60901 226.68966,570.67942 C 224.86002,582.23888 220.8308,592.2272 214.11034,600.29322 C 205.95673,595.92328 198.24205,594.1869 190.78621,594.00356 L 190.26207,672.62425 C 158.14057,678.60698 130.91491,676.022 104.30345,672.36218 L 104.04138,594.26563 C 94.670701,593.99343 87.540944,597.4561 80.193103,600.55529 C 73.125888,590.9199 69.824253,580.74656 67.613793,570.41735 z" id="path3274" />
      <path style="fill: rgb(0, 0, 0); fill-rule: evenodd; stroke: rgb(255, 255, 255); stroke-width: 1px; stroke-linecap: butt; stroke-linejoin: miter; stroke-opacity: 1; fill-opacity: 1;" d="M 71.282759,569.10701 C 73.497437,579.85552 77.366255,589.89387 84.910345,598.45873" id="path3276" />
      <path style="fill: rgb(0, 0, 0); fill-rule: evenodd; stroke: rgb(255, 255, 255); stroke-width: 1px; stroke-linecap: butt; stroke-linejoin: miter; stroke-opacity: 1; fill-opacity: 1;" d="M 105.35172,668.16908 C 133.48046,672.77351 161.60919,673.76203 189.73793,667.90701" id="path3278" />
      <path style="fill: rgb(0, 0, 0); fill-rule: evenodd; stroke: rgb(255, 255, 255); stroke-width: 1px; stroke-linecap: butt; stroke-linejoin: miter; stroke-opacity: 1; fill-opacity: 1;" d="M 128.66915,549.91239 C 136.6767,556.10373 156.57703,556.4878 165.29082,549.71055" id="path3284" />
      <path style="fill: rgb(0, 0, 0); fill-rule: evenodd; stroke: rgb(255, 255, 255); stroke-width: 1px; stroke-linecap: butt; stroke-linejoin: miter; stroke-opacity: 1; fill-opacity: 1;" d="M 104.16182,558.28077 C 106.73776,568.16616 110.99985,579.76968 103.89975,593.66008" id="path3286" />
      <path  id="path3288" d="M 190.37521,558.48262 C 187.79927,568.36801 183.53718,579.97153 190.63728,593.86193" style="fill: rgb(0, 0, 0); fill-rule: evenodd; stroke: rgb(255, 255, 255); stroke-width: 1px; stroke-linecap: butt; stroke-linejoin: miter; stroke-opacity: 1; fill-opacity: 1;"/>
      <path  id="path3290" d="M 223.28276,568.84494 C 221.06808,579.59345 217.19926,589.6318 209.65517,598.19666" style="fill: rgb(0, 0, 0); fill-rule: evenodd; stroke: rgb(255, 255, 255); stroke-width: 1px; stroke-linecap: butt; stroke-linejoin: miter; stroke-opacity: 1; fill-opacity: 1;"/>
    </g>
    <text xml:space="preserve" style="font-size: 24.2297px; font-style: normal; font-weight: normal; fill: rgb(0, 0, 0); fill-opacity: 1; stroke: none; stroke-width: 1px; stroke-linecap: butt; stroke-linejoin: miter; stroke-opacity: 1; font-family: Bitstream Vera Sans;" x="249.702" y="-65.8749" id="text3455"><tspan  id="tspan3457" x="249.702" y="-65.8749">Male T-Shirt</tspan></text>
    <text xml:space="preserve" style="font-size: 20.7683px; font-style: normal; font-variant: normal; font-weight: normal; font-stretch: normal; fill: rgb(0, 0, 0); fill-opacity: 1; stroke: none; stroke-width: 1px; stroke-linecap: butt; stroke-linejoin: miter; stroke-opacity: 1; font-family: Liberation Sans;" x="152.393" y="190.267" id="text3463"><tspan  id="tspan3465" x="152.393" y="190.267">Front</tspan></text>
    <text id="text3467" y="190.267" x="441.337" style="font-size: 20.7683px; font-style: normal; font-variant: normal; font-weight: normal; font-stretch: normal; fill: rgb(0, 0, 0); fill-opacity: 1; stroke: none; stroke-width: 1px; stroke-linecap: butt; stroke-linejoin: miter; stroke-opacity: 1; font-family: Liberation Sans;" xml:space="preserve"><tspan y="190.267" x="441.337" id="tspan3469" >Back</tspan></text>



  </g>
  
    
<style type="text/css"> 
<![CDATA[ .symbol {stroke-width:0; fill:#fff} .outer {stroke-width:0; fill:#fff;} .main {fill:#000} .char {fill:#fff} .pentacle, .q {stroke-width:0; fill:#390;} ]]>
<!--#fc0fc0--> 
</style> 
<g transform="translate(152, 72) scale(0.4)" class="main">
<path d=" M 53.611712554211 4.6435723141058  L 52.11749975294 0.044858174595277  A 50,50 0 0,1 96.855819746257,32.549150281253  L 92.020445548491 32.549150281253  A 45.5,45.5 0 0,0 53.611712554211,4.6435723141058 " class="outer" />
<path d=" M 94.252606664588 39.419035800588  L 98.164506564743 36.576874157826  A 50,50 0 0,1 81.075988926865,89.169923566652  L 79.581776125593 84.571209427142  A 45.5,45.5 0 0,0 94.252606664588,39.419035800588 " class="outer" />
<path d=" M 73.737902455284 88.817032176912  L 77.649802355439 91.659193819674  A 50,50 0 0,1 22.350197644561,91.659193819674  L 26.262097544716 88.817032176912  A 45.5,45.5 0 0,0 73.737902455284,88.817032176912 " class="outer" />
<path d=" M 20.418223874407 84.571209427142  L 18.924011073135 89.169923566652  A 50,50 0 0,1 1.8354934352572,36.576874157826  L 5.7473933354117 39.419035800588  A 45.5,45.5 0 0,0 20.418223874407,84.571209427142 " class="outer" />
<path d=" M 7.979554451509 32.549150281253  L 3.1441802537434 32.549150281253  A 50,50 0 0,1 47.88250024706,0.044858174595298  L 46.388287445789 4.6435723141058  A 45.5,45.5 0 0,0 7.979554451509,32.549150281253 " class="outer" />
<path d="M 97.552825814758 34.549150281253  L 59.208099243548 34.549150281253  A 4,4 0 0,1 59.208099243548 37.549150281253  L 88.319775203232 37.549150281253  L 68.983186938399 51.952105968433  L 69.864864816838 54.665631459995 " class="pentacle" /> 
<path d="M 79.389262614624 90.450849718747  L 66.19336373003 49.838048963405  L 63.340194181145 50.76509994653  L 73.682923516853 82.596747752498  L 54.009564269586 68.65731755688  L 51.701301616704 70.334368540005 " class="pentacle" /> 
<path d="M 63.195898884593 40.612800755342  L 62.850297895654 39.549150281253  L 59.695911222939 39.549150281253  L 60.342729335708 41.539851738467  z" class="pentacle" /> 
<path d="M 20.610737385376 90.450849718747  L 52.609645645067 67.20228201834  L 50.84628988819 64.775231035215  L 26.317076483147 82.596747752498  L 33.494860060282 59.57875042062  L 31.1865974074 57.901699437495 " class="pentacle" /> 
<path d="M 2.4471741852423 34.549150281253  L 33.434811201965 57.062986416295  L 35.198166958842 54.63593543317  L 11.680224796768 37.549150281253  L 35.789698258595 37.262675772815  L 36.671376137034 34.549150281253 " class="pentacle" /> 
<path d="M 50 0  L 37.107274262592 39.679729751335  L 39.960443811478 40.60678073446  L 50 9.7082039324994  L 57.722690473138 32.549150281253  L 60.575860022024 32.549150281253 " class="pentacle" /> 
<path d="M 35.875744543924 57.105933128755  A 2.6,2.6 0 0,1 40.460144786592,57.856449227864  A 2.6,2.6 0 0,1 42.968097469155,59.678583509971  A 2.6,2.6 0 0,1 45.476050151717,61.500717792078  A 2.6,2.6 0 0,1 47.606490962361,65.628819286995  L 46.783591609151 66.76144307912  L 45.084655920964 65.527094049306  L 45.907555274173 64.394470257181  A 0.5,0.5 0 1,0 45.098538279798,63.806685004889  A 1.05,1.05 0 0,1 43.399602591611,62.572335975075  A 0.5,0.5 0 0,0 42.590585597236,61.984550722782  A 1.05,1.05 0 0,1 40.891649909049,60.750201692968  A 0.5,0.5 0 0,0 40.082632914674,60.162416440675  A 1.05,1.05 0 0,1 38.383697226486,58.928067410861  A 0.5,0.5 0 0,0 37.574680232111,58.340282158569  L 36.751780878902 59.472905950694  L 35.052845190715 58.23855692088  L 35.875744543924 57.105933128755 " class="symbol coil" />
<path d="M 56.377969439522 58.778521825875 L 51.523867473272 62.30523333963 L 55.168136037485 67.321138704755 L 60.022238003735 63.794427191 L 59.081781600067 62.5 L 55.522106824817 65.086255110087 L 53.75875106794 62.659204126962 L 57.31842584319 60.072949016875  z" class="symbol resistor" />
<path d="M 56.377969439522 58.778521825875 L 61.232071405771 55.25181031212 L 64.876339969985 60.267715677245 L 60.022238003735 63.794427191 L 59.081781600067 62.5 L 62.641456375317 59.913744889913 L 60.878100618439 57.486693906788 L 57.31842584319 60.072949016875  z" class="symbol resistor" />
<path d=" M 58.996541399309 48.075735614416  L 59.583673688621 49.882742995377  L 68.713816245054 46.916179849378  L 68.126683955742 45.109172468417  z" class="symbol capacitor" />
<path d=" M 58.409409109996 46.268728233455  L 57.822276820684 44.461720852495  L 66.952419377117 41.495157706495  L 67.53955166643 43.302165087456  z" class="symbol capacitor" />
<path d=" M 39.352307951157 50.568600403884  L 37.896926115433 43.721567198748  L 41.225623922466 44.80312667906  L 41.720051113466 43.281436252988  L 34.111598983105 40.809300297988  L 33.617171792105 42.33099072406  L 36.945869599138 43.412550204373  L 31.743855820796 48.096464448885  z" class="symbol diode" />
<path d=" M 42.5 36.049150281253  A 2,2 0 0,0 46.5,36.049150281253  A 2,2 0 1,0 42.5,36.049150281253  z" class="symbol switch" />
<path d=" M 46.559281037942 29.591322129196  L 53.581587253734 35.48373668488  A 2,2 0 1,0 54.610047429232,34.25806557589  L 47.58774121344 28.365651020206  z" class="symbol switch" />
<path class="char o" d="	M 40.763495833333,79.96521875 C 37.866530555555,79.96521875 35.293156944444,82.476954861111 35.293156944444,85.296872916666 C 35.293156944444,87.346321527777 36.911147222222,88.902674305555 39.022233333333,88.902674305555 C 41.919198611111,88.902674305555 44.523391666666,86.421757638888 44.523391666666,83.663475694444 C 44.523391666666,81.521571527777 42.951629166666,79.96521875 40.763495833333,79.96521875 M 40.409079166666,81.845165972222 C 41.564783333333,81.845165972222 42.412302777777,82.738913194444 42.412302777777,83.940845138888 C 42.412302777777,85.528013194444 40.979226388888,87.022727083333 39.4382875,87.022727083333 C 38.267173611111,87.022727083333 37.404245833333,86.144389583333 37.404245833333,84.94245625 C 37.404245833333,83.324471527777 38.837322222222,81.845165972222 40.409079166666,81.845165972222" />
<path class="char q" d="	M 52.6569,80.156385416666 L 52.441168055555,81.250453472222 C 52.240847222222,80.849809027777 52.102161111111,80.695714583333 51.763154166666,80.464574305555 C 51.239236111111,80.125567361111 50.669086111111,79.956063194444 49.944844444444,79.956063194444 C 47.186563888888,79.956063194444 44.721055555555,82.467799305555 44.721055555555,85.256899305555 C 44.721055555555,87.414213194444 46.154133333333,88.89351875 48.249809722222,88.89351875 C 49.297648611111,88.89351875 50.314670833333,88.523692361111 51.054322222222,87.876497916666 L 50.376308333333,91.543936805555 L 52.425759722222,91.543936805555 L 54.536847222222,80.156385416666 L 52.6569,80.156385416666 M 49.852388888888,81.836010416666 C 51.054320833333,81.836010416666 51.855611111111,82.683529861111 51.855611111111,83.962509027777 C 51.855611111111,85.580495138888 50.453354166666,87.013571527777 48.866186111111,87.013571527777 C 47.618026388888,87.013571527777 46.832144444444,86.21228125 46.832144444444,84.948710416666 C 46.832144444444,83.253678472222 48.218993055555,81.836010416666 49.852388888888,81.836010416666" />
<path class="char l" d="	M 53.937159722222,91.539240972222 L 55.986611111111,91.539240972222 L 58.0977,80.151689583333 L 56.048248611111,80.151689583333 L 53.937159722222,91.539240972222" />
<path class="char t" d="	M 57.837470833333,91.533578472222 L 59.886922222222,91.533578472222 L 61.119673611111,84.861304861111 L 62.352426388888,84.861304861111 L 62.706843055555,82.996767361111 L 61.474090277777,82.996767361111 L 61.998009722222,80.146027083333 L 59.948559722222,80.146027083333 L 59.424638888888,82.996767361111 L 58.423027777777,82.996767361111 L 58.068611111111,84.861304861111 L 59.070223611111,84.861304861111 L 57.837470833333,91.533578472222" />
</g>   
<style type="text/css"> 
<![CDATA[ .symbol {stroke-width:0; fill:#fff} .outer {stroke-width:0; fill:#fff;} .main {fill:#000} .char {fill:#fff} .pentacle, .q {stroke-width:0; fill:#390;} ]]>
<!--#fc0fc0--> 
</style> 
<g transform="translate(374.5, 62.5) scale(1.1)" class="main">
<path d=" M 53.073090336472 4.6038975705636  L 51.585361831028 0.025140041569685  A 50,50 0 0,1 97.039012466382,33.049150281253  L 92.224621890698 33.049150281253  A 45.5,45.5 0 0,0 53.073090336472,4.6038975705636 " class="outer" />
<path d=" M 94.123896169137 38.894515460584  L 98.018819962424 36.064687681421  A 50,50 0 0,1 80.657070332482,89.498658694053  L 79.169341827037 84.919901165059  A 45.5,45.5 0 0,0 94.123896169137,38.894515460584 " class="outer" />
<path d=" M 74.196977212126 88.532535522541  L 78.091901005412 91.362363301704  A 50,50 0 0,1 21.908098994588,91.362363301704  L 25.803022787874 88.532535522541  A 45.5,45.5 0 0,0 74.196977212126,88.532535522541 " class="outer" />
<path d=" M 20.830658172963 84.919901165059  L 19.342929667518 89.498658694053  A 50,50 0 0,1 1.9811800375763,36.064687681421  L 5.8761038308629 38.894515460584  A 45.5,45.5 0 0,0 20.830658172963,84.919901165059 " class="outer" />
<path d=" M 7.7753781093016 33.049150281253  L 2.960987533618 33.049150281253  A 50,50 0 0,1 48.414638168973,0.02514004156972  L 46.926909663528 4.6038975705636  A 45.5,45.5 0 0,0 7.7753781093016,33.049150281253 " class="outer" />
<path d="M 97.552825814758 34.549150281253  L 58.098076211353 34.549150281253  A 3,3 0 0,1 58.098076211353 37.549150281253  L 88.319775203232 37.549150281253  L 68.132536130047 52.570139957182  L 69.014214008486 55.283665448745 " class="pentacle" /> 
<path d="M 79.389262614624 90.450849718747  L 65.884346735655 48.88699244711  L 63.03117718677 49.814043430235  L 73.682923516853 82.596747752498  L 53.158913461233 68.03928356813  L 50.850650808352 69.716334551255 " class="pentacle" /> 
<path d="M 63.504915878968 41.563857271637  L 62.525378199421 38.549150281253  L 59.370991526706 38.549150281253  L 60.651746330083 42.490908254762  z" class="pentacle" /> 
<path d="M 20.610737385376 90.450849718747  L 53.418662639442 66.614496766047  L 51.655306882565 64.187445782922  L 26.317076483147 82.596747752498  L 33.819779756515 58.57875042062  L 31.511517103633 56.901699437495 " class="pentacle" /> 
<path d="M 2.4471741852423 34.549150281253  L 34.24382819634 57.650771668587  L 36.007183953217 55.223720685462  L 11.680224796768 37.549150281253  L 36.841160482833 37.262675772815  L 37.722838361272 34.549150281253 " class="pentacle" /> 
<path d="M 50 0  L 36.798257268217 40.63078626763  L 39.651426817103 41.557837250755  L 50 9.7082039324994  L 58.047610169371 33.549150281253  L 60.900779718257 33.549150281253 " class="pentacle" /> 
<path d="M 33.812480117159 49.820063451117  L 33.136115584798 51.901699437495  L 35.688068009854 53.755801403744  L 36.665649666044 50.747114434242  z" class="pentacle" /> 
<path d="M 35.875744543924 57.105933128755  A 2.6,2.6 0 0,1 40.460144786592,57.856449227864  A 2.6,2.6 0 0,1 42.968097469155,59.678583509971  A 2.6,2.6 0 0,1 45.476050151717,61.500717792078  A 2.6,2.6 0 0,1 47.606490962361,65.628819286995  L 46.783591609151 66.76144307912  L 45.084655920964 65.527094049306  L 45.907555274173 64.394470257181  A 0.5,0.5 0 1,0 45.098538279798,63.806685004889  A 1.05,1.05 0 0,1 43.399602591611,62.572335975075  A 0.5,0.5 0 0,0 42.590585597236,61.984550722782  A 1.05,1.05 0 0,1 40.891649909049,60.750201692968  A 0.5,0.5 0 0,0 40.082632914674,60.162416440675  A 1.05,1.05 0 0,1 38.383697226486,58.928067410861  A 0.5,0.5 0 0,0 37.574680232111,58.340282158569  L 36.751780878902 59.472905950694  L 35.052845190715 58.23855692088  L 35.875744543924 57.105933128755 " class="symbol coil" />
<path d="M 56.377969439522 58.778521825875 L 51.523867473272 62.30523333963 L 55.168136037485 67.321138704755 L 60.022238003735 63.794427191 L 59.081781600067 62.5 L 55.522106824817 65.086255110087 L 53.75875106794 62.659204126962 L 57.31842584319 60.072949016875  z" class="symbol resistor" />
<path d="M 56.377969439522 58.778521825875 L 61.232071405771 55.25181031212 L 64.876339969985 60.267715677245 L 60.022238003735 63.794427191 L 59.081781600067 62.5 L 62.641456375317 59.913744889913 L 60.878100618439 57.486693906788 L 57.31842584319 60.072949016875  z" class="symbol resistor" />
<path d=" M 58.996541399309 48.075735614416  L 59.583673688621 49.882742995377  L 68.713816245054 46.916179849378  L 68.126683955742 45.109172468417  z" class="symbol capacitor" />
<path d=" M 58.409409109996 46.268728233455  L 57.822276820684 44.461720852495  L 66.952419377117 41.495157706495  L 67.53955166643 43.302165087456  z" class="symbol capacitor" />
<path d=" M 39.352307951157 50.568600403884  L 37.896926115433 43.721567198748  L 41.225623922466 44.80312667906  L 41.720051113466 43.281436252988  L 34.111598983105 40.809300297988  L 33.617171792105 42.33099072406  L 36.945869599138 43.412550204373  L 31.743855820796 48.096464448885  z" class="symbol diode" />
<path d=" M 42.5 36.049150281253  A 2,2 0 0,0 46.5,36.049150281253  A 2,2 0 1,0 42.5,36.049150281253  z" class="symbol switch" />
<path d=" M 46.559281037942 29.591322129196  L 53.581587253734 35.48373668488  A 2,2 0 1,0 54.610047429232,34.25806557589  L 47.58774121344 28.365651020206  z" class="symbol switch" />
<path class="char o" d="	M 40.763495833333,79.96521875 C 37.866530555555,79.96521875 35.293156944444,82.476954861111 35.293156944444,85.296872916666 C 35.293156944444,87.346321527777 36.911147222222,88.902674305555 39.022233333333,88.902674305555 C 41.919198611111,88.902674305555 44.523391666666,86.421757638888 44.523391666666,83.663475694444 C 44.523391666666,81.521571527777 42.951629166666,79.96521875 40.763495833333,79.96521875 M 40.409079166666,81.845165972222 C 41.564783333333,81.845165972222 42.412302777777,82.738913194444 42.412302777777,83.940845138888 C 42.412302777777,85.528013194444 40.979226388888,87.022727083333 39.4382875,87.022727083333 C 38.267173611111,87.022727083333 37.404245833333,86.144389583333 37.404245833333,84.94245625 C 37.404245833333,83.324471527777 38.837322222222,81.845165972222 40.409079166666,81.845165972222" />
<path class="char q" d="	M 52.6569,80.156385416666 L 52.441168055555,81.250453472222 C 52.240847222222,80.849809027777 52.102161111111,80.695714583333 51.763154166666,80.464574305555 C 51.239236111111,80.125567361111 50.669086111111,79.956063194444 49.944844444444,79.956063194444 C 47.186563888888,79.956063194444 44.721055555555,82.467799305555 44.721055555555,85.256899305555 C 44.721055555555,87.414213194444 46.154133333333,88.89351875 48.249809722222,88.89351875 C 49.297648611111,88.89351875 50.314670833333,88.523692361111 51.054322222222,87.876497916666 L 50.376308333333,91.543936805555 L 52.425759722222,91.543936805555 L 54.536847222222,80.156385416666 L 52.6569,80.156385416666 M 49.852388888888,81.836010416666 C 51.054320833333,81.836010416666 51.855611111111,82.683529861111 51.855611111111,83.962509027777 C 51.855611111111,85.580495138888 50.453354166666,87.013571527777 48.866186111111,87.013571527777 C 47.618026388888,87.013571527777 46.832144444444,86.21228125 46.832144444444,84.948710416666 C 46.832144444444,83.253678472222 48.218993055555,81.836010416666 49.852388888888,81.836010416666" />
<path class="char l" d="	M 53.937159722222,91.539240972222 L 55.986611111111,91.539240972222 L 58.0977,80.151689583333 L 56.048248611111,80.151689583333 L 53.937159722222,91.539240972222" />
<path class="char t" d="	M 57.837470833333,91.533578472222 L 59.886922222222,91.533578472222 L 61.119673611111,84.861304861111 L 62.352426388888,84.861304861111 L 62.706843055555,82.996767361111 L 61.474090277777,82.996767361111 L 61.998009722222,80.146027083333 L 59.948559722222,80.146027083333 L 59.424638888888,82.996767361111 L 58.423027777777,82.996767361111 L 58.068611111111,84.861304861111 L 59.070223611111,84.861304861111 L 57.837470833333,91.533578472222" />
</g>
</svg>