<?xml version="1.0" encoding="UTF-8" standalone="no"?>
<!-- Created with Inkscape (http://www.inkscape.org/) -->
<svg xmlns:i="http://ns.adobe.com/AdobeIllustrator/10.0/" xmlns:dc="http://purl.org/dc/elements/1.1/" xmlns:cc="http://creativecommons.org/ns#" xmlns:rdf="http://www.w3.org/1999/02/22-rdf-syntax-ns#" xmlns:svg="http://www.w3.org/2000/svg" xmlns="http://www.w3.org/2000/svg" xmlns:xlink="http://www.w3.org/1999/xlink" xmlns:sodipodi="http://sodipodi.sourceforge.net/DTD/sodipodi-0.dtd" xmlns:inkscape="http://www.inkscape.org/namespaces/inkscape" width="566.64624" height="274.75391" id="svg2" sodipodi:version="0.32" inkscape:version="0.46" sodipodi:docname="Artwork_T(2d)Shirt_tshirt_i-f-freedom.svg" inkscape:output_extension="org.inkscape.output.svg.inkscape" version="1.0" >
  

  <g id="layer1" transform="translate(-38.0448, 84.2837)">
    <g id="front" transform="matrix(1.73069, 0, 0, 1.73069, -77.2431, -1005.6)" style="stroke: rgb(255, 255, 255); fill: rgb(0, 255, 255); fill-opacity: 1;">
      <path  id="path2427" d="M 67.613793,570.41735 C 92.081868,557.31693 112.96983,558.64283 133.65517,547.35529 C 144.75154,549.78633 153.01217,548.81449 160.64828,547.09322 C 184.0769,557.87959 204.67653,559.60901 226.68966,570.67942 C 224.86002,582.23888 220.8308,592.2272 214.11034,600.29322 C 205.95673,595.92328 198.24205,594.1869 190.78621,594.00356 L 190.26207,672.62425 C 158.14057,678.60698 130.91491,676.022 104.30345,672.36218 L 104.04138,594.26563 C 94.670701,593.99343 87.540944,597.4561 80.193103,600.55529 C 73.125888,590.9199 69.824253,580.74656 67.613793,570.41735 z" style="fill: rgb(0, 0, 0); fill-rule: evenodd; stroke: rgb(255, 255, 255); stroke-width: 2; stroke-linecap: butt; stroke-linejoin: miter; stroke-miterlimit: 4; stroke-dasharray: none; stroke-opacity: 1; fill-opacity: 1;"/>
      <path  id="path3199" d="M 71.282759,569.10701 C 73.497437,579.85552 77.366255,589.89387 84.910345,598.45873" style="fill: rgb(0, 0, 0); fill-rule: evenodd; stroke: rgb(255, 255, 255); stroke-width: 1px; stroke-linecap: butt; stroke-linejoin: miter; stroke-opacity: 1; fill-opacity: 1;"/>
      <path  id="path3203" d="M 105.35172,668.16908 C 133.48046,672.77351 161.60919,673.76203 189.73793,667.90701" style="fill: rgb(0, 0, 0); fill-rule: evenodd; stroke: rgb(255, 255, 255); stroke-width: 1px; stroke-linecap: butt; stroke-linejoin: miter; stroke-opacity: 1; fill-opacity: 1;"/>
      <path  id="path3205" d="M 133.3931,547.61736 C 133.16494,549.94206 135.08547,560.35018 147.28275,560.98287 C 159.21868,561.60201 161.55802,549.44684 161.17241,547.87942" style="fill: rgb(0, 0, 0); fill-rule: evenodd; stroke: rgb(255, 255, 255); stroke-width: 1px; stroke-linecap: butt; stroke-linejoin: miter; stroke-opacity: 1; fill-opacity: 1;"/>
      <path style="fill: rgb(0, 0, 0); fill-rule: evenodd; stroke: rgb(255, 255, 255); stroke-width: 1px; stroke-linecap: butt; stroke-linejoin: miter; stroke-opacity: 1; fill-opacity: 1;" d="M 128.21194,550.41871 C 127.98378,552.74341 132.78618,565.53036 146.55676,565.88077 C 160.58924,566.23784 166.33548,551.19991 165.94987,549.63249" id="path3207" />
      <path  id="path3209" d="M 134.52279,552.33459 C 143.06093,554.56783 150.60453,554.08878 159.84088,552.13274" style="fill: rgb(0, 0, 0); fill-rule: evenodd; stroke: rgb(255, 255, 255); stroke-width: 1px; stroke-linecap: butt; stroke-linejoin: miter; stroke-opacity: 1; fill-opacity: 1;"/>
      <path  id="path3213" d="M 104.16182,558.28077 C 106.73776,568.16616 110.99985,579.76968 103.89975,593.66008" style="fill: rgb(0, 0, 0); fill-rule: evenodd; stroke: rgb(255, 255, 255); stroke-width: 1px; stroke-linecap: butt; stroke-linejoin: miter; stroke-opacity: 1; fill-opacity: 1;"/>
      <path style="fill: rgb(0, 0, 0); fill-rule: evenodd; stroke: rgb(255, 255, 255); stroke-width: 1px; stroke-linecap: butt; stroke-linejoin: miter; stroke-opacity: 1; fill-opacity: 1;" d="M 190.37521,558.48262 C 187.79927,568.36801 183.53718,579.97153 190.63728,593.86193" id="path3215" />
      <path style="fill: rgb(0, 0, 0); fill-rule: evenodd; stroke: rgb(255, 255, 255); stroke-width: 1px; stroke-linecap: butt; stroke-linejoin: miter; stroke-opacity: 1; fill-opacity: 1;" d="M 223.28276,568.84494 C 221.06808,579.59345 217.19926,589.6318 209.65517,598.19666" id="path3217" />
    </g>
    <g transform="matrix(1.73069, 0, 0, 1.73069, 210.631, -1005.6)" id="back" style="stroke: rgb(255, 255, 255); fill: rgb(0, 0, 0); fill-opacity: 1;">
      <path style="fill: rgb(0, 0, 0); fill-rule: evenodd; stroke: rgb(255, 255, 255); stroke-width: 2; stroke-linecap: butt; stroke-linejoin: miter; stroke-miterlimit: 4; stroke-dasharray: none; stroke-opacity: 1; fill-opacity: 1;" d="M 67.613793,570.41735 C 92.081868,557.31693 112.96983,558.64283 133.65517,547.35529 C 144.75154,549.78633 153.01217,548.81449 160.64828,547.09322 C 184.0769,557.87959 204.67653,559.60901 226.68966,570.67942 C 224.86002,582.23888 220.8308,592.2272 214.11034,600.29322 C 205.95673,595.92328 198.24205,594.1869 190.78621,594.00356 L 190.26207,672.62425 C 158.14057,678.60698 130.91491,676.022 104.30345,672.36218 L 104.04138,594.26563 C 94.670701,593.99343 87.540944,597.4561 80.193103,600.55529 C 73.125888,590.9199 69.824253,580.74656 67.613793,570.41735 z" id="path3274" />
      <path style="fill: rgb(0, 0, 0); fill-rule: evenodd; stroke: rgb(255, 255, 255); stroke-width: 1px; stroke-linecap: butt; stroke-linejoin: miter; stroke-opacity: 1; fill-opacity: 1;" d="M 71.282759,569.10701 C 73.497437,579.85552 77.366255,589.89387 84.910345,598.45873" id="path3276" />
      <path style="fill: rgb(0, 0, 0); fill-rule: evenodd; stroke: rgb(255, 255, 255); stroke-width: 1px; stroke-linecap: butt; stroke-linejoin: miter; stroke-opacity: 1; fill-opacity: 1;" d="M 105.35172,668.16908 C 133.48046,672.77351 161.60919,673.76203 189.73793,667.90701" id="path3278" />
      <path style="fill: rgb(0, 0, 0); fill-rule: evenodd; stroke: rgb(255, 255, 255); stroke-width: 1px; stroke-linecap: butt; stroke-linejoin: miter; stroke-opacity: 1; fill-opacity: 1;" d="M 128.66915,549.91239 C 136.6767,556.10373 156.57703,556.4878 165.29082,549.71055" id="path3284" />
      <path style="fill: rgb(0, 0, 0); fill-rule: evenodd; stroke: rgb(255, 255, 255); stroke-width: 1px; stroke-linecap: butt; stroke-linejoin: miter; stroke-opacity: 1; fill-opacity: 1;" d="M 104.16182,558.28077 C 106.73776,568.16616 110.99985,579.76968 103.89975,593.66008" id="path3286" />
      <path  id="path3288" d="M 190.37521,558.48262 C 187.79927,568.36801 183.53718,579.97153 190.63728,593.86193" style="fill: rgb(0, 0, 0); fill-rule: evenodd; stroke: rgb(255, 255, 255); stroke-width: 1px; stroke-linecap: butt; stroke-linejoin: miter; stroke-opacity: 1; fill-opacity: 1;"/>
      <path  id="path3290" d="M 223.28276,568.84494 C 221.06808,579.59345 217.19926,589.6318 209.65517,598.19666" style="fill: rgb(0, 0, 0); fill-rule: evenodd; stroke: rgb(255, 255, 255); stroke-width: 1px; stroke-linecap: butt; stroke-linejoin: miter; stroke-opacity: 1; fill-opacity: 1;"/>
    </g>
    <text xml:space="preserve" style="font-size: 24.2297px; font-style: normal; font-weight: normal; fill: rgb(0, 0, 0); fill-opacity: 1; stroke: none; stroke-width: 1px; stroke-linecap: butt; stroke-linejoin: miter; stroke-opacity: 1; font-family: Bitstream Vera Sans;" x="249.702" y="-65.8749" id="text3455"><tspan  id="tspan3457" x="249.702" y="-65.8749">Male T-Shirt</tspan></text>
    <text xml:space="preserve" style="font-size: 20.7683px; font-style: normal; font-variant: normal; font-weight: normal; font-stretch: normal; fill: rgb(0, 0, 0); fill-opacity: 1; stroke: none; stroke-width: 1px; stroke-linecap: butt; stroke-linejoin: miter; stroke-opacity: 1; font-family: Liberation Sans;" x="152.393" y="190.267" id="text3463"><tspan  id="tspan3465" x="152.393" y="190.267">Front</tspan></text>
    <text id="text3467" y="190.267" x="441.337" style="font-size: 20.7683px; font-style: normal; font-variant: normal; font-weight: normal; font-stretch: normal; fill: rgb(0, 0, 0); fill-opacity: 1; stroke: none; stroke-width: 1px; stroke-linecap: butt; stroke-linejoin: miter; stroke-opacity: 1; font-family: Liberation Sans;" xml:space="preserve"><tspan y="190.267" x="441.337" id="tspan3469" >Back</tspan></text>



  </g>
  
    
<style type="text/css"> 
<![CDATA[ .symbol {stroke-width:0; fill:#fff} .outer {stroke-width:0; fill:#fff;} .main {fill:#000} .char {fill:#fff} .pentacle, .q {stroke-width:0; fill:#fc0fc0;} ]]>
<!--#fc0fc0--> 
</style> 
<g transform="translate(152, 72) scale(0.4)" class="main">
<path d=" M 53.611712554211 4.6435723141058  L 52.11749975294 0.044858174595277  A 50,50 0 0,1 96.855819746257,32.549150281253  L 92.020445548491 32.549150281253  A 45.5,45.5 0 0,0 53.611712554211,4.6435723141058 " class="outer" />
<path d=" M 94.252606664588 39.419035800588  L 98.164506564743 36.576874157826  A 50,50 0 0,1 81.075988926865,89.169923566652  L 79.581776125593 84.571209427142  A 45.5,45.5 0 0,0 94.252606664588,39.419035800588 " class="outer" />
<path d=" M 73.737902455284 88.817032176912  L 77.649802355439 91.659193819674  A 50,50 0 0,1 22.350197644561,91.659193819674  L 26.262097544716 88.817032176912  A 45.5,45.5 0 0,0 73.737902455284,88.817032176912 " class="outer" />
<path d=" M 20.418223874407 84.571209427142  L 18.924011073135 89.169923566652  A 50,50 0 0,1 1.8354934352572,36.576874157826  L 5.7473933354117 39.419035800588  A 45.5,45.5 0 0,0 20.418223874407,84.571209427142 " class="outer" />
<path d=" M 7.979554451509 32.549150281253  L 3.1441802537434 32.549150281253  A 50,50 0 0,1 47.88250024706,0.044858174595298  L 46.388287445789 4.6435723141058  A 45.5,45.5 0 0,0 7.979554451509,32.549150281253 " class="outer" />
<path d="M 97.552825814758 34.549150281253  L 59.208099243548 34.549150281253  A 4,4 0 0,1 59.208099243548 37.549150281253  L 88.319775203232 37.549150281253  L 68.983186938399 51.952105968433  L 69.864864816838 54.665631459995 " class="pentacle" /> 
<path d="M 79.389262614624 90.450849718747  L 66.19336373003 49.838048963405  L 63.340194181145 50.76509994653  L 73.682923516853 82.596747752498  L 54.009564269586 68.65731755688  L 51.701301616704 70.334368540005 " class="pentacle" /> 
<path d="M 63.195898884593 40.612800755342  L 62.850297895654 39.549150281253  L 59.695911222939 39.549150281253  L 60.342729335708 41.539851738467  z" class="pentacle" /> 
<path d="M 20.610737385376 90.450849718747  L 52.609645645067 67.20228201834  L 50.84628988819 64.775231035215  L 26.317076483147 82.596747752498  L 33.494860060282 59.57875042062  L 31.1865974074 57.901699437495 " class="pentacle" /> 
<path d="M 2.4471741852423 34.549150281253  L 33.515712901402 57.121764941524  L 35.27906865828 54.694713958399  L 11.680224796768 37.549150281253  L 35.789698258595 37.262675772815  L 36.671376137034 34.549150281253 " class="pentacle" /> 
<path d="M 50 0  L 37.107274262592 39.679729751335  L 39.960443811478 40.60678073446  L 50 9.7082039324994  L 57.722690473138 32.549150281253  L 60.575860022024 32.549150281253 " class="pentacle" /> 
<path d="M 35.878274876389 57.272580586567  A 2.5,2.5 0 0,1 40.307737135469,58.066220363412  A 2.5,2.5 0 0,1 42.815689818031,59.888354645519  A 2.5,2.5 0 0,1 45.323642500593,61.710488927626  A 2.5,2.5 0 0,1 47.447217895951,65.67790969435  L 46.702689909714 66.702664553891  L 45.165557620401 65.585872574535  L 45.910085606639 64.561117714994  A 0.6,0.6 0 1,0 44.939265213389,63.855775412243  A 0.95,0.95 0 0,1 43.402132924076,62.738983432887  A 0.6,0.6 0 0,0 42.431312530826,62.033641130136  A 0.95,0.95 0 0,1 40.894180241514,60.916849150781  A 0.6,0.6 0 0,0 39.923359848264,60.21150684803  A 0.95,0.95 0 0,1 38.386227558952,59.094714868674  A 0.6,0.6 0 0,0 37.415407165702,58.389372565923  L 36.670879179465 59.414127425465  L 35.133746890152 58.297335446109  L 35.878274876389 57.272580586567 " class="symbol coil" />
<path d="M 56.377969439522 58.778521825875 L 51.523867473272 62.30523333963 L 55.168136037485 67.321138704755 L 60.022238003735 63.794427191 L 59.081781600067 62.5 L 55.522106824817 65.086255110087 L 53.75875106794 62.659204126962 L 57.31842584319 60.072949016875  z" class="symbol resistor" />
<path d="M 56.377969439522 58.778521825875 L 61.232071405771 55.25181031212 L 64.876339969985 60.267715677245 L 60.022238003735 63.794427191 L 59.081781600067 62.5 L 62.641456375317 59.913744889913 L 60.878100618439 57.486693906788 L 57.31842584319 60.072949016875  z" class="symbol resistor" />
<path d=" M 58.996541399309 48.075735614416  L 59.583673688621 49.882742995377  L 68.713816245054 46.916179849378  L 68.126683955742 45.109172468417  z" class="symbol capacitor" />
<path d=" M 58.409409109996 46.268728233455  L 57.822276820684 44.461720852495  L 66.952419377117 41.495157706495  L 67.53955166643 43.302165087456  z" class="symbol capacitor" />
<path d=" M 39.352307951157 50.568600403884  L 37.896926115433 43.721567198748  L 41.225623922466 44.80312667906  L 41.720051113466 43.281436252988  L 34.111598983105 40.809300297988  L 33.617171792105 42.33099072406  L 36.945869599138 43.412550204373  L 31.743855820796 48.096464448885  z" class="symbol diode" />
<path d=" M 42.5 36.049150281253  A 2,2 0 0,0 46.5,36.049150281253  A 2,2 0 1,0 42.5,36.049150281253  z" class="symbol switch" />
<path d=" M 46.559281037942 29.591322129196  L 53.581587253734 35.48373668488  A 2,2 0 1,0 54.610047429232,34.25806557589  L 47.58774121344 28.365651020206  z" class="symbol switch" />
<path class="char o" d="	M 35.015423245614,82.596453947368 C 33.185760964912,82.596453947368 31.560472368421,84.182813596491 31.560472368421,85.963814473684 C 31.560472368421,87.258203070175 32.582360964912,88.241162719298 33.915678508772,88.241162719298 C 35.745340789474,88.241162719298 37.390094298246,86.674267982456 37.390094298246,84.932195175438 C 37.390094298246,83.579413596491 36.397402192982,82.596453947368 35.015423245614,82.596453947368 M 34.791581140351,83.783789035088 C 35.521499561404,83.783789035088 36.056775,84.348260964912 36.056775,85.107375877193 C 36.056775,86.109797807018 35.151674122807,87.053827631579 34.178449561403,87.053827631579 C 33.43879868421,87.053827631579 32.893791666667,86.499088157895 32.893791666667,85.739972368421 C 32.893791666667,84.718087280702 33.79889254386,83.783789035088 34.791581140351,83.783789035088" />
<path class="char q" d="	M 42.527046929825,82.717190789474 L 42.390795175439,83.408181140351 C 42.264276754386,83.15514254386 42.176685526316,83.057819736842 41.962575877193,82.911836403509 C 41.631680263158,82.697726754386 41.271585526316,82.590671491228 40.814169736842,82.590671491228 C 39.072097807017,82.590671491228 37.514934649123,84.177031140351 37.514934649123,85.938567982456 C 37.514934649123,87.301082017544 38.420036403509,88.235380263158 39.743621491228,88.235380263158 C 40.405414473684,88.235380263158 41.047744298246,88.001805701754 41.51489254386,87.593051315789 L 41.086673245614,89.909328508772 L 42.381063596491,89.909328508772 L 43.714382017544,82.717190789474 L 42.527046929825,82.717190789474 M 40.755776754386,83.778006578947 C 41.514891666667,83.778006578947 42.020969736842,84.313282017544 42.020969736842,85.121058333333 C 42.020969736842,86.142944298245 41.13533377193,87.048045175438 40.132911842105,87.048045175438 C 39.344600438596,87.048045175438 38.848253947368,86.541967105263 38.848253947368,85.743922368421 C 38.848253947368,84.673375877193 39.724158333333,83.778006578947 40.755776754386,83.778006578947" />
<path class="char l" d="	M 43.335632017544,89.906362719298 L 44.630022368421,89.906362719298 L 45.963341666667,82.714225 L 44.668951315789,82.714225 L 43.335632017544,89.906362719298" />
<path class="char t" d="	M 45.798986403509,89.902786403509 L 47.093376754386,89.902786403509 L 47.871956578947,85.688718859649 L 48.650537280702,85.688718859649 L 48.874379385965,84.51111622807 L 48.09579868421,84.51111622807 L 48.426695175439,82.71064868421 L 47.132305701754,82.71064868421 L 46.801408333333,84.51111622807 L 46.168811842105,84.51111622807 L 45.944969736842,85.688718859649 L 46.577567105263,85.688718859649 L 45.798986403509,89.902786403509" />
<path class="char esse" d="	M 51.953440789474,84.258049126053 C 50.155225,84.258049126053 48.536223245614,85.839992985702 48.536223245614,87.599328073421 C 48.536223245614,88.950420178684 49.552984649123,89.902785968158 50.99155745614,89.902785968158 C 52.206567982456,89.902785968158 53.294002192982,89.250730705 53.87720745614,88.181521055877 L 52.48500745614,88.181521055877 C 52.115644298246,88.550884213772 51.713070614035,88.713087722544 51.168746052632,88.713087722544 C 50.430019736842,88.713087722544 49.903110087719,88.27203947693 49.903110087719,87.649953512017 L 54.079709210526,87.649953512017 C 54.206070614035,87.348630705 54.25689868421,86.901507020789 54.25689868421,86.434942985702 C 54.25689868421,85.151892108509 53.304532017544,84.258049126053 51.953440789474,84.258049126053 z M 57.243799561403,84.258049126053 C 56.087109210526,84.258049126053 55.092217982456,85.151486845351 55.092217982456,86.181815792719 C 55.092217982456,86.86222193307 55.389693421053,87.167594740088 56.332541666667,87.498077196228 C 56.99350745614,87.731359652368 57.117235526316,87.82754824886 57.117235526316,88.080270178684 C 57.117235526316,88.420472810263 56.803155701754,88.713087722544 56.43379254386,88.713087722544 C 56.054709210526,88.713087722544 55.83600745614,88.482641231316 55.826287280702,88.054957020789 L 54.535338157895,88.054957020789 C 54.525617982456,88.200758775175 54.510025877193,88.327727196228 54.510025877193,88.43464824886 C 54.510025877193,89.299735968158 55.183343421053,89.902785968158 56.155352192982,89.902785968158 C 57.370362719298,89.902785968158 58.458810087719,88.88845438921 58.458810087719,87.75120438921 C 58.458810087719,87.109678950614 58.141894298246,86.786891231316 57.218486403509,86.485568424298 C 56.732482017544,86.330047371667 56.752934649123,86.325794740088 56.636294298246,86.25775438921 C 56.519653070175,86.18971316114 56.43379254386,86.086235090965 56.43379254386,85.979314038333 C 56.43379254386,85.697431582193 56.689349561403,85.447747371667 56.990672368421,85.447747371667 C 57.262834649123,85.447747371667 57.411267982456,85.596180705 57.420988157895,85.87806316114 L 58.686624122807,85.87806316114 C 58.706064473684,85.732262283947 58.711937280702,85.595573687456 58.711937280702,85.498372810263 C 58.711937280702,84.827686845351 58.040846052632,84.258049126053 57.243799561403,84.258049126053 z M 61.521649561403,84.258049126053 C 60.364959210526,84.258049126053 59.370067982456,85.151486845351 59.370067982456,86.181815792719 C 59.370067982456,86.86222193307 59.642230263158,87.167594740088 60.585078508772,87.498077196228 C 61.246044298246,87.731359652368 61.395085526316,87.82754824886 61.395085526316,88.080270178684 C 61.395085526316,88.420472810263 61.081005701754,88.713087722544 60.71164254386,88.713087722544 C 60.332559210526,88.713087722544 60.113856578947,88.482641231316 60.104137280702,88.054957020789 L 58.787875,88.054957020789 C 58.778155701754,88.200758775175 58.787875,88.327727196228 58.787875,88.43464824886 C 58.787875,89.299735968158 59.461193421053,89.902785968158 60.433202192982,89.902785968158 C 61.648212719298,89.902785968158 62.736660087719,88.88845438921 62.736660087719,87.75120438921 C 62.736660087719,87.109678950614 62.419744298246,86.786891231316 61.496336403509,86.485568424298 C 61.010332017544,86.330047371667 61.005472368421,86.325794740088 60.888831140351,86.25775438921 C 60.772189912281,86.18971316114 60.71164254386,86.086235090965 60.71164254386,85.979314038333 C 60.71164254386,85.697431582193 60.967199561403,85.447747371667 61.268522368421,85.447747371667 C 61.540684649123,85.447747371667 61.689117982456,85.596180705 61.698838157895,85.87806316114 L 62.964474122807,85.87806316114 C 62.983914473684,85.732262283947 62.989787280702,85.595573687456 62.989787280702,85.498372810263 C 62.989787280702,84.827686845351 62.318696052632,84.258049126053 61.521649561403,84.258049126053 z M 66.736069736842,84.258049126053 C 64.937853947368,84.258049126053 63.318852192982,85.839992985702 63.318852192982,87.599328073421 C 63.318852192982,88.950420178684 64.310301315789,89.902785968158 65.748874122807,89.902785968158 C 66.963884649123,89.902785968158 68.076631140351,89.250730705 68.659836403509,88.181521055877 L 67.242324122807,88.181521055877 C 66.872960964912,88.550884213772 66.470387280702,88.713087722544 65.926062719298,88.713087722544 C 65.187336403509,88.713087722544 64.685739035088,88.27203947693 64.685739035088,87.649953512017 L 68.837025877193,87.649953512017 C 68.963386403509,87.348630705 69.039527631579,86.901507020789 69.039527631579,86.434942985702 C 69.039527631579,85.151892108509 68.087161842105,84.258049126053 66.736069736842,84.258049126053 z M 51.750939035088,85.447747371667 C 52.577146052632,85.447747371667 53.028319736842,85.811035090965 53.067200438596,86.510881582193 L 50.080299561403,86.510881582193 C 50.333021491228,85.879075441842 51.00249254386,85.447747371667 51.750939035088,85.447747371667 z M 66.533567982456,85.447747371667 C 67.359775,85.447747371667 67.785636403509,85.811035090965 67.824517105263,86.510881582193 L 64.837615350877,86.510881582193 C 65.090338157895,85.879075441842 65.785121491228,85.447747371667 66.533567982456,85.447747371667 z" />
</g>   
<style type="text/css"> 
<![CDATA[ .symbol {stroke-width:0; fill:#fff} .outer {stroke-width:0; fill:#fff;} .main {fill:#000} .char {fill:#fff} .pentacle, .q {stroke-width:0; fill:#fc0fc0;} ]]>
<!--#fc0fc0--> 
</style> 
<g transform="translate(374.5, 62.5) scale(1.1)" class="main">
<path d=" M 52.178046400465 1.8492355836647  L 51.585361831028 0.025140041569685  A 50,50 0 0,1 97.039012466382,33.049150281253  L 95.121044910468 33.049150281253  A 48.2,48.2 0 0,0 52.178046400465,1.8492355836647 " class="outer" />
<path d=" M 96.467151615029 37.192040725163  L 98.018819962424 36.064687681421  A 50,50 0 0,1 80.657070332482,89.498658694053  L 80.064385763044 87.674563151958  A 48.2,48.2 0 0,0 96.467151615029,37.192040725163 " class="outer" />
<path d=" M 76.540232658018 90.235010257962  L 78.091901005412 91.362363301704  A 50,50 0 0,1 21.908098994588,91.362363301704  L 23.459767341982 90.235010257962  A 48.2,48.2 0 0,0 76.540232658018,90.235010257962 " class="outer" />
<path d=" M 19.935614236956 87.674563151958  L 19.342929667518 89.498658694053  A 50,50 0 0,1 1.9811800375763,36.064687681421  L 3.5328483849707 37.192040725163  A 48.2,48.2 0 0,0 19.935614236956,87.674563151958 " class="outer" />
<path d=" M 4.8789550895323 33.049150281253  L 2.960987533618 33.049150281253  A 50,50 0 0,1 48.414638168973,0.02514004156972  L 47.821953599535 1.8492355836647  A 48.2,48.2 0 0,0 4.8789550895323,33.049150281253 " class="outer" />
<path d="M 97.552825814758 34.549150281253  L 58.361817604251 34.549150281253  A 3,3 0 0,1 58.361817604251 36.349150281253  L 92.012995447842 36.349150281253  L 68.485207281423 53.655550153807  L 69.014214008486 55.283665448745 " class="pentacle" /> 
<path d="M 79.389262614624 90.450849718747  L 65.791641637343 48.601675492221  L 64.079739908012 49.157906082096  L 75.965459155961 85.738388538998  L 52.235608400081 68.71010396138  L 50.850650808352 69.716334551255 " class="pentacle" /> 
<path d="M 63.597620977281 41.849174226526  L 62.135474563942 37.349150281253  L 60.242842560313 37.349150281253  L 61.885719247949 42.405404816401  z" class="pentacle" /> 
<path d="M 20.610737385376 90.450849718747  L 53.418662639442 66.614496766047  L 52.360649185316 65.158266176172  L 24.034540844039 85.738388538998  L 32.896474695362 57.90793002737  L 31.511517103633 56.901699437495 " class="pentacle" /> 
<path d="M 64.744900560692 58.385503233953  L 65.781740936748 57.632194605994  L 65.196885483529 55.832194605994  L 63.686887106565 56.929272644078  z" class="pentacle" /> 
<path d="M 2.4471741852423 34.549150281253  L 33.839319699152 57.356879042441  L 34.897333153279 55.900648452566  L 7.9870045521578 36.349150281253  L 37.193831634209 36.17726557619  L 37.722838361272 34.549150281253 " class="pentacle" /> 
<path d="M 50 0  L 36.798257268217 40.63078626763  L 38.510158997549 41.187016857505  L 50 5.8249223594996  L 59.188877988925 33.549150281253  L 60.900779718257 33.549150281253 " class="pentacle" /> 
<path d="M 33.812480117159 49.820063451117  L 32.746211949318 53.101699437495  L 34.277383404352 54.214160617245  L 35.52438184649 50.376294040992  z" class="pentacle" /> 
<path d="M 35.23612194582 57.135647300358  A 2.5,2.5 0 0,1 39.723850749563,58.189350381901  A 2.5,2.5 0 0,1 42.555410229875,60.246598764924  A 2.5,2.5 0 0,1 45.386969710188,62.303847147948  A 2.5,2.5 0 0,1 47.775885358631,66.246318710892  L 47.188100106339 67.055335705267  L 45.974574614776 66.173657826828  L 46.562359867069 65.364640832453  A 1,1 0 1,0 44.944325878319,64.189070327868  A 0.75,0.75 0 0,1 43.730800386757,63.307392449429  A 1,1 0 0,0 42.112766398007,62.131821944844  A 0.75,0.75 0 0,1 40.899240906444,61.250144066406  A 1,1 0 0,0 39.281206917694,60.074573561821  A 0.75,0.75 0 0,1 38.067681426132,59.192895683382  A 1,1 0 0,0 36.449647437382,58.017325178797  L 35.86186218509 58.826342173172  L 34.648336693527 57.944664294733  L 35.23612194582 57.135647300358 " class="symbol coil" />
<path d="M 56.906976166585 59.506637120813 L 52.052874200335 63.033348634568 L 55.344471613173 67.563843803067 L 60.198573579423 64.037132289312 L 59.316895700984 62.82360679775 L 55.676319226297 65.468640433066 L 54.148077570336 63.365196247691 L 57.788654045024 60.720162612375  z" class="symbol resistor" />
<path d="M 56.906976166585 59.506637120813 L 61.761078132835 55.979925607058 L 65.052675545672 60.510420775558 L 60.198573579423 64.037132289312 L 59.316895700984 62.82360679775 L 62.957472175671 60.178573162434 L 61.429230519711 58.075128977059 L 57.788654045024 60.720162612375  z" class="symbol resistor" />
<path d=" M 59.567175309086 47.890325417791  L 60.061602500086 49.412015843864  L 69.191745056519 46.445452697864  L 68.697317865519 44.923762271792  z" class="symbol capacitor" />
<path d=" M 58.980043019773 46.08331803683  L 58.485615828773 44.561627610758  L 67.615758385207 41.595064464759  L 68.110185576207 43.116754890831  z" class="symbol capacitor" />
<path d=" M 38.78167404138 50.383190207259  L 37.326292205656 43.536157002123  L 40.654990012689 44.617716482435  L 41.149417203689 43.096026056363  L 33.540965073328 40.623890101363  L 33.046537882328 42.145580527435  L 36.375235689361 43.227140007748  L 31.173221911019 47.91105425226  z" class="symbol diode" />
<path d=" M 42.5 35.449150281253  A 2,2 0 0,0 46.5,35.449150281253  A 2,2 0 1,0 42.5,35.449150281253  z" class="symbol switch" />
<path d=" M 46.559281037942 28.991322129196  L 53.581587253734 34.88373668488  A 2,2 0 1,0 54.610047429232,33.65806557589  L 47.58774121344 27.765651020206  z" class="symbol switch" />
<path class="char o" d="	M 35.015423245614,83.946453947368 C 33.185760964912,83.946453947368 31.560472368421,85.532813596491 31.560472368421,87.313814473684 C 31.560472368421,88.608203070175 32.582360964912,89.591162719298 33.915678508772,89.591162719298 C 35.745340789474,89.591162719298 37.390094298246,88.024267982456 37.390094298246,86.282195175439 C 37.390094298246,84.929413596491 36.397402192982,83.946453947368 35.015423245614,83.946453947368 M 34.791581140351,85.133789035088 C 35.521499561404,85.133789035088 36.056775,85.698260964912 36.056775,86.457375877193 C 36.056775,87.459797807018 35.151674122807,88.403827631579 34.178449561403,88.403827631579 C 33.43879868421,88.403827631579 32.893791666667,87.849088157895 32.893791666667,87.089972368421 C 32.893791666667,86.068087280702 33.79889254386,85.133789035088 34.791581140351,85.133789035088" />
<path class="char q" d="	M 42.527046929825,84.067190789474 L 42.390795175439,84.758181140351 C 42.264276754386,84.50514254386 42.176685526316,84.407819736842 41.962575877193,84.261836403509 C 41.631680263158,84.047726754386 41.271585526316,83.940671491228 40.814169736842,83.940671491228 C 39.072097807017,83.940671491228 37.514934649123,85.527031140351 37.514934649123,87.288567982456 C 37.514934649123,88.651082017544 38.420036403509,89.585380263158 39.743621491228,89.585380263158 C 40.405414473684,89.585380263158 41.047744298246,89.351805701754 41.51489254386,88.943051315789 L 41.086673245614,91.259328508772 L 42.381063596491,91.259328508772 L 43.714382017544,84.067190789474 L 42.527046929825,84.067190789474 M 40.755776754386,85.128006578947 C 41.514891666667,85.128006578947 42.020969736842,85.663282017544 42.020969736842,86.471058333333 C 42.020969736842,87.492944298246 41.13533377193,88.398045175438 40.132911842105,88.398045175438 C 39.344600438596,88.398045175438 38.848253947368,87.891967105263 38.848253947368,87.093922368421 C 38.848253947368,86.023375877193 39.724158333333,85.128006578947 40.755776754386,85.128006578947" />
<path class="char l" d="	M 43.335632017544,91.256362719298 L 44.630022368421,91.256362719298 L 45.963341666667,84.064225 L 44.668951315789,84.064225 L 43.335632017544,91.256362719298" />
<path class="char t" d="	M 45.798986403509,91.252786403509 L 47.093376754386,91.252786403509 L 47.871956578947,87.038718859649 L 48.650537280702,87.038718859649 L 48.874379385965,85.86111622807 L 48.09579868421,85.86111622807 L 48.426695175439,84.06064868421 L 47.132305701754,84.06064868421 L 46.801408333333,85.86111622807 L 46.168811842105,85.86111622807 L 45.944969736842,87.038718859649 L 46.577567105263,87.038718859649 L 45.798986403509,91.252786403509" />
<path class="char esse" d="	M 51.953440789474,85.608049126053 C 50.155225,85.608049126053 48.536223245614,87.189992985702 48.536223245614,88.949328073421 C 48.536223245614,90.300420178684 49.552984649123,91.252785968158 50.99155745614,91.252785968158 C 52.206567982456,91.252785968158 53.294002192982,90.600730705 53.87720745614,89.531521055877 L 52.48500745614,89.531521055877 C 52.115644298246,89.900884213772 51.713070614035,90.063087722544 51.168746052632,90.063087722544 C 50.430019736842,90.063087722544 49.903110087719,89.62203947693 49.903110087719,88.999953512017 L 54.079709210526,88.999953512017 C 54.206070614035,88.698630705 54.25689868421,88.251507020789 54.25689868421,87.784942985702 C 54.25689868421,86.501892108509 53.304532017544,85.608049126053 51.953440789474,85.608049126053 z M 57.243799561403,85.608049126053 C 56.087109210526,85.608049126053 55.092217982456,86.501486845351 55.092217982456,87.531815792719 C 55.092217982456,88.21222193307 55.389693421053,88.517594740088 56.332541666667,88.848077196228 C 56.99350745614,89.081359652368 57.117235526316,89.17754824886 57.117235526316,89.430270178684 C 57.117235526316,89.770472810263 56.803155701754,90.063087722544 56.43379254386,90.063087722544 C 56.054709210526,90.063087722544 55.83600745614,89.832641231316 55.826287280702,89.404957020789 L 54.535338157895,89.404957020789 C 54.525617982456,89.550758775175 54.510025877193,89.677727196228 54.510025877193,89.78464824886 C 54.510025877193,90.649735968158 55.183343421053,91.252785968158 56.155352192982,91.252785968158 C 57.370362719298,91.252785968158 58.458810087719,90.238454389211 58.458810087719,89.101204389211 C 58.458810087719,88.459678950614 58.141894298246,88.136891231316 57.218486403509,87.835568424298 C 56.732482017544,87.680047371667 56.752934649123,87.675794740088 56.636294298246,87.60775438921 C 56.519653070175,87.53971316114 56.43379254386,87.436235090965 56.43379254386,87.329314038333 C 56.43379254386,87.047431582193 56.689349561403,86.797747371667 56.990672368421,86.797747371667 C 57.262834649123,86.797747371667 57.411267982456,86.946180705 57.420988157895,87.22806316114 L 58.686624122807,87.22806316114 C 58.706064473684,87.082262283947 58.711937280702,86.945573687456 58.711937280702,86.848372810263 C 58.711937280702,86.177686845351 58.040846052632,85.608049126053 57.243799561403,85.608049126053 z M 61.521649561403,85.608049126053 C 60.364959210526,85.608049126053 59.370067982456,86.501486845351 59.370067982456,87.531815792719 C 59.370067982456,88.21222193307 59.642230263158,88.517594740088 60.585078508772,88.848077196228 C 61.246044298246,89.081359652368 61.395085526316,89.17754824886 61.395085526316,89.430270178684 C 61.395085526316,89.770472810263 61.081005701754,90.063087722544 60.71164254386,90.063087722544 C 60.332559210526,90.063087722544 60.113856578947,89.832641231316 60.104137280702,89.404957020789 L 58.787875,89.404957020789 C 58.778155701754,89.550758775175 58.787875,89.677727196228 58.787875,89.78464824886 C 58.787875,90.649735968158 59.461193421053,91.252785968158 60.433202192982,91.252785968158 C 61.648212719298,91.252785968158 62.736660087719,90.238454389211 62.736660087719,89.101204389211 C 62.736660087719,88.459678950614 62.419744298246,88.136891231316 61.496336403509,87.835568424298 C 61.010332017544,87.680047371667 61.005472368421,87.675794740088 60.888831140351,87.60775438921 C 60.772189912281,87.53971316114 60.71164254386,87.436235090965 60.71164254386,87.329314038333 C 60.71164254386,87.047431582193 60.967199561403,86.797747371667 61.268522368421,86.797747371667 C 61.540684649123,86.797747371667 61.689117982456,86.946180705 61.698838157895,87.22806316114 L 62.964474122807,87.22806316114 C 62.983914473684,87.082262283947 62.989787280702,86.945573687456 62.989787280702,86.848372810263 C 62.989787280702,86.177686845351 62.318696052632,85.608049126053 61.521649561403,85.608049126053 z M 66.736069736842,85.608049126053 C 64.937853947368,85.608049126053 63.318852192982,87.189992985702 63.318852192982,88.949328073421 C 63.318852192982,90.300420178684 64.310301315789,91.252785968158 65.748874122807,91.252785968158 C 66.963884649123,91.252785968158 68.076631140351,90.600730705 68.659836403509,89.531521055877 L 67.242324122807,89.531521055877 C 66.872960964912,89.900884213772 66.470387280702,90.063087722544 65.926062719298,90.063087722544 C 65.187336403509,90.063087722544 64.685739035088,89.62203947693 64.685739035088,88.999953512017 L 68.837025877193,88.999953512017 C 68.963386403509,88.698630705 69.039527631579,88.251507020789 69.039527631579,87.784942985702 C 69.039527631579,86.501892108509 68.087161842105,85.608049126053 66.736069736842,85.608049126053 z M 51.750939035088,86.797747371667 C 52.577146052632,86.797747371667 53.028319736842,87.161035090965 53.067200438596,87.860881582193 L 50.080299561403,87.860881582193 C 50.333021491228,87.229075441842 51.00249254386,86.797747371667 51.750939035088,86.797747371667 z M 66.533567982456,86.797747371667 C 67.359775,86.797747371667 67.785636403509,87.161035090965 67.824517105263,87.860881582193 L 64.837615350877,87.860881582193 C 65.090338157895,87.229075441842 65.785121491228,86.797747371667 66.533567982456,86.797747371667 z" />
</g>
</svg>