<?xml version="1.0" encoding="UTF-8" standalone="no"?>
<!-- Created with Inkscape (http://www.inkscape.org/) -->
<svg xmlns:i="http://ns.adobe.com/AdobeIllustrator/10.0/" xmlns:dc="http://purl.org/dc/elements/1.1/" xmlns:cc="http://creativecommons.org/ns#" xmlns:rdf="http://www.w3.org/1999/02/22-rdf-syntax-ns#" xmlns:svg="http://www.w3.org/2000/svg" xmlns="http://www.w3.org/2000/svg" xmlns:xlink="http://www.w3.org/1999/xlink" xmlns:sodipodi="http://sodipodi.sourceforge.net/DTD/sodipodi-0.dtd" xmlns:inkscape="http://www.inkscape.org/namespaces/inkscape" width="566.64624" height="274.75391" id="svg2" sodipodi:version="0.32" inkscape:version="0.46" sodipodi:docname="Artwork_T(2d)Shirt_tshirt_i-f-freedom.svg" inkscape:output_extension="org.inkscape.output.svg.inkscape" version="1.0" >
  

  <g id="layer1" transform="translate(-38.0448, 84.2837)">
    <g id="front" transform="matrix(1.73069, 0, 0, 1.73069, -77.2431, -1005.6)" style="stroke: rgb(255, 255, 255); fill: rgb(0, 255, 255); fill-opacity: 1;">
      <path  id="path2427" d="M 67.613793,570.41735 C 92.081868,557.31693 112.96983,558.64283 133.65517,547.35529 C 144.75154,549.78633 153.01217,548.81449 160.64828,547.09322 C 184.0769,557.87959 204.67653,559.60901 226.68966,570.67942 C 224.86002,582.23888 220.8308,592.2272 214.11034,600.29322 C 205.95673,595.92328 198.24205,594.1869 190.78621,594.00356 L 190.26207,672.62425 C 158.14057,678.60698 130.91491,676.022 104.30345,672.36218 L 104.04138,594.26563 C 94.670701,593.99343 87.540944,597.4561 80.193103,600.55529 C 73.125888,590.9199 69.824253,580.74656 67.613793,570.41735 z" style="fill: rgb(0, 0, 0); fill-rule: evenodd; stroke: rgb(255, 255, 255); stroke-width: 2; stroke-linecap: butt; stroke-linejoin: miter; stroke-miterlimit: 4; stroke-dasharray: none; stroke-opacity: 1; fill-opacity: 1;"/>
      <path  id="path3199" d="M 71.282759,569.10701 C 73.497437,579.85552 77.366255,589.89387 84.910345,598.45873" style="fill: rgb(0, 0, 0); fill-rule: evenodd; stroke: rgb(255, 255, 255); stroke-width: 1px; stroke-linecap: butt; stroke-linejoin: miter; stroke-opacity: 1; fill-opacity: 1;"/>
      <path  id="path3203" d="M 105.35172,668.16908 C 133.48046,672.77351 161.60919,673.76203 189.73793,667.90701" style="fill: rgb(0, 0, 0); fill-rule: evenodd; stroke: rgb(255, 255, 255); stroke-width: 1px; stroke-linecap: butt; stroke-linejoin: miter; stroke-opacity: 1; fill-opacity: 1;"/>
      <path  id="path3205" d="M 133.3931,547.61736 C 133.16494,549.94206 135.08547,560.35018 147.28275,560.98287 C 159.21868,561.60201 161.55802,549.44684 161.17241,547.87942" style="fill: rgb(0, 0, 0); fill-rule: evenodd; stroke: rgb(255, 255, 255); stroke-width: 1px; stroke-linecap: butt; stroke-linejoin: miter; stroke-opacity: 1; fill-opacity: 1;"/>
      <path style="fill: rgb(0, 0, 0); fill-rule: evenodd; stroke: rgb(255, 255, 255); stroke-width: 1px; stroke-linecap: butt; stroke-linejoin: miter; stroke-opacity: 1; fill-opacity: 1;" d="M 128.21194,550.41871 C 127.98378,552.74341 132.78618,565.53036 146.55676,565.88077 C 160.58924,566.23784 166.33548,551.19991 165.94987,549.63249" id="path3207" />
      <path  id="path3209" d="M 134.52279,552.33459 C 143.06093,554.56783 150.60453,554.08878 159.84088,552.13274" style="fill: rgb(0, 0, 0); fill-rule: evenodd; stroke: rgb(255, 255, 255); stroke-width: 1px; stroke-linecap: butt; stroke-linejoin: miter; stroke-opacity: 1; fill-opacity: 1;"/>
      <path  id="path3213" d="M 104.16182,558.28077 C 106.73776,568.16616 110.99985,579.76968 103.89975,593.66008" style="fill: rgb(0, 0, 0); fill-rule: evenodd; stroke: rgb(255, 255, 255); stroke-width: 1px; stroke-linecap: butt; stroke-linejoin: miter; stroke-opacity: 1; fill-opacity: 1;"/>
      <path style="fill: rgb(0, 0, 0); fill-rule: evenodd; stroke: rgb(255, 255, 255); stroke-width: 1px; stroke-linecap: butt; stroke-linejoin: miter; stroke-opacity: 1; fill-opacity: 1;" d="M 190.37521,558.48262 C 187.79927,568.36801 183.53718,579.97153 190.63728,593.86193" id="path3215" />
      <path style="fill: rgb(0, 0, 0); fill-rule: evenodd; stroke: rgb(255, 255, 255); stroke-width: 1px; stroke-linecap: butt; stroke-linejoin: miter; stroke-opacity: 1; fill-opacity: 1;" d="M 223.28276,568.84494 C 221.06808,579.59345 217.19926,589.6318 209.65517,598.19666" id="path3217" />
    </g>
    <g transform="matrix(1.73069, 0, 0, 1.73069, 210.631, -1005.6)" id="back" style="stroke: rgb(255, 255, 255); fill: rgb(0, 0, 0); fill-opacity: 1;">
      <path style="fill: rgb(0, 0, 0); fill-rule: evenodd; stroke: rgb(255, 255, 255); stroke-width: 2; stroke-linecap: butt; stroke-linejoin: miter; stroke-miterlimit: 4; stroke-dasharray: none; stroke-opacity: 1; fill-opacity: 1;" d="M 67.613793,570.41735 C 92.081868,557.31693 112.96983,558.64283 133.65517,547.35529 C 144.75154,549.78633 153.01217,548.81449 160.64828,547.09322 C 184.0769,557.87959 204.67653,559.60901 226.68966,570.67942 C 224.86002,582.23888 220.8308,592.2272 214.11034,600.29322 C 205.95673,595.92328 198.24205,594.1869 190.78621,594.00356 L 190.26207,672.62425 C 158.14057,678.60698 130.91491,676.022 104.30345,672.36218 L 104.04138,594.26563 C 94.670701,593.99343 87.540944,597.4561 80.193103,600.55529 C 73.125888,590.9199 69.824253,580.74656 67.613793,570.41735 z" id="path3274" />
      <path style="fill: rgb(0, 0, 0); fill-rule: evenodd; stroke: rgb(255, 255, 255); stroke-width: 1px; stroke-linecap: butt; stroke-linejoin: miter; stroke-opacity: 1; fill-opacity: 1;" d="M 71.282759,569.10701 C 73.497437,579.85552 77.366255,589.89387 84.910345,598.45873" id="path3276" />
      <path style="fill: rgb(0, 0, 0); fill-rule: evenodd; stroke: rgb(255, 255, 255); stroke-width: 1px; stroke-linecap: butt; stroke-linejoin: miter; stroke-opacity: 1; fill-opacity: 1;" d="M 105.35172,668.16908 C 133.48046,672.77351 161.60919,673.76203 189.73793,667.90701" id="path3278" />
      <path style="fill: rgb(0, 0, 0); fill-rule: evenodd; stroke: rgb(255, 255, 255); stroke-width: 1px; stroke-linecap: butt; stroke-linejoin: miter; stroke-opacity: 1; fill-opacity: 1;" d="M 128.66915,549.91239 C 136.6767,556.10373 156.57703,556.4878 165.29082,549.71055" id="path3284" />
      <path style="fill: rgb(0, 0, 0); fill-rule: evenodd; stroke: rgb(255, 255, 255); stroke-width: 1px; stroke-linecap: butt; stroke-linejoin: miter; stroke-opacity: 1; fill-opacity: 1;" d="M 104.16182,558.28077 C 106.73776,568.16616 110.99985,579.76968 103.89975,593.66008" id="path3286" />
      <path  id="path3288" d="M 190.37521,558.48262 C 187.79927,568.36801 183.53718,579.97153 190.63728,593.86193" style="fill: rgb(0, 0, 0); fill-rule: evenodd; stroke: rgb(255, 255, 255); stroke-width: 1px; stroke-linecap: butt; stroke-linejoin: miter; stroke-opacity: 1; fill-opacity: 1;"/>
      <path  id="path3290" d="M 223.28276,568.84494 C 221.06808,579.59345 217.19926,589.6318 209.65517,598.19666" style="fill: rgb(0, 0, 0); fill-rule: evenodd; stroke: rgb(255, 255, 255); stroke-width: 1px; stroke-linecap: butt; stroke-linejoin: miter; stroke-opacity: 1; fill-opacity: 1;"/>
    </g>
    <text xml:space="preserve" style="font-size: 24.2297px; font-style: normal; font-weight: normal; fill: rgb(0, 0, 0); fill-opacity: 1; stroke: none; stroke-width: 1px; stroke-linecap: butt; stroke-linejoin: miter; stroke-opacity: 1; font-family: Bitstream Vera Sans;" x="249.702" y="-65.8749" id="text3455"><tspan  id="tspan3457" x="249.702" y="-65.8749">Male T-Shirt</tspan></text>
    <text xml:space="preserve" style="font-size: 20.7683px; font-style: normal; font-variant: normal; font-weight: normal; font-stretch: normal; fill: rgb(0, 0, 0); fill-opacity: 1; stroke: none; stroke-width: 1px; stroke-linecap: butt; stroke-linejoin: miter; stroke-opacity: 1; font-family: Liberation Sans;" x="152.393" y="190.267" id="text3463"><tspan  id="tspan3465" x="152.393" y="190.267">Front</tspan></text>
    <text id="text3467" y="190.267" x="441.337" style="font-size: 20.7683px; font-style: normal; font-variant: normal; font-weight: normal; font-stretch: normal; fill: rgb(0, 0, 0); fill-opacity: 1; stroke: none; stroke-width: 1px; stroke-linecap: butt; stroke-linejoin: miter; stroke-opacity: 1; font-family: Liberation Sans;" xml:space="preserve"><tspan y="190.267" x="441.337" id="tspan3469" >Back</tspan></text>



  </g>
  
    
<style type="text/css"> 
<![CDATA[ .symbol {stroke-width:0; fill:#fff} .outer {stroke-width:0; fill:#fff;} .main {fill:#000} .char {fill:#fff} .pentacle, .q {stroke-width:0; fill:#fc0fc0;} ]]>
<!--#fc0fc0--> 
</style> 
<g transform="translate(152, 72) scale(0.4)" class="main">
<path d=" M 53.277725279395 3.6156651767775  L 52.11749975294 0.044858174595277  A 50,50 0 0,1 96.855819746257,32.549150281253  L 93.101251073417 32.549150281253  A 46.5,46.5 0 0,0 53.277725279395,3.6156651767775  z M 95.126996701867 38.78375425244  L 98.164506564743 36.576874157826  A 50,50 0 0,1 81.075988926865,89.169923566652  L 79.915763400409 85.59911656447  A 46.5,46.5 0 0,0 95.126996701867,38.78375425244  z M 74.612292492564 89.452313725059  L 77.649802355439 91.659193819674  A 50,50 0 0,1 22.350197644561,91.659193819674  L 25.387707507436 89.452313725059  A 46.5,46.5 0 0,0 74.612292492564,89.452313725059  z M 20.084236599591 85.59911656447  L 18.924011073135 89.169923566652  A 50,50 0 0,1 1.8354934352572,36.576874157826  L 4.8730032981326 38.78375425244  A 46.5,46.5 0 0,0 20.084236599591,85.59911656447  z M 6.8987489265834 32.549150281253  L 3.1441802537434 32.549150281253  A 50,50 0 0,1 47.88250024706,0.044858174595298  L 46.722274720605 3.6156651767775  A 46.5,46.5 0 0,0 6.8987489265834,32.549150281253  z " class="outer" />
<path d=" M 97.552825814758 34.549150281253  L 59.208099243548 34.549150281253  A 4,4 0 0,1 59.208099243548 37.549150281253  L 88.319775203232 37.549150281253  L 68.983186938399 51.952105968433  L 69.864864816838 54.665631459995  z M 79.389262614624 90.450849718747  L 66.19336373003 49.838048963405  L 63.340194181145 50.76509994653  L 73.682923516853 82.596747752498  L 54.009564269586 68.65731755688  L 51.701301616704 70.334368540005  z M 63.195898884593 40.612800755342  L 62.850297895654 39.549150281253  L 59.695911222939 39.549150281253  L 60.342729335708 41.539851738467  z M 20.610737385376 90.450849718747  L 52.609645645067 67.20228201834  L 50.84628988819 64.775231035215  L 26.317076483147 82.596747752498  L 33.494860060282 59.57875042062  L 31.1865974074 57.901699437495  z M 2.4471741852423 34.549150281253  L 33.475262051683 57.092375678909  L 35.238617808561 54.665324695784  L 11.680224796768 37.549150281253  L 35.789698258595 37.262675772815  L 36.671376137034 34.549150281253  z M 50 0  L 37.107274262592 39.679729751335  L 39.960443811478 40.60678073446  L 50 9.7082039324994  L 57.722690473138 32.549150281253  L 60.575860022024 32.549150281253  z " class="pentacle" /> 
<path d="M 36.43680518853 56.418764482066  A 2.4,2.4 0 0,1 40.724335390269,57.322691895736  A 2.4,2.4 0 0,1 43.313189772268,59.203604703072  A 2.4,2.4 0 0,1 45.902044154268,61.084517510408  A 2.4,2.4 0 0,1 48.08664990753,64.882872115077  L 46.743140759433 66.732053816506  L 45.448713568433 65.791597412838  L 46.79222271653 63.942415711409  A 0.8,0.8 0 1,0 45.49779552553,63.001959307741  A 0.8,0.8 0 0,1 44.20336833453,62.061502904073  A 0.8,0.8 0 0,0 42.90894114353,61.121046500406  A 0.8,0.8 0 0,1 41.61451395253,60.180590096738  A 0.8,0.8 0 0,0 40.32008676153,59.24013369307  A 0.8,0.8 0 0,1 39.02565957053,58.299677289402  A 0.8,0.8 0 0,0 37.73123237953,57.359220885734  L 36.387723231433 59.208402587162  L 35.093296040433 58.267946183494  L 36.43680518853 56.418764482066 " class="symbol coil" />
<path d=" M 56.377969439522 58.778521825875 L 51.523867473272 62.30523333963 L 55.168136037485 67.321138704755 L 60.022238003735 63.794427191 L 59.081781600067 62.5 L 55.522106824817 65.086255110087 L 53.75875106794 62.659204126962 L 57.31842584319 60.072949016875  z M 56.377969439522 58.778521825875 L 61.232071405771 55.25181031212 L 64.876339969985 60.267715677245 L 60.022238003735 63.794427191 L 59.081781600067 62.5 L 62.641456375317 59.913744889913 L 60.878100618439 57.486693906788 L 57.31842584319 60.072949016875  z" class="symbol resistor" />
<path d=" M 58.996541399309 48.075735614416  L 59.583673688621 49.882742995377  L 68.713816245054 46.916179849378  L 68.126683955742 45.109172468417  z M 58.409409109996 46.268728233455  L 57.822276820684 44.461720852495  L 66.952419377117 41.495157706495  L 67.53955166643 43.302165087456  z" class="symbol capacitor" />
<path d=" M 39.352307951157 50.568600403884  L 37.896926115433 43.721567198748  L 41.225623922466 44.80312667906  L 41.720051113466 43.281436252988  L 34.111598983105 40.809300297988  L 33.617171792105 42.33099072406  L 36.945869599138 43.412550204373  L 31.743855820796 48.096464448885  z" class="symbol diode" />
<path d=" M 42.5 36.049150281253  A 2,2 0 0,0 46.5,36.049150281253  A 2,2 0 1,0 42.5,36.049150281253  z M 46.559281037942 29.591322129196  L 53.581587253734 35.48373668488  A 2,2 0 1,0 54.610047429232,34.25806557589  L 47.58774121344 28.365651020206  z" class="symbol switch" />
<path class="char o" d="	M 35.015423245614,83.096453947368 C 33.185760964912,83.096453947368 31.560472368421,84.682813596491 31.560472368421,86.463814473684 C 31.560472368421,87.758203070175 32.582360964912,88.741162719298 33.915678508772,88.741162719298 C 35.745340789474,88.741162719298 37.390094298246,87.174267982456 37.390094298246,85.432195175438 C 37.390094298246,84.079413596491 36.397402192982,83.096453947368 35.015423245614,83.096453947368 M 34.791581140351,84.283789035088 C 35.521499561404,84.283789035088 36.056775,84.848260964912 36.056775,85.607375877193 C 36.056775,86.609797807018 35.151674122807,87.553827631579 34.178449561403,87.553827631579 C 33.43879868421,87.553827631579 32.893791666667,86.999088157895 32.893791666667,86.239972368421 C 32.893791666667,85.218087280702 33.79889254386,84.283789035088 34.791581140351,84.283789035088" />
<path class="char q" d="	M 42.527046929825,83.217190789474 L 42.390795175439,83.908181140351 C 42.264276754386,83.65514254386 42.176685526316,83.557819736842 41.962575877193,83.411836403509 C 41.631680263158,83.197726754386 41.271585526316,83.090671491228 40.814169736842,83.090671491228 C 39.072097807017,83.090671491228 37.514934649123,84.677031140351 37.514934649123,86.438567982456 C 37.514934649123,87.801082017544 38.420036403509,88.735380263158 39.743621491228,88.735380263158 C 40.405414473684,88.735380263158 41.047744298246,88.501805701754 41.51489254386,88.093051315789 L 41.086673245614,90.409328508772 L 42.381063596491,90.409328508772 L 43.714382017544,83.217190789474 L 42.527046929825,83.217190789474 M 40.755776754386,84.278006578947 C 41.514891666667,84.278006578947 42.020969736842,84.813282017544 42.020969736842,85.621058333333 C 42.020969736842,86.642944298245 41.13533377193,87.548045175438 40.132911842105,87.548045175438 C 39.344600438596,87.548045175438 38.848253947368,87.041967105263 38.848253947368,86.243922368421 C 38.848253947368,85.173375877193 39.724158333333,84.278006578947 40.755776754386,84.278006578947" />
<path class="char l" d="	M 43.335632017544,90.406362719298 L 44.630022368421,90.406362719298 L 45.963341666667,83.214225 L 44.668951315789,83.214225 L 43.335632017544,90.406362719298" />
<path class="char t" d="	M 45.798986403509,90.402786403509 L 47.093376754386,90.402786403509 L 47.871956578947,86.188718859649 L 48.650537280702,86.188718859649 L 48.874379385965,85.01111622807 L 48.09579868421,85.01111622807 L 48.426695175439,83.21064868421 L 47.132305701754,83.21064868421 L 46.801408333333,85.01111622807 L 46.168811842105,85.01111622807 L 45.944969736842,86.188718859649 L 46.577567105263,86.188718859649 L 45.798986403509,90.402786403509" />
<path class="char esse" d="	M 51.953440789474,84.758049126053 C 50.155225,84.758049126053 48.536223245614,86.339992985702 48.536223245614,88.099328073421 C 48.536223245614,89.450420178684 49.552984649123,90.402785968158 50.99155745614,90.402785968158 C 52.206567982456,90.402785968158 53.294002192982,89.750730705 53.87720745614,88.681521055877 L 52.48500745614,88.681521055877 C 52.115644298246,89.050884213772 51.713070614035,89.213087722544 51.168746052632,89.213087722544 C 50.430019736842,89.213087722544 49.903110087719,88.77203947693 49.903110087719,88.149953512017 L 54.079709210526,88.149953512017 C 54.206070614035,87.848630705 54.25689868421,87.401507020789 54.25689868421,86.934942985702 C 54.25689868421,85.651892108509 53.304532017544,84.758049126053 51.953440789474,84.758049126053 z M 57.243799561403,84.758049126053 C 56.087109210526,84.758049126053 55.092217982456,85.651486845351 55.092217982456,86.681815792719 C 55.092217982456,87.36222193307 55.389693421053,87.667594740088 56.332541666667,87.998077196228 C 56.99350745614,88.231359652368 57.117235526316,88.32754824886 57.117235526316,88.580270178684 C 57.117235526316,88.920472810263 56.803155701754,89.213087722544 56.43379254386,89.213087722544 C 56.054709210526,89.213087722544 55.83600745614,88.982641231316 55.826287280702,88.554957020789 L 54.535338157895,88.554957020789 C 54.525617982456,88.700758775175 54.510025877193,88.827727196228 54.510025877193,88.93464824886 C 54.510025877193,89.799735968158 55.183343421053,90.402785968158 56.155352192982,90.402785968158 C 57.370362719298,90.402785968158 58.458810087719,89.38845438921 58.458810087719,88.25120438921 C 58.458810087719,87.609678950614 58.141894298246,87.286891231316 57.218486403509,86.985568424298 C 56.732482017544,86.830047371667 56.752934649123,86.825794740088 56.636294298246,86.75775438921 C 56.519653070175,86.68971316114 56.43379254386,86.586235090965 56.43379254386,86.479314038333 C 56.43379254386,86.197431582193 56.689349561403,85.947747371667 56.990672368421,85.947747371667 C 57.262834649123,85.947747371667 57.411267982456,86.096180705 57.420988157895,86.37806316114 L 58.686624122807,86.37806316114 C 58.706064473684,86.232262283947 58.711937280702,86.095573687456 58.711937280702,85.998372810263 C 58.711937280702,85.327686845351 58.040846052632,84.758049126053 57.243799561403,84.758049126053 z M 61.521649561403,84.758049126053 C 60.364959210526,84.758049126053 59.370067982456,85.651486845351 59.370067982456,86.681815792719 C 59.370067982456,87.36222193307 59.642230263158,87.667594740088 60.585078508772,87.998077196228 C 61.246044298246,88.231359652368 61.395085526316,88.32754824886 61.395085526316,88.580270178684 C 61.395085526316,88.920472810263 61.081005701754,89.213087722544 60.71164254386,89.213087722544 C 60.332559210526,89.213087722544 60.113856578947,88.982641231316 60.104137280702,88.554957020789 L 58.787875,88.554957020789 C 58.778155701754,88.700758775175 58.787875,88.827727196228 58.787875,88.93464824886 C 58.787875,89.799735968158 59.461193421053,90.402785968158 60.433202192982,90.402785968158 C 61.648212719298,90.402785968158 62.736660087719,89.38845438921 62.736660087719,88.25120438921 C 62.736660087719,87.609678950614 62.419744298246,87.286891231316 61.496336403509,86.985568424298 C 61.010332017544,86.830047371667 61.005472368421,86.825794740088 60.888831140351,86.75775438921 C 60.772189912281,86.68971316114 60.71164254386,86.586235090965 60.71164254386,86.479314038333 C 60.71164254386,86.197431582193 60.967199561403,85.947747371667 61.268522368421,85.947747371667 C 61.540684649123,85.947747371667 61.689117982456,86.096180705 61.698838157895,86.37806316114 L 62.964474122807,86.37806316114 C 62.983914473684,86.232262283947 62.989787280702,86.095573687456 62.989787280702,85.998372810263 C 62.989787280702,85.327686845351 62.318696052632,84.758049126053 61.521649561403,84.758049126053 z M 66.736069736842,84.758049126053 C 64.937853947368,84.758049126053 63.318852192982,86.339992985702 63.318852192982,88.099328073421 C 63.318852192982,89.450420178684 64.310301315789,90.402785968158 65.748874122807,90.402785968158 C 66.963884649123,90.402785968158 68.076631140351,89.750730705 68.659836403509,88.681521055877 L 67.242324122807,88.681521055877 C 66.872960964912,89.050884213772 66.470387280702,89.213087722544 65.926062719298,89.213087722544 C 65.187336403509,89.213087722544 64.685739035088,88.77203947693 64.685739035088,88.149953512017 L 68.837025877193,88.149953512017 C 68.963386403509,87.848630705 69.039527631579,87.401507020789 69.039527631579,86.934942985702 C 69.039527631579,85.651892108509 68.087161842105,84.758049126053 66.736069736842,84.758049126053 z M 51.750939035088,85.947747371667 C 52.577146052632,85.947747371667 53.028319736842,86.311035090965 53.067200438596,87.010881582193 L 50.080299561403,87.010881582193 C 50.333021491228,86.379075441842 51.00249254386,85.947747371667 51.750939035088,85.947747371667 z M 66.533567982456,85.947747371667 C 67.359775,85.947747371667 67.785636403509,86.311035090965 67.824517105263,87.010881582193 L 64.837615350877,87.010881582193 C 65.090338157895,86.379075441842 65.785121491228,85.947747371667 66.533567982456,85.947747371667 z" />
</g>   
<style type="text/css"> 
<![CDATA[ .symbol {stroke-width:0; fill:#fff} .outer {stroke-width:0; fill:#fff;} .main {fill:#000} .char {fill:#fff} .pentacle, .q {stroke-width:0; fill:#fc0fc0;} ]]>
<!--#fc0fc0--> 
</style> 
<g transform="translate(374.5, 62.5) scale(1.1)" class="main">
<path d=" M 52.740677836846 3.5808370929137  L 51.585361831028 0.025140041569685  A 50,50 0 0,1 97.039012466382,33.049150281253  L 93.300331336058 33.049150281253  A 46.5,46.5 0 0,0 52.740677836846,3.5808370929137  z M 94.994163391443 38.26222931285  L 98.018819962424 36.064687681421  A 50,50 0 0,1 80.657070332482,89.498658694053  L 79.501754326663 85.942961642709  A 46.5,46.5 0 0,0 94.994163391443,38.26222931285  z M 75.067244434432 89.164821670275  L 78.091901005412 91.362363301704  A 50,50 0 0,1 21.908098994588,91.362363301704  L 24.932755565568 89.164821670275  A 46.5,46.5 0 0,0 75.067244434432,89.164821670275  z M 20.498245673337 85.942961642709  L 19.342929667518 89.498658694053  A 50,50 0 0,1 1.9811800375763,36.064687681421  L 5.0058366085569 38.26222931285  A 46.5,46.5 0 0,0 20.498245673337,85.942961642709  z M 6.6996686639416 33.049150281253  L 2.960987533618 33.049150281253  A 50,50 0 0,1 48.414638168973,0.02514004156972  L 47.259322163154 3.5808370929137  A 46.5,46.5 0 0,0 6.6996686639416,33.049150281253  z " class="outer" />
<path d=" M 97.552825814758 34.549150281253  L 57.62367605816 34.549150281253  A 2.6,2.6 0 0,1 57.62367605816 37.549150281253  L 88.319775203232 37.549150281253  L 68.132536130047 52.570139957182  L 69.014214008486 55.283665448745  z M 79.389262614624 90.450849718747  L 65.760739937905 48.506569840592  L 62.90757038902 49.433620823717  L 73.682923516853 82.596747752498  L 53.158913461233 68.03928356813  L 50.850650808352 69.716334551255  z M 63.628522676718 41.944279878155  L 62.525378199421 38.549150281253  L 59.370991526706 38.549150281253  L 60.775353127833 42.87133086128  z M 20.610737385376 90.450849718747  L 53.742269437192 66.37938266513  L 51.978913680315 63.952331682005  L 26.317076483147 82.596747752498  L 33.819779756515 58.57875042062  L 31.511517103633 56.901699437495  z M 2.4471741852423 34.549150281253  L 34.607885843808 57.915275032119  L 36.371241600686 55.488224048994  L 11.680224796768 37.549150281253  L 36.841160482833 37.262675772815  L 37.722838361272 34.549150281253  z M 50 0  L 36.674650470467 41.011208874148  L 39.527820019353 41.938259857273  L 50 9.7082039324994  L 58.047610169371 33.549150281253  L 60.900779718257 33.549150281253  z M 33.936086914909 49.439640844599  L 33.136115584798 51.901699437495  L 35.688068009854 53.755801403744  L 36.789256463794 50.366691827724  z " class="pentacle" /> 
<path d="M 36.43680518853 56.418764482066  A 2.4,2.4 0 0,1 40.724335390269,57.322691895736  A 2.4,2.4 0 0,1 43.313189772268,59.203604703072  A 2.4,2.4 0 0,1 45.902044154268,61.084517510408  A 2.4,2.4 0 0,1 48.08664990753,64.882872115077  L 46.743140759433 66.732053816506  L 45.448713568433 65.791597412838  L 46.79222271653 63.942415711409  A 0.8,0.8 0 1,0 45.49779552553,63.001959307741  A 0.8,0.8 0 0,1 44.20336833453,62.061502904073  A 0.8,0.8 0 0,0 42.90894114353,61.121046500406  A 0.8,0.8 0 0,1 41.61451395253,60.180590096738  A 0.8,0.8 0 0,0 40.32008676153,59.24013369307  A 0.8,0.8 0 0,1 39.02565957053,58.299677289402  A 0.8,0.8 0 0,0 37.73123237953,57.359220885734  L 36.387723231433 59.208402587162  L 35.093296040433 58.267946183494  L 36.43680518853 56.418764482066 " class="symbol coil" />
<path d=" M 56.377969439522 58.778521825875 L 51.523867473272 62.30523333963 L 55.168136037485 67.321138704755 L 60.022238003735 63.794427191 L 59.081781600067 62.5 L 55.522106824817 65.086255110087 L 53.75875106794 62.659204126962 L 57.31842584319 60.072949016875  z M 56.377969439522 58.778521825875 L 61.232071405771 55.25181031212 L 64.876339969985 60.267715677245 L 60.022238003735 63.794427191 L 59.081781600067 62.5 L 62.641456375317 59.913744889913 L 60.878100618439 57.486693906788 L 57.31842584319 60.072949016875  z" class="symbol resistor" />
<path d=" M 58.996541399309 48.075735614416  L 59.583673688621 49.882742995377  L 68.713816245054 46.916179849378  L 68.126683955742 45.109172468417  z M 58.409409109996 46.268728233455  L 57.822276820684 44.461720852495  L 66.952419377117 41.495157706495  L 67.53955166643 43.302165087456  z" class="symbol capacitor" />
<path d=" M 39.352307951157 50.568600403884  L 37.896926115433 43.721567198748  L 41.225623922466 44.80312667906  L 41.720051113466 43.281436252988  L 34.111598983105 40.809300297988  L 33.617171792105 42.33099072406  L 36.945869599138 43.412550204373  L 31.743855820796 48.096464448885  z" class="symbol diode" />
<path d=" M 42.5 36.049150281253  A 2,2 0 0,0 46.5,36.049150281253  A 2,2 0 1,0 42.5,36.049150281253  z M 46.559281037942 29.591322129196  L 53.581587253734 35.48373668488  A 2,2 0 1,0 54.610047429232,34.25806557589  L 47.58774121344 28.365651020206  z" class="symbol switch" />
<path class="char o" d="	M 35.015423245614,83.096453947368 C 33.185760964912,83.096453947368 31.560472368421,84.682813596491 31.560472368421,86.463814473684 C 31.560472368421,87.758203070175 32.582360964912,88.741162719298 33.915678508772,88.741162719298 C 35.745340789474,88.741162719298 37.390094298246,87.174267982456 37.390094298246,85.432195175438 C 37.390094298246,84.079413596491 36.397402192982,83.096453947368 35.015423245614,83.096453947368 M 34.791581140351,84.283789035088 C 35.521499561404,84.283789035088 36.056775,84.848260964912 36.056775,85.607375877193 C 36.056775,86.609797807018 35.151674122807,87.553827631579 34.178449561403,87.553827631579 C 33.43879868421,87.553827631579 32.893791666667,86.999088157895 32.893791666667,86.239972368421 C 32.893791666667,85.218087280702 33.79889254386,84.283789035088 34.791581140351,84.283789035088" />
<path class="char q" d="	M 42.527046929825,83.217190789474 L 42.390795175439,83.908181140351 C 42.264276754386,83.65514254386 42.176685526316,83.557819736842 41.962575877193,83.411836403509 C 41.631680263158,83.197726754386 41.271585526316,83.090671491228 40.814169736842,83.090671491228 C 39.072097807017,83.090671491228 37.514934649123,84.677031140351 37.514934649123,86.438567982456 C 37.514934649123,87.801082017544 38.420036403509,88.735380263158 39.743621491228,88.735380263158 C 40.405414473684,88.735380263158 41.047744298246,88.501805701754 41.51489254386,88.093051315789 L 41.086673245614,90.409328508772 L 42.381063596491,90.409328508772 L 43.714382017544,83.217190789474 L 42.527046929825,83.217190789474 M 40.755776754386,84.278006578947 C 41.514891666667,84.278006578947 42.020969736842,84.813282017544 42.020969736842,85.621058333333 C 42.020969736842,86.642944298245 41.13533377193,87.548045175438 40.132911842105,87.548045175438 C 39.344600438596,87.548045175438 38.848253947368,87.041967105263 38.848253947368,86.243922368421 C 38.848253947368,85.173375877193 39.724158333333,84.278006578947 40.755776754386,84.278006578947" />
<path class="char l" d="	M 43.335632017544,90.406362719298 L 44.630022368421,90.406362719298 L 45.963341666667,83.214225 L 44.668951315789,83.214225 L 43.335632017544,90.406362719298" />
<path class="char t" d="	M 45.798986403509,90.402786403509 L 47.093376754386,90.402786403509 L 47.871956578947,86.188718859649 L 48.650537280702,86.188718859649 L 48.874379385965,85.01111622807 L 48.09579868421,85.01111622807 L 48.426695175439,83.21064868421 L 47.132305701754,83.21064868421 L 46.801408333333,85.01111622807 L 46.168811842105,85.01111622807 L 45.944969736842,86.188718859649 L 46.577567105263,86.188718859649 L 45.798986403509,90.402786403509" />
<path class="char esse" d="	M 51.953440789474,84.758049126053 C 50.155225,84.758049126053 48.536223245614,86.339992985702 48.536223245614,88.099328073421 C 48.536223245614,89.450420178684 49.552984649123,90.402785968158 50.99155745614,90.402785968158 C 52.206567982456,90.402785968158 53.294002192982,89.750730705 53.87720745614,88.681521055877 L 52.48500745614,88.681521055877 C 52.115644298246,89.050884213772 51.713070614035,89.213087722544 51.168746052632,89.213087722544 C 50.430019736842,89.213087722544 49.903110087719,88.77203947693 49.903110087719,88.149953512017 L 54.079709210526,88.149953512017 C 54.206070614035,87.848630705 54.25689868421,87.401507020789 54.25689868421,86.934942985702 C 54.25689868421,85.651892108509 53.304532017544,84.758049126053 51.953440789474,84.758049126053 z M 57.243799561403,84.758049126053 C 56.087109210526,84.758049126053 55.092217982456,85.651486845351 55.092217982456,86.681815792719 C 55.092217982456,87.36222193307 55.389693421053,87.667594740088 56.332541666667,87.998077196228 C 56.99350745614,88.231359652368 57.117235526316,88.32754824886 57.117235526316,88.580270178684 C 57.117235526316,88.920472810263 56.803155701754,89.213087722544 56.43379254386,89.213087722544 C 56.054709210526,89.213087722544 55.83600745614,88.982641231316 55.826287280702,88.554957020789 L 54.535338157895,88.554957020789 C 54.525617982456,88.700758775175 54.510025877193,88.827727196228 54.510025877193,88.93464824886 C 54.510025877193,89.799735968158 55.183343421053,90.402785968158 56.155352192982,90.402785968158 C 57.370362719298,90.402785968158 58.458810087719,89.38845438921 58.458810087719,88.25120438921 C 58.458810087719,87.609678950614 58.141894298246,87.286891231316 57.218486403509,86.985568424298 C 56.732482017544,86.830047371667 56.752934649123,86.825794740088 56.636294298246,86.75775438921 C 56.519653070175,86.68971316114 56.43379254386,86.586235090965 56.43379254386,86.479314038333 C 56.43379254386,86.197431582193 56.689349561403,85.947747371667 56.990672368421,85.947747371667 C 57.262834649123,85.947747371667 57.411267982456,86.096180705 57.420988157895,86.37806316114 L 58.686624122807,86.37806316114 C 58.706064473684,86.232262283947 58.711937280702,86.095573687456 58.711937280702,85.998372810263 C 58.711937280702,85.327686845351 58.040846052632,84.758049126053 57.243799561403,84.758049126053 z M 61.521649561403,84.758049126053 C 60.364959210526,84.758049126053 59.370067982456,85.651486845351 59.370067982456,86.681815792719 C 59.370067982456,87.36222193307 59.642230263158,87.667594740088 60.585078508772,87.998077196228 C 61.246044298246,88.231359652368 61.395085526316,88.32754824886 61.395085526316,88.580270178684 C 61.395085526316,88.920472810263 61.081005701754,89.213087722544 60.71164254386,89.213087722544 C 60.332559210526,89.213087722544 60.113856578947,88.982641231316 60.104137280702,88.554957020789 L 58.787875,88.554957020789 C 58.778155701754,88.700758775175 58.787875,88.827727196228 58.787875,88.93464824886 C 58.787875,89.799735968158 59.461193421053,90.402785968158 60.433202192982,90.402785968158 C 61.648212719298,90.402785968158 62.736660087719,89.38845438921 62.736660087719,88.25120438921 C 62.736660087719,87.609678950614 62.419744298246,87.286891231316 61.496336403509,86.985568424298 C 61.010332017544,86.830047371667 61.005472368421,86.825794740088 60.888831140351,86.75775438921 C 60.772189912281,86.68971316114 60.71164254386,86.586235090965 60.71164254386,86.479314038333 C 60.71164254386,86.197431582193 60.967199561403,85.947747371667 61.268522368421,85.947747371667 C 61.540684649123,85.947747371667 61.689117982456,86.096180705 61.698838157895,86.37806316114 L 62.964474122807,86.37806316114 C 62.983914473684,86.232262283947 62.989787280702,86.095573687456 62.989787280702,85.998372810263 C 62.989787280702,85.327686845351 62.318696052632,84.758049126053 61.521649561403,84.758049126053 z M 66.736069736842,84.758049126053 C 64.937853947368,84.758049126053 63.318852192982,86.339992985702 63.318852192982,88.099328073421 C 63.318852192982,89.450420178684 64.310301315789,90.402785968158 65.748874122807,90.402785968158 C 66.963884649123,90.402785968158 68.076631140351,89.750730705 68.659836403509,88.681521055877 L 67.242324122807,88.681521055877 C 66.872960964912,89.050884213772 66.470387280702,89.213087722544 65.926062719298,89.213087722544 C 65.187336403509,89.213087722544 64.685739035088,88.77203947693 64.685739035088,88.149953512017 L 68.837025877193,88.149953512017 C 68.963386403509,87.848630705 69.039527631579,87.401507020789 69.039527631579,86.934942985702 C 69.039527631579,85.651892108509 68.087161842105,84.758049126053 66.736069736842,84.758049126053 z M 51.750939035088,85.947747371667 C 52.577146052632,85.947747371667 53.028319736842,86.311035090965 53.067200438596,87.010881582193 L 50.080299561403,87.010881582193 C 50.333021491228,86.379075441842 51.00249254386,85.947747371667 51.750939035088,85.947747371667 z M 66.533567982456,85.947747371667 C 67.359775,85.947747371667 67.785636403509,86.311035090965 67.824517105263,87.010881582193 L 64.837615350877,87.010881582193 C 65.090338157895,86.379075441842 65.785121491228,85.947747371667 66.533567982456,85.947747371667 z" />
</g>
</svg>