<?xml version="1.0" encoding="UTF-8" standalone="no"?>
<!-- Created with Inkscape (http://www.inkscape.org/) -->
<svg
   xmlns:dc="http://purl.org/dc/elements/1.1/"
   xmlns:cc="http://creativecommons.org/ns#"
   xmlns:rdf="http://www.w3.org/1999/02/22-rdf-syntax-ns#"
   xmlns:svg="http://www.w3.org/2000/svg"
   xmlns="http://www.w3.org/2000/svg"
   xmlns:sodipodi="http://sodipodi.sourceforge.net/DTD/sodipodi-0.dtd"
   xmlns:inkscape="http://www.inkscape.org/namespaces/inkscape"
   width="666"
   height="666.00006"
   id="svg2"
   sodipodi:version="0.32"
   inkscape:version="0.46"
   version="1.0"
   sodipodi:docname="oqlt_logo.svg"
   inkscape:output_extension="org.inkscape.output.svg.inkscape">
  <defs
     id="defs4">
    <marker
       inkscape:stockid="DiamondL"
       orient="auto"
       refY="0"
       refX="0"
       id="DiamondL"
       style="overflow:visible">
      <path
         id="path3283"
         d="M 0,-7.0710768 L -7.0710894,0 L 0,7.0710589 L 7.0710462,0 L 0,-7.0710768 z"
         style="fill-rule:evenodd;stroke:#000000;stroke-width:1pt;marker-start:none"
         transform="scale(0.8,0.8)" />
    </marker>
    <marker
       inkscape:stockid="Arrow2Lend"
       orient="auto"
       refY="0"
       refX="0"
       id="Arrow2Lend"
       style="overflow:visible">
      <path
         id="path3224"
         style="font-size:12px;fill-rule:evenodd;stroke-width:0.625;stroke-linejoin:round"
         d="M 8.7185878,4.0337352 L -2.2072895,0.016013256 L 8.7185884,-4.0017078 C 6.97309,-1.6296469 6.9831476,1.6157441 8.7185878,4.0337352 z"
         transform="matrix(-1.1,0,0,-1.1,-1.1,0)" />
    </marker>
    <marker
       inkscape:stockid="Tail"
       orient="auto"
       refY="0"
       refX="0"
       id="Tail"
       style="overflow:visible">
      <g
         id="g3239"
         transform="scale(-1.2,-1.2)">
        <path
           id="path3241"
           d="M -3.8048674,-3.9585227 L 0.54352094,0"
           style="fill:none;fill-rule:evenodd;stroke:#000000;stroke-width:0.80000001;stroke-linecap:round;marker-start:none;marker-end:none" />
        <path
           id="path3243"
           d="M -1.2866832,-3.9585227 L 3.0617053,0"
           style="fill:none;fill-rule:evenodd;stroke:#000000;stroke-width:0.80000001;stroke-linecap:round;marker-start:none;marker-end:none" />
        <path
           id="path3245"
           d="M 1.3053582,-3.9585227 L 5.6537466,0"
           style="fill:none;fill-rule:evenodd;stroke:#000000;stroke-width:0.80000001;stroke-linecap:round;marker-start:none;marker-end:none" />
        <path
           id="path3247"
           d="M -3.8048674,4.1775838 L 0.54352094,0.21974226"
           style="fill:none;fill-rule:evenodd;stroke:#000000;stroke-width:0.80000001;stroke-linecap:round;marker-start:none;marker-end:none" />
        <path
           id="path3249"
           d="M -1.2866832,4.1775838 L 3.0617053,0.21974226"
           style="fill:none;fill-rule:evenodd;stroke:#000000;stroke-width:0.80000001;stroke-linecap:round;marker-start:none;marker-end:none" />
        <path
           id="path3251"
           d="M 1.3053582,4.1775838 L 5.6537466,0.21974226"
           style="fill:none;fill-rule:evenodd;stroke:#000000;stroke-width:0.80000001;stroke-linecap:round;marker-start:none;marker-end:none" />
      </g>
    </marker>
    <inkscape:perspective
       sodipodi:type="inkscape:persp3d"
       inkscape:vp_x="0 : 526.18109 : 1"
       inkscape:vp_y="0 : 1000 : 0"
       inkscape:vp_z="744.09448 : 526.18109 : 1"
       inkscape:persp3d-origin="372.04724 : 350.78739 : 1"
       id="perspective10" />
  </defs>
  <sodipodi:namedview
     id="base"
     pagecolor="#000000"
     bordercolor="#666666"
     borderopacity="1.0"
     inkscape:pageopacity="1"
     inkscape:pageshadow="2"
     inkscape:zoom="1.084084"
     inkscape:cx="333"
     inkscape:cy="333.00004"
     inkscape:document-units="px"
     inkscape:current-layer="layer2"
     showgrid="true"
     inkscape:window-width="1388"
     inkscape:window-height="953"
     inkscape:window-x="0"
     inkscape:window-y="32"
     showguides="true"
     inkscape:guide-bbox="true"
     inkscape:object-nodes="true"
     inkscape:snap-intersection-line-segments="false"
     inkscape:snap-global="false" />
  <metadata
     id="metadata7">
    <rdf:RDF>
      <cc:Work
         rdf:about="">
        <dc:format>image/svg+xml</dc:format>
        <dc:type
           rdf:resource="http://purl.org/dc/dcmitype/StillImage" />
      </cc:Work>
    </rdf:RDF>
  </metadata>
  <g
     inkscape:groupmode="layer"
     id="layer2"
     inkscape:label="pentacle"
     transform="translate(8.3093483,-8.3093283)">
    <path
       d="M 235.76128,397.78939 L 24.98811,244.6368 L 297.74058,242.6227 M 365.24567,432.93938 L 137.8091,598.19999 L 324.69071,22.922568 L 414.92927,300.70379 M 422.34957,323.54567 L 511.57234,598.19999 L 290.88207,437.84142 M 348.9117,242.66891 L 627.10155,242.66891 L 403.95003,404.8159"
       style="fill:none;stroke:#ccff00;stroke-width:10px;stroke-linejoin:round;stroke-miterlimit:10;stroke-opacity:1"
       id="path2479"
       sodipodi:nodetypes="ccccccccccccc" />
  </g>
  <g
     inkscape:groupmode="layer"
     id="layer3"
     inkscape:label="font"
     transform="translate(8.3093483,-8.3093283)">
    <path
       style="font-size:110.94772339px;font-style:oblique;font-variant:normal;font-weight:bold;font-stretch:normal;text-align:start;line-height:125%;writing-mode:lr-tb;text-anchor:start;fill:#ffffff;fill-opacity:1;stroke:none;stroke-width:1px;stroke-linecap:butt;stroke-linejoin:miter;stroke-opacity:1;font-family:URW Gothic L;-inkscape-font-specification:URW Gothic L Semi-Bold Oblique"
       d="M 257.96599,547.28954 C 237.10784,547.28954 218.57955,565.37404 218.57955,585.67745 C 218.57955,600.43348 230.22908,611.63922 245.4289,611.63922 C 266.28705,611.63922 285.03724,593.77662 285.03724,573.91699 C 285.03724,558.49528 273.72055,547.28954 257.96599,547.28954 M 255.41419,560.82516 C 263.73526,560.82516 269.8374,567.26014 269.8374,575.91405 C 269.8374,587.34166 259.51925,598.1036 248.42449,598.1036 C 239.99247,598.1036 233.77939,591.77957 233.77939,583.12565 C 233.77939,571.47616 244.09754,560.82516 255.41419,560.82516"
       id="text2406" />
    <path
       style="font-size:110.94772339px;font-style:oblique;font-variant:normal;font-weight:bold;font-stretch:normal;text-align:start;line-height:125%;writing-mode:lr-tb;text-anchor:start;fill:#ffffff;fill-opacity:1;stroke:none;stroke-width:1px;stroke-linecap:butt;stroke-linejoin:miter;stroke-opacity:1;font-family:URW Gothic L;-inkscape-font-specification:URW Gothic L Semi-Bold Oblique"
       d="M 380.89861,630.58173 L 395.65466,630.58173 L 404.53047,582.54136 L 413.40629,582.54136 L 415.95809,569.11669 L 407.08227,569.11669 L 410.85449,548.59136 L 396.09845,548.59136 L 392.32622,569.11669 L 385.11462,569.11669 L 382.56282,582.54136 L 389.77443,582.54136 L 380.89861,630.58173"
       id="text2410" />
    <path
       style="font-size:110.94772339px;font-style:oblique;font-variant:normal;font-weight:bold;font-stretch:normal;text-align:start;line-height:125%;writing-mode:lr-tb;text-anchor:start;fill:#ccff00;fill-opacity:1;stroke:none;stroke-width:1px;stroke-linecap:butt;stroke-linejoin:miter;stroke-opacity:1;font-family:URW Gothic L;-inkscape-font-specification:URW Gothic L Semi-Bold Oblique"
       d="M 343.5985,548.66594 L 342.04523,556.54323 C 340.60292,553.65859 339.60438,552.54911 337.16353,550.8849 C 333.39132,548.44405 329.28624,547.22362 324.0717,547.22362 C 304.21208,547.22362 286.46042,565.30812 286.46042,585.38964 C 286.46042,600.9223 296.77858,611.5733 311.86745,611.5733 C 319.41189,611.5733 326.73445,608.91055 332.05994,604.25075 L 327.17824,630.65631 L 341.93429,630.65631 L 357.13412,548.66594 L 343.5985,548.66594 M 323.40602,560.75924 C 332.05993,560.75924 337.82922,566.86138 337.82922,576.07003 C 337.82922,587.71953 327.73297,598.03768 316.30536,598.03768 C 307.31861,598.03768 301.66026,592.26839 301.66026,583.17068 C 301.66026,570.96645 311.64557,560.75924 323.40602,560.75924"
       id="text2414" />
    <path
       style="font-size:110.94772339px;font-style:oblique;font-variant:normal;font-weight:bold;font-stretch:normal;text-align:start;line-height:125%;writing-mode:lr-tb;text-anchor:start;fill:#ffffff;fill-opacity:1;stroke:none;stroke-width:1px;stroke-linecap:butt;stroke-linejoin:miter;stroke-opacity:1;font-family:URW Gothic L;-inkscape-font-specification:URW Gothic L Semi-Bold Oblique"
       d="M 352.81637,630.6225 L 367.57242,630.6225 L 382.77226,548.63213 L 368.01621,548.63213 L 352.81637,630.6225"
       id="text5635" />
  </g>
  <g
     inkscape:groupmode="layer"
     id="layer4"
     inkscape:label="circle"
     transform="translate(8.3093483,-8.3093283)">
    <path
       sodipodi:type="arc"
       style="fill:none;fill-opacity:1;stroke:#ffffff;stroke-width:6.55687428;stroke-miterlimit:4;stroke-dasharray:none;stroke-opacity:1"
       id="path2383"
       sodipodi:cx="321.46954"
       sodipodi:cy="265.66205"
       sodipodi:rx="231.07063"
       sodipodi:ry="200.16898"
       d="M 552.54018,265.66205 A 231.07063,200.16898 0 1 1 90.398911,265.66205 A 231.07063,200.16898 0 1 1 552.54018,265.66205 z"
       transform="matrix(1.4194794,0,0,1.6386157,-131.62874,-94.008649)" />
  </g>
  <g
     inkscape:groupmode="layer"
     id="layer5"
     inkscape:label="electronics"
     transform="translate(8.3093483,-8.3093283)">
    <path
       style="fill:#ffffff;fill-opacity:1;fill-rule:evenodd;stroke:none;stroke-width:2.00000023999999987;stroke-linecap:butt;stroke-linejoin:miter;stroke-miterlimit:4;stroke-dasharray:none;stroke-opacity:1"
       id="path3444"
       d="M 245.00572,328.99819 C 209.75773,317.54541 209.75773,317.54541 209.75773,317.54541 L 209.75773,317.54541 C 237.18379,292.00174 237.18379,292.00174 237.18379,292.00174 L 245.00572,328.99819 z" />
    <rect
       style="fill:#ffffff;fill-opacity:1;stroke:none;stroke-width:1;stroke-linecap:butt;stroke-linejoin:miter;stroke-miterlimit:4;stroke-dasharray:none;stroke-opacity:1"
       id="rect3627"
       width="39.012569"
       height="9.7531414"
       x="296.71524"
       y="202.51144"
       transform="matrix(0.9510565,0.309017,-0.309017,0.9510565,0,0)" />
    <rect
       style="fill:#ffffff;fill-opacity:1;stroke:none;stroke-width:2;stroke-linecap:butt;stroke-linejoin:miter;stroke-miterlimit:4;stroke-dasharray:none;stroke-opacity:1"
       id="rect3645"
       width="39.012566"
       height="9.7531414"
       x="283.03113"
       y="430.50912"
       transform="matrix(0.9510565,-0.309017,0.309017,0.9510565,0,0)" />
    <rect
       style="fill:#ffffff;fill-opacity:1;stroke:none;stroke-width:2;stroke-linecap:butt;stroke-linejoin:miter;stroke-miterlimit:4;stroke-dasharray:none;stroke-opacity:1"
       id="rect3661"
       width="39.012566"
       height="9.7531414"
       x="283.02417"
       y="411.03247"
       transform="matrix(0.9510565,-0.309017,0.309017,0.9510565,0,0)" />
    <rect
       style="fill:none;fill-opacity:1;stroke:#ffffff;stroke-width:10.00000286000000038;stroke-linecap:butt;stroke-linejoin:miter;stroke-miterlimit:4;stroke-dasharray:none;stroke-opacity:1"
       id="rect3668"
       width="19.506281"
       height="48.765709"
       x="555.18481"
       y="-89.710999"
       transform="matrix(0.5877853,0.809017,-0.809017,0.5877853,0,0)" />
    <path
       sodipodi:type="arc"
       style="fill:#ffffff;fill-opacity:1;stroke:#ffffff;stroke-width:9.22596169;stroke-linecap:butt;stroke-linejoin:miter;stroke-miterlimit:4;stroke-dasharray:none;stroke-opacity:1"
       id="path3674"
       sodipodi:cx="305.57959"
       sodipodi:cy="273.60367"
       sodipodi:rx="5.7367883"
       sodipodi:ry="4.5894308"
       d="M 311.31638,273.60367 A 5.7367883,4.5894308 0 1 1 299.8428,273.60367 A 5.7367883,4.5894308 0 1 1 311.31638,273.60367 z"
       transform="matrix(0.9694678,0,0,1.2118346,1.8099183,-88.886551)" />
    <path
       transform="matrix(0.9694678,0,0,1.2118346,52.161373,-88.944555)"
       style="fill:#ffffff;fill-opacity:1;stroke:#ffffff;stroke-width:9.22596169;stroke-linecap:butt;stroke-linejoin:miter;stroke-miterlimit:4;stroke-opacity:1"
       d="M 311.31638,273.60367 C 311.31638,276.13703 308.7463,278.1931 305.57959,278.1931 C 302.41288,278.1931 299.8428,276.13703 299.8428,273.60367 C 299.8428,271.0703 302.41288,269.01424 305.57959,269.01424 C 308.7463,269.01424 311.31638,271.0703 311.31638,273.60367 z"
       id="path3676" />
    <path
       style="fill:none;fill-opacity:0.75;fill-rule:evenodd;stroke:#ffffff;stroke-width:10;stroke-linecap:butt;stroke-linejoin:miter;stroke-miterlimit:4;stroke-dasharray:none;stroke-opacity:1"
       d="M 312.98345,207.00948 L 348.55023,242.57626"
       id="path3691" />
    <path
       style="fill:none;fill-opacity:0.75;fill-rule:evenodd;stroke:#ffffff;stroke-width:8;stroke-linecap:round;stroke-linejoin:miter;stroke-miterlimit:4;stroke-dasharray:none;stroke-opacity:1"
       sodipodi:nodetypes="cccccccc"
       id="path3401"
       d="M 290.22896,438.56244 L 290.68365,425.65685 L 272.6443,438.41376 L 272.98357,411.28153 L 254.47295,422.70021 L 255.39352,399.58977 L 237.34057,410.33991 C 237.34057,410.33991 236.1592,396.85181 236.1592,396.85181" />
  </g>
  <g
     inkscape:label="Ebene 1"
     inkscape:groupmode="layer"
     id="layer1"
     transform="translate(8.3093483,-8.3093283)" />
</svg>
